<svg width="62" height="64" viewBox="0 0 62 64" fill="none" xmlns="http://www.w3.org/2000/svg">
<g clip-path="url(#clip0_606_90)">
<path d="M38.7448 53.8976H30.7695L40.4192 63.9332C52.21 63.0353 61.5388 52.7811 61.5388 40.2943V32H51.8249V40.2943C51.8249 47.7937 45.9558 53.8976 38.7448 53.8976Z" fill="#5082E6"/>
<path d="M51.8249 23.7118V32L61.4746 21.9644C60.6112 9.708 50.7514 0 38.7448 0H30.7695V10.1024H38.7448C45.9558 10.1024 51.8249 16.2063 51.8249 23.7118Z" fill="#FABE00"/>
<path d="M22.7998 10.1023H30.7692L21.1196 0.0727539C9.33461 0.964677 0 11.2248 0 23.7117V32.006H9.71383V23.7117C9.71383 16.2063 15.583 10.1023 22.7998 10.1023Z" fill="#E62D32"/>
<path d="M9.71414 40.2943V32L0.0703125 42.0356C0.933765 54.298 10.7935 64 22.8001 64H30.7754V53.8976H22.8001C15.5833 53.8976 9.71414 47.7937 9.71414 40.2943Z" fill="#5AD2FF"/>
</g>
<defs>
<clipPath id="clip0_606_90">
<rect width="61.5385" height="64" fill="white"/>
</clipPath>
</defs>
</svg>
