<svg width="343" height="43" viewBox="0 0 343 43" fill="none" xmlns="http://www.w3.org/2000/svg">
<path d="M5.5664 34.4902C8.4093 35.2229 14.7243 35.714 17.9256 35.9314V29.9737C15.218 29.7643 9.4048 29.3457 7.0237 28.7258C6.3548 28.5567 5.8849 27.9368 5.8849 27.2122V17.9697H0V27.2122C0 30.6499 2.2935 33.6449 5.5664 34.4902Z" fill="#5AD2FF"/>
<path d="M34.4337 1.58654C30.4361 0.556044 24.575 0.00854492 19.9961 0.00854492V5.95824C24.0893 5.95824 29.4407 6.44125 32.9684 7.35905C33.6374 7.52814 34.1072 8.15615 34.1072 8.88074V17.9863H39.9921V8.86465C40.0001 5.42685 37.7146 2.43184 34.4337 1.58654Z" fill="#FABE00"/>
<path d="M20.004 0V5.9497C15.9108 5.9497 10.5594 6.4327 7.0237 7.3425C6.3548 7.5196 5.8849 8.1395 5.8849 8.8641V17.9697L0 12.0201V8.8641C0 5.4263 2.2855 2.4314 5.5664 1.586C9.564 0.5475 15.4251 0 20.004 0Z" fill="#E62D32"/>
<path fill-rule="evenodd" clip-rule="evenodd" d="M34.4968 34.6465C34.4997 34.6455 34.5026 34.6443 34.5054 34.643C37.4997 33.2421 40.0002 31.1408 40.0002 27.212V23.9111L34.1152 17.9614V25.6102C34.1111 27.2848 33.977 27.9823 32.443 28.7499L17.9258 35.9394V43L34.4968 34.6465Z" fill="#5082E6"/>
<path fill-rule="evenodd" clip-rule="evenodd" d="M59.7324 31.9983H60H79.4673H79.7349V26.9918H79.4673H65.6479V21.2306H76.0687H76.3363V16.2241H76.0687H65.6479V11.0228H79.0815H79.3491V6H79.0815H60H59.7324V31.9983ZM85.821 6.0017V31.9919V32H86.089H103.668H103.936V26.9935H103.668H91.737V6.0017H91.469H86.089H85.821ZM131.588 6.0017H131.855H136.579H136.846V31.9919H136.579H131.215H130.947V15.0045L122.759 25.3057L122.625 25.1378L122.492 25.3057L114.32 15.0759V32H114.053H108.672H108.405V6.0017H108.672H113.486H113.754L122.626 17.1618L131.588 6.0017ZM159.458 25.8656L161.715 31.9919H161.983H167.732H168L157.657 6.0017H157.389H151.664H151.396L141.053 31.9919H141.32H147.07H147.338L149.595 25.8656H159.458ZM157.602 21.0457H151.467L154.542 12.8664L157.602 21.0457ZM181.927 29.0612C179.309 26.4358 178 23.2486 178 19.4997C178 15.7508 179.309 12.5636 181.927 9.9382C184.545 7.3127 187.723 6 191.461 6C191.505 6 191.548 6.0002 191.591 6.0006C191.637 6.0002 191.683 6 191.729 6C193.056 6 194.328 6.1893 195.546 6.5678C196.764 6.9342 197.768 7.3799 198.56 7.905C199.363 8.4301 200.064 8.9613 200.66 9.4986C201.269 10.0359 201.707 10.4938 201.975 10.8724L202.395 11.4402L200.514 13.1254C200.487 13.0797 200.454 13.0289 200.417 12.973L200.247 13.1254C200.174 13.0032 200.064 12.8445 199.918 12.6491C199.772 12.4415 199.431 12.0813 198.895 11.5684C198.359 11.0555 197.775 10.6037 197.142 10.2129C196.521 9.81 195.699 9.4436 194.676 9.1139C193.693 8.7969 192.664 8.6323 191.591 8.6201C188.656 8.6517 186.175 9.6955 184.149 11.7516C182.091 13.8397 181.062 16.4224 181.062 19.4997C181.062 22.577 182.091 25.1597 184.149 27.2479C186.176 29.3045 188.657 30.3484 191.594 30.3794C192.666 30.3678 193.693 30.2154 194.676 29.9222C195.699 29.6047 196.545 29.2261 197.215 28.7865C197.897 28.3469 198.493 27.9134 199.005 27.486C199.516 27.0464 199.881 26.6617 200.101 26.332L200.448 25.8741L200.606 26.0185L200.715 25.8741L202.578 27.5776C202.481 27.7241 202.328 27.9195 202.121 28.1637C201.927 28.3957 201.482 28.8231 200.788 29.4459C200.106 30.0687 199.382 30.6243 198.615 31.1128C197.847 31.6012 196.837 32.0408 195.583 32.4316C194.341 32.8102 193.056 32.9994 191.729 32.9994C191.683 32.9994 191.637 32.9992 191.591 32.9988C191.548 32.9992 191.505 32.9994 191.461 32.9994C187.723 32.9994 184.545 31.6867 181.927 29.0612ZM215.368 14.2437C215.32 14.243 215.272 14.2427 215.224 14.2427C214.493 14.2427 213.793 14.3526 213.123 14.5724C212.454 14.78 211.912 15.0181 211.498 15.2868C211.084 15.5432 210.694 15.8485 210.329 16.2026C210.021 16.5113 209.806 16.7365 209.683 16.8781V6.3663H209.416H207.071H206.804V32.6331H207.071H209.416H209.683V22.6869C209.683 20.9407 210.219 19.5058 211.29 18.3824C212.331 17.291 213.619 16.7298 215.154 16.6986C216.52 16.7274 217.645 17.2093 218.53 18.1442C219.443 19.0967 219.9 20.3606 219.9 21.9359V32.6331H220.167H222.512H222.779V21.9359C222.779 19.6157 222.103 17.7535 220.752 16.3492C219.412 14.9449 217.659 14.2427 215.491 14.2427C215.45 14.2427 215.409 14.243 215.368 14.2437ZM239.352 21.1849L232.429 22.3205C230.737 22.6014 229.44 23.2059 228.539 24.1339C227.638 25.0498 227.187 26.2587 227.187 27.7607C227.187 29.1284 227.796 30.3434 229.014 31.4058C230.244 32.4682 231.754 32.9994 233.544 32.9994C233.587 32.9994 233.63 32.9991 233.673 32.9984C233.719 32.9991 233.765 32.9994 233.811 32.9994C234.529 32.9994 235.223 32.9017 235.893 32.7064C236.575 32.511 237.123 32.2912 237.537 32.0469C237.951 31.7905 238.335 31.5035 238.688 31.186C239.02 30.8864 239.241 30.6724 239.352 30.5443V32.6331H239.619H241.964H242.231V21.1849C242.231 19.2189 241.555 17.5703 240.204 16.2393C238.864 14.9082 237.172 14.2427 235.126 14.2427C235.083 14.2427 235.041 14.243 234.998 14.2437C234.952 14.243 234.905 14.2427 234.859 14.2427C234.055 14.2427 233.263 14.3648 232.484 14.609C231.717 14.8411 231.096 15.1097 230.621 15.415C230.146 15.7203 229.69 16.0683 229.251 16.4591C228.825 16.8376 228.545 17.1063 228.411 17.265C228.289 17.4116 228.192 17.5337 228.119 17.6314L229.799 19.3165L229.925 19.1743L230.067 19.3165L230.633 18.6754C231.01 18.2236 231.613 17.784 232.441 17.3566C233.242 16.9377 234.092 16.7183 234.992 16.6986C236.247 16.726 237.28 17.1407 238.091 17.9428C238.932 18.7731 239.352 19.8538 239.352 21.1849ZM239.352 23.4871L233.446 24.5736C231.205 25.001 230.079 26.0633 230.067 27.7607C230.067 28.5667 230.395 29.2383 231.053 29.7756C231.697 30.2805 232.572 30.5427 233.677 30.5621C235.309 30.5335 236.653 29.9783 237.708 28.8964C238.804 27.7852 239.352 26.3442 239.352 24.5736V23.4871ZM249.617 12.759V8.6193H249.884H252.046H252.313V14.6274H255.973H256.24V17.0635H255.973H252.313V27.7607C252.313 29.5842 253.075 30.5178 254.597 30.5617C254.957 30.5528 255.312 30.5045 255.662 30.4167C256.064 30.319 256.369 30.2335 256.576 30.1603L256.904 30.0137V30.1329L257.172 30.0137V32.4499C256.429 32.8285 255.583 33.0116 254.633 32.9994C254.61 32.9994 254.586 32.9993 254.563 32.9991C254.498 33.0002 254.432 33.0003 254.365 32.9994C252.819 32.9994 251.607 32.5476 250.731 31.644C249.866 30.7281 249.434 29.4337 249.434 27.7607V17.0635H246.322H246.055V14.6274H246.322H248.119C249.117 14.6274 249.617 14.0046 249.617 12.759ZM262.797 6.3663H262.53V32.6331H262.797H270.767H271.035C274.846 32.6331 278.073 31.3448 280.715 28.7682C283.357 26.1916 284.679 23.1021 284.679 19.4997C284.679 15.8973 283.357 12.8079 280.715 10.2313C278.073 7.6546 274.846 6.3663 271.035 6.3663H270.767H262.797ZM265.61 9.004V30.0137H270.767C273.836 30.0137 276.411 28.9941 278.493 26.9548C280.576 24.9155 281.617 22.4366 281.617 19.518C281.617 16.5873 280.576 14.1023 278.493 12.063C276.411 10.0237 273.836 9.004 270.767 9.004H265.61ZM303.074 27.7206L302.932 27.5776L302.292 28.3102C301.891 28.8109 301.209 29.3116 300.247 29.8123C299.324 30.2926 298.328 30.5425 297.259 30.562C295.646 30.5316 294.235 29.9398 293.026 28.7865C291.796 27.6021 291.132 26.1981 291.035 24.5742L305.361 24.6102V24.6095L305.628 24.6102L305.811 23.2547C305.811 20.6537 304.989 18.5045 303.345 16.8071C301.701 15.0975 299.656 14.2427 297.208 14.2427C297.165 14.2427 297.122 14.243 297.079 14.2436C297.033 14.243 296.987 14.2427 296.941 14.2427C294.579 14.2427 292.521 15.1586 290.767 16.9903C289.026 18.8098 288.155 21.02 288.155 23.6211C288.155 26.2221 289.038 28.4385 290.804 30.2702C292.569 32.0897 294.676 32.9994 297.123 32.9994C297.167 32.9994 297.211 32.9991 297.255 32.9985C297.3 32.9991 297.346 32.9994 297.391 32.9994C298.292 32.9994 299.169 32.8651 300.021 32.5965C300.886 32.3156 301.586 32.0164 302.121 31.6989C302.669 31.3692 303.175 30.9968 303.637 30.5816C304.112 30.1542 304.417 29.855 304.551 29.684C304.697 29.5009 304.806 29.3604 304.879 29.2627L303.199 27.5776L303.074 27.7206ZM291.035 22.3205H302.932C302.737 20.6964 302.079 19.3532 300.959 18.2908C299.883 17.259 298.589 16.7282 297.076 16.6985C295.56 16.7289 294.235 17.2841 293.099 18.3641C291.93 19.4753 291.242 20.7941 291.035 22.3205ZM315.393 14.2437C315.438 14.2431 315.483 14.2427 315.528 14.2427C316.222 14.2427 316.898 14.3282 317.555 14.4991C318.225 14.6579 318.773 14.8594 319.199 15.1036C319.625 15.3356 320.003 15.5799 320.332 15.8363C320.672 16.0805 320.916 16.2759 321.062 16.4224L321.336 16.6972L319.455 18.5655C319.423 18.517 319.385 18.4658 319.342 18.412L319.187 18.5655C319.09 18.419 318.944 18.248 318.749 18.0527C318.566 17.8451 318.134 17.5703 317.452 17.2284C316.809 16.8941 316.122 16.7176 315.391 16.6989C314.455 16.7219 313.691 16.9839 313.099 17.4848C312.478 18.0099 312.167 18.6205 312.167 19.3165C312.167 20.037 312.502 20.6171 313.172 21.0567C313.841 21.4963 314.651 21.8504 315.601 22.1191C316.551 22.3755 317.5 22.6747 318.45 23.0166C319.4 23.3463 320.21 23.8958 320.879 24.6651C321.549 25.4222 321.884 26.3931 321.884 27.5776C321.884 29.1284 321.293 30.4228 320.112 31.4608C318.931 32.4865 317.342 32.9994 315.345 32.9994C315.302 32.9994 315.259 32.9991 315.217 32.9986C315.171 32.9991 315.124 32.9994 315.078 32.9994C314.225 32.9994 313.422 32.8895 312.667 32.6697C311.924 32.4499 311.309 32.1874 310.822 31.8821C310.335 31.5768 309.909 31.2715 309.544 30.9662C309.19 30.6487 308.929 30.3801 308.758 30.1603L308.521 29.8123L310.402 27.9439C310.431 27.988 310.467 28.0408 310.51 28.1026L310.669 27.9439C310.718 28.0172 310.785 28.1149 310.87 28.237C310.956 28.3469 311.144 28.5545 311.437 28.8598C311.741 29.1528 312.064 29.4215 312.405 29.6657C312.745 29.8977 313.184 30.1053 313.72 30.2885C314.218 30.4587 314.721 30.5499 315.229 30.5619C316.422 30.5402 317.339 30.2598 317.982 29.7207C318.664 29.1589 319.005 28.4446 319.005 27.5776C319.005 26.8327 318.664 26.2282 317.982 25.7642C317.312 25.2879 316.502 24.9155 315.553 24.6468C314.615 24.366 313.671 24.0607 312.722 23.731C311.772 23.389 310.956 22.8579 310.274 22.1374C309.604 21.4047 309.27 20.4644 309.27 19.3165C309.27 17.9611 309.836 16.7766 310.968 15.763C312.113 14.7495 313.544 14.2427 315.26 14.2427C315.305 14.2427 315.349 14.2431 315.393 14.2437ZM339.005 32.6331L332.764 23.9827L329.354 27.5776V32.6331H329.087H326.742H326.475V6.3663H326.742H329.087H329.354V23.9044L338.073 14.6274H338.341H341.251H341.519L334.596 21.9359L342.268 32.6331H342H339.272H339.005Z" fill="#233255"/>
</svg>
