<svg width="113" height="55" viewBox="0 0 113 55" fill="none" xmlns="http://www.w3.org/2000/svg">
<g clip-path="url(#clip0_535_261)">
<path fill-rule="evenodd" clip-rule="evenodd" d="M0 55H56.4681L111.73 0H0V55Z" fill="url(#paint0_linear_535_261)"/>
<path fill-rule="evenodd" clip-rule="evenodd" d="M66.3071 11H55.2724L55.3092 36.8255L45.7006 10.9914H36.1729L27.9706 32.5673C27.0985 27.0771 21.3945 25.1826 16.9064 23.7636C13.9426 22.8164 10.7971 21.4231 10.829 19.8831C10.8536 18.6193 12.5117 17.4472 15.8071 17.622C18.018 17.7405 19.9709 17.9178 23.8559 19.7853L27.6758 13.1609C24.1335 11.3666 19.2352 10.2336 15.2188 10.23H15.1942C10.5109 10.23 6.61116 11.7394 4.19394 14.2266C2.50876 15.9622 1.59985 18.1695 1.563 20.6103C1.50159 23.969 2.73845 26.3499 5.33745 28.2529C7.53358 29.854 10.3426 30.8929 12.8176 31.6555C15.8698 32.5966 18.3632 33.4155 18.3325 35.1584C18.3079 35.794 18.0671 36.388 17.6078 36.8671C16.8463 37.6493 15.6794 37.9426 14.0642 37.9744C10.9481 38.0404 8.63901 37.5528 4.95915 35.3882L1.56055 42.0982C5.23673 44.1784 9.13892 45.2222 13.5729 45.2222L14.5703 45.2149C18.4295 45.1452 21.5615 44.2249 24.05 42.2327C24.1925 42.119 24.3202 42.0041 24.4529 41.888L24.0353 44.0293L33.3455 44L35.0159 39.7442C36.7723 40.3407 38.7695 40.6706 40.8895 40.6706C42.9554 40.6706 44.8985 40.3578 46.6218 39.7955L47.7861 44L64.4905 44.0159L64.531 34.3139H68.0856C76.6773 34.3139 81.7562 29.9628 81.7562 22.6661C81.7537 14.5395 76.8161 11 66.3071 11ZM40.8895 33.0758C39.6059 33.0758 38.4022 32.8533 37.3668 32.4622L40.8502 21.5172H40.9177L44.3446 32.4928C43.3128 32.8594 42.1374 33.0758 40.8882 33.0758H40.8895ZM66.9532 26.7874H64.5286V17.9666H66.9544C70.1847 17.9666 72.7641 19.0373 72.7641 22.3202C72.7616 25.718 70.1847 26.7874 66.9544 26.7874" fill="white"/>
</g>
<defs>
<linearGradient id="paint0_linear_535_261" x1="55.865" y1="0" x2="55.865" y2="55.0012" gradientUnits="userSpaceOnUse">
<stop stop-color="#00AEEF"/>
<stop offset="0.212" stop-color="#0097DC"/>
<stop offset="0.519" stop-color="#007CC5"/>
<stop offset="0.792" stop-color="#006CB8"/>
<stop offset="1" stop-color="#0066B3"/>
</linearGradient>
<clipPath id="clip0_535_261">
<rect width="113" height="55" fill="white"/>
</clipPath>
</defs>
</svg>
