<svg width="225" height="55" viewBox="0 0 225 55" fill="none" xmlns="http://www.w3.org/2000/svg">
<g clip-path="url(#clip0_535_244)">
<path d="M88.2596 27.3216V36.7246H85.024V27.5347C85.024 25.4428 83.9156 24.2293 82.1152 24.2293C80.1086 24.2293 78.8496 25.5645 78.8496 28.2306V36.7246H75.6142V27.5347C75.6142 25.4428 74.5959 24.2293 72.7955 24.2293C70.849 24.2293 69.4698 25.595 69.4698 28.2306V36.7246H66.2344V21.5589H69.4698V23.3812C70.428 21.8937 71.8674 21.1675 73.7537 21.1675C75.67 21.1675 77.0794 21.9548 78.0075 23.564C78.9957 21.9548 80.5253 21.1675 82.5921 21.1675C85.9823 21.1631 88.2596 23.5596 88.2596 27.3216Z" fill="#0F0F69"/>
<path d="M98.869 33.9932C100.218 33.9932 101.357 33.5409 102.255 32.6276C103.153 31.6882 103.604 30.5356 103.604 29.1395C103.604 27.7434 103.153 26.591 102.255 25.682C101.357 24.7425 100.218 24.2859 98.869 24.2859C97.5198 24.2859 96.3812 24.7425 95.4831 25.682C94.5851 26.591 94.134 27.7434 94.134 29.1395C94.134 30.5356 94.5851 31.6882 95.4831 32.6276C96.3812 33.5409 97.5198 33.9932 98.869 33.9932ZM103.604 21.5589H106.839V36.7246H103.604V34.5413C102.375 36.2679 100.639 37.1203 98.362 37.1203C96.2953 37.1203 94.555 36.3636 93.0855 34.8153C91.616 33.267 90.8984 31.3577 90.8984 29.1439C90.8984 26.8998 91.616 25.0208 93.0855 23.4725C94.555 21.9242 96.2909 21.1675 98.362 21.1675C100.639 21.1675 102.375 22.0156 103.604 23.7162V21.5589Z" fill="#0F0F69"/>
<path d="M116.249 27.7175C118.556 28.2351 121.551 29.205 121.491 32.4495C121.491 33.9064 120.924 35.059 119.811 35.8766C118.698 36.6943 117.323 37.1205 115.647 37.1205C112.683 37.1205 110.491 35.7853 109.533 33.5716L112.322 31.9319C112.833 33.3889 113.942 34.1152 115.647 34.1152C117.353 34.1152 118.195 33.5411 118.195 32.419C118.195 31.4492 116.937 30.8707 115.351 30.475C113.104 29.9008 110.075 28.9875 110.139 25.8039C110.139 24.4078 110.65 23.2857 111.699 22.4377C112.747 21.5895 114.066 21.1633 115.626 21.1633C118.114 21.1633 120.12 22.3463 121.169 24.3165L118.44 25.8648C117.929 24.7122 116.971 24.1338 115.622 24.1338C114.393 24.1338 113.435 24.6818 113.435 25.743C113.435 26.7476 114.689 27.2609 116.249 27.7175Z" fill="#0F0F69"/>
<path d="M132.104 24.7122H128.387V31.9928C128.387 33.9325 129.645 33.9021 132.104 33.7847V36.7247C127.157 37.3336 125.151 35.9679 125.151 31.9928V24.7122H122.393V21.5591H125.151V18.2841L128.387 17.3142V21.5591H132.104V24.7122Z" fill="#0F0F69"/>
<path d="M145.768 27.8652C145.316 25.408 143.61 24.1336 141.484 24.1336C139.085 24.1336 137.41 25.5602 136.958 27.8652H145.768ZM136.989 30.5356C137.471 32.8408 139.296 34.115 141.784 34.115C143.49 34.115 144.779 33.4757 145.651 32.2362L148.319 33.8149C146.849 36.0287 144.663 37.1203 141.758 37.1203C139.33 37.1203 137.354 36.3636 135.855 34.8762C134.355 33.3583 133.607 31.449 133.607 29.1439C133.607 26.8693 134.355 24.986 135.824 23.4725C137.294 21.9242 139.21 21.1675 141.518 21.1675C143.704 21.1675 145.501 21.9546 146.91 23.5029C148.319 25.0512 149.037 26.9606 149.037 29.1743C149.037 29.5092 149.007 29.9616 148.916 30.54H136.989V30.5356Z" fill="#0F0F69"/>
<path d="M155.117 24.1076C155.925 22.2287 157.484 21.2849 159.732 21.2849V24.8338C158.502 24.7425 157.424 25.0469 156.497 25.7429C155.569 26.4082 155.117 27.5304 155.117 29.0787V36.7246H151.881V21.5589H155.117V24.1076Z" fill="#0F0F69"/>
<path d="M168.574 33.9934C169.924 33.9934 171.062 33.5412 171.96 32.6278C172.858 31.6884 173.309 30.5359 173.309 29.1397C173.309 27.7436 172.863 26.5911 171.96 25.6822C171.062 24.7427 169.924 24.2861 168.574 24.2861C167.225 24.2861 166.086 24.7427 165.189 25.6822C164.29 26.5911 163.839 27.7436 163.839 29.1397C163.839 30.5359 164.286 31.6884 165.189 32.6278C166.086 33.5412 167.225 33.9934 168.574 33.9934ZM173.309 15.4919H176.544V36.7248H173.309V34.5415C172.08 36.2725 170.345 37.1205 168.067 37.1205C166.001 37.1205 164.261 36.3638 162.791 34.8155C161.322 33.2672 160.604 31.3579 160.604 29.1441C160.604 26.9 161.322 25.021 162.791 23.4727C164.261 21.9244 165.996 21.1677 168.067 21.1677C170.345 21.1677 172.085 22.0157 173.309 23.7164V15.4919Z" fill="#FF604A"/>
<path d="M187.454 33.9932C188.804 33.9932 189.943 33.5409 190.84 32.6276C191.737 31.6882 192.189 30.5356 192.189 29.1395C192.189 27.7434 191.743 26.591 190.84 25.682C189.943 24.7425 188.804 24.2859 187.454 24.2859C186.105 24.2859 184.966 24.7425 184.068 25.682C183.171 26.591 182.72 27.7434 182.72 29.1395C182.72 30.5356 183.171 31.6882 184.068 32.6276C184.966 33.5409 186.105 33.9932 187.454 33.9932ZM192.189 21.5589H195.425V36.7246H192.189V34.5413C190.961 36.2679 189.224 37.1203 186.948 37.1203C184.881 37.1203 183.14 36.3636 181.675 34.8153C180.205 33.267 179.488 31.3577 179.488 29.1439C179.488 26.8998 180.205 25.0208 181.675 23.4725C183.144 21.9242 184.881 21.1675 186.948 21.1675C189.224 21.1675 190.965 22.0156 192.189 23.7162V21.5589Z" fill="#FF604A"/>
<path d="M207.56 24.7122H203.843V31.9928C203.843 33.9325 205.103 33.9021 207.56 33.7847V36.7247C202.615 37.3336 200.608 35.9679 200.608 31.9928V24.7122H197.85V21.5591H200.608V18.2841L203.843 17.3142V21.5591H207.56V24.7122Z" fill="#FF604A"/>
<path d="M217.029 33.9932C218.378 33.9932 219.517 33.5409 220.414 32.6276C221.313 31.6882 221.764 30.5356 221.764 29.1395C221.764 27.7434 221.317 26.591 220.414 25.682C219.517 24.7425 218.378 24.2859 217.029 24.2859C215.68 24.2859 214.541 24.7425 213.643 25.682C212.745 26.591 212.294 27.7434 212.294 29.1395C212.294 30.5356 212.745 31.6882 213.643 32.6276C214.545 33.5409 215.684 33.9932 217.029 33.9932ZM221.764 21.5589H224.999V36.7246H221.764V34.5413C220.535 36.2679 218.799 37.1203 216.522 37.1203C214.455 37.1203 212.715 36.3636 211.25 34.8153C209.781 33.267 209.062 31.3577 209.062 29.1439C209.062 26.8998 209.781 25.0208 211.25 23.4725C212.72 21.9242 214.455 21.1675 216.522 21.1675C218.799 21.1675 220.539 22.0156 221.764 23.7162V21.5589Z" fill="#FF604A"/>
<path d="M26.7043 51.3772C26.6442 51.4033 26.5841 51.4163 26.5153 51.4163C26.4465 51.4163 26.3864 51.4033 26.3263 51.3772L4.50301 39.9822L14.8325 23.8467L26.4981 29.9052L38.2111 23.8467L48.6093 39.9387L26.7043 51.3772ZM3.54483 15.818C3.54913 15.6397 3.64795 15.4831 3.79405 15.4049C3.79834 15.4005 3.79834 15.3962 3.80264 15.3962C3.80694 15.3918 3.81123 15.3962 3.81553 15.3918L26.2961 3.64028C26.3606 3.60549 26.438 3.58808 26.5153 3.58808C26.5969 3.58808 26.6743 3.60984 26.7431 3.64898L49.2194 15.4005C49.2238 15.4005 49.228 15.4005 49.228 15.4049C49.2323 15.4049 49.2323 15.4092 49.2366 15.4136C49.3827 15.4962 49.4816 15.6527 49.4816 15.8354V15.8397V15.8441V34.8284L39.4228 19.2366L26.5068 25.9212L13.6208 19.2322L3.54483 34.9676V15.8441C3.54483 15.8397 3.54053 15.8354 3.54053 15.831C3.54483 15.8267 3.54483 15.8223 3.54483 15.818ZM53.0306 15.9006C53.0306 15.8745 53.0306 15.8528 53.0306 15.8267C53.0306 15.6962 53.0221 15.5658 53.0091 15.4397C52.8889 14.2175 52.2357 13.1172 51.2389 12.4387C51.1529 12.3778 51.0627 12.3213 50.9725 12.2691C50.9338 12.2473 50.8951 12.2256 50.8522 12.2039C50.8135 12.1821 50.7792 12.1647 50.7404 12.1473L28.4188 0.482762C28.3801 0.461015 28.3415 0.443618 28.3028 0.421873C27.7528 0.147873 27.1341 0 26.5196 0C25.9353 0 25.3509 0.130477 24.8225 0.378381C24.7665 0.404475 24.7107 0.43492 24.6548 0.461015C24.6419 0.469714 24.629 0.474063 24.6161 0.482762L2.32025 12.1386C2.27298 12.1604 2.23002 12.1821 2.18275 12.2039C1.97652 12.3126 1.77886 12.4387 1.59839 12.5866C0.708966 13.2782 0.141793 14.2958 0.0257806 15.4049C0.00859353 15.5484 0 15.6875 0 15.831C0 15.8789 0 15.9267 0.00429676 15.9789V39.0385C0 39.0863 0 39.1342 0 39.182C0 39.3125 0.00859353 39.4429 0.0214838 39.569C0.150386 40.9521 0.971068 42.1743 2.20424 42.8092L24.7064 54.5608C24.788 54.6043 24.8654 54.639 24.9514 54.6782C25.4498 54.8913 25.9782 55 26.5196 55C27.061 55 27.5896 54.8913 28.0879 54.6782C28.1696 54.6434 28.2512 54.6043 28.3328 54.5608L50.8135 42.8222C52.1025 42.1699 52.9533 40.8477 53.0306 39.3994C53.0349 39.3255 53.0392 39.2559 53.0392 39.182C53.0392 39.1603 53.0392 39.1342 53.0392 39.1081V15.9006H53.0306Z" fill="#FF604A"/>
</g>
<defs>
<clipPath id="clip0_535_244">
<rect width="225" height="55" fill="white"/>
</clipPath>
</defs>
</svg>
