<svg width="145" height="73" viewBox="0 0 145 73" fill="none" xmlns="http://www.w3.org/2000/svg">
<path d="M120.265 19.3839V31.1194C120.261 31.1868 120.261 31.2504 120.261 31.3179C120.261 24.5004 114.634 18.9714 107.688 18.9714V18.928C100.745 18.928 95.1146 24.4565 95.1146 31.274C95.1146 34.4824 94.214 37.4887 92.6591 40.0586C89.6056 45.0838 84.0156 48.4506 77.6263 48.4506C71.2329 48.4506 65.6388 45.0838 62.5938 40.0586C64.1487 37.4887 65.0495 34.4824 65.0495 31.274C65.0495 38.0956 70.6796 43.6239 77.6263 43.6239C84.5366 43.6239 90.1992 38.1233 90.1992 31.274C90.1992 28.0657 91.0918 25.0633 92.6591 22.4933C95.7044 17.4686 101.298 14.1013 107.688 14.1013V14.1449C112.627 14.1449 117.082 16.152 120.265 19.3839Z" fill="#BA1030"/>
<path d="M144.836 19.3775H135.006V14.5508H139.921C142.635 14.5508 144.836 16.7123 144.836 19.3775Z" fill="#BA1030"/>
<path d="M135.015 48.001C132.296 48.001 130.099 45.8395 130.099 43.1743C130.089 27.8957 130.091 36.4822 130.091 1.74762C132.805 1.74762 135.006 3.90885 135.006 6.57386C135.006 48.2357 135.004 41.2145 135.015 48.001Z" fill="#783291"/>
<path d="M125.179 1.74762V31.274C125.179 40.759 117.348 48.4506 107.687 48.4506C101.297 48.4506 95.7035 45.0837 92.6582 40.0586C94.2131 37.4886 95.1137 34.4824 95.1137 31.274C95.1137 38.0956 100.744 43.6239 107.687 43.6239C114.602 43.6239 120.264 38.1232 120.264 31.274V6.57386C120.264 3.9048 122.465 1.74762 125.179 1.74762Z" fill="#783291"/>
<path d="M35.0124 62.5395C35.0614 65.2722 33.9501 67.751 32.1329 69.5357C30.36 71.2847 27.8921 72.3633 25.1821 72.3633H14.7496C11.5309 72.3633 8.67929 70.8486 6.88584 68.5007C6.04589 67.406 5.90853 65.9385 6.53466 64.7129C7.15666 63.4834 8.43296 62.7101 9.83036 62.7101H9.83425C9.83425 65.3753 12.0395 67.5368 14.7496 67.5368H25.0326C27.7424 67.5368 30.0972 65.3634 30.0972 62.7063C30.0972 60.0719 27.9196 57.8834 25.1821 57.8834H7.26174C3.25498 57.8834 0.0078125 54.691 0.0078125 50.7568V50.7528C0.0078125 48.7498 2.34841 47.5961 3.99008 48.8094C4.38568 49.1068 4.79386 49.3884 5.20983 49.6544C5.02393 49.9794 4.92321 50.356 4.92321 50.7568C4.92321 52.0456 5.9811 53.057 7.26174 53.057H24.9559C30.36 53.057 34.9197 57.2369 35.0124 62.5395Z" fill="#783291"/>
<path d="M32.5293 40.0603C34.0886 37.4904 34.9851 34.4841 34.9851 31.2757C34.9851 38.0971 40.6152 43.6256 47.558 43.6256C54.4765 43.6256 60.1309 38.125 60.1309 31.2757C60.1309 28.0674 61.0276 25.065 62.5947 22.495C65.6399 17.4703 71.2336 14.103 77.6272 14.103C84.0167 14.103 89.6065 17.4703 92.6603 22.495C91.093 25.065 90.2002 28.0674 90.2002 31.2757C90.2002 24.4582 84.5662 18.9297 77.6272 18.9297C70.6803 18.9297 65.0504 24.4582 65.0504 31.2757C65.0504 34.4841 64.1496 37.4904 62.5947 40.0603C59.5414 45.085 53.9516 48.4523 47.558 48.4523C41.1644 48.4523 35.5748 45.085 32.5293 40.0603Z" fill="#783291"/>
<path d="M56.4526 8.43631C57.4123 7.4953 57.8523 6.15773 57.6353 4.8431C57.4178 3.52824 56.5696 2.39592 55.3561 1.80065C53.0065 0.648326 50.3557 0 47.5516 0C44.7439 0 42.0904 0.649901 39.7395 1.8047C38.528 2.39997 37.6819 3.53026 37.4648 4.84287C37.2476 6.15571 37.6855 7.4917 38.6425 8.43249L38.658 8.44777C40.9318 6.21079 44.0782 4.82692 47.5516 4.82692C51.0169 4.82692 54.1675 6.20696 56.4451 8.44395L56.4526 8.43631Z" fill="#783291"/>
<path d="M86.5222 8.43631C87.4821 7.4953 87.9219 6.15773 87.7046 4.8431C87.4874 3.52824 86.6394 2.39592 85.426 1.80065C83.0758 0.648326 80.4257 0 77.6213 0C74.8137 0 72.1599 0.650122 69.8086 1.80515C68.5973 2.39997 67.7512 3.53027 67.5341 4.8431C67.3169 6.15593 67.7553 7.49192 68.7124 8.43271L68.7278 8.44777C71.0015 6.21079 74.148 4.82692 77.6213 4.82692C81.0867 4.82692 84.237 6.20696 86.5148 8.44395L86.5222 8.43631Z" fill="#BA1030"/>
<path d="M30.0696 31.2757C30.0696 24.4582 24.4353 18.9297 17.4923 18.9297C10.5497 18.9297 4.91547 24.4582 4.91547 31.2757C4.91547 37.9901 10.376 43.4512 17.1734 43.6218C9.35835 43.4831 2.79488 38.3154 0.698783 31.2757C0.472599 30.4943 0.294947 29.6893 0.177734 28.8643C1.3652 20.524 8.66744 14.103 17.4923 14.103C23.882 14.103 29.476 17.4703 32.5292 22.495C30.9663 25.065 30.0696 28.0674 30.0696 31.2757Z" fill="#783291"/>
<path d="M0.177651 28.8643C0.294864 29.6893 0.472515 30.4943 0.6987 31.2757C2.7948 38.3154 9.35827 43.4831 17.1733 43.6218C17.2823 43.6256 17.3832 43.6256 17.4922 43.6256C17.6016 43.6256 17.7106 43.6256 17.8196 43.6218C24.5845 43.4552 30.0695 38.018 30.0695 31.2757C30.0695 28.0674 30.9662 25.065 32.5291 22.495C35.6286 17.4029 41.234 14.103 47.5578 14.103C53.9514 14.103 59.5412 17.4703 62.5945 22.495C61.0275 25.065 60.1307 28.0674 60.1307 31.2757C60.1307 24.4582 54.5047 18.9297 47.5578 18.9297C40.615 18.9297 34.9849 24.4582 34.9849 31.2757C34.9849 34.4841 34.0884 37.4904 32.5291 40.0603C29.4759 45.085 23.8819 48.4523 17.4922 48.4523C7.83565 48.4523 0 40.7623 0 31.2757C0 30.4586 0.0604382 29.6536 0.177651 28.8643Z" fill="#BA1030"/>
</svg>
