<svg viewBox="0 0 151 49" fill="none" xmlns="http://www.w3.org/2000/svg">
<path d="M34.5388 9.89436L24.7453 6.75354C24.1349 6.55806 23.4785 6.55806 22.8682 6.75354L13.0583 9.89436C12.9661 9.91304 12.8831 9.96293 12.8236 10.0356C12.764 10.1083 12.7314 10.1992 12.7314 10.2931C12.7314 10.3869 12.764 10.4779 12.8236 10.5505C12.8831 10.6232 12.9661 10.6731 13.0583 10.6918L22.8518 13.8489C23.464 14.0321 24.1167 14.0321 24.7289 13.8489L34.5225 10.6918C34.6147 10.6731 34.6977 10.6232 34.7572 10.5505C34.8168 10.4779 34.8493 10.3869 34.8493 10.2931C34.8493 10.1992 34.8168 10.1083 34.7572 10.0356C34.6977 9.96293 34.6147 9.91304 34.5225 9.89436M31.1763 21.8718L24.4841 19.7074C24.0642 19.5772 23.6145 19.5772 23.1946 19.7074L16.4534 21.8718C16.3798 21.8718 16.3092 21.9009 16.2572 21.9528C16.2051 22.0047 16.1759 22.0751 16.1759 22.1484C16.1759 22.2218 16.2051 22.2922 16.2572 22.3441C16.3092 22.3959 16.3798 22.4251 16.4534 22.4251L23.1946 24.5895C23.6145 24.7197 24.0642 24.7197 24.4841 24.5895L31.2253 22.4251C31.2989 22.4208 31.3678 22.3875 31.4167 22.3325C31.4657 22.2776 31.4908 22.2055 31.4865 22.1322C31.4821 22.0588 31.4488 21.9901 31.3937 21.9413C31.3386 21.8925 31.2663 21.8675 31.1927 21.8718H31.1763ZM28.0261 32.6938L24.1576 31.457C23.9197 31.3751 23.6611 31.3751 23.4231 31.457L19.5873 32.6938C19.544 32.6938 19.5025 32.7109 19.4719 32.7414C19.4413 32.7719 19.4241 32.8133 19.4241 32.8565C19.4241 32.8997 19.4413 32.941 19.4719 32.9716C19.5025 33.0021 19.544 33.0192 19.5873 33.0192L23.4558 34.256C23.6937 34.3379 23.9523 34.3379 24.1903 34.256L28.0587 33.0192C28.0802 33.0182 28.1012 33.0129 28.1206 33.0037C28.14 32.9946 28.1574 32.9817 28.1718 32.9658C28.1862 32.95 28.1973 32.9314 28.2045 32.9113C28.2117 32.8911 28.2149 32.8697 28.2138 32.8484C28.2127 32.827 28.2074 32.806 28.1983 32.7867C28.1891 32.7674 28.1761 32.75 28.1602 32.7357C28.1443 32.7213 28.1257 32.7102 28.1055 32.703C28.0853 32.6958 28.0639 32.6927 28.0424 32.6938H28.0261Z" fill="#221D44"/>
<path fill-rule="evenodd" clip-rule="evenodd" d="M40.268 11.0498L24.7452 16.0783C24.1293 16.274 23.4677 16.274 22.8518 16.0783L7.32904 11.0498C7.03523 10.9521 6.75775 11.2125 6.872 11.4566L9.77742 17.9661C9.93691 18.2961 10.1649 18.5887 10.4463 18.8244C10.7277 19.06 11.056 19.2334 11.4097 19.3331L22.8355 23.0597C23.4513 23.2554 24.113 23.2554 24.7289 23.0597L36.1547 19.3331C36.5092 19.2353 36.8385 19.0627 37.1201 18.8268C37.4018 18.5909 37.6292 18.2974 37.7869 17.9661L40.8066 11.3915C40.9209 11.1474 40.6271 10.887 40.3332 10.9847" fill="#1A3055"/>
<path fill-rule="evenodd" clip-rule="evenodd" d="M30.8657 33.2634L24.7447 35.2488C24.1288 35.4445 23.4672 35.4445 22.8513 35.2488L16.7467 33.2634C16.4528 33.1658 16.159 33.4262 16.2733 33.6865L19.195 40.196C19.3554 40.5255 19.5836 40.8175 19.8649 41.0531C20.1462 41.2886 20.4741 41.4624 20.8273 41.563L22.8513 42.3116C23.4672 42.5073 24.1288 42.5073 24.7447 42.3116L26.8177 41.6444C27.17 41.5419 27.4971 41.3675 27.7781 41.1321C28.0591 40.8968 28.2879 40.6057 28.4499 40.2774L31.3553 33.7679C31.376 33.7057 31.3784 33.6389 31.362 33.5754C31.3457 33.5119 31.3114 33.4545 31.2632 33.4099C31.2151 33.3653 31.1551 33.3354 31.0904 33.3239C31.0257 33.3124 30.959 33.3196 30.8983 33.3448" fill="#85BD46"/>
<path fill-rule="evenodd" clip-rule="evenodd" d="M35.5342 22.2298L24.745 25.7123C24.1318 25.9244 23.4648 25.9244 22.8516 25.7123L12.0787 22.2298C11.7849 22.1321 11.4911 22.3925 11.6053 22.6366L14.5271 29.1461C14.6848 29.4774 14.9122 29.7709 15.1939 30.0068C15.4755 30.2427 15.8048 30.4154 16.1593 30.5131L22.8516 32.71C23.4648 32.9221 24.1318 32.9221 24.745 32.71L31.4862 30.5293C31.8398 30.4297 32.1682 30.2563 32.4496 30.0207C32.731 29.785 32.959 29.4924 33.1185 29.1624L36.0239 22.6529C36.1381 22.4088 35.8607 22.1484 35.5668 22.2461" fill="#20656C"/>
<path d="M54.9413 14.386C54.8918 14.392 54.844 14.4078 54.8007 14.4324C54.7574 14.457 54.7195 14.4899 54.6891 14.5293C54.6587 14.5687 54.6365 14.6137 54.6237 14.6618C54.611 14.7098 54.608 14.7599 54.6148 14.8091V26.2007H58.7608C58.8098 26.2054 58.8594 26.1996 58.906 26.1835C58.9526 26.1674 58.9952 26.1415 59.0308 26.1075C59.0664 26.0735 59.0943 26.0322 59.1125 25.9865C59.1307 25.9408 59.1387 25.8918 59.1362 25.8427L59.2504 24.2153H61.1438V28.8045C61.1438 28.9509 61.1438 29.016 60.948 29.016H49.6201V27.1445C49.6201 27.0144 49.6201 26.9493 49.7997 26.9493L51.0402 26.8353C51.089 26.8314 51.1364 26.8175 51.1796 26.7946C51.2228 26.7717 51.2609 26.7403 51.2915 26.7022C51.322 26.6641 51.3445 26.6201 51.3574 26.5731C51.3703 26.526 51.3735 26.4768 51.3666 26.4285V14.8091C51.3735 14.7599 51.3705 14.7098 51.3577 14.6618C51.345 14.6137 51.3227 14.5687 51.2924 14.5293C51.262 14.4899 51.224 14.457 51.1807 14.4324C51.1374 14.4078 51.0897 14.392 51.0402 14.386L49.7997 14.2721C49.6691 14.2721 49.6201 14.2721 49.6201 14.0768V12.2053H56.4756V14.2721L54.9413 14.386Z" fill="#221D44"/>
<path d="M73.8763 12.1565C74.0068 12.1565 74.0721 12.1565 74.0721 12.3843V16.9084H72.1787L72.0645 15.281C72.067 15.2319 72.059 15.1829 72.0408 15.1372C72.0226 15.0914 71.9947 15.0502 71.9591 15.0162C71.9235 14.9822 71.8809 14.9563 71.8343 14.9402C71.7877 14.9241 71.7381 14.9183 71.689 14.923H67.69V19.1542H71.9339V21.758H67.69V26.1193H72.0645C72.1143 26.1238 72.1645 26.1179 72.2119 26.102C72.2593 26.086 72.3029 26.0604 72.3398 26.0267C72.3766 25.993 72.4061 25.9519 72.4261 25.9062C72.4462 25.8605 72.4564 25.8112 72.4562 25.7613L72.5705 24.1339H74.4639V28.8045C74.4664 28.8329 74.4626 28.8615 74.4528 28.8883C74.443 28.9151 74.4275 28.9394 74.4073 28.9596C74.387 28.9797 74.3626 28.9952 74.3357 29.005C74.3089 29.0147 74.2802 29.0185 74.2517 29.016H62.6953V27.1445C62.6953 27.0143 62.6953 26.9493 62.8749 26.9493L64.0991 26.8353C64.1492 26.8335 64.1985 26.8213 64.2436 26.7993C64.2888 26.7773 64.3288 26.7462 64.3611 26.7078C64.3934 26.6695 64.4173 26.6248 64.4312 26.5767C64.4451 26.5286 64.4487 26.4781 64.4418 26.4285V14.7928C64.4463 14.7436 64.441 14.6941 64.4261 14.6469C64.4113 14.5998 64.3873 14.5561 64.3554 14.5183C64.3235 14.4804 64.2845 14.4493 64.2405 14.4266C64.1965 14.4039 64.1484 14.3901 64.0991 14.386L62.8749 14.2721C62.7443 14.2721 62.6953 14.2721 62.6953 14.0768V12.2053L73.8763 12.1565Z" fill="#221D44"/>
<path d="M91.6507 14.3697C91.6005 14.3715 91.5512 14.3838 91.5061 14.4058C91.461 14.4277 91.421 14.4589 91.3887 14.4972C91.3564 14.5356 91.3325 14.5802 91.3186 14.6284C91.3047 14.6765 91.301 14.727 91.3079 14.7766V28.9672H88.3535L80.7635 17.9825V26.4122C80.7567 26.4605 80.7598 26.5097 80.7728 26.5568C80.7857 26.6039 80.8081 26.6478 80.8387 26.6859C80.8693 26.724 80.9073 26.7555 80.9506 26.7784C80.9938 26.8013 81.0412 26.8151 81.09 26.8191L82.3958 26.933V28.9997H76.0137V27.1283C76.0137 26.9981 76.0137 26.933 76.1932 26.933L77.4501 26.8191C77.4994 26.815 77.5475 26.8012 77.5915 26.7785C77.6355 26.7558 77.6745 26.7246 77.7064 26.6868C77.7383 26.649 77.7623 26.6053 77.7771 26.5581C77.792 26.511 77.7973 26.4614 77.7928 26.4122V14.8091C77.7996 14.7587 77.7961 14.7073 77.7823 14.6583C77.7686 14.6093 77.7449 14.5636 77.7128 14.524C77.6807 14.4844 77.6409 14.4517 77.5957 14.428C77.5505 14.4042 77.501 14.39 77.4501 14.386L76.1932 14.2721C76.0626 14.2721 76.0137 14.2721 76.0137 14.0768V12.2053H80.4861L88.3535 23.5969V14.7766C88.3535 14.5325 88.2556 14.4023 88.0271 14.3697L86.8682 14.2721C86.7539 14.2721 86.6886 14.2721 86.6886 14.0768V12.2053H93.0381V14.2721L91.6507 14.3697Z" fill="#221D44"/>
<path d="M110.683 14.3697C110.633 14.3715 110.583 14.3838 110.538 14.4058C110.493 14.4277 110.453 14.4589 110.421 14.4972C110.389 14.5356 110.365 14.5802 110.351 14.6284C110.337 14.6765 110.333 14.727 110.34 14.7766V28.9672H107.402L99.7958 17.9825V26.4122C99.7865 26.509 99.8154 26.6056 99.8763 26.6816C99.9373 26.7575 100.025 26.8068 100.122 26.8191L101.428 26.933V28.9997H95.0459V27.1283C95.0459 26.9981 95.0459 26.933 95.2254 26.933L96.4823 26.8191C96.5317 26.815 96.5797 26.8012 96.6237 26.7785C96.6677 26.7558 96.7068 26.7246 96.7386 26.6868C96.7705 26.649 96.7945 26.6053 96.8094 26.5581C96.8242 26.511 96.8295 26.4614 96.8251 26.4122V14.8091C96.8319 14.7587 96.8283 14.7073 96.8145 14.6583C96.8008 14.6093 96.7771 14.5636 96.7451 14.524C96.713 14.4844 96.6731 14.4517 96.6279 14.428C96.5828 14.4042 96.5332 14.39 96.4823 14.386L95.2254 14.2721C95.0949 14.2721 95.0459 14.2721 95.0459 14.0768V12.2053H99.5672L107.451 23.5969V14.7766C107.458 14.727 107.454 14.6765 107.44 14.6284C107.426 14.5802 107.403 14.5356 107.37 14.4972C107.338 14.4589 107.298 14.4277 107.253 14.4058C107.208 14.3838 107.158 14.3715 107.108 14.3697L105.966 14.2721C105.835 14.2721 105.786 14.2721 105.786 14.0768V12.2053H112.168V14.2721L110.683 14.3697Z" fill="#221D44"/>
<path d="M129.177 14.4347C129.128 14.4388 129.08 14.4526 129.036 14.4753C128.992 14.498 128.953 14.5292 128.921 14.567C128.889 14.6048 128.865 14.6486 128.85 14.6957C128.835 14.7428 128.83 14.7924 128.834 14.8416V22.4739C128.847 23.4091 128.698 24.3395 128.394 25.2242C128.113 26.018 127.668 26.7442 127.088 27.356C126.526 27.9623 125.834 28.435 125.064 28.7393C123.379 29.3908 121.51 29.3908 119.824 28.7393C119.059 28.4271 118.369 27.9555 117.8 27.356C117.226 26.7433 116.786 26.017 116.511 25.2242C116.194 24.3423 116.039 23.4106 116.054 22.4739V14.8416C116.063 14.7448 116.034 14.6482 115.973 14.5722C115.912 14.4963 115.824 14.447 115.727 14.4347L114.356 14.3208C114.226 14.3208 114.177 14.3208 114.177 14.1255V12.2541H121.098V14.3208L119.677 14.4347C119.629 14.4387 119.581 14.4526 119.538 14.4755C119.495 14.4984 119.457 14.5298 119.426 14.5679C119.396 14.606 119.373 14.65 119.36 14.697C119.347 14.7441 119.344 14.7933 119.351 14.8416V22.4739C119.258 23.5571 119.585 24.6346 120.265 25.4846C120.577 25.806 120.953 26.0578 121.37 26.2233C121.786 26.3888 122.233 26.4643 122.681 26.4447C123.142 26.4577 123.6 26.3779 124.029 26.2102C124.458 26.0424 124.849 25.7901 125.178 25.4683C125.531 25.0581 125.8 24.5825 125.968 24.0686C126.136 23.5547 126.2 23.0128 126.158 22.4739V14.8416C126.167 14.7448 126.138 14.6482 126.077 14.5722C126.016 14.4963 125.928 14.447 125.831 14.4347L124.346 14.3045V12.2378H130.728V14.3045L129.177 14.4347Z" fill="#221D44"/>
<path d="M143.786 12.2053C143.916 12.2053 143.982 12.2053 143.982 12.4332V16.9572H142.088L141.974 15.3299C141.974 15.102 141.827 14.9718 141.599 14.9718H137.812V19.5285H141.729V22.1323H137.812V26.7377L139.656 26.9004V28.9672H132.801V27.1445C132.801 27.0144 132.801 26.9493 132.98 26.9493L134.221 26.8353C134.449 26.8353 134.547 26.6726 134.547 26.4285V14.7928C134.554 14.7445 134.551 14.6953 134.538 14.6483C134.525 14.6012 134.503 14.5573 134.472 14.5192C134.442 14.4811 134.403 14.4496 134.36 14.4267C134.317 14.4038 134.27 14.39 134.221 14.386L132.98 14.2721C132.866 14.2721 132.801 14.2721 132.801 14.0768V12.2053H143.786Z" fill="#221D44"/>
<path d="M49.9141 37.9665V34.012H52.7868V34.4188H50.3548V35.7695H52.5257V36.1764H50.3548V37.5596H52.8195V37.9665H49.9141Z" fill="#221D44"/>
<path d="M56.1009 36.0298H54.5176V36.4854H56.1009V36.0298Z" fill="#221D44"/>
<path d="M59.8548 38.0316C59.5879 38.0376 59.3225 37.9887 59.0754 37.8879C58.8283 37.7871 58.6046 37.6366 58.4184 37.4458C58.2335 37.2503 58.0892 37.0202 57.994 36.7688C57.8987 36.5174 57.8544 36.2497 57.8635 35.9811C57.8559 35.7138 57.9027 35.4477 58.0008 35.1988C58.099 34.9499 58.2466 34.7234 58.4348 34.5328C58.6183 34.3374 58.8411 34.1828 59.0886 34.079C59.3361 33.9753 59.6027 33.9247 59.8711 33.9306C60.1621 33.9281 60.4507 33.9834 60.7199 34.0934C60.9705 34.2228 61.2014 34.3872 61.4055 34.5816L61.1117 34.8908C60.948 34.7231 60.7528 34.5893 60.5371 34.4971C60.3214 34.4049 60.0895 34.3562 59.8548 34.3538C59.6491 34.3487 59.4448 34.3883 59.256 34.4698C59.0671 34.5513 58.8983 34.6727 58.7612 34.8257C58.4766 35.1469 58.3196 35.5607 58.3196 35.9893C58.3196 36.4178 58.4766 36.8316 58.7612 37.1528C58.9003 37.3033 59.0695 37.423 59.2579 37.5043C59.4462 37.5856 59.6496 37.6266 59.8548 37.6248C60.0917 37.6299 60.3264 37.5798 60.5404 37.4783C60.7635 37.3711 60.9675 37.2281 61.1443 37.0552L61.4381 37.3644C61.236 37.5728 60.9984 37.7436 60.7362 37.8689C60.4579 37.9866 60.157 38.0421 59.8548 38.0316Z" fill="#221D44"/>
<path d="M66.5309 37.4293C66.1448 37.7993 65.63 38.0059 65.0945 38.0059C64.559 38.0059 64.0442 37.7993 63.6581 37.4293C63.2957 37.0335 63.0947 36.5169 63.0947 35.981C63.0947 35.445 63.2957 34.9284 63.6581 34.5326C64.0437 34.149 64.5661 33.9336 65.1108 33.9336C65.6555 33.9336 66.178 34.149 66.5635 34.5326C66.9345 34.9237 67.1392 35.4427 67.1348 35.981C67.1445 36.5202 66.939 37.0411 66.5635 37.4293M63.9846 37.1527C64.1299 37.304 64.3048 37.424 64.4986 37.5052C64.6923 37.5864 64.9007 37.627 65.1108 37.6246C65.3214 37.6301 65.5307 37.5908 65.7249 37.5094C65.9191 37.4281 66.0937 37.3065 66.2371 37.1527C66.3845 36.996 66.4993 36.8118 66.5749 36.6107C66.6506 36.4096 66.6855 36.1956 66.6778 35.981C66.6847 35.5507 66.5203 35.1353 66.2208 34.8255C66.0773 34.6718 65.9027 34.5501 65.7086 34.4688C65.5144 34.3874 65.3051 34.3482 65.0945 34.3536C64.8861 34.3462 64.6786 34.3846 64.4868 34.4662C64.2949 34.5478 64.1235 34.6704 63.9846 34.8255C63.691 35.1379 63.5326 35.553 63.5439 35.981C63.5194 36.4099 63.6661 36.8311 63.9519 37.1527H63.9846Z" fill="#221D44"/>
<path d="M69.0439 37.9665V34.012H69.501L70.9537 36.1764L72.4064 34.012H72.8471V37.9665H72.4064V34.7606L70.9537 36.8761H70.9374L69.4847 34.7606V37.9665H69.0439Z" fill="#221D44"/>
<path d="M74.9854 37.9665V34.012H75.4261L76.8788 36.1764L78.3315 34.012H78.7885V37.9665H78.3315V34.7606L76.8788 36.8761H76.8624L75.4097 34.7606V37.9665H74.9854Z" fill="#221D44"/>
<path d="M80.9111 37.9665V34.012H83.7839V34.4188H81.3518V35.7695H83.5227V36.1764H81.3518V37.5596H83.8165V37.9665H80.9111Z" fill="#221D44"/>
<path d="M85.71 37.9664V34.0119H87.4238C87.6283 33.9978 87.8335 34.0252 88.027 34.0923C88.2206 34.1594 88.3985 34.2649 88.5501 34.4025C88.7615 34.6209 88.8797 34.9126 88.8797 35.2161C88.8797 35.5197 88.7615 35.8114 88.5501 36.0298C88.3342 36.2356 88.0612 36.3717 87.7666 36.4204L88.9908 38.0478H88.4358L87.2769 36.5018H86.1507V38.0478L85.71 37.9664ZM86.167 36.0298H87.3749C87.6491 36.043 87.9197 35.9627 88.142 35.802C88.2325 35.7304 88.3048 35.6386 88.353 35.534C88.4012 35.4294 88.424 35.3149 88.4195 35.1999C88.426 35.0909 88.4057 34.9819 88.3601 34.8826C88.3146 34.7833 88.2453 34.6967 88.1583 34.6303C87.9395 34.4766 87.6746 34.4019 87.4075 34.4187H86.1833L86.167 36.0298Z" fill="#221D44"/>
<path d="M92.6306 38.0316C92.3658 38.0394 92.1024 37.9912 91.8577 37.8902C91.6129 37.7893 91.3924 37.6378 91.2105 37.4458C90.8435 37.049 90.6396 36.529 90.6396 35.9893C90.6396 35.4495 90.8435 34.9295 91.2105 34.5328C91.3959 34.3398 91.619 34.1868 91.8661 34.0832C92.1132 33.9796 92.3789 33.9277 92.6469 33.9307C92.9381 33.9263 93.227 33.9817 93.4957 34.0934C93.7538 34.2185 93.9907 34.3833 94.1976 34.5816L93.8874 34.8908C93.7269 34.7236 93.5344 34.5899 93.3214 34.4977C93.1084 34.4055 92.8791 34.3566 92.6469 34.3538C92.4409 34.3465 92.2359 34.3851 92.0467 34.4667C91.8575 34.5484 91.689 34.671 91.5533 34.8257C91.2687 35.1469 91.1117 35.5607 91.1117 35.9893C91.1117 36.4178 91.2687 36.8316 91.5533 37.1528C91.6911 37.305 91.8601 37.4258 92.0487 37.5072C92.2374 37.5886 92.4414 37.6287 92.6469 37.6248C92.8838 37.63 93.1186 37.5798 93.3325 37.4783C93.5532 37.3671 93.7566 37.2246 93.9364 37.0552L94.2302 37.3644C94.0282 37.5728 93.7905 37.7436 93.5283 37.8689C93.2438 37.985 92.938 38.0404 92.6306 38.0316Z" fill="#221D44"/>
<path d="M96.0098 37.9665V34.012H98.8825V34.4188H96.4505V35.7695H98.6214V36.1764H96.4505V37.5596H98.9152V37.9665H96.0098Z" fill="#221D44"/>
<path d="M104.872 38.0315C104.267 38.0376 103.682 37.8102 103.24 37.3969L103.518 37.0551C103.706 37.2337 103.92 37.3819 104.154 37.4945C104.384 37.5813 104.627 37.6254 104.872 37.6247C105.106 37.6368 105.337 37.5678 105.525 37.4294C105.603 37.374 105.666 37.3005 105.708 37.2155C105.751 37.1304 105.772 37.0363 105.77 36.9412C105.772 36.8525 105.751 36.7649 105.712 36.6856C105.672 36.6063 105.614 36.5377 105.542 36.4855C105.295 36.3278 105.016 36.2277 104.726 36.1926C104.36 36.1326 104.013 35.9876 103.714 35.7695C103.609 35.6795 103.526 35.5666 103.473 35.4395C103.419 35.3125 103.395 35.1748 103.403 35.0372C103.397 34.8879 103.426 34.7393 103.489 34.6035C103.551 34.4677 103.645 34.3486 103.763 34.256C104.029 34.0397 104.366 33.9295 104.709 33.9468C105.215 33.9422 105.706 34.115 106.097 34.4351L105.836 34.7768C105.516 34.5072 105.112 34.3576 104.693 34.3537C104.472 34.3454 104.255 34.4082 104.073 34.5327C104.001 34.5891 103.944 34.6609 103.904 34.7426C103.865 34.8243 103.844 34.9139 103.844 35.0046C103.843 35.0933 103.863 35.1809 103.903 35.2602C103.942 35.3395 104.001 35.4082 104.073 35.4603C104.33 35.6239 104.619 35.7294 104.921 35.7695C105.279 35.8314 105.619 35.9702 105.917 36.1763C106.016 36.2701 106.094 36.384 106.144 36.5104C106.195 36.6368 106.218 36.7727 106.211 36.9086C106.217 37.0641 106.186 37.2188 106.121 37.3601C106.055 37.5014 105.958 37.6255 105.836 37.7223C105.554 37.9345 105.209 38.0437 104.856 38.0315" fill="#221D44"/>
<path d="M111.45 37.4295C111.065 37.8131 110.542 38.0285 109.998 38.0285C109.453 38.0285 108.93 37.8131 108.545 37.4295C108.356 37.2395 108.208 37.013 108.11 36.764C108.011 36.515 107.965 36.2486 107.974 35.9812C107.969 35.4429 108.174 34.9239 108.545 34.5328C108.933 34.1482 109.458 33.9324 110.006 33.9324C110.553 33.9324 111.078 34.1482 111.467 34.5328C111.833 34.9255 112.032 35.4449 112.022 35.9812C112.03 36.2486 111.984 36.515 111.886 36.764C111.787 37.013 111.639 37.2395 111.45 37.4295ZM108.888 37.1529C109.19 37.4366 109.59 37.5946 110.006 37.5946C110.421 37.5946 110.821 37.4366 111.124 37.1529C111.271 36.9962 111.386 36.812 111.462 36.6109C111.537 36.4098 111.572 36.1958 111.565 35.9812C111.571 35.5509 111.407 35.1355 111.108 34.8257C110.966 34.674 110.794 34.5536 110.603 34.4723C110.412 34.391 110.205 34.3507 109.998 34.3538C109.787 34.3451 109.576 34.3829 109.382 34.4644C109.187 34.546 109.013 34.6694 108.871 34.8257C108.584 35.1407 108.431 35.5555 108.447 35.9812C108.439 36.1958 108.474 36.4098 108.55 36.6109C108.626 36.812 108.74 36.9962 108.888 37.1529Z" fill="#221D44"/>
<path d="M113.98 37.9665V34.012H116.837V34.4188H114.421V35.8346H116.576V36.2415H114.421V37.9665H113.98Z" fill="#221D44"/>
<path d="M119.742 37.9665V34.4188H118.42V34.012H121.538V34.4188H120.199V37.9665H119.742Z" fill="#221D44"/>
<path d="M124.492 37.9989L123.072 34.0119H123.562L124.705 37.2992L125.782 33.9956H126.157L127.251 37.2992L128.377 34.0119H128.85L127.43 37.9989H127.055L125.961 34.7767L124.868 37.9989H124.492Z" fill="#221D44"/>
<path d="M130.319 37.9665L132.213 33.9795H132.637L134.449 37.9665H133.845L133.372 36.925H131.25L130.793 37.9665H130.319ZM131.429 36.5182H133.241L132.343 34.5003L131.429 36.5182Z" fill="#221D44"/>
<path d="M136.146 37.9664V34.0119H137.779C137.983 33.9978 138.188 34.0252 138.382 34.0923C138.576 34.1594 138.753 34.2649 138.905 34.4025C139.116 34.6209 139.235 34.9126 139.235 35.2161C139.235 35.5197 139.116 35.8114 138.905 36.0298C138.689 36.2356 138.416 36.3717 138.122 36.4204L139.346 38.0478H138.791L137.632 36.5018H136.506V38.0478L136.146 37.9664ZM136.604 36.0298H137.828C138.091 36.0369 138.349 35.9568 138.562 35.802C138.653 35.7304 138.725 35.6386 138.773 35.534C138.821 35.4294 138.844 35.3149 138.84 35.1999C138.846 35.0909 138.826 34.9819 138.78 34.8826C138.735 34.7833 138.665 34.6967 138.579 34.6303C138.36 34.4766 138.095 34.4019 137.828 34.4187H136.604V36.0298Z" fill="#221D44"/>
<path d="M141.256 37.9665V34.012H144.129V34.4188H141.713V35.7695H143.867V36.1764H141.713V37.5596H144.161V37.9665H141.256Z" fill="#221D44"/>
</svg>
