<svg width="225" height="38" viewBox="0 0 225 38" fill="none" xmlns="http://www.w3.org/2000/svg">
<g clip-path="url(#clip0_133_303)">
<path d="M30.9931 13.3902V18.0691L36.7617 12.4015C36.5104 9.0306 34.9644 5.88544 32.4451 3.58106C29.9257 1.28447 26.6137 -6.10352e-05 23.1762 -6.10352e-05H18.3965V5.69859H23.1762C25.256 5.69859 27.2495 6.50824 28.7171 7.94847C30.1848 9.38871 31.0088 11.3506 31.0088 13.3902" fill="#FABE00"/>
<path d="M23.1762 30.4394H18.3965L24.1651 36.107C27.6026 35.8579 30.8126 34.3476 33.1593 31.872C35.5059 29.3963 36.8088 26.1421 36.8088 22.7634V18.0846H31.0088V22.7634C31.0088 24.8031 30.1848 26.7572 28.7171 28.2052C27.2495 29.6454 25.256 30.4551 23.1762 30.4551" fill="#5082E6"/>
<path d="M5.81541 22.7556V18.0768L0.046875 23.7443C0.298022 27.1153 1.84414 30.2682 4.36347 32.5648C6.88278 34.8614 10.1948 36.146 13.6402 36.146H18.4041V30.4473H13.6402C11.5604 30.4473 9.56691 29.6376 8.09927 28.1974C6.63163 26.7572 5.80756 24.7954 5.80756 22.7556" fill="#5AD2FF"/>
<path d="M13.6326 5.66767H18.3965L12.6279 0.00793457C9.19826 0.257056 5.98829 1.77514 3.64948 4.25079C1.31068 6.72643 0 9.98059 0 13.3593V18.0381H5.79993V13.3515C5.79993 11.3118 6.62401 9.35778 8.09165 7.90976C9.55929 6.46953 11.5528 5.65988 13.6326 5.65988" fill="#E62D32"/>
<path d="M61.0364 25.7451H74.4963V30.5407H55.6367V5.61298H74.1274V10.4241H61.0364V15.4144H71.247V20.2099H61.0364V25.7451Z" fill="#233255"/>
<path d="M96.5584 30.5407H79.5039V5.61298H84.9037V25.7451H96.5584V30.5407Z" fill="#233255"/>
<path d="M114.131 16.4731L122.827 5.61298H127.591V30.5407H122.206V13.9196L114.131 24.1258L106.071 13.9897V30.5407H100.671V5.61298H105.529L114.131 16.4731Z" fill="#233255"/>
<path d="M150.908 24.663H141.215L139.057 30.5407H133.312L143.201 5.61298H148.93L158.812 30.5407H153.067L150.908 24.663ZM149.119 20.0387L146.066 11.8488L142.997 20.0387H149.119Z" fill="#233255"/>
<path d="M176.442 17.1237C176.559 17.147 176.723 17.2015 176.936 17.2794C177.156 17.3494 177.54 17.5363 178.074 17.8555C178.607 18.1591 179.086 18.5172 179.494 18.9298C179.903 19.3502 180.271 19.9496 180.601 20.7359C180.938 21.5145 181.111 22.3864 181.111 23.3596C181.111 25.3292 180.334 27.0419 178.78 28.4899C177.227 29.9301 175.193 30.6463 172.682 30.6463C171.607 30.6463 170.587 30.5217 169.613 30.2648C168.64 30.0002 167.84 29.6888 167.212 29.3463C166.591 28.9881 166.042 28.6222 165.564 28.2485C165.085 27.8749 164.74 27.5634 164.527 27.3065L164.229 26.9095L166.035 25.1345C166.081 25.2046 166.16 25.3135 166.278 25.4614C166.395 25.6016 166.654 25.8429 167.062 26.1932C167.47 26.528 167.918 26.8395 168.397 27.1119C168.875 27.3766 169.496 27.6179 170.256 27.8437C171.026 28.0539 171.834 28.1551 172.674 28.1551C174.495 28.1551 175.939 27.6958 177.006 26.7849C178.066 25.8663 178.599 24.7297 178.599 23.3596C178.599 22.0283 178.05 20.8916 176.952 19.9496C175.868 19.0077 174.439 18.5406 172.674 18.5406H170.147V16.0571H172.674C174.181 16.0571 175.358 15.6601 176.213 14.8583C177.077 14.0486 177.508 12.9665 177.508 11.6041C177.508 10.4207 177.069 9.43986 176.198 8.66914C175.334 7.89063 174.158 7.50138 172.674 7.50138C171.984 7.50138 171.309 7.60259 170.641 7.79721C169.99 7.98405 169.441 8.2176 169.009 8.51343C168.577 8.79369 168.201 9.07395 167.871 9.362C167.557 9.64227 167.322 9.87581 167.172 10.0782L166.929 10.3585L165.14 8.39665C165.21 8.30323 165.312 8.17868 165.438 8.03076C165.564 7.88285 165.862 7.61036 166.333 7.2289C166.803 6.84743 167.306 6.51268 167.84 6.21685C168.373 5.91323 169.087 5.64075 169.958 5.39941C170.837 5.14251 171.74 5.01794 172.674 5.01794C174.872 5.01794 176.677 5.6641 178.089 6.94864C179.503 8.22538 180.209 9.77461 180.209 11.6041C180.209 12.4138 180.075 13.1533 179.809 13.815C179.549 14.4768 179.235 15.0062 178.859 15.3955C178.482 15.7925 178.112 16.1272 177.752 16.4075C177.398 16.6722 177.092 16.8667 176.826 16.9836L176.442 17.1237Z" fill="#233255"/>
<path d="M198.134 26.5981C199.209 25.5549 199.742 24.1847 199.742 22.4797C199.742 20.7671 199.209 19.3892 198.134 18.3459C197.058 17.3027 195.623 16.7811 193.825 16.7811C192.036 16.7811 190.599 17.3027 189.516 18.3459C188.441 19.3892 187.907 20.7671 187.907 22.4797C187.907 24.1847 188.441 25.5549 189.516 26.5981C190.599 27.6413 192.044 28.1629 193.825 28.1629C195.623 28.1629 197.058 27.6413 198.134 26.5981ZM193.997 14.2743C196.415 14.2743 198.424 15.0606 200.025 16.641C201.634 18.2058 202.443 20.1521 202.443 22.4797C202.443 24.7998 201.626 26.7382 199.986 28.303C198.361 29.8678 196.306 30.6463 193.818 30.6463C191.329 30.6463 189.273 29.8678 187.648 28.303C186.024 26.7382 185.216 24.792 185.216 22.4642C185.216 21.5612 185.364 20.6659 185.655 19.7862C185.961 18.8908 186.251 18.2214 186.534 17.7699L187.005 17.1236L194.539 5.37604H197.239L191.313 14.6403C192.004 14.3989 192.899 14.2743 193.997 14.2743Z" fill="#233255"/>
<path d="M215.533 14.2743C217.951 14.2743 219.96 15.0606 221.561 16.641C223.161 18.2058 223.962 20.1443 223.962 22.4642C223.962 24.8853 223.177 26.855 221.599 28.373C220.023 29.8911 217.943 30.6541 215.361 30.6541C214.332 30.6541 213.335 30.5295 212.378 30.2726C211.421 30.008 210.628 29.6965 210.016 29.3539C209.412 28.9959 208.87 28.63 208.406 28.2563C207.936 27.8827 207.614 27.5712 207.426 27.3143L207.111 26.9173L208.901 25.1423C208.948 25.2123 209.027 25.3213 209.145 25.4692C209.27 25.6094 209.537 25.8507 209.93 26.201C210.338 26.5358 210.769 26.8472 211.224 27.1197C211.679 27.3843 212.276 27.6257 213.014 27.8515C213.759 28.0617 214.544 28.1629 215.361 28.1629C217.158 28.1629 218.594 27.6413 219.669 26.598C220.745 25.5549 221.278 24.1769 221.278 22.4642C221.278 20.7827 220.745 19.4125 219.669 18.3615C218.609 17.3105 217.228 16.7811 215.533 16.7811C214.411 16.7811 213.383 17.0069 212.448 17.4584C211.515 17.9099 210.863 18.3459 210.503 18.7586L209.961 19.4359H207.998L208.893 5.37604H222.353V7.88282H211.224L210.682 15.7068C210.824 15.6134 211.02 15.4888 211.279 15.3253C211.538 15.154 212.079 14.9361 212.912 14.6792C213.743 14.4067 214.623 14.2743 215.533 14.2743Z" fill="#233255"/>
</g>
<defs>
<clipPath id="clip0_133_303">
<rect width="224.261" height="37.0755" fill="white"/>
</clipPath>
</defs>
</svg>
