<svg width="68" height="68" viewBox="0 0 68 68" fill="none" xmlns="http://www.w3.org/2000/svg">
<g clip-path="url(#clip0_174_2188)">
<path fill-rule="evenodd" clip-rule="evenodd" d="M42.009 44.2756C41.7068 43.9734 41.4045 43.8223 40.9512 43.8223H21.0045C20.5512 43.8223 20.249 43.9734 19.9468 44.2756C19.6445 44.5778 19.6445 45.0312 19.6445 45.4845C21.609 56.8178 25.8401 63.4667 30.9779 63.4667C36.1156 63.4667 40.3468 56.6667 42.3112 45.4845C42.3112 45.0312 42.3112 44.5778 42.009 44.2756Z" fill="#6134EA"/>
<path fill-rule="evenodd" clip-rule="evenodd" d="M42.0093 22.6665H19.9471C19.1916 22.6665 18.5871 23.2709 18.5871 24.0265C18.2849 26.5954 18.1338 29.1643 18.1338 31.7332C18.1338 34.3021 18.2849 36.8709 18.436 39.4398C18.436 40.1954 19.1916 40.7998 19.796 40.7998H42.0093C42.7649 40.7998 43.3693 40.1954 43.3693 39.4398C43.6716 36.8709 43.6716 34.3021 43.6716 31.7332C43.6716 29.1643 43.5205 26.5954 43.3693 24.0265C43.3693 23.2709 42.7649 22.6665 42.0093 22.6665Z" fill="#6134EA"/>
<path fill-rule="evenodd" clip-rule="evenodd" d="M19.9468 20.5511C20.249 20.8533 20.5512 21.1556 21.0045 21.1556H40.9512C41.4045 21.1556 41.7068 21.0044 42.009 20.5511C42.3112 20.2489 42.3112 19.7956 42.3112 19.3422C40.3468 7.25333 36.1156 0 30.9779 0C25.8401 0 21.609 7.25333 19.6445 19.3422C19.6445 19.7956 19.6445 20.2489 19.9468 20.5511Z" fill="#6134EA"/>
<path d="M57.4225 54.3998C63.2645 54.3998 68.0003 50.0023 68.0003 44.5776C68.0003 39.1529 63.2645 34.7554 57.4225 34.7554C51.5806 34.7554 46.8447 39.1529 46.8447 44.5776C46.8447 50.0023 51.5806 54.3998 57.4225 54.3998Z" fill="#6134EA"/>
<path fill-rule="evenodd" clip-rule="evenodd" d="M14.8089 40.3465C15.1111 40.0443 15.2622 39.5909 15.1111 39.1376C14.96 36.5687 14.8089 34.1509 14.8089 31.7332C14.8089 29.3154 14.96 26.7465 15.1111 24.3287C15.1111 23.8754 14.96 23.4221 14.8089 23.1198C14.5067 22.8176 14.2044 22.6665 13.7511 22.6665H2.11556C1.51111 22.6665 0.906667 23.1198 0.755556 23.8754C0.302222 26.4443 0 29.1643 0 31.7332C0 34.3021 0.302222 37.0221 0.906667 39.591C1.05778 40.3465 1.51111 40.7998 2.11556 40.7998H13.7511C14.2044 40.7998 14.5067 40.6487 14.8089 40.3465Z" fill="#6134EA"/>
<path fill-rule="evenodd" clip-rule="evenodd" d="M45.4845 19.9469C45.6356 20.7025 46.24 21.1558 46.8445 21.1558H57.4222C57.8756 21.1558 58.3289 20.8536 58.6311 20.5514C58.9333 20.098 58.9333 19.6447 58.7822 19.1913C55.4578 11.938 49.7156 6.19579 42.7645 3.17357C42.16 2.87135 41.5556 3.02246 41.2533 3.62691C40.8 4.08024 40.8 4.83579 41.1022 5.28913C43.0667 8.91579 44.5778 14.0536 45.4845 19.9469Z" fill="#6134EA"/>
<path fill-rule="evenodd" clip-rule="evenodd" d="M4.38179 21.1553H14.9596C15.7151 21.1553 16.1685 20.702 16.3196 19.9464C17.2262 14.0531 18.8885 8.91533 20.8529 5.13755C21.1551 4.53311 21.1551 3.92867 20.7018 3.47533C20.2485 3.022 19.644 2.87089 19.1907 3.022C12.0885 6.04422 6.34624 11.6353 3.1729 18.8887C3.02179 19.4931 3.02179 20.0976 3.1729 20.5509C3.47513 20.8531 3.92846 21.1553 4.38179 21.1553Z" fill="#6134EA"/>
<path fill-rule="evenodd" clip-rule="evenodd" d="M45.7863 23.1198C45.4841 23.4221 45.333 23.8754 45.333 24.3287C45.4841 26.8976 45.6352 29.3154 45.6352 31.8843C45.6352 32.7909 45.6352 33.8487 45.6352 34.7554C45.6352 35.3598 45.9375 35.9643 46.5419 36.2665C46.693 36.2665 46.8441 36.2665 47.1463 36.2665C47.5997 36.2665 47.9019 36.1154 48.2041 35.8132C51.3775 32.6398 55.6086 31.1287 60.293 32.0354C60.7463 32.1865 61.1997 32.0354 61.5019 31.7332C61.8041 31.4309 62.1063 30.9776 61.9552 30.5243C61.8041 28.2576 61.5019 25.9909 61.0486 23.8754C60.8975 23.1198 60.293 22.6665 59.5375 22.6665H46.8441C46.3908 22.6665 45.9375 22.8176 45.7863 23.1198Z" fill="#6134EA"/>
<path fill-rule="evenodd" clip-rule="evenodd" d="M16.4713 44.88C16.3201 44.2756 15.7157 43.8223 15.1113 43.8223H4.53348C4.08014 43.8223 3.62681 44.1245 3.32459 44.4267C3.02237 44.88 3.02237 45.3334 3.17348 45.7867C6.49792 52.4356 12.2401 57.5734 19.1913 60.4445C19.3424 60.4445 19.4935 60.5956 19.6446 60.5956C20.0979 60.5956 20.4001 60.4445 20.7024 60.1423C21.1557 59.6889 21.1557 59.0845 20.8535 58.6312C18.889 55.0045 17.3779 50.32 16.4713 44.88Z" fill="#6134EA"/>
<path fill-rule="evenodd" clip-rule="evenodd" d="M45.7864 50.6223C45.4842 50.1689 45.182 49.8667 44.5775 49.8667C44.1242 49.8667 43.6709 50.32 43.5198 50.9245C42.7642 53.7956 41.8575 56.3645 40.9509 58.48C40.6486 58.9334 40.7998 59.6889 41.102 60.1423C41.4042 60.4445 41.7064 60.5956 42.0086 60.5956C42.1598 60.5956 42.3109 60.5956 42.462 60.4445C43.9731 59.6889 45.182 59.0845 46.2398 58.1778C46.542 57.8756 46.8442 57.4223 46.8442 56.9689V52.8889C46.8442 52.5867 46.6931 52.2845 46.542 52.1334C46.2398 51.68 46.0886 51.0756 45.7864 50.6223Z" fill="#6134EA"/>
<path fill-rule="evenodd" clip-rule="evenodd" d="M64.2218 56.0624C63.7684 55.7602 63.3151 55.7602 62.8618 55.9113C59.3862 57.2713 55.4573 57.2713 51.9818 55.9113C51.5284 55.7602 50.924 55.7602 50.6218 56.0624C50.1684 56.3646 49.8662 56.8179 49.8662 57.2713V66.6402C49.8662 67.2446 50.1684 67.6979 50.7729 67.8491C51.3773 68.0002 51.9818 68.0002 52.4351 67.5468L57.4218 63.0135L62.4084 67.5468C62.7107 67.8491 63.0129 68.0002 63.4662 68.0002C63.6173 68.0002 63.9195 68.0002 64.0707 67.8491C64.6751 67.6979 64.9773 67.0935 64.9773 66.6402V57.2713C64.9773 56.8179 64.6751 56.3646 64.2218 56.0624Z" fill="#6134EA"/>
</g>
<defs>
<clipPath id="clip0_174_2188">
<rect width="68" height="68" fill="white"/>
</clipPath>
</defs>
</svg>
