<svg width="68" height="68" viewBox="0 0 68 68" fill="none" xmlns="http://www.w3.org/2000/svg">
<g clip-path="url(#clip0_174_2173)">
<path fill-rule="evenodd" clip-rule="evenodd" d="M67.855 12.179C67.71 11.744 67.275 11.454 66.8401 11.3091C64.2303 10.8741 60.0256 9.85916 59.1556 8.84423C58.2857 7.82931 57.1258 3.76961 56.6908 1.1598C56.5458 0.724832 56.2559 0.289864 55.8209 0.144875C55.3859 -0.000114515 54.9509 -0.000114515 54.516 0.144875C54.226 0.289864 48.1365 4.05959 48.1365 9.85916V14.7888C41.6119 20.2984 33.9275 27.1129 33.9275 29.5777V29.7227V31.1726C33.9275 31.6076 33.7825 31.8975 33.4925 32.1875L27.258 38.4221C26.968 38.712 26.678 38.857 26.2431 38.857C25.8081 38.857 25.5181 38.712 25.2281 38.4221C24.6482 37.8421 24.6482 36.9722 25.2281 36.3922L31.0277 30.5926V29.5777C31.0277 29.2877 31.0277 28.9978 31.1727 28.5628C30.3028 28.2728 29.2878 28.1278 28.2729 28.1278C22.0384 28.1278 16.9637 33.2024 16.9637 39.437C16.9637 45.6715 22.0384 50.7461 28.2729 50.7461C34.5075 50.7461 39.5821 45.6715 39.5821 39.437C39.5821 37.4071 39.0021 35.3773 37.9872 33.7824H38.1322C39.4371 33.7824 41.9019 31.7525 44.8017 28.7078C46.8315 31.8975 47.9915 35.5223 47.9915 39.437C47.9915 50.3112 39.1471 59.3005 28.1279 59.3005C17.3987 59.4455 8.55437 50.6012 8.55437 39.727C8.55437 28.8528 17.3987 19.8634 28.4179 19.8634C31.1727 19.8634 33.9275 20.4434 36.5373 21.6033C38.1322 20.0084 40.307 17.9786 43.2068 15.5137C38.7121 12.7589 33.6375 11.3091 28.4179 11.3091C12.7591 11.3091 0 24.0681 0 39.727C0 55.3858 12.7591 67.9999 28.2729 67.9999C43.7868 67.9999 56.5458 55.2408 56.5458 39.727C56.5458 33.4924 54.516 27.5479 50.7463 22.6182C51.4712 21.7483 52.1962 20.8783 53.0661 20.0084H57.9957C63.7953 20.0084 67.565 13.9189 67.71 13.6289C68 13.0489 68.145 12.614 67.855 12.179Z" fill="#6134EA"/>
</g>
<defs>
<clipPath id="clip0_174_2173">
<rect width="68" height="68" fill="white"/>
</clipPath>
</defs>
</svg>
