<svg width="68" height="68" viewBox="0 0 68 68" fill="none" xmlns="http://www.w3.org/2000/svg">
<g clip-path="url(#clip0_174_2175)">
<path fill-rule="evenodd" clip-rule="evenodd" d="M45.3334 34.7556H54.4C55.3067 34.7556 55.9112 34.1512 55.9112 33.2445C55.9112 32.3378 55.3067 31.7334 54.4 31.7334H45.3334C44.4267 31.7334 43.8223 32.3378 43.8223 33.2445C43.8223 34.1512 44.4267 34.7556 45.3334 34.7556Z" fill="#6134EA"/>
<path fill-rule="evenodd" clip-rule="evenodd" d="M39.2885 43.822H54.3996C55.3062 43.822 55.9107 43.2176 55.9107 42.3109C55.9107 41.4042 55.3062 40.7998 54.3996 40.7998H39.2885C38.3818 40.7998 37.7773 41.4042 37.7773 42.3109C37.7773 43.2176 38.3818 43.822 39.2885 43.822Z" fill="#6134EA"/>
<path fill-rule="evenodd" clip-rule="evenodd" d="M39.2885 52.8889H54.3996C55.3062 52.8889 55.9107 52.2845 55.9107 51.3778C55.9107 50.4711 55.3062 49.8667 54.3996 49.8667H39.2885C38.3818 49.8667 37.7773 50.4711 37.7773 51.3778C37.7773 52.2845 38.3818 52.8889 39.2885 52.8889Z" fill="#6134EA"/>
<path d="M21.9115 43.8221C28.1707 43.8221 33.2448 39.0862 33.2448 33.2443C33.2448 27.4023 28.1707 22.6665 21.9115 22.6665C15.6522 22.6665 10.5781 27.4023 10.5781 33.2443C10.5781 39.0862 15.6522 43.8221 21.9115 43.8221Z" fill="#6134EA"/>
<path fill-rule="evenodd" clip-rule="evenodd" d="M29.4663 45.6356C29.0129 45.3334 28.4085 45.3334 27.9552 45.4845C24.1774 46.9956 19.7952 46.9956 16.0174 45.4845C15.5641 45.3334 14.9596 45.3334 14.5063 45.6356C13.9018 45.9378 13.5996 46.3912 13.5996 46.8445V57.4223C13.5996 58.0267 14.0529 58.6312 14.6574 58.7823C15.2618 59.0845 16.0174 58.9334 16.4707 58.4801L21.9107 53.3423L27.3507 58.4801C27.6529 58.7823 28.1063 58.9334 28.5596 58.9334C28.7107 58.9334 29.0129 58.9334 29.1641 58.7823C29.7685 58.4801 30.2218 58.0267 30.2218 57.4223V46.8445C30.2218 46.3912 29.9196 45.9378 29.4663 45.6356Z" fill="#6134EA"/>
<path fill-rule="evenodd" clip-rule="evenodd" d="M61.8044 61.8044H6.19556V15.4133H61.8044V61.8044ZM7.70667 6.19556C8.61333 6.19556 9.21778 6.95111 9.21778 7.70667C9.21778 8.61333 8.46222 9.21778 7.70667 9.21778C6.95111 9.21778 6.19556 8.46222 6.19556 7.70667C6.19556 6.8 6.8 6.19556 7.70667 6.19556ZM13.9022 6.19556C14.8089 6.19556 15.4133 6.95111 15.4133 7.70667C15.4133 8.61333 14.6578 9.21778 13.9022 9.21778C13.1467 9.21778 12.3911 8.46222 12.3911 7.70667C12.3911 6.8 12.9956 6.19556 13.9022 6.19556ZM20.0978 6.19556C21.0044 6.19556 21.6089 6.95111 21.6089 7.70667C21.6089 8.61333 20.8533 9.21778 20.0978 9.21778C19.3422 9.21778 18.5867 8.46222 18.5867 7.70667C18.5867 6.8 19.1911 6.19556 20.0978 6.19556ZM61.8044 0H6.19556C2.72 0 0 2.72 0 6.19556V61.8044C0 65.28 2.72 68 6.19556 68H61.8044C65.28 68 68 65.28 68 61.8044V6.19556C68 2.72 65.28 0 61.8044 0Z" fill="#6134EA"/>
</g>
<defs>
<clipPath id="clip0_174_2175">
<rect width="68" height="68" fill="white"/>
</clipPath>
</defs>
</svg>
