<svg width="68" height="68" viewBox="0 0 68 68" fill="none" xmlns="http://www.w3.org/2000/svg">
<g clip-path="url(#clip0_174_2185)">
<path fill-rule="evenodd" clip-rule="evenodd" d="M37.1736 40.8L41.1025 36.8711C42.0092 35.9644 43.3692 35.5111 44.5781 35.6622C45.0314 35.6622 45.6359 35.5111 45.9381 35.2089C46.5425 34.4533 47.4492 33.8489 48.507 33.6978C48.8092 33.6978 48.9603 33.5467 49.1114 33.3956L60.8981 23.7244C61.8047 22.9689 62.107 21.9111 61.8048 20.8533C61.5025 19.7956 60.5959 19.04 59.387 19.04L40.4981 17.8311L33.3959 1.66222C33.0936 0.604444 32.0359 0 30.9781 0C29.9203 0 28.8625 0.604444 28.5603 1.66222L21.4581 17.8311L2.5692 19.04C1.51142 19.04 0.453642 19.7956 0.151419 20.8533C-0.150803 21.9111 0.151419 22.9689 1.05809 23.7244L15.2625 35.36L11.6359 52.7378C11.4848 53.7956 11.787 54.8533 12.6936 55.4578C13.147 55.76 13.7514 55.9111 14.2048 55.9111C14.6581 55.9111 15.2625 55.76 15.5648 55.4578L30.827 46.24L32.3381 47.1467C32.9425 47.6 33.8492 47.2978 34.3025 46.6933C34.6048 46.24 34.907 45.7867 35.2092 45.6356C35.6625 45.3333 35.8136 44.88 35.8136 44.4267C35.8136 43.0667 36.267 41.7067 37.1736 40.8Z" fill="#6134EA"/>
<path fill-rule="evenodd" clip-rule="evenodd" d="M52.1338 57.8757C48.9604 57.8757 46.3916 55.3069 46.3916 52.1335C46.3916 48.9602 48.9604 46.3913 52.1338 46.3913C55.3071 46.3913 57.876 48.9602 57.876 52.1335C57.876 55.3069 55.3071 57.8757 52.1338 57.8757ZM66.9427 47.9024L64.2227 47.1469L65.7338 44.7291C66.036 44.1246 66.036 43.3691 65.5827 42.9157L61.5027 38.8357C61.0493 38.3824 60.2938 38.2313 59.6893 38.6846L57.2716 40.1957L56.516 37.4757C56.3649 36.8713 55.7604 36.418 55.156 36.418H49.4138C48.8093 36.418 48.2049 36.8713 48.0538 37.4757L47.2982 40.1957L44.8804 38.6846C44.276 38.3824 43.5204 38.3824 43.0671 38.8357L38.9871 42.9157C38.5338 43.3691 38.3827 44.1246 38.836 44.7291L40.3471 47.1469L37.6271 47.9024C37.0227 48.0535 36.5693 48.658 36.5693 49.2624V55.0046C36.5693 55.6091 37.0227 56.2135 37.6271 56.3646L40.3471 57.1202L38.836 59.538C38.5338 60.1424 38.5338 60.898 38.9871 61.3513L43.0671 65.4313C43.5204 65.8846 44.276 66.0357 44.8804 65.5824L47.2982 64.0713L48.0538 66.7913C48.2049 67.3957 48.8093 67.8491 49.4138 67.8491H55.156C55.7604 67.8491 56.3649 67.3957 56.516 66.7913L57.2716 64.0713L59.6893 65.5824C60.2938 65.8846 61.0493 65.8846 61.5027 65.4313L65.5827 61.3513C66.036 60.898 66.1871 60.1424 65.7338 59.538L64.2227 57.1202L66.9427 56.3646C67.5471 56.2135 68.0004 55.6091 68.0004 55.0046V49.2624C68.0004 48.658 67.5471 48.0535 66.9427 47.9024Z" fill="#6134EA"/>
</g>
<defs>
<clipPath id="clip0_174_2185">
<rect width="68" height="68" fill="white"/>
</clipPath>
</defs>
</svg>
