<svg width="97" height="95" viewBox="0 0 97 95" fill="none" xmlns="http://www.w3.org/2000/svg">
<path fill-rule="evenodd" clip-rule="evenodd" d="M40.5331 70.9706L31.3084 2.23529C31.3084 1.11765 30.1902 0 28.7925 0H13.1383C11.7406 0 10.6225 1.11765 10.3429 2.23529L1.39769 70.9706C0.559078 77.9559 0 85.2206 0 92.4853C0 93.8823 1.11816 95 2.51585 95H39.1354C40.5331 95 41.6513 93.8823 41.6513 92.4853C41.6513 92.2059 41.6513 91.9265 41.6513 91.6471C41.9308 84.6618 41.3718 77.6765 40.5331 70.9706Z" fill="#6134EA"/>
<path fill-rule="evenodd" clip-rule="evenodd" d="M1.39769 70.9706L10.6225 2.23529C10.6225 1.11765 11.7406 0 13.1383 0H28.7925C30.1902 0 31.3084 1.11765 31.3084 2.23529L40.2536 70.9706C41.0922 77.9559 41.6513 85.2206 41.6513 92.2059C41.6513 93.6029 40.5331 94.7206 39.1354 94.7206H2.79539C1.11816 95 0 93.8823 0 92.4853" fill="#6134EA"/>
<path d="M94.4841 39.6765L69.8847 51.9706C69.3256 52.25 68.7666 51.9706 68.7666 51.1324V41.3529C68.7666 39.9559 67.3689 39.1176 65.9712 39.6765L43.6081 50.8529C42.4899 51.4118 41.9308 52.5294 41.9308 53.9265L44.1671 70.9706C45.0058 77.9559 45.5648 85.2206 45.5648 92.2059C45.5648 93.6029 44.4467 95 43.049 95H95.0432C96.1614 95 97 94.1618 97 93.0441V41.3529C97 41.0735 97 40.7941 97 40.7941C96.7205 39.6765 95.6023 39.3971 94.4841 39.6765ZM68.7666 75.7206C68.7666 76.8382 67.9279 77.6765 66.8098 77.6765H56.4669C55.3487 77.6765 54.5101 76.8382 54.5101 75.7206V67.3382C54.5101 66.2206 55.3487 65.3824 56.4669 65.3824H66.8098C67.9279 65.3824 68.7666 66.2206 68.7666 67.3382V75.7206ZM88.6138 76C88.6138 77.1176 87.7752 77.9559 86.6571 77.9559H76.3141C75.196 77.9559 74.3573 77.1176 74.3573 76V67.6177C74.3573 66.5 75.196 65.6618 76.3141 65.6618H86.6571C87.7752 65.6618 88.6138 66.5 88.6138 67.6177V76Z" fill="#6134EA"/>
</svg>
