<svg width="70" height="93" viewBox="0 0 70 93" fill="none" xmlns="http://www.w3.org/2000/svg">
<path fill-rule="evenodd" clip-rule="evenodd" d="M35 88.6705C28.6176 88.6705 23.2647 83.104 23.2647 76.3004C23.2647 76.0943 23.2647 75.8881 23.2647 75.4758C23.2647 72.5894 23.8823 70.7339 24.5 69.2908C25.5294 71.7648 27.5882 73.8265 30.8824 73.8265C31.9118 73.8265 32.7353 73.0018 32.7353 71.971C32.7353 69.2908 32.7353 65.9921 33.5588 63.1057C34.1765 60.6317 35.6176 57.9516 37.4706 55.6837C38.2941 58.5701 39.9412 60.8379 41.3824 62.8996C43.6471 65.9921 45.9118 69.2908 46.3235 75.0635C46.3235 75.4758 46.3235 75.682 46.3235 76.0943C46.7353 83.3102 41.3824 88.6705 35 88.6705ZM69.7941 54.2406C68.7647 40.4274 62.1765 31.7683 56.6176 24.1402C51.2647 17.1305 46.7353 10.9455 46.7353 1.87413C46.7353 1.04946 46.3235 0.43092 45.7059 0.224753C45.0882 -0.187581 44.2647 0.0185986 43.6471 0.430933C35 6.61595 27.7941 16.9243 25.3235 26.6142C23.6765 33.4177 23.2647 41.0459 23.2647 46.2001C15.2353 44.5507 13.5882 32.7992 13.5882 32.593C13.5882 31.9745 13.1765 31.356 12.5588 31.1498C11.9412 30.9437 11.3235 30.9437 10.7059 31.1498C10.2941 31.356 0.411765 36.304 0 56.0961C0 56.7146 0 57.3331 0 58.1577C0 77.3313 15.6471 93 35 93C54.3529 93 70 77.3313 70 58.1577C70 56.9207 69.7941 54.2406 69.7941 54.2406Z" fill="#6134EA"/>
</svg>
