<svg width="97" height="97" viewBox="0 0 97 97" fill="none" xmlns="http://www.w3.org/2000/svg">
<path fill-rule="evenodd" clip-rule="evenodd" d="M87.9384 42.6055C85.673 41.3646 84.2315 39.5032 84.2315 38.2623C84.2315 37.2281 85.0552 36.194 86.2909 36.194C87.3206 36.194 88.3503 37.0213 88.3503 38.2623C88.3503 39.9168 88.3503 41.3646 87.9384 42.6055ZM64.2548 44.8806C64.0488 45.7079 63.2251 46.3284 62.4013 46.3284C62.1953 46.3284 61.9894 46.3284 61.7835 46.3284C54.1635 43.8465 42.4246 43.8465 34.8047 46.3284C33.775 46.742 32.5393 46.1215 32.3333 45.0874C31.9214 44.0533 32.5393 42.8124 33.569 42.6055C42.0127 39.9168 54.5753 39.9168 63.0191 42.6055C64.0488 42.8124 64.4607 43.8465 64.2548 44.8806ZM40.1593 22.1301C40.1593 17.1663 43.6603 13.0298 48.397 12.2026C48.397 12.823 48.1911 13.4435 48.1911 14.064C48.1911 15.0981 48.397 16.1322 48.6029 16.9595C48.397 17.1663 48.1911 17.5799 48.1911 17.9936V26.0597C48.1911 27.0938 49.0149 28.1279 50.2505 28.1279C51.2803 28.1279 52.31 27.3006 52.31 26.0597V23.7846C53.9576 25.6461 56.223 26.887 58.6943 27.5075C56.8408 30.403 53.7516 32.0576 50.2505 32.0576C44.69 32.2644 40.1593 27.7143 40.1593 22.1301ZM19.9766 60.3923C17.7112 60.3923 15.8577 58.5309 15.8577 56.2559C15.8577 53.9808 17.7112 52.1194 19.9766 52.1194C22.242 52.1194 24.0955 53.9808 24.0955 56.2559C24.0955 58.5309 22.242 60.3923 19.9766 60.3923ZM60.3418 9.9275C60.3418 8.89339 61.1656 7.85927 62.4013 7.85927C63.431 7.85927 64.4607 8.68657 64.4607 9.9275V17.9936C64.4607 19.0277 63.6369 20.0618 62.4013 20.0618C61.3716 20.0618 60.3418 19.2345 60.3418 17.9936V9.9275ZM94.5287 44.2601C93.7049 44.2601 92.6751 44.2601 91.8514 44.0533C92.2633 42.3987 92.4692 40.3305 92.4692 38.2623C92.4692 34.9531 89.792 32.2644 86.4969 32.2644C83.2017 32.2644 80.5244 34.9531 80.5244 38.2623C80.5244 41.5714 83.2017 44.6738 86.9087 46.5352C86.2909 47.9829 85.673 49.017 84.8493 50.0512C79.9066 41.9851 70.4332 35.5736 58.6943 33.2985C60.3419 31.8507 61.7835 30.1962 62.8132 28.1279C70.2272 27.7143 76.4055 21.7164 76.4055 14.064C76.4055 6.20469 70.0212 0 62.4013 0C56.8408 0 51.8981 3.30916 49.6327 8.06609C42.2187 8.47974 36.2463 14.4776 36.2463 22.1301C36.2463 26.4733 38.0998 30.1962 41.189 32.678C34.3928 33.5053 28.0085 35.7804 22.6539 39.0895C20.1826 37.2281 17.2993 36.194 14.0042 36.194C12.9745 36.194 11.9448 37.0213 11.9448 38.2623C11.9448 40.951 12.7686 43.8465 14.4161 46.1215C11.7389 49.2239 9.88533 52.7399 8.85561 56.4627H8.03184C3.50105 56.4627 0 60.1855 0 64.5288C0 69.0789 2.26538 73.2153 5.97239 75.4904L19.9766 84.3838V94.9318C19.9766 95.9659 20.8004 97 22.0361 97H30.0679C30.8917 97 31.5096 96.5863 31.9215 95.9659L34.3928 91.2089C43.2484 93.6908 53.3397 93.6908 62.1953 91.2089L64.6667 95.9659C65.0786 96.5863 65.6964 97 66.5202 97H74.552C75.5817 97 76.6115 96.1727 76.6115 94.9318V84.177C84.2314 78.5927 88.7622 70.7335 88.7622 62.4605C88.7622 59.565 88.1444 56.6695 87.1147 53.9808C88.5563 52.533 89.7919 50.4648 91.0276 47.7761C92.2633 47.9829 93.4989 48.1898 94.9405 48.1898C95.9703 48.1898 97 47.3625 97 46.1215C96.3822 45.2942 95.5584 44.2601 94.5287 44.2601Z" fill="#6134EA"/>
</svg>
