<svg width="77" height="98" viewBox="0 0 77 98" fill="none" xmlns="http://www.w3.org/2000/svg">
<path fill-rule="evenodd" clip-rule="evenodd" d="M63.8136 24.8163C64.0277 24.8163 64.2418 25.0444 64.4559 25.0444C65.0983 25.0444 65.5265 24.5881 65.7406 23.6755C66.8112 20.2531 67.2394 16.3743 67.2394 12.4956C67.2394 8.61683 66.8112 4.73809 65.7406 1.31567C65.5265 0.174864 64.67 -0.281458 63.8136 0.174864C63.1712 0.631187 62.743 1.77199 62.9571 2.9128C63.8136 5.8789 64.2418 9.30132 64.2418 12.4956C64.2418 15.918 63.8136 19.1123 62.9571 22.0783C62.743 23.2192 63.1712 24.36 63.8136 24.8163Z" fill="#6134EA"/>
<path fill-rule="evenodd" clip-rule="evenodd" d="M14.1326 25.0444C14.3512 25.0444 14.7884 25.0444 15.007 24.8163C16.1001 24.36 16.5373 23.2192 16.1001 22.0783C14.7884 19.1123 14.1326 15.918 14.1326 12.4956C14.1326 9.07316 14.7884 5.8789 16.1001 2.9128C16.5373 1.77199 16.1001 0.631187 15.007 0.174864C13.914 -0.281458 12.6024 0.174864 12.1652 1.31567C10.635 4.73809 9.76056 8.61683 9.76056 12.4956C9.76056 16.3743 10.635 20.2531 12.1652 23.6755C12.3838 24.5881 13.2582 25.0444 14.1326 25.0444Z" fill="#6134EA"/>
<path fill-rule="evenodd" clip-rule="evenodd" d="M55.9638 19.3812C56.1805 19.6 56.614 19.6 56.8308 19.6C57.9146 19.6 58.7816 18.9436 59.2151 18.0684C60.2989 15.8804 60.7324 13.2548 60.7324 10.848C60.7324 8.44123 60.2989 5.81564 59.2151 3.62764C58.7816 2.53365 57.2643 1.87725 55.9638 2.31485C54.6632 2.75245 54.013 4.06524 54.4465 5.15924C55.3135 7.12843 55.5303 8.87883 55.5303 11.0668C55.5303 13.036 55.0967 15.0052 54.4465 16.9744C53.7962 17.8496 54.6632 19.1624 55.9638 19.3812Z" fill="#6134EA"/>
<path fill-rule="evenodd" clip-rule="evenodd" d="M21.0067 19.6C21.2209 19.6 21.435 19.6 21.6492 19.3732C22.5059 18.9197 22.9342 17.559 22.7201 16.4251C22.2917 14.3841 21.8634 12.3431 21.8634 10.3021C21.8634 8.26108 22.0776 6.22008 22.7201 4.17908C22.9342 3.04518 22.5059 1.68451 21.6492 1.23096C20.7925 0.7774 19.7217 1.45774 19.5075 2.59163C18.865 5.31297 18.4366 8.03431 18.4366 10.5289C18.4366 13.0234 18.865 15.7448 19.5075 18.0126C19.7217 18.9197 20.3642 19.6 21.0067 19.6Z" fill="#6134EA"/>
<path fill-rule="evenodd" clip-rule="evenodd" d="M43.7088 57.9091L47.7853 52.1182L54.5794 73.0545L43.7088 57.9091ZM32.3853 42.0955L38.0471 24.5C38.2735 24.5 38.2735 24.5 38.5 24.5C38.7265 24.5 38.7265 24.5 38.9529 24.5L44.6147 42.0955L38.5 50.5591L32.3853 42.0955ZM22.4206 73.0545L29.2147 52.1182L33.2912 57.9091L22.4206 73.0545ZM74.9618 93.9909H70.2059L46.8794 21.3818C49.5971 19.1545 51.4088 15.8136 51.4088 12.25C51.4088 5.56818 45.7471 0 38.5 0C31.4794 0 25.5912 5.56818 25.5912 12.25C25.5912 15.8136 27.4029 19.1545 30.1206 21.3818L6.79412 93.9909H2.03824C0.905886 93.9909 0 94.8818 0 95.9955C0 97.1091 0.905886 98 2.03824 98H19.25C20.3824 98 21.2882 97.1091 21.2882 95.9955C21.2882 94.8818 20.3824 93.9909 19.25 93.9909H18.1176L38.5 65.2591L58.8824 93.9909H57.75C56.6176 93.9909 55.7118 94.8818 55.7118 95.9955C55.7118 97.1091 56.6176 98 57.75 98H74.9618C76.0941 98 77 97.1091 77 95.9955C77 94.8818 76.0941 93.9909 74.9618 93.9909Z" fill="#6134EA"/>
</svg>
