<svg width="89" height="85" viewBox="0 0 89 85" fill="none" xmlns="http://www.w3.org/2000/svg">
<path fill-rule="evenodd" clip-rule="evenodd" d="M35 76.5C35 81.175 31.4 85 27 85C22.6 85 19 81.175 19 76.5C19 71.825 22.6 68 27 68C31.4 68 35 71.825 35 76.5Z" fill="#6134EA"/>
<path fill-rule="evenodd" clip-rule="evenodd" d="M80 76.5C80 81.175 76.8 85 73 85C69.2 85 66 81.175 66 76.5C66 71.825 69.2 68 73 68C76.8 68 80 71.825 80 76.5Z" fill="#6134EA"/>
<path fill-rule="evenodd" clip-rule="evenodd" d="M21.2691 7.75806L19.6172 2.72581C19.2042 1.04839 17.5522 0 15.9002 0H1.85846C0.825981 0 0 0.838697 0 1.88708V5.66128C0 6.70967 0.825981 7.5484 1.85846 7.5484H13.0093L25.1926 46.129L19.4107 51.7903C17.1392 53.8871 16.5197 57.2419 17.7587 60.1774C18.9977 63.1129 21.6821 65 24.7796 65H79.0882C80.1206 65 80.9466 64.1613 80.9466 63.1129V59.3387C80.9466 58.2903 80.1206 57.4516 79.0882 57.4516H25.1926L32.833 49.9032H67.9374C70.8283 49.9032 73.7193 48.2258 74.9582 45.5L88.3805 17.1935C88.7935 16.3548 89 15.5161 89 14.6774V14.0484C89 10.6935 86.3155 7.96775 82.8051 7.96775" fill="#6134EA"/>
</svg>
