<svg width="93" height="93" viewBox="0 0 93 93" fill="none" xmlns="http://www.w3.org/2000/svg">
<path fill-rule="evenodd" clip-rule="evenodd" d="M71.7073 30.5269L51.6293 50.6049L33.1902 32.1659L53.2683 12.0879C55.7268 9.62932 59.0049 8.19512 62.4878 8.19512C69.6585 8.19512 75.3951 13.9317 75.3951 21.1025C75.6 24.7903 74.1658 28.0683 71.7073 30.5269ZM28.4781 43.0244L15.161 56.3415C13.522 57.9805 12.4976 60.2341 12.4976 62.4878C12.4976 63.7171 11.4732 64.5366 10.4488 64.5366C9.21951 64.5366 8.4 63.5122 8.4 62.4878C8.4 59.0049 9.83415 55.7268 12.2927 53.2683L25.6098 39.9512C26.4293 39.1317 27.6585 39.1317 28.4781 39.9512C29.2976 40.7707 29.2976 42.2049 28.4781 43.0244ZM84 21.3074C84 9.42444 74.3707 0 62.6927 0C56.9561 0 51.6293 2.25367 47.5317 6.35123L6.35122 47.5317C2.25366 51.6293 0 56.9561 0 62.6927C0 74.5756 9.62927 84 21.3073 84C27.0439 84 32.3707 81.7464 36.4683 77.6488L77.6488 36.4683C81.7463 32.3708 84 27.044 84 21.3074Z" fill="#6134EA"/>
<path fill-rule="evenodd" clip-rule="evenodd" d="M79.394 55.6081L54.0096 80.1274C53.6034 80.536 52.9942 80.7404 52.588 80.7404C51.9788 80.7404 51.5727 80.536 51.1665 80.1274C50.3542 79.3101 50.3542 78.0841 51.1665 77.2668L76.5509 52.7475C77.3632 51.9302 78.7847 51.9302 79.597 52.7475C80.2063 53.5648 80.2063 54.7908 79.394 55.6081ZM80.4093 44.3701C79.597 43.7571 78.3786 43.9615 77.7694 44.5745L42.6373 78.4928C41.825 79.1058 41.825 80.3317 42.4343 81.149C47.5111 88.5048 56.0403 93 65.3818 93C80.6124 93 93 81.149 93 66.4375C92.7969 57.6514 88.1262 49.274 80.4093 44.3701Z" fill="#6134EA"/>
</svg>
