<svg width="1207" height="632" viewBox="0 0 1207 632" fill="none" xmlns="http://www.w3.org/2000/svg" xmlns:xlink="http://www.w3.org/1999/xlink">
<rect width="162.263" height="180.297" transform="matrix(0.78032 0.625381 0.625381 -0.78032 479 335.689)" fill="url(#pattern0)"/>
<path opacity="0.6" d="M389.779 91.3698V81.8963C389.779 79.7571 392.243 78.2291 394.091 79.4515L407.641 87.397L421.191 95.3425C423.039 96.5649 423.039 99.3153 421.191 100.232L407.949 107.566L394.091 115.512C392.243 116.734 389.779 115.206 389.779 113.067V103.594" fill="#7090FF"/>
<path opacity="0.6" d="M389.779 99.7786H308.349C201.205 99.7786 114.349 186.635 114.349 293.779V347.507C114.349 454.65 201.205 541.507 308.349 541.507H896.309C1003.45 541.507 1090.31 454.65 1090.31 347.507V293.779C1090.31 186.635 1003.45 99.7786 896.309 99.7786H748.359" stroke="#7090FF" stroke-width="9"/>
<rect x="638.511" y="437.143" width="324.281" height="194.361" rx="20" fill="#C2D0FF"/>
<path d="M710.099 493.2V510H707.339V495.84H700.499V510H697.739V493.2H710.099ZM720.089 497.688C721.737 497.688 723.145 498.304 724.313 499.536C725.481 500.752 726.065 502.24 726.065 504C726.065 505.776 725.481 507.272 724.313 508.488C723.145 509.704 721.737 510.312 720.089 510.312C718.265 510.312 716.865 509.64 715.889 508.296V514.8H713.297V498H715.889V499.728C716.865 498.368 718.265 497.688 720.089 497.688ZM716.969 506.76C717.689 507.48 718.593 507.84 719.681 507.84C720.769 507.84 721.673 507.48 722.393 506.76C723.113 506.024 723.473 505.104 723.473 504C723.473 502.896 723.113 501.984 722.393 501.264C721.673 500.528 720.769 500.16 719.681 500.16C718.593 500.16 717.689 500.528 716.969 501.264C716.249 501.984 715.889 502.896 715.889 504C715.889 505.104 716.249 506.024 716.969 506.76ZM734.078 510.312C732.318 510.312 730.822 509.704 729.59 508.488C728.358 507.272 727.742 505.776 727.742 504C727.742 502.224 728.358 500.728 729.59 499.512C730.822 498.296 732.318 497.688 734.078 497.688C735.854 497.688 737.35 498.296 738.566 499.512C739.798 500.728 740.414 502.224 740.414 504C740.414 505.776 739.798 507.272 738.566 508.488C737.35 509.704 735.854 510.312 734.078 510.312ZM731.414 506.712C732.134 507.432 733.022 507.792 734.078 507.792C735.134 507.792 736.022 507.432 736.742 506.712C737.462 505.992 737.822 505.088 737.822 504C737.822 502.912 737.462 502.008 736.742 501.288C736.022 500.568 735.134 500.208 734.078 500.208C733.022 500.208 732.134 500.568 731.414 501.288C730.694 502.008 730.334 502.912 730.334 504C730.334 505.088 730.694 505.992 731.414 506.712ZM751.062 503.832C752.246 504.376 752.838 505.296 752.838 506.592C752.838 507.6 752.494 508.424 751.806 509.064C751.134 509.688 750.166 510 748.902 510H742.758V498H748.422C749.654 498 750.606 498.312 751.278 498.936C751.966 499.544 752.31 500.336 752.31 501.312C752.31 502.448 751.894 503.288 751.062 503.832ZM748.23 500.208H745.23V502.872H748.23C749.286 502.872 749.814 502.424 749.814 501.528C749.814 500.648 749.286 500.208 748.23 500.208ZM748.662 507.744C749.75 507.744 750.294 507.272 750.294 506.328C750.294 505.912 750.15 505.592 749.862 505.368C749.574 505.128 749.174 505.008 748.662 505.008H745.23V507.744H748.662ZM756.986 505.104C757.178 506.016 757.618 506.72 758.306 507.216C758.994 507.696 759.834 507.936 760.826 507.936C762.202 507.936 763.234 507.44 763.922 506.448L766.058 507.696C764.874 509.44 763.122 510.312 760.802 510.312C758.85 510.312 757.274 509.72 756.074 508.536C754.874 507.336 754.274 505.824 754.274 504C754.274 502.208 754.866 500.712 756.05 499.512C757.234 498.296 758.754 497.688 760.61 497.688C762.37 497.688 763.81 498.304 764.93 499.536C766.066 500.768 766.634 502.264 766.634 504.024C766.634 504.296 766.602 504.656 766.538 505.104H756.986ZM756.962 502.992H764.018C763.842 502.016 763.434 501.28 762.794 500.784C762.17 500.288 761.434 500.04 760.586 500.04C759.626 500.04 758.826 500.304 758.186 500.832C757.546 501.36 757.138 502.08 756.962 502.992ZM775.706 497.688C777.354 497.688 778.762 498.304 779.93 499.536C781.098 500.752 781.682 502.24 781.682 504C781.682 505.776 781.098 507.272 779.93 508.488C778.762 509.704 777.354 510.312 775.706 510.312C773.882 510.312 772.482 509.64 771.506 508.296V514.8H768.914V498H771.506V499.728C772.482 498.368 773.882 497.688 775.706 497.688ZM772.586 506.76C773.306 507.48 774.21 507.84 775.298 507.84C776.386 507.84 777.29 507.48 778.01 506.76C778.73 506.024 779.09 505.104 779.09 504C779.09 502.896 778.73 501.984 778.01 501.264C777.29 500.528 776.386 500.16 775.298 500.16C774.21 500.16 773.306 500.528 772.586 501.264C771.866 501.984 771.506 502.896 771.506 504C771.506 505.104 771.866 506.024 772.586 506.76ZM794.64 510H791.544L786.624 504.456V510H784.032V498H786.624V503.304L791.28 498H794.448L789.168 503.88L794.64 510ZM804.926 498H807.518V510H804.926V508.272C803.95 509.632 802.55 510.312 800.726 510.312C799.078 510.312 797.67 509.704 796.502 508.488C795.334 507.256 794.75 505.76 794.75 504C794.75 502.224 795.334 500.728 796.502 499.512C797.67 498.296 799.078 497.688 800.726 497.688C802.55 497.688 803.95 498.36 804.926 499.704V498ZM798.422 506.76C799.142 507.48 800.046 507.84 801.134 507.84C802.222 507.84 803.126 507.48 803.846 506.76C804.566 506.024 804.926 505.104 804.926 504C804.926 502.896 804.566 501.984 803.846 501.264C803.126 500.528 802.222 500.16 801.134 500.16C800.046 500.16 799.142 500.528 798.422 501.264C797.702 501.984 797.342 502.896 797.342 504C797.342 505.104 797.702 506.024 798.422 506.76ZM822.107 510.312C820.267 510.312 818.763 509.72 817.595 508.536C816.443 507.336 815.867 505.808 815.867 503.952C815.867 501.92 816.171 500.352 816.779 499.248C817.387 498.128 818.619 497.112 820.475 496.2C820.779 496.056 821.227 495.848 821.819 495.576C822.427 495.304 822.843 495.112 823.067 495C823.291 494.872 823.571 494.696 823.907 494.472C824.243 494.232 824.491 493.984 824.651 493.728C824.811 493.456 824.939 493.136 825.035 492.768L827.147 493.992C827.083 494.344 826.979 494.672 826.835 494.976C826.691 495.264 826.483 495.536 826.211 495.792C825.939 496.048 825.699 496.256 825.491 496.416C825.299 496.576 824.971 496.768 824.507 496.992C824.043 497.216 823.699 497.376 823.475 497.472C823.267 497.568 822.867 497.736 822.275 497.976C821.219 498.392 820.443 498.824 819.947 499.272C819.467 499.704 819.131 500.248 818.939 500.904C819.899 499.816 821.203 499.272 822.851 499.272C824.259 499.272 825.483 499.776 826.523 500.784C827.579 501.792 828.107 503.096 828.107 504.696C828.107 506.328 827.547 507.672 826.427 508.728C825.323 509.784 823.883 510.312 822.107 510.312ZM822.083 507.888C823.091 507.888 823.915 507.592 824.555 507C825.195 506.392 825.515 505.624 825.515 504.696C825.515 503.752 825.195 502.976 824.555 502.368C823.931 501.76 823.115 501.456 822.107 501.456C821.211 501.456 820.403 501.744 819.683 502.32C818.963 502.88 818.603 503.632 818.603 504.576C818.603 505.536 818.939 506.328 819.611 506.952C820.283 507.576 821.107 507.888 822.083 507.888ZM838.845 498H840.837V510H838.293V502.368L832.149 510H830.157V498H832.701V505.608L838.845 498ZM850.588 503.856C851.868 504.432 852.508 505.384 852.508 506.712C852.508 507.736 852.092 508.592 851.26 509.28C850.428 509.968 849.268 510.312 847.78 510.312C845.364 510.312 843.732 509.352 842.884 507.432L844.996 506.184C845.428 507.384 846.364 507.984 847.804 507.984C848.476 507.984 849.004 507.848 849.388 507.576C849.772 507.288 849.964 506.912 849.964 506.448C849.964 506.032 849.812 505.704 849.508 505.464C849.204 505.208 848.78 505.08 848.236 505.08H846.532V502.8H847.804C848.332 502.8 848.74 502.68 849.028 502.44C849.332 502.184 849.484 501.84 849.484 501.408C849.484 500.992 849.316 500.656 848.98 500.4C848.644 500.128 848.196 499.992 847.636 499.992C846.436 499.992 845.604 500.52 845.14 501.576L843.028 500.376C843.924 498.584 845.444 497.688 847.588 497.688C848.932 497.688 849.996 498.032 850.78 498.72C851.58 499.392 851.98 500.216 851.98 501.192C851.98 502.392 851.516 503.28 850.588 503.856ZM862.713 498H865.305V510H862.713V505.224H857.217V510H854.625V498H857.217V502.776H862.713V498ZM870.353 505.104C870.545 506.016 870.985 506.72 871.673 507.216C872.361 507.696 873.201 507.936 874.193 507.936C875.569 507.936 876.601 507.44 877.289 506.448L879.425 507.696C878.241 509.44 876.489 510.312 874.169 510.312C872.217 510.312 870.641 509.72 869.441 508.536C868.241 507.336 867.641 505.824 867.641 504C867.641 502.208 868.233 500.712 869.417 499.512C870.601 498.296 872.121 497.688 873.977 497.688C875.737 497.688 877.177 498.304 878.297 499.536C879.433 500.768 880.001 502.264 880.001 504.024C880.001 504.296 879.969 504.656 879.905 505.104H870.353ZM870.329 502.992H877.385C877.209 502.016 876.801 501.28 876.161 500.784C875.537 500.288 874.801 500.04 873.953 500.04C872.993 500.04 872.193 500.304 871.553 500.832C870.913 501.36 870.505 502.08 870.329 502.992ZM887.875 510.312C886.067 510.312 884.555 509.704 883.339 508.488C882.139 507.272 881.539 505.776 881.539 504C881.539 502.208 882.139 500.712 883.339 499.512C884.555 498.296 886.067 497.688 887.875 497.688C889.043 497.688 890.107 497.968 891.067 498.528C892.027 499.088 892.747 499.84 893.227 500.784L890.995 502.08C890.723 501.504 890.307 501.056 889.747 500.736C889.203 500.4 888.571 500.232 887.851 500.232C886.795 500.232 885.907 500.592 885.187 501.312C884.483 502.032 884.131 502.928 884.131 504C884.131 505.072 884.483 505.968 885.187 506.688C885.907 507.408 886.795 507.768 887.851 507.768C888.555 507.768 889.187 507.6 889.747 507.264C890.323 506.928 890.755 506.48 891.043 505.92L893.275 507.192C892.763 508.152 892.027 508.912 891.067 509.472C890.107 510.032 889.043 510.312 887.875 510.312ZM895.387 503.952V501.456H904.267V503.952H895.387ZM689.368 530V532.496H683.92V542H681.328V530H689.368ZM699.813 530H701.805V542H699.261V534.368L693.117 542H691.125V530H693.669V537.608L699.813 530ZM715.493 530V542H712.901V532.448H707.405V542H704.813V530H715.493ZM724.164 542.312C722.404 542.312 720.908 541.704 719.676 540.488C718.444 539.272 717.828 537.776 717.828 536C717.828 534.224 718.444 532.728 719.676 531.512C720.908 530.296 722.404 529.688 724.164 529.688C725.94 529.688 727.436 530.296 728.652 531.512C729.884 532.728 730.5 534.224 730.5 536C730.5 537.776 729.884 539.272 728.652 540.488C727.436 541.704 725.94 542.312 724.164 542.312ZM721.5 538.712C722.22 539.432 723.108 539.792 724.164 539.792C725.22 539.792 726.108 539.432 726.828 538.712C727.548 537.992 727.908 537.088 727.908 536C727.908 534.912 727.548 534.008 726.828 533.288C726.108 532.568 725.22 532.208 724.164 532.208C723.108 532.208 722.22 532.568 721.5 533.288C720.78 534.008 720.42 534.912 720.42 536C720.42 537.088 720.78 537.992 721.5 538.712ZM741.543 530V532.496H737.631V542H735.039V532.496H731.103V530H741.543ZM744.868 537.104C745.06 538.016 745.5 538.72 746.188 539.216C746.876 539.696 747.716 539.936 748.708 539.936C750.084 539.936 751.116 539.44 751.804 538.448L753.94 539.696C752.756 541.44 751.004 542.312 748.684 542.312C746.732 542.312 745.156 541.72 743.956 540.536C742.756 539.336 742.156 537.824 742.156 536C742.156 534.208 742.748 532.712 743.932 531.512C745.116 530.296 746.636 529.688 748.492 529.688C750.252 529.688 751.692 530.304 752.812 531.536C753.948 532.768 754.516 534.264 754.516 536.024C754.516 536.296 754.484 536.656 754.42 537.104H744.868ZM744.844 534.992H751.9C751.724 534.016 751.316 533.28 750.676 532.784C750.052 532.288 749.316 532.04 748.468 532.04C747.508 532.04 746.708 532.304 746.068 532.832C745.428 533.36 745.02 534.08 744.844 534.992ZM763.307 535.856C764.587 536.432 765.227 537.384 765.227 538.712C765.227 539.736 764.811 540.592 763.979 541.28C763.147 541.968 761.987 542.312 760.499 542.312C758.083 542.312 756.451 541.352 755.603 539.432L757.715 538.184C758.147 539.384 759.083 539.984 760.523 539.984C761.195 539.984 761.723 539.848 762.107 539.576C762.491 539.288 762.683 538.912 762.683 538.448C762.683 538.032 762.531 537.704 762.227 537.464C761.923 537.208 761.499 537.08 760.955 537.08H759.251V534.8H760.523C761.051 534.8 761.459 534.68 761.747 534.44C762.051 534.184 762.203 533.84 762.203 533.408C762.203 532.992 762.035 532.656 761.699 532.4C761.363 532.128 760.915 531.992 760.355 531.992C759.155 531.992 758.323 532.52 757.859 533.576L755.747 532.376C756.643 530.584 758.163 529.688 760.307 529.688C761.651 529.688 762.715 530.032 763.499 530.72C764.299 531.392 764.699 532.216 764.699 533.192C764.699 534.392 764.235 535.28 763.307 535.856ZM781.648 535.832C782.832 536.376 783.424 537.296 783.424 538.592C783.424 539.6 783.08 540.424 782.392 541.064C781.72 541.688 780.752 542 779.488 542H773.344V530H779.008C780.24 530 781.192 530.312 781.864 530.936C782.552 531.544 782.896 532.336 782.896 533.312C782.896 534.448 782.48 535.288 781.648 535.832ZM778.816 532.208H775.816V534.872H778.816C779.872 534.872 780.4 534.424 780.4 533.528C780.4 532.648 779.872 532.208 778.816 532.208ZM779.248 539.744C780.336 539.744 780.88 539.272 780.88 538.328C780.88 537.912 780.736 537.592 780.448 537.368C780.16 537.128 779.76 537.008 779.248 537.008H775.816V539.744H779.248ZM795.425 530V542H792.833V532.496H788.825V536.96C788.825 538.864 788.409 540.216 787.577 541.016C786.745 541.816 785.561 542.144 784.025 542V539.576C784.761 539.704 785.313 539.552 785.681 539.12C786.049 538.688 786.233 537.928 786.233 536.84V530H795.425ZM807.95 530H810.542V542H807.95V540.272C806.974 541.632 805.574 542.312 803.75 542.312C802.102 542.312 800.694 541.704 799.526 540.488C798.358 539.256 797.774 537.76 797.774 536C797.774 534.224 798.358 532.728 799.526 531.512C800.694 530.296 802.102 529.688 803.75 529.688C805.574 529.688 806.974 530.36 807.95 531.704V530ZM801.446 538.76C802.166 539.48 803.07 539.84 804.158 539.84C805.246 539.84 806.15 539.48 806.87 538.76C807.59 538.024 807.95 537.104 807.95 536C807.95 534.896 807.59 533.984 806.87 533.264C806.15 532.528 805.246 532.16 804.158 532.16C803.07 532.16 802.166 532.528 801.446 533.264C800.726 533.984 800.366 534.896 800.366 536C800.366 537.104 800.726 538.024 801.446 538.76ZM824.123 539.552H825.731V545.216H823.187V542H814.955V545.216H812.411V539.552H813.875C814.611 538.512 814.979 537.064 814.979 535.208V530H824.123V539.552ZM816.731 539.552H821.579V532.376H817.523V535.208C817.523 536.92 817.259 538.368 816.731 539.552ZM829.407 537.104C829.599 538.016 830.039 538.72 830.727 539.216C831.415 539.696 832.255 539.936 833.247 539.936C834.623 539.936 835.655 539.44 836.343 538.448L838.479 539.696C837.295 541.44 835.543 542.312 833.223 542.312C831.271 542.312 829.695 541.72 828.495 540.536C827.295 539.336 826.695 537.824 826.695 536C826.695 534.208 827.287 532.712 828.471 531.512C829.655 530.296 831.175 529.688 833.031 529.688C834.791 529.688 836.231 530.304 837.351 531.536C838.487 532.768 839.055 534.264 839.055 536.024C839.055 536.296 839.023 536.656 838.959 537.104H829.407ZM829.383 534.992H836.439C836.263 534.016 835.855 533.28 835.215 532.784C834.591 532.288 833.855 532.04 833.007 532.04C832.047 532.04 831.247 532.304 830.607 532.832C829.967 533.36 829.559 534.08 829.383 534.992ZM850.995 530V542H848.403V532.496H844.395V536.96C844.395 538.864 843.979 540.216 843.147 541.016C842.315 541.816 841.131 542.144 839.595 542V539.576C840.331 539.704 840.883 539.552 841.251 539.12C841.619 538.688 841.803 537.928 841.803 536.84V530H850.995ZM859.248 534.08C860.528 534.08 861.576 534.448 862.392 535.184C863.208 535.904 863.616 536.856 863.616 538.04C863.616 539.208 863.208 540.16 862.392 540.896C861.576 541.632 860.528 542 859.248 542H854.016V530H856.608V534.08H859.248ZM859.272 539.672C859.784 539.672 860.208 539.52 860.544 539.216C860.896 538.912 861.072 538.52 861.072 538.04C861.072 537.544 860.896 537.152 860.544 536.864C860.208 536.56 859.784 536.408 859.272 536.408H856.608V539.672H859.272ZM876.055 539.552H878.023V545.216H875.479V542H865.735V530H868.327V539.552H873.463V530H876.055V539.552ZM889.161 530H891.753V542H889.161V540.272C888.185 541.632 886.785 542.312 884.961 542.312C883.313 542.312 881.905 541.704 880.737 540.488C879.569 539.256 878.985 537.76 878.985 536C878.985 534.224 879.569 532.728 880.737 531.512C881.905 530.296 883.313 529.688 884.961 529.688C886.785 529.688 888.185 530.36 889.161 531.704V530ZM882.657 538.76C883.377 539.48 884.281 539.84 885.369 539.84C886.457 539.84 887.361 539.48 888.081 538.76C888.801 538.024 889.161 537.104 889.161 536C889.161 534.896 888.801 533.984 888.081 533.264C887.361 532.528 886.457 532.16 885.369 532.16C884.281 532.16 883.377 532.528 882.657 533.264C881.937 533.984 881.577 534.896 881.577 536C881.577 537.104 881.937 538.024 882.657 538.76ZM907.014 530V542H904.494V534.104L901.038 539.6H900.726L897.294 534.128V542H894.774V530H897.414L900.894 535.544L904.374 530H907.014ZM918.696 530H920.688V542H918.144V534.368L912 542H910.008V530H912.552V537.608L918.696 530ZM686.243 562V574H683.651V564.448H678.155V574H675.563V562H686.243ZM696.042 561.688C697.69 561.688 699.098 562.304 700.266 563.536C701.434 564.752 702.018 566.24 702.018 568C702.018 569.776 701.434 571.272 700.266 572.488C699.098 573.704 697.69 574.312 696.042 574.312C694.218 574.312 692.818 573.64 691.842 572.296V578.8H689.25V562H691.842V563.728C692.818 562.368 694.218 561.688 696.042 561.688ZM692.922 570.76C693.642 571.48 694.546 571.84 695.634 571.84C696.722 571.84 697.626 571.48 698.346 570.76C699.066 570.024 699.426 569.104 699.426 568C699.426 566.896 699.066 565.984 698.346 565.264C697.626 564.528 696.722 564.16 695.634 564.16C694.546 564.16 693.642 564.528 692.922 565.264C692.202 565.984 691.842 566.896 691.842 568C691.842 569.104 692.202 570.024 692.922 570.76ZM710.031 574.312C708.271 574.312 706.775 573.704 705.543 572.488C704.311 571.272 703.695 569.776 703.695 568C703.695 566.224 704.311 564.728 705.543 563.512C706.775 562.296 708.271 561.688 710.031 561.688C711.807 561.688 713.303 562.296 714.519 563.512C715.751 564.728 716.367 566.224 716.367 568C716.367 569.776 715.751 571.272 714.519 572.488C713.303 573.704 711.807 574.312 710.031 574.312ZM707.367 570.712C708.087 571.432 708.975 571.792 710.031 571.792C711.087 571.792 711.975 571.432 712.695 570.712C713.415 569.992 713.775 569.088 713.775 568C713.775 566.912 713.415 566.008 712.695 565.288C711.975 564.568 711.087 564.208 710.031 564.208C708.975 564.208 708.087 564.568 707.367 565.288C706.647 566.008 706.287 566.912 706.287 568C706.287 569.088 706.647 569.992 707.367 570.712ZM728.802 571.552H730.41V577.216H727.866V574H719.634V577.216H717.09V571.552H718.554C719.29 570.512 719.658 569.064 719.658 567.208V562H728.802V571.552ZM721.41 571.552H726.258V564.376H722.202V567.208C722.202 568.92 721.938 570.368 721.41 571.552ZM740.135 562H742.895L738.287 574.384C737.727 575.904 736.943 577.04 735.935 577.792C734.927 578.544 733.759 578.88 732.431 578.8V576.376C733.247 576.424 733.903 576.256 734.399 575.872C734.911 575.504 735.319 574.904 735.623 574.072L735.695 573.904L730.655 562H733.415L737.063 570.736L740.135 562ZM755.124 574H752.028L747.108 568.456V574H744.516V562H747.108V567.304L751.764 562H754.932L749.652 567.88L755.124 574ZM766.035 562V564.496H762.123V574H759.531V564.496H755.595V562H766.035ZM772.985 574.312C771.225 574.312 769.729 573.704 768.497 572.488C767.265 571.272 766.649 569.776 766.649 568C766.649 566.224 767.265 564.728 768.497 563.512C769.729 562.296 771.225 561.688 772.985 561.688C774.761 561.688 776.257 562.296 777.473 563.512C778.705 564.728 779.321 566.224 779.321 568C779.321 569.776 778.705 571.272 777.473 572.488C776.257 573.704 774.761 574.312 772.985 574.312ZM770.321 570.712C771.041 571.432 771.929 571.792 772.985 571.792C774.041 571.792 774.929 571.432 775.649 570.712C776.369 569.992 776.729 569.088 776.729 568C776.729 566.912 776.369 566.008 775.649 565.288C774.929 564.568 774.041 564.208 772.985 564.208C771.929 564.208 771.041 564.568 770.321 565.288C769.601 566.008 769.241 566.912 769.241 568C769.241 569.088 769.601 569.992 770.321 570.712ZM789.968 567.832C791.152 568.376 791.744 569.296 791.744 570.592C791.744 571.6 791.4 572.424 790.712 573.064C790.04 573.688 789.072 574 787.808 574H781.664V562H787.328C788.56 562 789.512 562.312 790.184 562.936C790.872 563.544 791.216 564.336 791.216 565.312C791.216 566.448 790.8 567.288 789.968 567.832ZM787.136 564.208H784.136V566.872H787.136C788.192 566.872 788.72 566.424 788.72 565.528C788.72 564.648 788.192 564.208 787.136 564.208ZM787.568 571.744C788.656 571.744 789.2 571.272 789.2 570.328C789.2 569.912 789.056 569.592 788.768 569.368C788.48 569.128 788.08 569.008 787.568 569.008H784.136V571.744H787.568ZM794.5 576.4H793.18L802.78 554.8H804.1L794.5 576.4ZM817.141 562V574H814.549V564.448H809.053V574H806.461V562H817.141ZM826.941 561.688C828.589 561.688 829.997 562.304 831.165 563.536C832.333 564.752 832.917 566.24 832.917 568C832.917 569.776 832.333 571.272 831.165 572.488C829.997 573.704 828.589 574.312 826.941 574.312C825.117 574.312 823.717 573.64 822.741 572.296V578.8H820.149V562H822.741V563.728C823.717 562.368 825.117 561.688 826.941 561.688ZM823.821 570.76C824.541 571.48 825.445 571.84 826.533 571.84C827.621 571.84 828.525 571.48 829.245 570.76C829.965 570.024 830.325 569.104 830.325 568C830.325 566.896 829.965 565.984 829.245 565.264C828.525 564.528 827.621 564.16 826.533 564.16C825.445 564.16 824.541 564.528 823.821 565.264C823.101 565.984 822.741 566.896 822.741 568C822.741 569.104 823.101 570.024 823.821 570.76ZM840.93 574.312C839.17 574.312 837.674 573.704 836.442 572.488C835.21 571.272 834.594 569.776 834.594 568C834.594 566.224 835.21 564.728 836.442 563.512C837.674 562.296 839.17 561.688 840.93 561.688C842.706 561.688 844.202 562.296 845.418 563.512C846.65 564.728 847.266 566.224 847.266 568C847.266 569.776 846.65 571.272 845.418 572.488C844.202 573.704 842.706 574.312 840.93 574.312ZM838.266 570.712C838.986 571.432 839.874 571.792 840.93 571.792C841.986 571.792 842.874 571.432 843.594 570.712C844.314 569.992 844.674 569.088 844.674 568C844.674 566.912 844.314 566.008 843.594 565.288C842.874 564.568 841.986 564.208 840.93 564.208C839.874 564.208 838.986 564.568 838.266 565.288C837.546 566.008 837.186 566.912 837.186 568C837.186 569.088 837.546 569.992 838.266 570.712ZM859.93 571.552H861.898V577.216H859.354V574H849.61V562H852.202V571.552H857.338V562H859.93V571.552ZM865.572 569.104C865.764 570.016 866.204 570.72 866.892 571.216C867.58 571.696 868.42 571.936 869.412 571.936C870.788 571.936 871.82 571.44 872.508 570.448L874.644 571.696C873.46 573.44 871.708 574.312 869.388 574.312C867.436 574.312 865.86 573.72 864.66 572.536C863.46 571.336 862.86 569.824 862.86 568C862.86 566.208 863.452 564.712 864.636 563.512C865.82 562.296 867.34 561.688 869.196 561.688C870.956 561.688 872.396 562.304 873.516 563.536C874.652 564.768 875.22 566.264 875.22 568.024C875.22 568.296 875.188 568.656 875.124 569.104H865.572ZM865.548 566.992H872.604C872.428 566.016 872.02 565.28 871.38 564.784C870.756 564.288 870.02 564.04 869.172 564.04C868.212 564.04 867.412 564.304 866.772 564.832C866.132 565.36 865.724 566.08 865.548 566.992ZM883.094 574.312C881.286 574.312 879.774 573.704 878.558 572.488C877.358 571.272 876.758 569.776 876.758 568C876.758 566.208 877.358 564.712 878.558 563.512C879.774 562.296 881.286 561.688 883.094 561.688C884.262 561.688 885.326 561.968 886.286 562.528C887.246 563.088 887.966 563.84 888.446 564.784L886.214 566.08C885.942 565.504 885.526 565.056 884.966 564.736C884.422 564.4 883.79 564.232 883.07 564.232C882.014 564.232 881.126 564.592 880.406 565.312C879.702 566.032 879.35 566.928 879.35 568C879.35 569.072 879.702 569.968 880.406 570.688C881.126 571.408 882.014 571.768 883.07 571.768C883.774 571.768 884.406 571.6 884.966 571.264C885.542 570.928 885.974 570.48 886.262 569.92L888.494 571.192C887.982 572.152 887.246 572.912 886.286 573.472C885.326 574.032 884.262 574.312 883.094 574.312ZM895.844 574.312C894.036 574.312 892.524 573.704 891.308 572.488C890.108 571.272 889.508 569.776 889.508 568C889.508 566.208 890.108 564.712 891.308 563.512C892.524 562.296 894.036 561.688 895.844 561.688C897.012 561.688 898.076 561.968 899.036 562.528C899.996 563.088 900.716 563.84 901.196 564.784L898.964 566.08C898.692 565.504 898.276 565.056 897.716 564.736C897.172 564.4 896.54 564.232 895.82 564.232C894.764 564.232 893.876 564.592 893.156 565.312C892.452 566.032 892.1 566.928 892.1 568C892.1 569.072 892.452 569.968 893.156 570.688C893.876 571.408 894.764 571.768 895.82 571.768C896.524 571.768 897.156 571.6 897.716 571.264C898.292 570.928 898.724 570.48 899.012 569.92L901.244 571.192C900.732 572.152 899.996 572.912 899.036 573.472C898.076 574.032 897.012 574.312 895.844 574.312ZM908.594 574.312C906.834 574.312 905.338 573.704 904.106 572.488C902.874 571.272 902.258 569.776 902.258 568C902.258 566.224 902.874 564.728 904.106 563.512C905.338 562.296 906.834 561.688 908.594 561.688C910.37 561.688 911.866 562.296 913.082 563.512C914.314 564.728 914.93 566.224 914.93 568C914.93 569.776 914.314 571.272 913.082 572.488C911.866 573.704 910.37 574.312 908.594 574.312ZM905.93 570.712C906.65 571.432 907.538 571.792 908.594 571.792C909.65 571.792 910.538 571.432 911.258 570.712C911.978 569.992 912.338 569.088 912.338 568C912.338 566.912 911.978 566.008 911.258 565.288C910.538 564.568 909.65 564.208 908.594 564.208C907.538 564.208 906.65 564.568 905.93 565.288C905.21 566.008 904.85 566.912 904.85 568C904.85 569.088 905.21 569.992 905.93 570.712ZM925.578 567.832C926.762 568.376 927.354 569.296 927.354 570.592C927.354 571.6 927.01 572.424 926.322 573.064C925.65 573.688 924.682 574 923.418 574H917.274V562H922.938C924.17 562 925.122 562.312 925.794 562.936C926.482 563.544 926.826 564.336 926.826 565.312C926.826 566.448 926.41 567.288 925.578 567.832ZM922.746 564.208H919.746V566.872H922.746C923.802 566.872 924.33 566.424 924.33 565.528C924.33 564.648 923.802 564.208 922.746 564.208ZM923.178 571.744C924.266 571.744 924.81 571.272 924.81 570.328C924.81 569.912 924.666 569.592 924.378 569.368C924.09 569.128 923.69 569.008 923.178 569.008H919.746V571.744H923.178Z" fill="#0F0F69"/>
<rect x="241.694" y="436.772" width="324.281" height="194.361" rx="20" fill="#C2D0FF"/>
<path d="M320.2 527.21C317.25 527.21 314.805 526.239 312.864 524.298C310.922 522.338 309.952 519.921 309.952 517.046C309.952 514.171 310.922 511.763 312.864 509.822C314.805 507.862 317.25 506.882 320.2 506.882C321.973 506.882 323.606 507.302 325.1 508.142C326.612 508.982 327.788 510.121 328.628 511.558L325.828 513.182C325.305 512.211 324.54 511.446 323.532 510.886C322.542 510.307 321.432 510.018 320.2 510.018C318.109 510.018 316.41 510.681 315.104 512.006C313.816 513.331 313.172 515.011 313.172 517.046C313.172 519.081 313.816 520.761 315.104 522.086C316.41 523.411 318.109 524.074 320.2 524.074C321.432 524.074 322.552 523.794 323.56 523.234C324.568 522.655 325.324 521.881 325.828 520.91L328.628 522.506C327.806 523.943 326.64 525.091 325.128 525.95C323.634 526.79 321.992 527.21 320.2 527.21ZM337.687 527.21C335.634 527.21 333.889 526.501 332.451 525.082C331.014 523.663 330.295 521.918 330.295 519.846C330.295 517.774 331.014 516.029 332.451 514.61C333.889 513.191 335.634 512.482 337.687 512.482C339.759 512.482 341.505 513.191 342.923 514.61C344.361 516.029 345.079 517.774 345.079 519.846C345.079 521.918 344.361 523.663 342.923 525.082C341.505 526.501 339.759 527.21 337.687 527.21ZM334.579 523.01C335.419 523.85 336.455 524.27 337.687 524.27C338.919 524.27 339.955 523.85 340.795 523.01C341.635 522.17 342.055 521.115 342.055 519.846C342.055 518.577 341.635 517.522 340.795 516.682C339.955 515.842 338.919 515.422 337.687 515.422C336.455 515.422 335.419 515.842 334.579 516.682C333.739 517.522 333.319 518.577 333.319 519.846C333.319 521.115 333.739 522.17 334.579 523.01ZM354.422 527.21C352.369 527.21 350.623 526.501 349.186 525.082C347.749 523.663 347.03 521.918 347.03 519.846C347.03 517.774 347.749 516.029 349.186 514.61C350.623 513.191 352.369 512.482 354.422 512.482C356.494 512.482 358.239 513.191 359.658 514.61C361.095 516.029 361.814 517.774 361.814 519.846C361.814 521.918 361.095 523.663 359.658 525.082C358.239 526.501 356.494 527.21 354.422 527.21ZM351.314 523.01C352.154 523.85 353.19 524.27 354.422 524.27C355.654 524.27 356.69 523.85 357.53 523.01C358.37 522.17 358.79 521.115 358.79 519.846C358.79 518.577 358.37 517.522 357.53 516.682C356.69 515.842 355.654 515.422 354.422 515.422C353.19 515.422 352.154 515.842 351.314 516.682C350.474 517.522 350.054 518.577 350.054 519.846C350.054 521.115 350.474 522.17 351.314 523.01ZM374.697 512.846V515.758H370.133V526.846H367.109V515.758H362.517V512.846H374.697ZM386.432 519.65C387.813 520.285 388.504 521.358 388.504 522.87C388.504 524.046 388.102 525.007 387.3 525.754C386.516 526.482 385.386 526.846 383.912 526.846H376.744V512.846H383.352C384.789 512.846 385.9 513.21 386.684 513.938C387.486 514.647 387.888 515.571 387.888 516.71C387.888 518.035 387.402 519.015 386.432 519.65ZM383.128 515.422H379.628V518.53H383.128C384.36 518.53 384.976 518.007 384.976 516.962C384.976 515.935 384.36 515.422 383.128 515.422ZM383.632 524.214C384.901 524.214 385.536 523.663 385.536 522.562C385.536 522.077 385.368 521.703 385.032 521.442C384.696 521.162 384.229 521.022 383.632 521.022H379.628V524.214H383.632ZM393.342 521.134C393.566 522.198 394.08 523.019 394.882 523.598C395.685 524.158 396.665 524.438 397.822 524.438C399.428 524.438 400.632 523.859 401.434 522.702L403.926 524.158C402.545 526.193 400.501 527.21 397.794 527.21C395.517 527.21 393.678 526.519 392.278 525.138C390.878 523.738 390.178 521.974 390.178 519.846C390.178 517.755 390.869 516.01 392.25 514.61C393.632 513.191 395.405 512.482 397.57 512.482C399.624 512.482 401.304 513.201 402.61 514.638C403.936 516.075 404.598 517.821 404.598 519.874C404.598 520.191 404.561 520.611 404.486 521.134H393.342ZM393.314 518.67H401.546C401.341 517.531 400.865 516.673 400.118 516.094C399.39 515.515 398.532 515.226 397.542 515.226C396.422 515.226 395.489 515.534 394.742 516.15C393.996 516.766 393.52 517.606 393.314 518.67ZM417.408 512.846V515.758H412.844V526.846H409.82V515.758H405.228V512.846H417.408ZM425.516 527.21C423.406 527.21 421.642 526.501 420.224 525.082C418.824 523.663 418.124 521.918 418.124 519.846C418.124 517.755 418.824 516.01 420.224 514.61C421.642 513.191 423.406 512.482 425.516 512.482C426.878 512.482 428.12 512.809 429.24 513.462C430.36 514.115 431.2 514.993 431.76 516.094L429.156 517.606C428.838 516.934 428.353 516.411 427.7 516.038C427.065 515.646 426.328 515.45 425.488 515.45C424.256 515.45 423.22 515.87 422.38 516.71C421.558 517.55 421.148 518.595 421.148 519.846C421.148 521.097 421.558 522.142 422.38 522.982C423.22 523.822 424.256 524.242 425.488 524.242C426.309 524.242 427.046 524.046 427.7 523.654C428.372 523.262 428.876 522.739 429.212 522.086L431.816 523.57C431.218 524.69 430.36 525.577 429.24 526.23C428.12 526.883 426.878 527.21 425.516 527.21ZM444.561 512.846V515.758H439.997V526.846H436.973V515.758H432.381V512.846H444.561ZM456.295 519.65C457.676 520.285 458.367 521.358 458.367 522.87C458.367 524.046 457.965 525.007 457.163 525.754C456.379 526.482 455.249 526.846 453.775 526.846H446.607V512.846H453.215C454.652 512.846 455.763 513.21 456.547 513.938C457.349 514.647 457.751 515.571 457.751 516.71C457.751 518.035 457.265 519.015 456.295 519.65ZM452.991 515.422H449.491V518.53H452.991C454.223 518.53 454.839 518.007 454.839 516.962C454.839 515.935 454.223 515.422 452.991 515.422ZM453.495 524.214C454.764 524.214 455.399 523.663 455.399 522.562C455.399 522.077 455.231 521.703 454.895 521.442C454.559 521.162 454.092 521.022 453.495 521.022H449.491V524.214H453.495ZM470.962 512.846H473.286V526.846H470.318V517.942L463.15 526.846H460.826V512.846H463.794V521.722L470.962 512.846ZM479.174 521.134C479.398 522.198 479.912 523.019 480.714 523.598C481.517 524.158 482.497 524.438 483.654 524.438C485.26 524.438 486.464 523.859 487.266 522.702L489.758 524.158C488.377 526.193 486.333 527.21 483.626 527.21C481.349 527.21 479.51 526.519 478.11 525.138C476.71 523.738 476.01 521.974 476.01 519.846C476.01 517.755 476.701 516.01 478.082 514.61C479.464 513.191 481.237 512.482 483.402 512.482C485.456 512.482 487.136 513.201 488.442 514.638C489.768 516.075 490.43 517.821 490.43 519.874C490.43 520.191 490.393 520.611 490.318 521.134H479.174ZM479.146 518.67H487.378C487.173 517.531 486.697 516.673 485.95 516.094C485.222 515.515 484.364 515.226 483.374 515.226C482.254 515.226 481.321 515.534 480.574 516.15C479.828 516.766 479.352 517.606 479.146 518.67ZM315.939 548.482C317.862 548.482 319.504 549.201 320.867 550.638C322.23 552.057 322.911 553.793 322.911 555.846C322.911 557.918 322.23 559.663 320.867 561.082C319.504 562.501 317.862 563.21 315.939 563.21C313.811 563.21 312.178 562.426 311.039 560.858V568.446H308.015V548.846H311.039V550.862C312.178 549.275 313.811 548.482 315.939 548.482ZM312.299 559.066C313.139 559.906 314.194 560.326 315.463 560.326C316.732 560.326 317.787 559.906 318.627 559.066C319.467 558.207 319.887 557.134 319.887 555.846C319.887 554.558 319.467 553.494 318.627 552.654C317.787 551.795 316.732 551.366 315.463 551.366C314.194 551.366 313.139 551.795 312.299 552.654C311.459 553.494 311.039 554.558 311.039 555.846C311.039 557.134 311.459 558.207 312.299 559.066ZM335.788 548.846H338.112V562.846H335.144V553.942L327.976 562.846H325.652V548.846H328.62V557.722L335.788 548.846ZM352.316 548.846V551.758H347.752V562.846H344.728V551.758H340.136V548.846H352.316ZM368.643 548.846V562.846H365.703V553.634L361.671 560.046H361.307L357.303 553.662V562.846H354.363V548.846H357.443L361.503 555.314L365.563 548.846H368.643ZM381.572 548.846H384.792L379.416 563.294C378.763 565.067 377.848 566.393 376.672 567.27C375.496 568.147 374.133 568.539 372.584 568.446V565.618C373.536 565.674 374.301 565.478 374.88 565.03C375.477 564.601 375.953 563.901 376.308 562.93L376.392 562.734L370.512 548.846H373.732L377.988 559.038L381.572 548.846ZM400.179 563.21C398.032 563.21 396.278 562.519 394.915 561.138C393.571 559.738 392.899 557.955 392.899 555.79C392.899 553.419 393.254 551.59 393.963 550.302C394.672 548.995 396.11 547.81 398.275 546.746C398.63 546.578 399.152 546.335 399.843 546.018C400.552 545.701 401.038 545.477 401.299 545.346C401.56 545.197 401.887 544.991 402.279 544.73C402.671 544.45 402.96 544.161 403.147 543.862C403.334 543.545 403.483 543.171 403.595 542.742L406.059 544.17C405.984 544.581 405.863 544.963 405.695 545.318C405.527 545.654 405.284 545.971 404.967 546.27C404.65 546.569 404.37 546.811 404.127 546.998C403.903 547.185 403.52 547.409 402.979 547.67C402.438 547.931 402.036 548.118 401.775 548.23C401.532 548.342 401.066 548.538 400.375 548.818C399.143 549.303 398.238 549.807 397.659 550.33C397.099 550.834 396.707 551.469 396.483 552.234C397.603 550.965 399.124 550.33 401.047 550.33C402.69 550.33 404.118 550.918 405.331 552.094C406.563 553.27 407.179 554.791 407.179 556.658C407.179 558.562 406.526 560.13 405.219 561.362C403.931 562.594 402.251 563.21 400.179 563.21ZM400.151 560.382C401.327 560.382 402.288 560.037 403.035 559.346C403.782 558.637 404.155 557.741 404.155 556.658C404.155 555.557 403.782 554.651 403.035 553.942C402.307 553.233 401.355 552.878 400.179 552.878C399.134 552.878 398.191 553.214 397.351 553.886C396.511 554.539 396.091 555.417 396.091 556.518C396.091 557.638 396.483 558.562 397.267 559.29C398.051 560.018 399.012 560.382 400.151 560.382ZM419.706 548.846H422.03V562.846H419.062V553.942L411.894 562.846H409.57V548.846H412.538V557.722L419.706 548.846ZM433.406 555.678C434.9 556.35 435.646 557.461 435.646 559.01C435.646 560.205 435.161 561.203 434.19 562.006C433.22 562.809 431.866 563.21 430.13 563.21C427.312 563.21 425.408 562.09 424.418 559.85L426.882 558.394C427.386 559.794 428.478 560.494 430.158 560.494C430.942 560.494 431.558 560.335 432.006 560.018C432.454 559.682 432.678 559.243 432.678 558.702C432.678 558.217 432.501 557.834 432.146 557.554C431.792 557.255 431.297 557.106 430.662 557.106H428.674V554.446H430.158C430.774 554.446 431.25 554.306 431.586 554.026C431.941 553.727 432.118 553.326 432.118 552.822C432.118 552.337 431.922 551.945 431.53 551.646C431.138 551.329 430.616 551.17 429.962 551.17C428.562 551.17 427.592 551.786 427.05 553.018L424.586 551.618C425.632 549.527 427.405 548.482 429.906 548.482C431.474 548.482 432.716 548.883 433.63 549.686C434.564 550.47 435.03 551.431 435.03 552.57C435.03 553.97 434.489 555.006 433.406 555.678ZM447.553 548.846H450.577V562.846H447.553V557.274H441.141V562.846H438.117V548.846H441.141V554.418H447.553V548.846ZM456.465 557.134C456.689 558.198 457.203 559.019 458.005 559.598C458.808 560.158 459.788 560.438 460.945 560.438C462.551 560.438 463.755 559.859 464.557 558.702L467.049 560.158C465.668 562.193 463.624 563.21 460.917 563.21C458.64 563.21 456.801 562.519 455.401 561.138C454.001 559.738 453.301 557.974 453.301 555.846C453.301 553.755 453.992 552.01 455.373 550.61C456.755 549.191 458.528 548.482 460.693 548.482C462.747 548.482 464.427 549.201 465.733 550.638C467.059 552.075 467.721 553.821 467.721 555.874C467.721 556.191 467.684 556.611 467.609 557.134H456.465ZM456.437 554.67H464.669C464.464 553.531 463.988 552.673 463.241 552.094C462.513 551.515 461.655 551.226 460.665 551.226C459.545 551.226 458.612 551.534 457.865 552.15C457.119 552.766 456.643 553.606 456.437 554.67ZM476.908 563.21C474.799 563.21 473.035 562.501 471.616 561.082C470.216 559.663 469.516 557.918 469.516 555.846C469.516 553.755 470.216 552.01 471.616 550.61C473.035 549.191 474.799 548.482 476.908 548.482C478.271 548.482 479.512 548.809 480.632 549.462C481.752 550.115 482.592 550.993 483.152 552.094L480.548 553.606C480.231 552.934 479.746 552.411 479.092 552.038C478.458 551.646 477.72 551.45 476.88 551.45C475.648 551.45 474.612 551.87 473.772 552.71C472.951 553.55 472.54 554.595 472.54 555.846C472.54 557.097 472.951 558.142 473.772 558.982C474.612 559.822 475.648 560.242 476.88 560.242C477.702 560.242 478.439 560.046 479.092 559.654C479.764 559.262 480.268 558.739 480.604 558.086L483.208 559.57C482.611 560.69 481.752 561.577 480.632 562.23C479.512 562.883 478.271 563.21 476.908 563.21ZM496.263 548.846H499.287V562.846H496.263V560.83C495.125 562.417 493.491 563.21 491.363 563.21C489.441 563.21 487.798 562.501 486.435 561.082C485.073 559.645 484.391 557.899 484.391 555.846C484.391 553.774 485.073 552.029 486.435 550.61C487.798 549.191 489.441 548.482 491.363 548.482C493.491 548.482 495.125 549.266 496.263 550.834V548.846ZM488.675 559.066C489.515 559.906 490.57 560.326 491.839 560.326C493.109 560.326 494.163 559.906 495.003 559.066C495.843 558.207 496.263 557.134 496.263 555.846C496.263 554.558 495.843 553.494 495.003 552.654C494.163 551.795 493.109 551.366 491.839 551.366C490.57 551.366 489.515 551.795 488.675 552.654C487.835 553.494 487.415 554.558 487.415 555.846C487.415 557.134 487.835 558.207 488.675 559.066Z" fill="#0F0F69"/>
<rect x="881.933" y="206.464" width="324.281" height="194.361" rx="20" fill="#C2D0FF"/>
<path d="M950.16 276.038C952.008 276.038 953.548 276.654 954.78 277.886C956.03 279.118 956.656 280.649 956.656 282.478C956.656 284.289 956.03 285.82 954.78 287.07C953.548 288.302 952.008 288.918 950.16 288.918H946.156V295.638H942.936V276.038H950.16ZM950.16 285.894C951.112 285.894 951.896 285.577 952.512 284.942C953.128 284.289 953.436 283.468 953.436 282.478C953.436 281.489 953.128 280.677 952.512 280.042C951.896 279.389 951.112 279.062 950.16 279.062H946.156V285.894H950.16ZM960.651 289.926C960.875 290.99 961.388 291.812 962.191 292.39C962.994 292.95 963.974 293.23 965.131 293.23C966.736 293.23 967.94 292.652 968.743 291.494L971.235 292.95C969.854 294.985 967.81 296.002 965.103 296.002C962.826 296.002 960.987 295.312 959.587 293.93C958.187 292.53 957.487 290.766 957.487 288.638C957.487 286.548 958.178 284.802 959.559 283.402C960.94 281.984 962.714 281.274 964.879 281.274C966.932 281.274 968.612 281.993 969.919 283.43C971.244 284.868 971.907 286.613 971.907 288.666C971.907 288.984 971.87 289.404 971.795 289.926H960.651ZM960.623 287.462H968.855C968.65 286.324 968.174 285.465 967.427 284.886C966.699 284.308 965.84 284.018 964.851 284.018C963.731 284.018 962.798 284.326 962.051 284.942C961.304 285.558 960.828 286.398 960.623 287.462ZM985.837 281.638V295.638H982.813V284.55H978.137V289.758C978.137 291.98 977.652 293.557 976.681 294.49C975.71 295.424 974.329 295.806 972.537 295.638V292.81C973.396 292.96 974.04 292.782 974.469 292.278C974.898 291.774 975.113 290.888 975.113 289.618V281.638H985.837ZM999.497 281.638H1001.82V295.638H998.853V286.734L991.685 295.638H989.361V281.638H992.329V290.514L999.497 281.638ZM1013.2 288.47C1014.69 289.142 1015.44 290.253 1015.44 291.802C1015.44 292.997 1014.95 293.996 1013.98 294.798C1013.01 295.601 1011.66 296.002 1009.92 296.002C1007.1 296.002 1005.2 294.882 1004.21 292.642L1006.67 291.186C1007.18 292.586 1008.27 293.286 1009.95 293.286C1010.73 293.286 1011.35 293.128 1011.8 292.81C1012.25 292.474 1012.47 292.036 1012.47 291.494C1012.47 291.009 1012.29 290.626 1011.94 290.346C1011.58 290.048 1011.09 289.898 1010.45 289.898H1008.47V287.238H1009.95C1010.57 287.238 1011.04 287.098 1011.38 286.818C1011.73 286.52 1011.91 286.118 1011.91 285.614C1011.91 285.129 1011.71 284.737 1011.32 284.438C1010.93 284.121 1010.41 283.962 1009.75 283.962C1008.35 283.962 1007.38 284.578 1006.84 285.81L1004.38 284.41C1005.42 282.32 1007.2 281.274 1009.7 281.274C1011.27 281.274 1012.51 281.676 1013.42 282.478C1014.35 283.262 1014.82 284.224 1014.82 285.362C1014.82 286.762 1014.28 287.798 1013.2 288.47ZM1024.01 286.398C1025.51 286.398 1026.73 286.828 1027.68 287.686C1028.63 288.526 1029.11 289.637 1029.11 291.018C1029.11 292.381 1028.63 293.492 1027.68 294.35C1026.73 295.209 1025.51 295.638 1024.01 295.638H1017.91V281.638H1020.93V286.398H1024.01ZM1030.79 281.638H1033.81V295.638H1030.79V281.638ZM1024.04 292.922C1024.64 292.922 1025.13 292.745 1025.52 292.39C1025.93 292.036 1026.14 291.578 1026.14 291.018C1026.14 290.44 1025.93 289.982 1025.52 289.646C1025.13 289.292 1024.64 289.114 1024.04 289.114H1020.93V292.922H1024.04ZM1056.7 295.638H1053.09L1047.35 289.17V295.638H1044.32V281.638H1047.35V287.826L1052.78 281.638H1056.47L1050.31 288.498L1056.7 295.638ZM1068.7 281.638H1071.72V295.638H1068.7V293.622C1067.56 295.209 1065.93 296.002 1063.8 296.002C1061.88 296.002 1060.23 295.293 1058.87 293.874C1057.51 292.437 1056.83 290.692 1056.83 288.638C1056.83 286.566 1057.51 284.821 1058.87 283.402C1060.23 281.984 1061.88 281.274 1063.8 281.274C1065.93 281.274 1067.56 282.058 1068.7 283.626V281.638ZM1061.11 291.858C1061.95 292.698 1063.01 293.118 1064.27 293.118C1065.54 293.118 1066.6 292.698 1067.44 291.858C1068.28 291 1068.7 289.926 1068.7 288.638C1068.7 287.35 1068.28 286.286 1067.44 285.446C1066.6 284.588 1065.54 284.158 1064.27 284.158C1063.01 284.158 1061.95 284.588 1061.11 285.446C1060.27 286.286 1059.85 287.35 1059.85 288.638C1059.85 289.926 1060.27 291 1061.11 291.858ZM1093.28 295.638H1089.84L1085.08 289.17V295.638H1082.11V289.226L1077.35 295.638H1073.9L1079.36 288.498L1074.18 281.638H1077.63L1082.11 287.77V281.638H1085.08V287.798L1089.56 281.638H1093L1087.82 288.498L1093.28 295.638ZM1107.77 292.782H1109.65V299.39H1106.68V295.638H1097.08V299.39H1094.11V292.782H1095.82C1096.68 291.569 1097.11 289.88 1097.11 287.714V281.638H1107.77V292.782ZM1099.15 292.782H1104.81V284.41H1100.07V287.714C1100.07 289.712 1099.77 291.401 1099.15 292.782ZM1118.21 286.398C1119.7 286.398 1120.93 286.828 1121.88 287.686C1122.83 288.526 1123.31 289.637 1123.31 291.018C1123.31 292.381 1122.83 293.492 1121.88 294.35C1120.93 295.209 1119.7 295.638 1118.21 295.638H1112.11V281.638H1115.13V286.398H1118.21ZM1124.99 281.638H1128.01V295.638H1124.99V281.638ZM1118.24 292.922C1118.84 292.922 1119.33 292.745 1119.72 292.39C1120.13 292.036 1120.34 291.578 1120.34 291.018C1120.34 290.44 1120.13 289.982 1119.72 289.646C1119.33 289.292 1118.84 289.114 1118.24 289.114H1115.13V292.922H1118.24ZM1133.9 289.926C1134.13 290.99 1134.64 291.812 1135.44 292.39C1136.24 292.95 1137.22 293.23 1138.38 293.23C1139.99 293.23 1141.19 292.652 1141.99 291.494L1144.49 292.95C1143.1 294.985 1141.06 296.002 1138.35 296.002C1136.08 296.002 1134.24 295.312 1132.84 293.93C1131.44 292.53 1130.74 290.766 1130.74 288.638C1130.74 286.548 1131.43 284.802 1132.81 283.402C1134.19 281.984 1135.96 281.274 1138.13 281.274C1140.18 281.274 1141.86 281.993 1143.17 283.43C1144.49 284.868 1145.16 286.613 1145.16 288.666C1145.16 288.984 1145.12 289.404 1145.05 289.926H1133.9ZM1133.87 287.462H1142.11C1141.9 286.324 1141.42 285.465 1140.68 284.886C1139.95 284.308 1139.09 284.018 1138.1 284.018C1136.98 284.018 1136.05 284.326 1135.3 284.942C1134.55 285.558 1134.08 286.398 1133.87 287.462ZM977.986 320.046C979.405 320.382 980.553 321.045 981.43 322.034C982.326 323.005 982.774 324.228 982.774 325.702C982.774 327.662 982.111 329.202 980.786 330.322C979.461 331.442 977.837 332.002 975.914 332.002C974.421 332.002 973.077 331.657 971.882 330.966C970.706 330.276 969.857 329.268 969.334 327.942L972.078 326.346C972.657 328.026 973.935 328.866 975.914 328.866C977.034 328.866 977.921 328.586 978.574 328.026C979.227 327.448 979.554 326.673 979.554 325.702C979.554 324.732 979.227 323.966 978.574 323.406C977.921 322.846 977.034 322.566 975.914 322.566H975.186L973.898 320.634L978.126 315.062H969.922V312.038H981.962V314.782L977.986 320.046ZM985.715 324.582V321.67H996.075V324.582H985.715ZM1013.79 325.114V328.11H1011.55V331.638H1008.3V328.11H998.673V325.114L1005.42 312.038H1008.92L1002.17 325.114H1008.3V320.018H1011.55V325.114H1013.79ZM1037.31 317.638V331.638H1034.37V322.426L1030.34 328.838H1029.98L1025.97 322.454V331.638H1023.03V317.638H1026.11L1030.17 324.106L1034.23 317.638H1037.31ZM1043.19 325.926C1043.41 326.99 1043.93 327.812 1044.73 328.39C1045.53 328.95 1046.51 329.23 1047.67 329.23C1049.27 329.23 1050.48 328.652 1051.28 327.494L1053.77 328.95C1052.39 330.985 1050.35 332.002 1047.64 332.002C1045.36 332.002 1043.52 331.312 1042.12 329.93C1040.72 328.53 1040.02 326.766 1040.02 324.638C1040.02 322.548 1040.71 320.802 1042.1 319.402C1043.48 317.984 1045.25 317.274 1047.42 317.274C1049.47 317.274 1051.15 317.993 1052.46 319.43C1053.78 320.868 1054.44 322.613 1054.44 324.666C1054.44 324.984 1054.41 325.404 1054.33 325.926H1043.19ZM1043.16 323.462H1051.39C1051.19 322.324 1050.71 321.465 1049.96 320.886C1049.24 320.308 1048.38 320.018 1047.39 320.018C1046.27 320.018 1045.33 320.326 1044.59 320.942C1043.84 321.558 1043.37 322.398 1043.16 323.462ZM1063.63 332.002C1061.52 332.002 1059.76 331.293 1058.34 329.874C1056.94 328.456 1056.24 326.71 1056.24 324.638C1056.24 322.548 1056.94 320.802 1058.34 319.402C1059.76 317.984 1061.52 317.274 1063.63 317.274C1064.99 317.274 1066.24 317.601 1067.36 318.254C1068.48 318.908 1069.32 319.785 1069.88 320.886L1067.27 322.398C1066.95 321.726 1066.47 321.204 1065.82 320.83C1065.18 320.438 1064.44 320.242 1063.6 320.242C1062.37 320.242 1061.34 320.662 1060.5 321.502C1059.67 322.342 1059.26 323.388 1059.26 324.638C1059.26 325.889 1059.67 326.934 1060.5 327.774C1061.34 328.614 1062.37 329.034 1063.6 329.034C1064.42 329.034 1065.16 328.838 1065.82 328.446C1066.49 328.054 1066.99 327.532 1067.33 326.878L1069.93 328.362C1069.33 329.482 1068.48 330.369 1067.36 331.022C1066.24 331.676 1064.99 332.002 1063.63 332.002ZM1082.76 317.638V331.638H1079.79V326.934H1078.11L1074.56 331.638H1071L1074.78 326.654C1073.81 326.337 1073.03 325.777 1072.43 324.974C1071.85 324.172 1071.56 323.276 1071.56 322.286C1071.56 320.998 1072.02 319.906 1072.93 319.01C1073.87 318.096 1075.06 317.638 1076.52 317.638H1082.76ZM1076.69 324.33H1079.79V320.382H1076.69C1076.07 320.382 1075.56 320.56 1075.15 320.914C1074.73 321.269 1074.53 321.754 1074.53 322.37C1074.53 322.968 1074.73 323.444 1075.15 323.798C1075.56 324.153 1076.07 324.33 1076.69 324.33ZM1098.32 328.782H1100.62V335.39H1097.65V331.638H1086.28V317.638H1089.3V328.782H1095.3V317.638H1098.32V328.782ZM1113.61 317.638H1116.64V331.638H1113.61V329.622C1112.47 331.209 1110.84 332.002 1108.71 332.002C1106.79 332.002 1105.15 331.293 1103.78 329.874C1102.42 328.437 1101.74 326.692 1101.74 324.638C1101.74 322.566 1102.42 320.821 1103.78 319.402C1105.15 317.984 1106.79 317.274 1108.71 317.274C1110.84 317.274 1112.47 318.058 1113.61 319.626V317.638ZM1106.02 327.858C1106.86 328.698 1107.92 329.118 1109.19 329.118C1110.46 329.118 1111.51 328.698 1112.35 327.858C1113.19 327 1113.61 325.926 1113.61 324.638C1113.61 323.35 1113.19 322.286 1112.35 321.446C1111.51 320.588 1110.46 320.158 1109.19 320.158C1107.92 320.158 1106.86 320.588 1106.02 321.446C1105.18 322.286 1104.76 323.35 1104.76 324.638C1104.76 325.926 1105.18 327 1106.02 327.858Z" fill="#0F0F69"/>
<rect y="206.464" width="324.281" height="194.361" rx="20" fill="#C2D0FF"/>
<path d="M99.8844 250.549V270.149H96.6644V253.629H88.6844V270.149H85.4644V250.549H99.8844ZM110.224 270.513C108.171 270.513 106.425 269.803 104.988 268.385C103.551 266.966 102.832 265.221 102.832 263.149C102.832 261.077 103.551 259.331 104.988 257.913C106.425 256.494 108.171 255.785 110.224 255.785C112.296 255.785 114.041 256.494 115.46 257.913C116.897 259.331 117.616 261.077 117.616 263.149C117.616 265.221 116.897 266.966 115.46 268.385C114.041 269.803 112.296 270.513 110.224 270.513ZM107.116 266.313C107.956 267.153 108.992 267.573 110.224 267.573C111.456 267.573 112.492 267.153 113.332 266.313C114.172 265.473 114.592 264.418 114.592 263.149C114.592 261.879 114.172 260.825 113.332 259.985C112.492 259.145 111.456 258.725 110.224 258.725C108.992 258.725 107.956 259.145 107.116 259.985C106.276 260.825 105.856 261.879 105.856 263.149C105.856 264.418 106.276 265.473 107.116 266.313ZM126.958 270.513C124.849 270.513 123.085 269.803 121.666 268.385C120.266 266.966 119.566 265.221 119.566 263.149C119.566 261.058 120.266 259.313 121.666 257.913C123.085 256.494 124.849 255.785 126.958 255.785C128.321 255.785 129.562 256.111 130.682 256.765C131.802 257.418 132.642 258.295 133.202 259.397L130.598 260.909C130.281 260.237 129.796 259.714 129.142 259.341C128.508 258.949 127.77 258.753 126.93 258.753C125.698 258.753 124.662 259.173 123.822 260.013C123.001 260.853 122.59 261.898 122.59 263.149C122.59 264.399 123.001 265.445 123.822 266.285C124.662 267.125 125.698 267.545 126.93 267.545C127.752 267.545 128.489 267.349 129.142 266.957C129.814 266.565 130.318 266.042 130.654 265.389L133.258 266.873C132.661 267.993 131.802 268.879 130.682 269.533C129.562 270.186 128.321 270.513 126.958 270.513ZM146.003 256.149V259.061H141.439V270.149H138.415V259.061H133.823V256.149H146.003ZM154.111 270.513C152.057 270.513 150.312 269.803 148.875 268.385C147.437 266.966 146.719 265.221 146.719 263.149C146.719 261.077 147.437 259.331 148.875 257.913C150.312 256.494 152.057 255.785 154.111 255.785C156.183 255.785 157.928 256.494 159.347 257.913C160.784 259.331 161.503 261.077 161.503 263.149C161.503 265.221 160.784 266.966 159.347 268.385C157.928 269.803 156.183 270.513 154.111 270.513ZM151.003 266.313C151.843 267.153 152.879 267.573 154.111 267.573C155.343 267.573 156.379 267.153 157.219 266.313C158.059 265.473 158.479 264.418 158.479 263.149C158.479 261.879 158.059 260.825 157.219 259.985C156.379 259.145 155.343 258.725 154.111 258.725C152.879 258.725 151.843 259.145 151.003 259.985C150.163 260.825 149.743 261.879 149.743 263.149C149.743 264.418 150.163 265.473 151.003 266.313ZM174.526 256.149V270.149H171.558V265.445H169.878L166.322 270.149H162.766L166.546 265.165C165.576 264.847 164.792 264.287 164.194 263.485C163.616 262.682 163.326 261.786 163.326 260.797C163.326 259.509 163.784 258.417 164.698 257.521C165.632 256.606 166.826 256.149 168.282 256.149H174.526ZM168.45 262.841H171.558V258.893H168.45C167.834 258.893 167.321 259.07 166.91 259.425C166.5 259.779 166.294 260.265 166.294 260.881C166.294 261.478 166.5 261.954 166.91 262.309C167.321 262.663 167.834 262.841 168.45 262.841ZM187.482 256.149H190.506V270.149H187.482V264.577H181.07V270.149H178.046V256.149H181.07V261.721H187.482V256.149ZM203.45 256.149H206.474V270.149H203.45V264.577H197.038V270.149H194.014V256.149H197.038V261.721H203.45V256.149ZM221.071 256.149H224.095V270.149H221.071V268.133C219.933 269.719 218.299 270.513 216.171 270.513C214.249 270.513 212.606 269.803 211.243 268.385C209.881 266.947 209.199 265.202 209.199 263.149C209.199 261.077 209.881 259.331 211.243 257.913C212.606 256.494 214.249 255.785 216.171 255.785C218.299 255.785 219.933 256.569 221.071 258.137V256.149ZM213.483 266.369C214.323 267.209 215.378 267.629 216.647 267.629C217.917 267.629 218.971 267.209 219.811 266.369C220.651 265.51 221.071 264.437 221.071 263.149C221.071 261.861 220.651 260.797 219.811 259.957C218.971 259.098 217.917 258.669 216.647 258.669C215.378 258.669 214.323 259.098 213.483 259.957C212.643 260.797 212.223 261.861 212.223 263.149C212.223 264.437 212.643 265.51 213.483 266.369ZM238.456 256.149V270.149H235.488V265.445H233.808L230.252 270.149H226.696L230.476 265.165C229.505 264.847 228.721 264.287 228.124 263.485C227.545 262.682 227.256 261.786 227.256 260.797C227.256 259.509 227.713 258.417 228.628 257.521C229.561 256.606 230.756 256.149 232.212 256.149H238.456ZM232.38 262.841H235.488V258.893H232.38C231.764 258.893 231.251 259.07 230.84 259.425C230.429 259.779 230.224 260.265 230.224 260.881C230.224 261.478 230.429 261.954 230.84 262.309C231.251 262.663 231.764 262.841 232.38 262.841ZM73.1053 292.149V306.149H70.0813V295.005H63.6693V306.149H60.6453V292.149H73.1053ZM84.5381 291.785C86.4608 291.785 88.1034 292.503 89.4661 293.941C90.8288 295.359 91.5101 297.095 91.5101 299.149C91.5101 301.221 90.8288 302.966 89.4661 304.385C88.1034 305.803 86.4608 306.513 84.5381 306.513C82.4101 306.513 80.7768 305.729 79.6381 304.161V311.749H76.6141V292.149H79.6381V294.165C80.7768 292.578 82.4101 291.785 84.5381 291.785ZM80.8981 302.369C81.7381 303.209 82.7928 303.629 84.0621 303.629C85.3314 303.629 86.3861 303.209 87.2261 302.369C88.0661 301.51 88.4861 300.437 88.4861 299.149C88.4861 297.861 88.0661 296.797 87.2261 295.957C86.3861 295.098 85.3314 294.669 84.0621 294.669C82.7928 294.669 81.7381 295.098 80.8981 295.957C80.0581 296.797 79.6381 297.861 79.6381 299.149C79.6381 300.437 80.0581 301.51 80.8981 302.369ZM104.387 292.149H106.711V306.149H103.743V297.245L96.5748 306.149H94.2508V292.149H97.2188V301.025L104.387 292.149ZM116.828 306.513C114.774 306.513 113.029 305.803 111.592 304.385C110.154 302.966 109.436 301.221 109.436 299.149C109.436 297.077 110.154 295.331 111.592 293.913C113.029 292.494 114.774 291.785 116.828 291.785C118.9 291.785 120.645 292.494 122.064 293.913C123.501 295.331 124.22 297.077 124.22 299.149C124.22 301.221 123.501 302.966 122.064 304.385C120.645 305.803 118.9 306.513 116.828 306.513ZM113.72 302.313C114.56 303.153 115.596 303.573 116.828 303.573C118.06 303.573 119.096 303.153 119.936 302.313C120.776 301.473 121.196 300.418 121.196 299.149C121.196 297.879 120.776 296.825 119.936 295.985C119.096 295.145 118.06 294.725 116.828 294.725C115.596 294.725 114.56 295.145 113.72 295.985C112.88 296.825 112.46 297.879 112.46 299.149C112.46 300.418 112.88 301.473 113.72 302.313ZM134.878 291.785C136.801 291.785 138.443 292.503 139.806 293.941C141.169 295.359 141.85 297.095 141.85 299.149C141.85 301.221 141.169 302.966 139.806 304.385C138.443 305.803 136.801 306.513 134.878 306.513C132.75 306.513 131.117 305.729 129.978 304.161V311.749H126.954V292.149H129.978V294.165C131.117 292.578 132.75 291.785 134.878 291.785ZM131.238 302.369C132.078 303.209 133.133 303.629 134.402 303.629C135.671 303.629 136.726 303.209 137.566 302.369C138.406 301.51 138.826 300.437 138.826 299.149C138.826 297.861 138.406 296.797 137.566 295.957C136.726 295.098 135.671 294.669 134.402 294.669C133.133 294.669 132.078 295.098 131.238 295.957C130.398 296.797 129.978 297.861 129.978 299.149C129.978 300.437 130.398 301.51 131.238 302.369ZM154.727 292.149H157.051V306.149H154.083V297.245L146.915 306.149H144.591V292.149H147.559V301.025L154.727 292.149ZM171.255 292.149V295.061H166.691V306.149H163.667V295.061H159.075V292.149H171.255ZM183.438 292.149H185.762V306.149H182.794V297.245L175.626 306.149H173.302V292.149H176.27V301.025L183.438 292.149ZM197.138 298.981C198.632 299.653 199.378 300.763 199.378 302.313C199.378 303.507 198.893 304.506 197.922 305.309C196.952 306.111 195.598 306.513 193.862 306.513C191.044 306.513 189.14 305.393 188.15 303.153L190.614 301.697C191.118 303.097 192.21 303.797 193.89 303.797C194.674 303.797 195.29 303.638 195.738 303.321C196.186 302.985 196.41 302.546 196.41 302.005C196.41 301.519 196.233 301.137 195.878 300.857C195.524 300.558 195.029 300.409 194.394 300.409H192.406V297.749H193.89C194.506 297.749 194.982 297.609 195.318 297.329C195.673 297.03 195.85 296.629 195.85 296.125C195.85 295.639 195.654 295.247 195.262 294.949C194.87 294.631 194.348 294.473 193.694 294.473C192.294 294.473 191.324 295.089 190.782 296.321L188.318 294.921C189.364 292.83 191.137 291.785 193.638 291.785C195.206 291.785 196.448 292.186 197.362 292.989C198.296 293.773 198.762 294.734 198.762 295.873C198.762 297.273 198.221 298.309 197.138 298.981ZM212.936 292.149H215.96V306.149H212.936V304.133C211.798 305.719 210.164 306.513 208.036 306.513C206.114 306.513 204.471 305.803 203.108 304.385C201.746 302.947 201.064 301.202 201.064 299.149C201.064 297.077 201.746 295.331 203.108 293.913C204.471 292.494 206.114 291.785 208.036 291.785C210.164 291.785 211.798 292.569 212.936 294.137V292.149ZM205.348 302.369C206.188 303.209 207.243 303.629 208.512 303.629C209.782 303.629 210.836 303.209 211.676 302.369C212.516 301.51 212.936 300.437 212.936 299.149C212.936 297.861 212.516 296.797 211.676 295.957C210.836 295.098 209.782 294.669 208.512 294.669C207.243 294.669 206.188 295.098 205.348 295.957C204.508 296.797 204.088 297.861 204.088 299.149C204.088 300.437 204.508 301.51 205.348 302.369ZM231.525 303.293H233.821V309.901H230.853V306.149H219.485V292.149H222.509V303.293H228.501V292.149H231.525V303.293ZM246.41 292.149H248.734V306.149H245.766V297.245L238.598 306.149H236.274V292.149H239.242V301.025L246.41 292.149ZM263.079 292.149V306.149H260.111V301.445H258.431L254.875 306.149H251.319L255.099 301.165C254.128 300.847 253.344 300.287 252.747 299.485C252.168 298.682 251.879 297.786 251.879 296.797C251.879 295.509 252.336 294.417 253.251 293.521C254.184 292.606 255.379 292.149 256.835 292.149H263.079ZM257.003 298.841H260.111V294.893H257.003C256.387 294.893 255.874 295.07 255.463 295.425C255.052 295.779 254.847 296.265 254.847 296.881C254.847 297.478 255.052 297.954 255.463 298.309C255.874 298.663 256.387 298.841 257.003 298.841ZM59.6813 334.981C61.1747 335.653 61.9213 336.763 61.9213 338.313C61.9213 339.507 61.436 340.506 60.4653 341.309C59.4947 342.111 58.1413 342.513 56.4053 342.513C53.5866 342.513 51.6826 341.393 50.6933 339.153L53.1573 337.697C53.6613 339.097 54.7533 339.797 56.4333 339.797C57.2173 339.797 57.8333 339.638 58.2813 339.321C58.7293 338.985 58.9533 338.546 58.9533 338.005C58.9533 337.519 58.776 337.137 58.4213 336.857C58.0666 336.558 57.572 336.409 56.9373 336.409H54.9493V333.749H56.4333C57.0493 333.749 57.5253 333.609 57.8613 333.329C58.216 333.03 58.3933 332.629 58.3933 332.125C58.3933 331.639 58.1973 331.247 57.8053 330.949C57.4133 330.631 56.8907 330.473 56.2373 330.473C54.8373 330.473 53.8667 331.089 53.3253 332.321L50.8613 330.921C51.9066 328.83 53.68 327.785 56.1813 327.785C57.7493 327.785 58.9907 328.186 59.9053 328.989C60.8387 329.773 61.3053 330.734 61.3053 331.873C61.3053 333.273 60.764 334.309 59.6813 334.981ZM75.4794 328.149H78.5034V342.149H75.4794V340.133C74.3408 341.719 72.7074 342.513 70.5794 342.513C68.6568 342.513 67.0141 341.803 65.6514 340.385C64.2888 338.947 63.6074 337.202 63.6074 335.149C63.6074 333.077 64.2888 331.331 65.6514 329.913C67.0141 328.494 68.6568 327.785 70.5794 327.785C72.7074 327.785 74.3408 328.569 75.4794 330.137V328.149ZM67.8914 338.369C68.7314 339.209 69.7861 339.629 71.0554 339.629C72.3248 339.629 73.3794 339.209 74.2194 338.369C75.0594 337.51 75.4794 336.437 75.4794 335.149C75.4794 333.861 75.0594 332.797 74.2194 331.957C73.3794 331.098 72.3248 330.669 71.0554 330.669C69.7861 330.669 68.7314 331.098 67.8914 331.957C67.0514 332.797 66.6314 333.861 66.6314 335.149C66.6314 336.437 67.0514 337.51 67.8914 338.369ZM94.3482 339.293H96.2242V345.901H93.2562V342.149H83.6522V345.901H80.6842V339.293H82.3922C83.2508 338.079 83.6802 336.39 83.6802 334.225V328.149H94.3482V339.293ZM85.7242 339.293H91.3802V330.921H86.6482V334.225C86.6482 336.222 86.3402 337.911 85.7242 339.293ZM109.222 328.149H112.246V342.149H109.222V340.133C108.083 341.719 106.45 342.513 104.322 342.513C102.399 342.513 100.756 341.803 99.3936 340.385C98.031 338.947 97.3496 337.202 97.3496 335.149C97.3496 333.077 98.031 331.331 99.3936 329.913C100.756 328.494 102.399 327.785 104.322 327.785C106.45 327.785 108.083 328.569 109.222 330.137V328.149ZM101.634 338.369C102.474 339.209 103.528 339.629 104.798 339.629C106.067 339.629 107.122 339.209 107.962 338.369C108.802 337.51 109.222 336.437 109.222 335.149C109.222 333.861 108.802 332.797 107.962 331.957C107.122 331.098 106.067 330.669 104.798 330.669C103.528 330.669 102.474 331.098 101.634 331.957C100.794 332.797 100.374 333.861 100.374 335.149C100.374 336.437 100.794 337.51 101.634 338.369ZM124.282 328.149H127.306V342.149H124.282V337.417C123.162 337.827 121.986 338.033 120.754 338.033C119.018 338.033 117.646 337.603 116.638 336.745C115.63 335.886 115.126 334.626 115.126 332.965V328.149H118.15V332.685C118.15 334.365 119.149 335.205 121.146 335.205C122.322 335.205 123.368 334.99 124.282 334.561V328.149ZM145.761 327.785C147.683 327.785 149.326 328.494 150.689 329.913C152.051 331.331 152.733 333.077 152.733 335.149C152.733 337.202 152.051 338.947 150.689 340.385C149.326 341.803 147.683 342.513 145.761 342.513C143.633 342.513 141.999 341.719 140.861 340.133V342.149H137.837V322.549H140.861V330.137C141.999 328.569 143.633 327.785 145.761 327.785ZM142.121 338.369C142.961 339.209 144.015 339.629 145.285 339.629C146.554 339.629 147.609 339.209 148.449 338.369C149.289 337.51 149.709 336.437 149.709 335.149C149.709 333.861 149.289 332.797 148.449 331.957C147.609 331.098 146.554 330.669 145.285 330.669C144.015 330.669 142.961 331.098 142.121 331.957C141.281 332.797 140.861 333.861 140.861 335.149C140.861 336.437 141.281 337.51 142.121 338.369ZM166.561 328.149H169.585V342.149H166.561V340.133C165.423 341.719 163.789 342.513 161.661 342.513C159.739 342.513 158.096 341.803 156.733 340.385C155.371 338.947 154.689 337.202 154.689 335.149C154.689 333.077 155.371 331.331 156.733 329.913C158.096 328.494 159.739 327.785 161.661 327.785C163.789 327.785 165.423 328.569 166.561 330.137V328.149ZM158.973 338.369C159.813 339.209 160.868 339.629 162.137 339.629C163.407 339.629 164.461 339.209 165.301 338.369C166.141 337.51 166.561 336.437 166.561 335.149C166.561 333.861 166.141 332.797 165.301 331.957C164.461 331.098 163.407 330.669 162.137 330.669C160.868 330.669 159.813 331.098 158.973 331.957C158.133 332.797 157.713 333.861 157.713 335.149C157.713 336.437 158.133 337.51 158.973 338.369ZM179.718 342.513C177.609 342.513 175.845 341.803 174.426 340.385C173.026 338.966 172.326 337.221 172.326 335.149C172.326 333.058 173.026 331.313 174.426 329.913C175.845 328.494 177.609 327.785 179.718 327.785C181.081 327.785 182.322 328.111 183.442 328.765C184.562 329.418 185.402 330.295 185.962 331.397L183.358 332.909C183.041 332.237 182.556 331.714 181.902 331.341C181.268 330.949 180.53 330.753 179.69 330.753C178.458 330.753 177.422 331.173 176.582 332.013C175.761 332.853 175.35 333.898 175.35 335.149C175.35 336.399 175.761 337.445 176.582 338.285C177.422 339.125 178.458 339.545 179.69 339.545C180.512 339.545 181.249 339.349 181.902 338.957C182.574 338.565 183.078 338.042 183.414 337.389L186.018 338.873C185.421 339.993 184.562 340.879 183.442 341.533C182.322 342.186 181.081 342.513 179.718 342.513ZM200.58 342.149H196.968L191.228 335.681V342.149H188.204V322.549H191.228V334.337L196.66 328.149H200.356L194.196 335.009L200.58 342.149ZM202.614 342.149V321.709H205.638V342.149H202.614ZM215.757 342.513C213.704 342.513 211.959 341.803 210.521 340.385C209.084 338.966 208.365 337.221 208.365 335.149C208.365 333.077 209.084 331.331 210.521 329.913C211.959 328.494 213.704 327.785 215.757 327.785C217.829 327.785 219.575 328.494 220.993 329.913C222.431 331.331 223.149 333.077 223.149 335.149C223.149 337.221 222.431 338.966 220.993 340.385C219.575 341.803 217.829 342.513 215.757 342.513ZM212.649 338.313C213.489 339.153 214.525 339.573 215.757 339.573C216.989 339.573 218.025 339.153 218.865 338.313C219.705 337.473 220.125 336.418 220.125 335.149C220.125 333.879 219.705 332.825 218.865 331.985C218.025 331.145 216.989 330.725 215.757 330.725C214.525 330.725 213.489 331.145 212.649 331.985C211.809 332.825 211.389 333.879 211.389 335.149C211.389 336.418 211.809 337.473 212.649 338.313ZM237.028 328.149H239.996V341.505C239.996 343.633 239.296 345.266 237.896 346.405C236.496 347.543 234.797 348.113 232.8 348.113C229.57 348.113 227.358 346.983 226.164 344.725L228.768 343.213C229.496 344.65 230.858 345.369 232.856 345.369C234.162 345.369 235.18 345.023 235.908 344.333C236.654 343.661 237.028 342.718 237.028 341.505V339.797C235.889 341.421 234.265 342.233 232.156 342.233C230.177 342.233 228.506 341.533 227.144 340.133C225.781 338.714 225.1 337.006 225.1 335.009C225.1 333.011 225.781 331.313 227.144 329.913C228.506 328.494 230.177 327.785 232.156 327.785C234.265 327.785 235.889 328.597 237.028 330.221V328.149ZM229.384 338.145C230.242 338.985 231.306 339.405 232.576 339.405C233.845 339.405 234.9 338.985 235.74 338.145C236.598 337.305 237.028 336.259 237.028 335.009C237.028 333.758 236.598 332.713 235.74 331.873C234.9 331.033 233.845 330.613 232.576 330.613C231.306 330.613 230.242 331.033 229.384 331.873C228.544 332.713 228.124 333.758 228.124 335.009C228.124 336.259 228.544 337.305 229.384 338.145ZM243.716 335.093V332.181H254.076V335.093H243.716ZM268.882 328.149H271.906V342.149H268.882V340.133C267.743 341.719 266.11 342.513 263.982 342.513C262.059 342.513 260.416 341.803 259.054 340.385C257.691 338.947 257.01 337.202 257.01 335.149C257.01 333.077 257.691 331.331 259.054 329.913C260.416 328.494 262.059 327.785 263.982 327.785C266.11 327.785 267.743 328.569 268.882 330.137V328.149ZM261.294 338.369C262.134 339.209 263.188 339.629 264.458 339.629C265.727 339.629 266.782 339.209 267.622 338.369C268.462 337.51 268.882 336.437 268.882 335.149C268.882 333.861 268.462 332.797 267.622 331.957C266.782 331.098 265.727 330.669 264.458 330.669C263.188 330.669 262.134 331.098 261.294 331.957C260.454 332.797 260.034 333.861 260.034 335.149C260.034 336.437 260.454 337.51 261.294 338.369Z" fill="#0F0F69"/>
<rect x="439.692" width="324.281" height="194.361" rx="20" fill="#C2D0FF"/>
<path d="M507.046 88.2641C504.096 88.2641 501.651 87.2935 499.71 85.3521C497.768 83.3921 496.798 80.9748 496.798 78.1001C496.798 75.2255 497.768 72.8175 499.71 70.8761C501.651 68.9161 504.096 67.9361 507.046 67.9361C508.819 67.9361 510.452 68.3561 511.946 69.1961C513.458 70.0361 514.634 71.1748 515.474 72.6121L512.674 74.2361C512.151 73.2655 511.386 72.5001 510.378 71.9401C509.388 71.3615 508.278 71.0721 507.046 71.0721C504.955 71.0721 503.256 71.7348 501.95 73.0601C500.662 74.3855 500.018 76.0655 500.018 78.1001C500.018 80.1348 500.662 81.8148 501.95 83.1401C503.256 84.4655 504.955 85.1281 507.046 85.1281C508.278 85.1281 509.398 84.8481 510.406 84.2881C511.414 83.7095 512.17 82.9348 512.674 81.9641L515.474 83.5601C514.652 84.9975 513.486 86.1455 511.974 87.0041C510.48 87.8441 508.838 88.2641 507.046 88.2641ZM530.549 73.9001V87.9001H527.525V76.7561H521.113V87.9001H518.089V73.9001H530.549ZM541.982 73.5361C543.905 73.5361 545.547 74.2548 546.91 75.6921C548.273 77.1108 548.954 78.8468 548.954 80.9001C548.954 82.9721 548.273 84.7175 546.91 86.1361C545.547 87.5548 543.905 88.2641 541.982 88.2641C539.854 88.2641 538.221 87.4801 537.082 85.9121V93.5001H534.058V73.9001H537.082V75.9161C538.221 74.3295 539.854 73.5361 541.982 73.5361ZM538.342 84.1201C539.182 84.9601 540.237 85.3801 541.506 85.3801C542.775 85.3801 543.83 84.9601 544.67 84.1201C545.51 83.2615 545.93 82.1881 545.93 80.9001C545.93 79.6121 545.51 78.5481 544.67 77.7081C543.83 76.8495 542.775 76.4201 541.506 76.4201C540.237 76.4201 539.182 76.8495 538.342 77.7081C537.502 78.5481 537.082 79.6121 537.082 80.9001C537.082 82.1881 537.502 83.2615 538.342 84.1201ZM561.831 73.9001H564.155V87.9001H561.187V78.9961L554.019 87.9001H551.695V73.9001H554.663V82.7761L561.831 73.9001ZM577.1 73.9001H580.124V87.9001H577.1V82.3281H570.688V87.9001H567.664V73.9001H570.688V79.4721H577.1V73.9001ZM594.328 73.9001V76.8121H589.764V87.9001H586.74V76.8121H582.148V73.9001H594.328ZM602.479 78.6601C603.972 78.6601 605.195 79.0895 606.147 79.9481C607.099 80.7881 607.575 81.8988 607.575 83.2801C607.575 84.6428 607.099 85.7535 606.147 86.6121C605.195 87.4708 603.972 87.9001 602.479 87.9001H596.375V73.9001H599.399V78.6601H602.479ZM609.255 73.9001H612.279V87.9001H609.255V73.9001ZM602.507 85.1841C603.104 85.1841 603.599 85.0068 603.991 84.6521C604.401 84.2975 604.607 83.8401 604.607 83.2801C604.607 82.7015 604.401 82.2441 603.991 81.9081C603.599 81.5535 603.104 81.3761 602.507 81.3761H599.399V85.1841H602.507ZM635.249 73.9001V87.9001H632.225V76.7561H625.813V87.9001H622.789V73.9001H635.249ZM645.365 88.2641C643.312 88.2641 641.567 87.5548 640.129 86.1361C638.692 84.7175 637.973 82.9721 637.973 80.9001C637.973 78.8281 638.692 77.0828 640.129 75.6641C641.567 74.2455 643.312 73.5361 645.365 73.5361C647.437 73.5361 649.183 74.2455 650.601 75.6641C652.039 77.0828 652.757 78.8281 652.757 80.9001C652.757 82.9721 652.039 84.7175 650.601 86.1361C649.183 87.5548 647.437 88.2641 645.365 88.2641ZM642.257 84.0641C643.097 84.9041 644.133 85.3241 645.365 85.3241C646.597 85.3241 647.633 84.9041 648.473 84.0641C649.313 83.2241 649.733 82.1695 649.733 80.9001C649.733 79.6308 649.313 78.5761 648.473 77.7361C647.633 76.8961 646.597 76.4761 645.365 76.4761C644.133 76.4761 643.097 76.8961 642.257 77.7361C641.417 78.5761 640.997 79.6308 640.997 80.9001C640.997 82.1695 641.417 83.2241 642.257 84.0641ZM670.08 76.3081C671.498 76.6441 672.646 77.3068 673.524 78.2961C674.42 79.2668 674.868 80.4895 674.868 81.9641C674.868 83.9241 674.205 85.4641 672.88 86.5841C671.554 87.7041 669.93 88.2641 668.008 88.2641C666.514 88.2641 665.17 87.9188 663.976 87.2281C662.8 86.5375 661.95 85.5295 661.428 84.2041L664.172 82.6081C664.75 84.2881 666.029 85.1281 668.008 85.1281C669.128 85.1281 670.014 84.8481 670.668 84.2881C671.321 83.7095 671.648 82.9348 671.648 81.9641C671.648 80.9935 671.321 80.2281 670.668 79.6681C670.014 79.1081 669.128 78.8281 668.008 78.8281H667.28L665.992 76.8961L670.22 71.3241H662.016V68.3001H674.056V71.0441L670.08 76.3081ZM677.809 80.8441V77.9321H688.169V80.8441H677.809ZM705.886 81.3761V84.3721H703.646V87.9001H700.398V84.3721H690.766V81.3761L697.514 68.3001H701.014L694.266 81.3761H700.398V76.2801H703.646V81.3761H705.886ZM564.85 109.9H567.874V123.9H564.85V118.328H558.438V123.9H555.414V109.9H558.438V115.472H564.85V109.9ZM573.762 118.188C573.986 119.252 574.5 120.073 575.302 120.652C576.105 121.212 577.085 121.492 578.242 121.492C579.848 121.492 581.052 120.913 581.854 119.756L584.346 121.212C582.965 123.247 580.921 124.264 578.214 124.264C575.937 124.264 574.098 123.573 572.698 122.192C571.298 120.792 570.598 119.028 570.598 116.9C570.598 114.809 571.289 113.064 572.67 111.664C574.052 110.245 575.825 109.536 577.99 109.536C580.044 109.536 581.724 110.255 583.03 111.692C584.356 113.129 585.018 114.875 585.018 116.928C585.018 117.245 584.981 117.665 584.906 118.188H573.762ZM573.734 115.724H581.966C581.761 114.585 581.285 113.727 580.538 113.148C579.81 112.569 578.952 112.28 577.962 112.28C576.842 112.28 575.909 112.588 575.162 113.204C574.416 113.82 573.94 114.66 573.734 115.724ZM599.452 121.044H601.328V127.652H598.36V123.9H588.756V127.652H585.788V121.044H587.496C588.355 119.831 588.784 118.141 588.784 115.976V109.9H599.452V121.044ZM590.828 121.044H596.484V112.672H591.752V115.976C591.752 117.973 591.444 119.663 590.828 121.044ZM605.618 118.188C605.842 119.252 606.355 120.073 607.158 120.652C607.96 121.212 608.94 121.492 610.098 121.492C611.703 121.492 612.907 120.913 613.71 119.756L616.202 121.212C614.82 123.247 612.776 124.264 610.07 124.264C607.792 124.264 605.954 123.573 604.554 122.192C603.154 120.792 602.454 119.028 602.454 116.9C602.454 114.809 603.144 113.064 604.526 111.664C605.907 110.245 607.68 109.536 609.846 109.536C611.899 109.536 613.579 110.255 614.886 111.692C616.211 113.129 616.874 114.875 616.874 116.928C616.874 117.245 616.836 117.665 616.762 118.188H605.618ZM605.59 115.724H613.822C613.616 114.585 613.14 113.727 612.394 113.148C611.666 112.569 610.807 112.28 609.818 112.28C608.698 112.28 607.764 112.588 607.018 113.204C606.271 113.82 605.795 114.66 605.59 115.724ZM630.804 109.9V123.9H627.78V112.812H623.104V118.02C623.104 120.241 622.618 121.819 621.648 122.752C620.677 123.685 619.296 124.068 617.504 123.9V121.072C618.362 121.221 619.006 121.044 619.436 120.54C619.865 120.036 620.08 119.149 620.08 117.88V109.9H630.804ZM644.464 109.9H646.788V123.9H643.82V114.996L636.652 123.9H634.328V109.9H637.296V118.776L644.464 109.9Z" fill="#0F0F69"/>
<defs>
<pattern id="pattern0" patternContentUnits="objectBoundingBox" width="1" height="1">
<use xlink:href="#image0_614_17" transform="translate(-0.0555691) scale(0.000740759 0.000666667)"/>
</pattern>
<image id="image0_614_17" width="1500" height="1500" xlink:href="main-approach-scheme-icon.png"/>
</defs>
</svg>
