<svg width="638" height="423" viewBox="0 0 638 423" fill="none" xmlns="http://www.w3.org/2000/svg">
<path fill-rule="evenodd" clip-rule="evenodd" d="M319 353.21C495.179 353.21 638 274.141 638 176.605C638 79.0688 495.179 0 319 0C142.821 0 0 79.0688 0 176.605C0 244.912 70.0473 304.162 172.544 333.539C175.386 367.34 117.934 423 117.934 423C117.934 423 239.753 379.554 282.698 352.079C294.612 352.826 306.725 353.21 319 353.21Z" fill="white"/>
<path d="M218.937 62.4V82H215.717V65.48H207.737V82H204.517V62.4H218.937ZM230.592 67.636C232.515 67.636 234.158 68.3547 235.52 69.792C236.883 71.2107 237.564 72.9467 237.564 75C237.564 77.072 236.883 78.8173 235.52 80.236C234.158 81.6547 232.515 82.364 230.592 82.364C228.464 82.364 226.831 81.58 225.692 80.012V87.6H222.668V68H225.692V70.016C226.831 68.4293 228.464 67.636 230.592 67.636ZM226.952 78.22C227.792 79.06 228.847 79.48 230.116 79.48C231.386 79.48 232.44 79.06 233.28 78.22C234.12 77.3613 234.54 76.288 234.54 75C234.54 73.712 234.12 72.648 233.28 71.808C232.44 70.9493 231.386 70.52 230.116 70.52C228.847 70.52 227.792 70.9493 226.952 71.808C226.112 72.648 225.692 73.712 225.692 75C225.692 76.288 226.112 77.3613 226.952 78.22ZM246.913 82.364C244.86 82.364 243.114 81.6547 241.677 80.236C240.24 78.8173 239.521 77.072 239.521 75C239.521 72.928 240.24 71.1827 241.677 69.764C243.114 68.3453 244.86 67.636 246.913 67.636C248.985 67.636 250.73 68.3453 252.149 69.764C253.586 71.1827 254.305 72.928 254.305 75C254.305 77.072 253.586 78.8173 252.149 80.236C250.73 81.6547 248.985 82.364 246.913 82.364ZM243.805 78.164C244.645 79.004 245.681 79.424 246.913 79.424C248.145 79.424 249.181 79.004 250.021 78.164C250.861 77.324 251.281 76.2693 251.281 75C251.281 73.7307 250.861 72.676 250.021 71.836C249.181 70.996 248.145 70.576 246.913 70.576C245.681 70.576 244.645 70.996 243.805 71.836C242.965 72.676 242.545 73.7307 242.545 75C242.545 76.2693 242.965 77.324 243.805 78.164ZM259.419 76.288C259.643 77.352 260.157 78.1733 260.959 78.752C261.762 79.312 262.742 79.592 263.899 79.592C265.505 79.592 266.709 79.0133 267.511 77.856L270.003 79.312C268.622 81.3467 266.578 82.364 263.871 82.364C261.594 82.364 259.755 81.6733 258.355 80.292C256.955 78.892 256.255 77.128 256.255 75C256.255 72.9093 256.946 71.164 258.327 69.764C259.709 68.3453 261.482 67.636 263.647 67.636C265.701 67.636 267.381 68.3547 268.687 69.792C270.013 71.2293 270.675 72.9747 270.675 75.028C270.675 75.3453 270.638 75.7653 270.563 76.288H259.419ZM259.391 73.824H267.623C267.418 72.6853 266.942 71.8267 266.195 71.248C265.467 70.6693 264.609 70.38 263.619 70.38C262.499 70.38 261.566 70.688 260.819 71.304C260.073 71.92 259.597 72.76 259.391 73.824ZM285.712 82H282.1L276.36 75.532V82H273.336V68H276.36V74.188L281.792 68H285.488L279.328 74.86L285.712 82ZM298.442 68V70.912H293.878V82H290.854V70.912H286.262V68H298.442ZM310.625 68H312.949V82H309.981V73.096L302.813 82H300.489V68H303.457V76.876L310.625 68ZM324.381 67.636C326.304 67.636 327.947 68.3547 329.309 69.792C330.672 71.2107 331.353 72.9467 331.353 75C331.353 77.072 330.672 78.8173 329.309 80.236C327.947 81.6547 326.304 82.364 324.381 82.364C322.253 82.364 320.62 81.58 319.481 80.012V87.6H316.457V68H319.481V70.016C320.62 68.4293 322.253 67.636 324.381 67.636ZM320.741 78.22C321.581 79.06 322.636 79.48 323.905 79.48C325.175 79.48 326.229 79.06 327.069 78.22C327.909 77.3613 328.329 76.288 328.329 75C328.329 73.712 327.909 72.648 327.069 71.808C326.229 70.9493 325.175 70.52 323.905 70.52C322.636 70.52 321.581 70.9493 320.741 71.808C319.901 72.648 319.481 73.712 319.481 75C319.481 76.288 319.901 77.3613 320.741 78.22ZM340.702 82.364C338.649 82.364 336.903 81.6547 335.466 80.236C334.029 78.8173 333.31 77.072 333.31 75C333.31 72.928 334.029 71.1827 335.466 69.764C336.903 68.3453 338.649 67.636 340.702 67.636C342.774 67.636 344.519 68.3453 345.938 69.764C347.375 71.1827 348.094 72.928 348.094 75C348.094 77.072 347.375 78.8173 345.938 80.236C344.519 81.6547 342.774 82.364 340.702 82.364ZM337.594 78.164C338.434 79.004 339.47 79.424 340.702 79.424C341.934 79.424 342.97 79.004 343.81 78.164C344.65 77.324 345.07 76.2693 345.07 75C345.07 73.7307 344.65 72.676 343.81 71.836C342.97 70.996 341.934 70.576 340.702 70.576C339.47 70.576 338.434 70.996 337.594 71.836C336.754 72.676 336.334 73.7307 336.334 75C336.334 76.2693 336.754 77.324 337.594 78.164ZM360.516 74.804C361.898 75.4387 362.588 76.512 362.588 78.024C362.588 79.2 362.187 80.1613 361.384 80.908C360.6 81.636 359.471 82 357.996 82H350.828V68H357.436C358.874 68 359.984 68.364 360.768 69.092C361.571 69.8013 361.972 70.7253 361.972 71.864C361.972 73.1893 361.487 74.1693 360.516 74.804ZM357.212 70.576H353.712V73.684H357.212C358.444 73.684 359.06 73.1613 359.06 72.116C359.06 71.0893 358.444 70.576 357.212 70.576ZM357.716 79.368C358.986 79.368 359.62 78.8173 359.62 77.716C359.62 77.2307 359.452 76.8573 359.116 76.596C358.78 76.316 358.314 76.176 357.716 76.176H353.712V79.368H357.716ZM376.135 68H379.159V82H376.135V79.984C374.997 81.5707 373.363 82.364 371.235 82.364C369.313 82.364 367.67 81.6547 366.307 80.236C364.945 78.7987 364.263 77.0533 364.263 75C364.263 72.928 364.945 71.1827 366.307 69.764C367.67 68.3453 369.313 67.636 371.235 67.636C373.363 67.636 374.997 68.42 376.135 69.988V68ZM368.547 78.22C369.387 79.06 370.442 79.48 371.711 79.48C372.981 79.48 374.035 79.06 374.875 78.22C375.715 77.3613 376.135 76.288 376.135 75C376.135 73.712 375.715 72.648 374.875 71.808C374.035 70.9493 372.981 70.52 371.711 70.52C370.442 70.52 369.387 70.9493 368.547 71.808C367.707 72.648 367.287 73.712 367.287 75C367.287 76.288 367.707 77.3613 368.547 78.22ZM392.12 68H395.144V82H392.12V76.428H385.708V82H382.684V68H385.708V73.572H392.12V68ZM408.789 68H411.113V82H408.145V73.096L400.977 82H398.653V68H401.621V76.876L408.789 68ZM417.001 76.288C417.225 77.352 417.739 78.1733 418.541 78.752C419.344 79.312 420.324 79.592 421.481 79.592C423.087 79.592 424.291 79.0133 425.093 77.856L427.585 79.312C426.204 81.3467 424.16 82.364 421.453 82.364C419.176 82.364 417.337 81.6733 415.937 80.292C414.537 78.892 413.837 77.128 413.837 75C413.837 72.9093 414.528 71.164 415.909 69.764C417.291 68.3453 419.064 67.636 421.229 67.636C423.283 67.636 424.963 68.3547 426.269 69.792C427.595 71.2293 428.257 72.9747 428.257 75.028C428.257 75.3453 428.22 75.7653 428.145 76.288H417.001ZM416.973 73.824H425.205C425 72.6853 424.524 71.8267 423.777 71.248C423.049 70.6693 422.191 70.38 421.201 70.38C420.081 70.38 419.148 70.688 418.401 71.304C417.655 71.92 417.179 72.76 416.973 73.824ZM433.997 78.64L432.037 85.92H429.517L430.637 78.64H433.997ZM194.485 103.636C196.408 103.636 198.05 104.355 199.413 105.792C200.776 107.211 201.457 108.947 201.457 111C201.457 113.072 200.776 114.817 199.413 116.236C198.05 117.655 196.408 118.364 194.485 118.364C192.357 118.364 190.724 117.58 189.585 116.012V123.6H186.561V104H189.585V106.016C190.724 104.429 192.357 103.636 194.485 103.636ZM190.845 114.22C191.685 115.06 192.74 115.48 194.009 115.48C195.278 115.48 196.333 115.06 197.173 114.22C198.013 113.361 198.433 112.288 198.433 111C198.433 109.712 198.013 108.648 197.173 107.808C196.333 106.949 195.278 106.52 194.009 106.52C192.74 106.52 191.685 106.949 190.845 107.808C190.005 108.648 189.585 109.712 189.585 111C189.585 112.288 190.005 113.361 190.845 114.22ZM215.286 104H218.31V118H215.286V115.984C214.147 117.571 212.514 118.364 210.386 118.364C208.463 118.364 206.82 117.655 205.458 116.236C204.095 114.799 203.414 113.053 203.414 111C203.414 108.928 204.095 107.183 205.458 105.764C206.82 104.345 208.463 103.636 210.386 103.636C212.514 103.636 214.147 104.42 215.286 105.988V104ZM207.698 114.22C208.538 115.06 209.592 115.48 210.862 115.48C212.131 115.48 213.186 115.06 214.026 114.22C214.866 113.361 215.286 112.288 215.286 111C215.286 109.712 214.866 108.648 214.026 107.808C213.186 106.949 212.131 106.52 210.862 106.52C209.592 106.52 208.538 106.949 207.698 107.808C206.858 108.648 206.438 109.712 206.438 111C206.438 112.288 206.858 113.361 207.698 114.22ZM229.702 110.832C231.196 111.504 231.942 112.615 231.942 114.164C231.942 115.359 231.457 116.357 230.486 117.16C229.516 117.963 228.162 118.364 226.426 118.364C223.608 118.364 221.704 117.244 220.714 115.004L223.178 113.548C223.682 114.948 224.774 115.648 226.454 115.648C227.238 115.648 227.854 115.489 228.302 115.172C228.75 114.836 228.974 114.397 228.974 113.856C228.974 113.371 228.797 112.988 228.442 112.708C228.088 112.409 227.593 112.26 226.958 112.26H224.97V109.6H226.454C227.07 109.6 227.546 109.46 227.882 109.18C228.237 108.881 228.414 108.48 228.414 107.976C228.414 107.491 228.218 107.099 227.826 106.8C227.434 106.483 226.912 106.324 226.258 106.324C224.858 106.324 223.888 106.94 223.346 108.172L220.882 106.772C221.928 104.681 223.701 103.636 226.202 103.636C227.77 103.636 229.012 104.037 229.926 104.84C230.86 105.624 231.326 106.585 231.326 107.724C231.326 109.124 230.785 110.16 229.702 110.832ZM242.336 103.636C244.259 103.636 245.902 104.355 247.264 105.792C248.627 107.211 249.308 108.947 249.308 111C249.308 113.072 248.627 114.817 247.264 116.236C245.902 117.655 244.259 118.364 242.336 118.364C240.208 118.364 238.575 117.58 237.436 116.012V123.6H234.412V104H237.436V106.016C238.575 104.429 240.208 103.636 242.336 103.636ZM238.696 114.22C239.536 115.06 240.591 115.48 241.86 115.48C243.13 115.48 244.184 115.06 245.024 114.22C245.864 113.361 246.284 112.288 246.284 111C246.284 109.712 245.864 108.648 245.024 107.808C244.184 106.949 243.13 106.52 241.86 106.52C240.591 106.52 239.536 106.949 238.696 107.808C237.856 108.648 237.436 109.712 237.436 111C237.436 112.288 237.856 113.361 238.696 114.22ZM263.137 104H266.161V118H263.137V115.984C261.998 117.571 260.365 118.364 258.237 118.364C256.314 118.364 254.672 117.655 253.309 116.236C251.946 114.799 251.265 113.053 251.265 111C251.265 108.928 251.946 107.183 253.309 105.764C254.672 104.345 256.314 103.636 258.237 103.636C260.365 103.636 261.998 104.42 263.137 105.988V104ZM255.549 114.22C256.389 115.06 257.444 115.48 258.713 115.48C259.982 115.48 261.037 115.06 261.877 114.22C262.717 113.361 263.137 112.288 263.137 111C263.137 109.712 262.717 108.648 261.877 107.808C261.037 106.949 259.982 106.52 258.713 106.52C257.444 106.52 256.389 106.949 255.549 107.808C254.709 108.648 254.289 109.712 254.289 111C254.289 112.288 254.709 113.361 255.549 114.22ZM276.182 118.364C274.035 118.364 272.281 117.673 270.918 116.292C269.574 114.892 268.902 113.109 268.902 110.944C268.902 108.573 269.257 106.744 269.966 105.456C270.675 104.149 272.113 102.964 274.278 101.9C274.633 101.732 275.155 101.489 275.846 101.172C276.555 100.855 277.041 100.631 277.302 100.5C277.563 100.351 277.89 100.145 278.282 99.884C278.674 99.604 278.963 99.3147 279.15 99.016C279.337 98.6987 279.486 98.3253 279.598 97.896L282.062 99.324C281.987 99.7347 281.866 100.117 281.698 100.472C281.53 100.808 281.287 101.125 280.97 101.424C280.653 101.723 280.373 101.965 280.13 102.152C279.906 102.339 279.523 102.563 278.982 102.824C278.441 103.085 278.039 103.272 277.778 103.384C277.535 103.496 277.069 103.692 276.378 103.972C275.146 104.457 274.241 104.961 273.662 105.484C273.102 105.988 272.71 106.623 272.486 107.388C273.606 106.119 275.127 105.484 277.05 105.484C278.693 105.484 280.121 106.072 281.334 107.248C282.566 108.424 283.182 109.945 283.182 111.812C283.182 113.716 282.529 115.284 281.222 116.516C279.934 117.748 278.254 118.364 276.182 118.364ZM276.154 115.536C277.33 115.536 278.291 115.191 279.038 114.5C279.785 113.791 280.158 112.895 280.158 111.812C280.158 110.711 279.785 109.805 279.038 109.096C278.31 108.387 277.358 108.032 276.182 108.032C275.137 108.032 274.194 108.368 273.354 109.04C272.514 109.693 272.094 110.571 272.094 111.672C272.094 112.792 272.486 113.716 273.27 114.444C274.054 115.172 275.015 115.536 276.154 115.536ZM292.181 118.364C290.127 118.364 288.382 117.655 286.945 116.236C285.507 114.817 284.789 113.072 284.789 111C284.789 108.928 285.507 107.183 286.945 105.764C288.382 104.345 290.127 103.636 292.181 103.636C294.253 103.636 295.998 104.345 297.417 105.764C298.854 107.183 299.573 108.928 299.573 111C299.573 113.072 298.854 114.817 297.417 116.236C295.998 117.655 294.253 118.364 292.181 118.364ZM289.073 114.164C289.913 115.004 290.949 115.424 292.181 115.424C293.413 115.424 294.449 115.004 295.289 114.164C296.129 113.324 296.549 112.269 296.549 111C296.549 109.731 296.129 108.676 295.289 107.836C294.449 106.996 293.413 106.576 292.181 106.576C290.949 106.576 289.913 106.996 289.073 107.836C288.233 108.676 287.813 109.731 287.813 111C287.813 112.269 288.233 113.324 289.073 114.164ZM312.456 104V106.912H307.892V118H304.868V106.912H300.276V104H312.456ZM326.878 118H323.266L317.526 111.532V118H314.502V104H317.526V110.188L322.958 104H326.654L320.494 110.86L326.878 118ZM338.879 104H341.903V118H338.879V115.984C337.741 117.571 336.107 118.364 333.979 118.364C332.057 118.364 330.414 117.655 329.051 116.236C327.689 114.799 327.007 113.053 327.007 111C327.007 108.928 327.689 107.183 329.051 105.764C330.414 104.345 332.057 103.636 333.979 103.636C336.107 103.636 337.741 104.42 338.879 105.988V104ZM331.291 114.22C332.131 115.06 333.186 115.48 334.455 115.48C335.725 115.48 336.779 115.06 337.619 114.22C338.459 113.361 338.879 112.288 338.879 111C338.879 109.712 338.459 108.648 337.619 107.808C336.779 106.949 335.725 106.52 334.455 106.52C333.186 106.52 332.131 106.949 331.291 107.808C330.451 108.648 330.031 109.712 330.031 111C330.031 112.288 330.451 113.361 331.291 114.22ZM349.628 114.64L347.668 121.92H345.148L346.268 114.64H349.628ZM370.926 104H373.95V118H370.926V115.984C369.788 117.571 368.154 118.364 366.026 118.364C364.104 118.364 362.461 117.655 361.098 116.236C359.736 114.799 359.054 113.053 359.054 111C359.054 108.928 359.736 107.183 361.098 105.764C362.461 104.345 364.104 103.636 366.026 103.636C368.154 103.636 369.788 104.42 370.926 105.988V104ZM363.338 114.22C364.178 115.06 365.233 115.48 366.502 115.48C367.772 115.48 368.826 115.06 369.666 114.22C370.506 113.361 370.926 112.288 370.926 111C370.926 109.712 370.506 108.648 369.666 107.808C368.826 106.949 367.772 106.52 366.502 106.52C365.233 106.52 364.178 106.949 363.338 107.808C362.498 108.648 362.078 109.712 362.078 111C362.078 112.288 362.498 113.361 363.338 114.22ZM386.911 104H389.935V118H386.911V112.428H380.499V118H377.475V104H380.499V109.572H386.911V104ZM404.532 104H407.556V118H404.532V115.984C403.393 117.571 401.76 118.364 399.632 118.364C397.709 118.364 396.066 117.655 394.704 116.236C393.341 114.799 392.66 113.053 392.66 111C392.66 108.928 393.341 107.183 394.704 105.764C396.066 104.345 397.709 103.636 399.632 103.636C401.76 103.636 403.393 104.42 404.532 105.988V104ZM396.944 114.22C397.784 115.06 398.838 115.48 400.108 115.48C401.377 115.48 402.432 115.06 403.272 114.22C404.112 113.361 404.532 112.288 404.532 111C404.532 109.712 404.112 108.648 403.272 107.808C402.432 106.949 401.377 106.52 400.108 106.52C398.838 106.52 397.784 106.949 396.944 107.808C396.104 108.648 395.684 109.712 395.684 111C395.684 112.288 396.104 113.361 396.944 114.22ZM422.896 104V118H419.872V106.912H415.196V112.12C415.196 114.341 414.711 115.919 413.74 116.852C412.77 117.785 411.388 118.168 409.596 118V115.172C410.455 115.321 411.099 115.144 411.528 114.64C411.958 114.136 412.172 113.249 412.172 111.98V104H422.896ZM436.556 104H438.88V118H435.912V109.096L428.744 118H426.42V104H429.388V112.876L436.556 104ZM450.257 110.832C451.75 111.504 452.497 112.615 452.497 114.164C452.497 115.359 452.012 116.357 451.041 117.16C450.07 117.963 448.717 118.364 446.981 118.364C444.162 118.364 442.258 117.244 441.269 115.004L443.733 113.548C444.237 114.948 445.329 115.648 447.009 115.648C447.793 115.648 448.409 115.489 448.857 115.172C449.305 114.836 449.529 114.397 449.529 113.856C449.529 113.371 449.352 112.988 448.997 112.708C448.642 112.409 448.148 112.26 447.513 112.26H445.525V109.6H447.009C447.625 109.6 448.101 109.46 448.437 109.18C448.792 108.881 448.969 108.48 448.969 107.976C448.969 107.491 448.773 107.099 448.381 106.8C447.989 106.483 447.466 106.324 446.813 106.324C445.413 106.324 444.442 106.94 443.901 108.172L441.437 106.772C442.482 104.681 444.256 103.636 446.757 103.636C448.325 103.636 449.566 104.037 450.481 104.84C451.414 105.624 451.881 106.585 451.881 107.724C451.881 109.124 451.34 110.16 450.257 110.832ZM132.988 190.336C130.02 190.336 127.565 189.356 125.624 187.396C123.682 185.436 122.712 183.037 122.712 180.2C122.712 177.363 123.682 174.964 125.624 173.004C127.565 171.044 130.02 170.064 132.988 170.064C134.798 170.064 136.46 170.503 137.972 171.38C139.484 172.239 140.65 173.405 141.472 174.88L139.736 175.888C139.12 174.693 138.205 173.741 136.992 173.032C135.778 172.323 134.444 171.968 132.988 171.968C130.542 171.968 128.545 172.761 126.996 174.348C125.446 175.935 124.672 177.885 124.672 180.2C124.672 182.515 125.446 184.465 126.996 186.052C128.545 187.639 130.542 188.432 132.988 188.432C134.444 188.432 135.778 188.077 136.992 187.368C138.205 186.659 139.12 185.707 139.736 184.512L141.472 185.492C140.669 186.967 139.502 188.143 137.972 189.02C136.46 189.897 134.798 190.336 132.988 190.336ZM155.348 176V190H153.5V177.792H147.172V184.036C147.172 186.369 146.724 187.975 145.828 188.852C144.951 189.729 143.738 190.112 142.188 190V188.264C143.252 188.376 144.036 188.124 144.54 187.508C145.063 186.892 145.324 185.735 145.324 184.036V176H155.348ZM170.995 188.236C169.576 189.636 167.84 190.336 165.787 190.336C163.733 190.336 161.988 189.636 160.551 188.236C159.132 186.817 158.423 185.072 158.423 183C158.423 180.928 159.132 179.192 160.551 177.792C161.988 176.373 163.733 175.664 165.787 175.664C167.84 175.664 169.576 176.373 170.995 177.792C172.432 179.192 173.151 180.928 173.151 183C173.151 185.072 172.432 186.817 170.995 188.236ZM161.867 186.948C162.931 188.012 164.237 188.544 165.787 188.544C167.336 188.544 168.643 188.012 169.707 186.948C170.771 185.865 171.303 184.549 171.303 183C171.303 181.451 170.771 180.144 169.707 179.08C168.643 177.997 167.336 177.456 165.787 177.456C164.237 177.456 162.931 177.997 161.867 179.08C160.803 180.144 160.271 181.451 160.271 183C160.271 184.549 160.803 185.865 161.867 186.948ZM191.474 190H189.234L183.522 183.252V190H181.674V183.252L175.962 190H173.722L179.994 182.72L174.002 176H176.242L181.674 182.216V176H183.522V182.216L188.954 176H191.194L185.202 182.72L191.474 190ZM203.901 176H205.749V190H203.901V183.896H195.837V190H193.989V176H195.837V182.104H203.901V176ZM215.341 181.32C216.648 181.32 217.749 181.731 218.645 182.552C219.56 183.355 220.017 184.391 220.017 185.66C220.017 186.929 219.56 187.975 218.645 188.796C217.749 189.599 216.648 190 215.341 190H209.657V176H211.505V181.32H215.341ZM221.977 176H223.825V190H221.977V176ZM215.341 188.208C216.125 188.208 216.788 187.975 217.329 187.508C217.889 187.041 218.169 186.425 218.169 185.66C218.169 184.895 217.889 184.279 217.329 183.812C216.788 183.345 216.125 183.112 215.341 183.112H211.505V188.208H215.341ZM234.227 175.664C236.299 175.664 237.969 176.401 239.239 177.876C240.527 179.332 241.171 181.059 241.171 183.056C241.171 183.261 241.152 183.551 241.115 183.924H228.823C229.009 185.343 229.607 186.472 230.615 187.312C231.641 188.133 232.901 188.544 234.395 188.544C235.459 188.544 236.373 188.329 237.139 187.9C237.923 187.452 238.511 186.873 238.903 186.164L240.527 187.116C239.911 188.105 239.071 188.889 238.007 189.468C236.943 190.047 235.729 190.336 234.367 190.336C232.164 190.336 230.372 189.645 228.991 188.264C227.609 186.883 226.919 185.128 226.919 183C226.919 180.909 227.6 179.164 228.963 177.764C230.325 176.364 232.08 175.664 234.227 175.664ZM234.227 177.456C232.771 177.456 231.548 177.895 230.559 178.772C229.588 179.631 229.009 180.751 228.823 182.132H239.267C239.08 180.657 238.511 179.509 237.559 178.688C236.607 177.867 235.496 177.456 234.227 177.456ZM261.19 176V177.792H256.234V190H254.386V177.792H249.43V176H261.19ZM269.364 175.664C271.436 175.664 273.106 176.401 274.376 177.876C275.664 179.332 276.308 181.059 276.308 183.056C276.308 183.261 276.289 183.551 276.252 183.924H263.96C264.146 185.343 264.744 186.472 265.752 187.312C266.778 188.133 268.038 188.544 269.532 188.544C270.596 188.544 271.51 188.329 272.276 187.9C273.06 187.452 273.648 186.873 274.04 186.164L275.664 187.116C275.048 188.105 274.208 188.889 273.144 189.468C272.08 190.047 270.866 190.336 269.504 190.336C267.301 190.336 265.509 189.645 264.128 188.264C262.746 186.883 262.056 185.128 262.056 183C262.056 180.909 262.737 179.164 264.1 177.764C265.462 176.364 267.217 175.664 269.364 175.664ZM269.364 177.456C267.908 177.456 266.685 177.895 265.696 178.772C264.725 179.631 264.146 180.751 263.96 182.132H274.404C274.217 180.657 273.648 179.509 272.696 178.688C271.744 177.867 270.633 177.456 269.364 177.456ZM290.46 190H288.248L283.88 184.232L279.512 190H277.3L282.788 182.748L277.664 176H279.876L283.88 181.292L287.884 176H290.096L285 182.748L290.46 190ZM302.886 176H304.734V190H302.886V183.896H294.822V190H292.974V176H294.822V182.104H302.886V176ZM318.834 176H320.402V190H318.554V179.22L310.21 190H308.642V176H310.49V186.78L318.834 176ZM333.382 176H335.23V190H333.382V184.68C332.299 185.24 330.964 185.52 329.378 185.52C327.548 185.52 326.148 185.1 325.178 184.26C324.226 183.401 323.75 182.141 323.75 180.48V176H325.598V180.48C325.598 181.656 325.906 182.505 326.522 183.028C327.138 183.532 328.071 183.784 329.322 183.784C330.778 183.784 332.131 183.513 333.382 182.972V176ZM345.625 175.664C347.697 175.664 349.368 176.401 350.637 177.876C351.925 179.332 352.569 181.059 352.569 183.056C352.569 183.261 352.551 183.551 352.513 183.924H340.221C340.408 185.343 341.005 186.472 342.013 187.312C343.04 188.133 344.3 188.544 345.793 188.544C346.857 188.544 347.772 188.329 348.537 187.9C349.321 187.452 349.909 186.873 350.301 186.164L351.925 187.116C351.309 188.105 350.469 188.889 349.405 189.468C348.341 190.047 347.128 190.336 345.765 190.336C343.563 190.336 341.771 189.645 340.389 188.264C339.008 186.883 338.317 185.128 338.317 183C338.317 180.909 338.999 179.164 340.361 177.764C341.724 176.364 343.479 175.664 345.625 175.664ZM345.625 177.456C344.169 177.456 342.947 177.895 341.957 178.772C340.987 179.631 340.408 180.751 340.221 182.132H350.665C350.479 180.657 349.909 179.509 348.957 178.688C348.005 177.867 346.895 177.456 345.625 177.456ZM362.033 190.336C359.923 190.336 358.169 189.636 356.769 188.236C355.369 186.817 354.669 185.072 354.669 183C354.669 180.928 355.369 179.192 356.769 177.792C358.169 176.373 359.923 175.664 362.033 175.664C363.414 175.664 364.655 176 365.757 176.672C366.858 177.325 367.661 178.212 368.165 179.332L366.653 180.2C366.279 179.36 365.673 178.697 364.833 178.212C364.011 177.708 363.078 177.456 362.033 177.456C360.483 177.456 359.177 177.997 358.113 179.08C357.049 180.144 356.517 181.451 356.517 183C356.517 184.549 357.049 185.865 358.113 186.948C359.177 188.012 360.483 188.544 362.033 188.544C363.078 188.544 364.011 188.301 364.833 187.816C365.654 187.312 366.298 186.64 366.765 185.8L368.305 186.696C367.726 187.816 366.877 188.703 365.757 189.356C364.637 190.009 363.395 190.336 362.033 190.336ZM382.27 190H379.806L372.806 183.252V190H370.958V176H372.806V182.188L379.47 176H381.99L374.766 182.72L382.27 190ZM394.986 176H396.554V190H394.706V179.22L386.362 190H384.794V176H386.642V186.78L394.986 176ZM406.93 175.664C409.002 175.664 410.673 176.401 411.942 177.876C413.23 179.332 413.874 181.059 413.874 183.056C413.874 183.261 413.855 183.551 413.818 183.924H401.526C401.713 185.343 402.31 186.472 403.318 187.312C404.345 188.133 405.605 188.544 407.098 188.544C408.162 188.544 409.077 188.329 409.842 187.9C410.626 187.452 411.214 186.873 411.606 186.164L413.23 187.116C412.614 188.105 411.774 188.889 410.71 189.468C409.646 190.047 408.433 190.336 407.07 190.336C404.867 190.336 403.075 189.645 401.694 188.264C400.313 186.883 399.622 185.128 399.622 183C399.622 180.909 400.303 179.164 401.666 177.764C403.029 176.364 404.783 175.664 406.93 175.664ZM406.93 177.456C405.474 177.456 404.251 177.895 403.262 178.772C402.291 179.631 401.713 180.751 401.526 182.132H411.97C411.783 180.657 411.214 179.509 410.262 178.688C409.31 177.867 408.199 177.456 406.93 177.456ZM431.038 182.804C432.662 183.42 433.474 184.54 433.474 186.164C433.474 187.321 433.016 188.311 432.102 189.132C431.206 189.935 429.918 190.336 428.238 190.336C425.419 190.336 423.571 189.216 422.694 186.976L424.262 186.052C424.84 187.713 426.166 188.544 428.238 188.544C429.32 188.544 430.151 188.311 430.73 187.844C431.327 187.377 431.626 186.78 431.626 186.052C431.626 185.399 431.383 184.867 430.898 184.456C430.412 184.045 429.759 183.84 428.938 183.84H426.894V182.048H428.378C429.18 182.048 429.806 181.852 430.254 181.46C430.72 181.049 430.954 180.489 430.954 179.78C430.954 179.108 430.683 178.557 430.142 178.128C429.6 177.68 428.872 177.456 427.958 177.456C426.203 177.456 425.036 178.156 424.458 179.556L422.918 178.66C423.851 176.663 425.531 175.664 427.958 175.664C429.432 175.664 430.608 176.056 431.486 176.84C432.363 177.605 432.802 178.548 432.802 179.668C432.802 181.105 432.214 182.151 431.038 182.804ZM448.322 176H450.17V190H448.322V187.256C447.034 189.309 445.149 190.336 442.666 190.336C440.669 190.336 438.961 189.627 437.542 188.208C436.142 186.789 435.442 185.053 435.442 183C435.442 180.947 436.142 179.211 437.542 177.792C438.961 176.373 440.669 175.664 442.666 175.664C445.149 175.664 447.034 176.691 448.322 178.744V176ZM438.886 186.948C439.95 188.012 441.257 188.544 442.806 188.544C444.356 188.544 445.662 188.012 446.726 186.948C447.79 185.865 448.322 184.549 448.322 183C448.322 181.451 447.79 180.144 446.726 179.08C445.662 177.997 444.356 177.456 442.806 177.456C441.257 177.456 439.95 177.997 438.886 179.08C437.822 180.144 437.29 181.451 437.29 183C437.29 184.549 437.822 185.865 438.886 186.948ZM465.843 188.208H467.803V193.752H465.955V190H454.531V193.752H452.683V188.208H454.391C455.343 186.957 455.819 185.193 455.819 182.916V176H465.843V188.208ZM456.631 188.208H463.995V177.792H457.667V182.916C457.667 185.063 457.322 186.827 456.631 188.208ZM482.092 176H483.94V190H482.092V187.256C480.804 189.309 478.918 190.336 476.436 190.336C474.438 190.336 472.73 189.627 471.312 188.208C469.912 186.789 469.212 185.053 469.212 183C469.212 180.947 469.912 179.211 471.312 177.792C472.73 176.373 474.438 175.664 476.436 175.664C478.918 175.664 480.804 176.691 482.092 178.744V176ZM472.656 186.948C473.72 188.012 475.026 188.544 476.576 188.544C478.125 188.544 479.432 188.012 480.496 186.948C481.56 185.865 482.092 184.549 482.092 183C482.092 181.451 481.56 180.144 480.496 179.08C479.432 177.997 478.125 177.456 476.576 177.456C475.026 177.456 473.72 177.997 472.656 179.08C471.592 180.144 471.06 181.451 471.06 183C471.06 184.549 471.592 185.865 472.656 186.948ZM496.925 176H498.773V190H496.925V184.68C495.842 185.24 494.507 185.52 492.921 185.52C491.091 185.52 489.691 185.1 488.721 184.26C487.769 183.401 487.293 182.141 487.293 180.48V176H489.141V180.48C489.141 181.656 489.449 182.505 490.065 183.028C490.681 183.532 491.614 183.784 492.865 183.784C494.321 183.784 495.674 183.513 496.925 182.972V176ZM512.892 176H514.46V190H512.612V179.22L504.268 190H502.7V176H504.548V186.78L512.892 176ZM113.346 212V226H111.498V214.828L106.598 222.78H106.374L101.474 214.828V226H99.626V212H101.754L106.486 219.672L111.218 212H113.346ZM122.947 217.32C124.253 217.32 125.355 217.731 126.251 218.552C127.165 219.355 127.623 220.391 127.623 221.66C127.623 222.929 127.165 223.975 126.251 224.796C125.355 225.599 124.253 226 122.947 226H117.263V212H119.111V217.32H122.947ZM129.583 212H131.431V226H129.583V212ZM122.947 224.208C123.731 224.208 124.393 223.975 124.935 223.508C125.495 223.041 125.775 222.425 125.775 221.66C125.775 220.895 125.495 220.279 124.935 219.812C124.393 219.345 123.731 219.112 122.947 219.112H119.111V224.208H122.947ZM148.58 226.336C146.564 226.336 144.884 225.673 143.54 224.348C142.196 223.004 141.524 221.268 141.524 219.14C141.524 216.751 141.879 214.921 142.588 213.652C143.298 212.364 144.735 211.197 146.9 210.152C147.311 209.947 147.852 209.704 148.524 209.424C149.215 209.144 149.728 208.92 150.064 208.752C150.419 208.584 150.802 208.369 151.212 208.108C151.623 207.828 151.931 207.52 152.136 207.184C152.342 206.848 152.472 206.447 152.528 205.98L153.984 206.82C153.91 207.268 153.76 207.688 153.536 208.08C153.312 208.472 153.079 208.789 152.836 209.032C152.612 209.275 152.248 209.545 151.744 209.844C151.259 210.124 150.876 210.329 150.596 210.46C150.335 210.572 149.868 210.768 149.196 211.048C148.543 211.328 148.104 211.515 147.88 211.608C146.574 212.168 145.612 212.756 144.996 213.372C144.38 213.969 143.942 214.753 143.68 215.724C144.315 214.884 145.118 214.268 146.088 213.876C147.078 213.465 148.039 213.26 148.972 213.26C150.839 213.26 152.379 213.876 153.592 215.108C154.824 216.321 155.44 217.88 155.44 219.784C155.44 221.669 154.787 223.237 153.48 224.488C152.192 225.72 150.559 226.336 148.58 226.336ZM148.58 224.488C150.036 224.488 151.231 224.049 152.164 223.172C153.116 222.276 153.592 221.147 153.592 219.784C153.592 218.403 153.144 217.273 152.248 216.396C151.371 215.5 150.195 215.052 148.72 215.052C147.395 215.052 146.191 215.472 145.108 216.312C144.026 217.133 143.484 218.235 143.484 219.616C143.484 221.035 143.97 222.201 144.94 223.116C145.93 224.031 147.143 224.488 148.58 224.488ZM164.719 211.664C166.791 211.664 168.462 212.401 169.731 213.876C171.019 215.332 171.663 217.059 171.663 219.056C171.663 219.261 171.644 219.551 171.607 219.924H159.315C159.502 221.343 160.099 222.472 161.107 223.312C162.134 224.133 163.394 224.544 164.887 224.544C165.951 224.544 166.866 224.329 167.631 223.9C168.415 223.452 169.003 222.873 169.395 222.164L171.019 223.116C170.403 224.105 169.563 224.889 168.499 225.468C167.435 226.047 166.222 226.336 164.859 226.336C162.656 226.336 160.864 225.645 159.483 224.264C158.102 222.883 157.411 221.128 157.411 219C157.411 216.909 158.092 215.164 159.455 213.764C160.818 212.364 162.572 211.664 164.719 211.664ZM164.719 213.456C163.263 213.456 162.04 213.895 161.051 214.772C160.08 215.631 159.502 216.751 159.315 218.132H169.759C169.572 216.657 169.003 215.509 168.051 214.688C167.099 213.867 165.988 213.456 164.719 213.456ZM182.107 211.664C184.104 211.664 185.803 212.373 187.203 213.792C188.621 215.211 189.331 216.947 189.331 219C189.331 221.053 188.621 222.789 187.203 224.208C185.803 225.627 184.104 226.336 182.107 226.336C179.624 226.336 177.739 225.309 176.451 223.256V231.6H174.603V212H176.451V214.744C177.739 212.691 179.624 211.664 182.107 211.664ZM178.047 222.948C179.111 224.012 180.417 224.544 181.967 224.544C183.516 224.544 184.823 224.012 185.887 222.948C186.951 221.865 187.483 220.549 187.483 219C187.483 217.451 186.951 216.144 185.887 215.08C184.823 213.997 183.516 213.456 181.967 213.456C180.417 213.456 179.111 213.997 178.047 215.08C176.983 216.144 176.451 217.451 176.451 219C176.451 220.549 176.983 221.865 178.047 222.948ZM196.939 209.536C196.697 209.779 196.398 209.9 196.043 209.9C195.689 209.9 195.39 209.779 195.147 209.536C194.905 209.293 194.783 208.995 194.783 208.64C194.783 208.285 194.905 207.987 195.147 207.744C195.39 207.501 195.689 207.38 196.043 207.38C196.398 207.38 196.697 207.501 196.939 207.744C197.182 207.987 197.303 208.285 197.303 208.64C197.303 208.995 197.182 209.293 196.939 209.536ZM202.259 209.536C202.017 209.779 201.718 209.9 201.363 209.9C201.009 209.9 200.71 209.779 200.467 209.536C200.225 209.293 200.103 208.995 200.103 208.64C200.103 208.285 200.225 207.987 200.467 207.744C200.71 207.501 201.009 207.38 201.363 207.38C201.718 207.38 202.017 207.501 202.259 207.744C202.502 207.987 202.623 208.285 202.623 208.64C202.623 208.995 202.502 209.293 202.259 209.536ZM198.871 211.664C200.943 211.664 202.614 212.401 203.883 213.876C205.171 215.332 205.815 217.059 205.815 219.056C205.815 219.261 205.797 219.551 205.759 219.924H193.467C193.654 221.343 194.251 222.472 195.259 223.312C196.286 224.133 197.546 224.544 199.039 224.544C200.103 224.544 201.018 224.329 201.783 223.9C202.567 223.452 203.155 222.873 203.547 222.164L205.171 223.116C204.555 224.105 203.715 224.889 202.651 225.468C201.587 226.047 200.374 226.336 199.011 226.336C196.809 226.336 195.017 225.645 193.635 224.264C192.254 222.883 191.563 221.128 191.563 219C191.563 216.909 192.245 215.164 193.607 213.764C194.97 212.364 196.725 211.664 198.871 211.664ZM198.871 213.456C197.415 213.456 196.193 213.895 195.203 214.772C194.233 215.631 193.654 216.751 193.467 218.132H203.911C203.725 216.657 203.155 215.509 202.203 214.688C201.251 213.867 200.141 213.456 198.871 213.456ZM222.475 212V226H220.627V214.828L215.727 222.78H215.503L210.603 214.828V226H208.755V212H210.883L215.615 219.672L220.347 212H222.475ZM243.304 212H245.152V226H243.304V219.896H235.24V226H233.392V212H235.24V218.104H243.304V212ZM261.1 212H262.948V226H261.1V223.256C259.812 225.309 257.926 226.336 255.444 226.336C253.446 226.336 251.738 225.627 250.32 224.208C248.92 222.789 248.22 221.053 248.22 219C248.22 216.947 248.92 215.211 250.32 213.792C251.738 212.373 253.446 211.664 255.444 211.664C257.926 211.664 259.812 212.691 261.1 214.744V212ZM251.664 222.948C252.728 224.012 254.034 224.544 255.584 224.544C257.133 224.544 258.44 224.012 259.504 222.948C260.568 221.865 261.1 220.549 261.1 219C261.1 217.451 260.568 216.144 259.504 215.08C258.44 213.997 257.133 213.456 255.584 213.456C254.034 213.456 252.728 213.997 251.664 215.08C250.6 216.144 250.068 217.451 250.068 219C250.068 220.549 250.6 221.865 251.664 222.948ZM280.384 226.336C278.275 226.336 276.52 225.636 275.12 224.236C273.72 222.817 273.02 221.072 273.02 219C273.02 216.928 273.72 215.192 275.12 213.792C276.52 212.373 278.275 211.664 280.384 211.664C281.766 211.664 283.007 212 284.108 212.672C285.21 213.325 286.012 214.212 286.516 215.332L285.004 216.2C284.631 215.36 284.024 214.697 283.184 214.212C282.363 213.708 281.43 213.456 280.384 213.456C278.835 213.456 277.528 213.997 276.464 215.08C275.4 216.144 274.868 217.451 274.868 219C274.868 220.549 275.4 221.865 276.464 222.948C277.528 224.012 278.835 224.544 280.384 224.544C281.43 224.544 282.363 224.301 283.184 223.816C284.006 223.312 284.65 222.64 285.116 221.8L286.656 222.696C286.078 223.816 285.228 224.703 284.108 225.356C282.988 226.009 281.747 226.336 280.384 226.336ZM295.641 211.664C297.713 211.664 299.384 212.401 300.653 213.876C301.941 215.332 302.585 217.059 302.585 219.056C302.585 219.261 302.566 219.551 302.529 219.924H290.237C290.424 221.343 291.021 222.472 292.029 223.312C293.056 224.133 294.316 224.544 295.809 224.544C296.873 224.544 297.788 224.329 298.553 223.9C299.337 223.452 299.925 222.873 300.317 222.164L301.941 223.116C301.325 224.105 300.485 224.889 299.421 225.468C298.357 226.047 297.144 226.336 295.781 226.336C293.578 226.336 291.786 225.645 290.405 224.264C289.024 222.883 288.333 221.128 288.333 219C288.333 216.909 289.014 215.164 290.377 213.764C291.74 212.364 293.494 211.664 295.641 211.664ZM295.641 213.456C294.185 213.456 292.962 213.895 291.973 214.772C291.002 215.631 290.424 216.751 290.237 218.132H300.681C300.494 216.657 299.925 215.509 298.973 214.688C298.021 213.867 296.91 213.456 295.641 213.456ZM311.74 226.336C309.724 226.336 308.044 225.673 306.7 224.348C305.356 223.004 304.684 221.268 304.684 219.14C304.684 216.751 305.039 214.921 305.748 213.652C306.458 212.364 307.895 211.197 310.06 210.152C310.471 209.947 311.012 209.704 311.684 209.424C312.375 209.144 312.888 208.92 313.224 208.752C313.579 208.584 313.962 208.369 314.372 208.108C314.783 207.828 315.091 207.52 315.296 207.184C315.502 206.848 315.632 206.447 315.688 205.98L317.144 206.82C317.07 207.268 316.92 207.688 316.696 208.08C316.472 208.472 316.239 208.789 315.996 209.032C315.772 209.275 315.408 209.545 314.904 209.844C314.419 210.124 314.036 210.329 313.756 210.46C313.495 210.572 313.028 210.768 312.356 211.048C311.703 211.328 311.264 211.515 311.04 211.608C309.734 212.168 308.772 212.756 308.156 213.372C307.54 213.969 307.102 214.753 306.84 215.724C307.475 214.884 308.278 214.268 309.248 213.876C310.238 213.465 311.199 213.26 312.132 213.26C313.999 213.26 315.539 213.876 316.752 215.108C317.984 216.321 318.6 217.88 318.6 219.784C318.6 221.669 317.947 223.237 316.64 224.488C315.352 225.72 313.719 226.336 311.74 226.336ZM311.74 224.488C313.196 224.488 314.391 224.049 315.324 223.172C316.276 222.276 316.752 221.147 316.752 219.784C316.752 218.403 316.304 217.273 315.408 216.396C314.531 215.5 313.355 215.052 311.88 215.052C310.555 215.052 309.351 215.472 308.268 216.312C307.186 217.133 306.644 218.235 306.644 219.616C306.644 221.035 307.13 222.201 308.1 223.116C309.09 224.031 310.303 224.488 311.74 224.488ZM330.944 212V226H329.096V220.624H326.688L322.376 226H320.024L324.448 220.568C323.328 220.4 322.404 219.933 321.676 219.168C320.948 218.403 320.584 217.46 320.584 216.34C320.584 215.071 321.032 214.035 321.928 213.232C322.843 212.411 323.954 212 325.26 212H330.944ZM325.26 218.888H329.096V213.792H325.26C324.476 213.792 323.804 214.025 323.244 214.492C322.703 214.959 322.432 215.575 322.432 216.34C322.432 217.105 322.703 217.721 323.244 218.188C323.804 218.655 324.476 218.888 325.26 218.888ZM342.144 218.244V216.452H356.144V218.244H342.144ZM376.253 218.804C377.783 219.364 378.549 220.456 378.549 222.08C378.549 223.219 378.166 224.161 377.401 224.908C376.654 225.636 375.571 226 374.153 226H367.349V212H373.593C374.955 212 376.01 212.355 376.757 213.064C377.503 213.755 377.877 214.651 377.877 215.752C377.877 217.152 377.335 218.169 376.253 218.804ZM373.593 213.792H369.197V218.048H373.593C375.217 218.048 376.029 217.32 376.029 215.864C376.029 215.211 375.814 214.707 375.385 214.352C374.974 213.979 374.377 213.792 373.593 213.792ZM374.153 224.208C374.974 224.208 375.599 224.012 376.029 223.62C376.477 223.228 376.701 222.677 376.701 221.968C376.701 221.315 376.477 220.801 376.029 220.428C375.599 220.036 374.974 219.84 374.153 219.84H369.197V224.208H374.153ZM393.389 212H395.237V226H393.389V223.256C392.101 225.309 390.215 226.336 387.733 226.336C385.735 226.336 384.027 225.627 382.609 224.208C381.209 222.789 380.509 221.053 380.509 219C380.509 216.947 381.209 215.211 382.609 213.792C384.027 212.373 385.735 211.664 387.733 211.664C390.215 211.664 392.101 212.691 393.389 214.744V212ZM383.953 222.948C385.017 224.012 386.323 224.544 387.873 224.544C389.422 224.544 390.729 224.012 391.793 222.948C392.857 221.865 393.389 220.549 393.389 219C393.389 217.451 392.857 216.144 391.793 215.08C390.729 213.997 389.422 213.456 387.873 213.456C386.323 213.456 385.017 213.997 383.953 215.08C382.889 216.144 382.357 217.451 382.357 219C382.357 220.549 382.889 221.865 383.953 222.948ZM412.869 212V226H411.021V214.828L406.121 222.78H405.897L400.997 214.828V226H399.149V212H401.277L406.009 219.672L410.741 212H412.869ZM435.518 224.236C434.1 225.636 432.364 226.336 430.31 226.336C428.257 226.336 426.512 225.636 425.074 224.236C423.656 222.817 422.946 221.072 422.946 219C422.946 216.928 423.656 215.192 425.074 213.792C426.512 212.373 428.257 211.664 430.31 211.664C432.364 211.664 434.1 212.373 435.518 213.792C436.956 215.192 437.674 216.928 437.674 219C437.674 221.072 436.956 222.817 435.518 224.236ZM426.39 222.948C427.454 224.012 428.761 224.544 430.31 224.544C431.86 224.544 433.166 224.012 434.23 222.948C435.294 221.865 435.826 220.549 435.826 219C435.826 217.451 435.294 216.144 434.23 215.08C433.166 213.997 431.86 213.456 430.31 213.456C428.761 213.456 427.454 213.997 426.39 215.08C425.326 216.144 424.794 217.451 424.794 219C424.794 220.549 425.326 221.865 426.39 222.948ZM447.291 226.336C445.181 226.336 443.427 225.636 442.027 224.236C440.627 222.817 439.927 221.072 439.927 219C439.927 216.928 440.627 215.192 442.027 213.792C443.427 212.373 445.181 211.664 447.291 211.664C448.672 211.664 449.913 212 451.015 212.672C452.116 213.325 452.919 214.212 453.423 215.332L451.911 216.2C451.537 215.36 450.931 214.697 450.091 214.212C449.269 213.708 448.336 213.456 447.291 213.456C445.741 213.456 444.435 213.997 443.371 215.08C442.307 216.144 441.775 217.451 441.775 219C441.775 220.549 442.307 221.865 443.371 222.948C444.435 224.012 445.741 224.544 447.291 224.544C448.336 224.544 449.269 224.301 450.091 223.816C450.912 223.312 451.556 222.64 452.023 221.8L453.563 222.696C452.984 223.816 452.135 224.703 451.015 225.356C449.895 226.009 448.653 226.336 447.291 226.336ZM466.022 212V213.792H461.066V226H459.218V213.792H454.262V212H466.022ZM479.768 212H481.616V226H479.768V223.256C478.48 225.309 476.594 226.336 474.112 226.336C472.114 226.336 470.406 225.627 468.988 224.208C467.588 222.789 466.888 221.053 466.888 219C466.888 216.947 467.588 215.211 468.988 213.792C470.406 212.373 472.114 211.664 474.112 211.664C476.594 211.664 478.48 212.691 479.768 214.744V212ZM470.332 222.948C471.396 224.012 472.702 224.544 474.252 224.544C475.801 224.544 477.108 224.012 478.172 222.948C479.236 221.865 479.768 220.549 479.768 219C479.768 217.451 479.236 216.144 478.172 215.08C477.108 213.997 475.801 213.456 474.252 213.456C472.702 213.456 471.396 213.997 470.332 215.08C469.268 216.144 468.736 217.451 468.736 219C468.736 220.549 469.268 221.865 470.332 222.948ZM491.996 211.664C494.068 211.664 495.739 212.401 497.008 213.876C498.296 215.332 498.94 217.059 498.94 219.056C498.94 219.261 498.922 219.551 498.884 219.924H486.592C486.779 221.343 487.376 222.472 488.384 223.312C489.411 224.133 490.671 224.544 492.164 224.544C493.228 224.544 494.143 224.329 494.908 223.9C495.692 223.452 496.28 222.873 496.672 222.164L498.296 223.116C497.68 224.105 496.84 224.889 495.776 225.468C494.712 226.047 493.499 226.336 492.136 226.336C489.934 226.336 488.142 225.645 486.76 224.264C485.379 222.883 484.688 221.128 484.688 219C484.688 216.909 485.37 215.164 486.732 213.764C488.095 212.364 489.85 211.664 491.996 211.664ZM491.996 213.456C490.54 213.456 489.318 213.895 488.328 214.772C487.358 215.631 486.779 216.751 486.592 218.132H497.036C496.85 216.657 496.28 215.509 495.328 214.688C494.376 213.867 493.266 213.456 491.996 213.456ZM511.413 212V213.792H506.457V226H504.609V213.792H499.653V212H511.413ZM519.642 226.336C517.533 226.336 515.778 225.636 514.378 224.236C512.978 222.817 512.278 221.072 512.278 219C512.278 216.928 512.978 215.192 514.378 213.792C515.778 212.373 517.533 211.664 519.642 211.664C521.024 211.664 522.265 212 523.366 212.672C524.468 213.325 525.27 214.212 525.774 215.332L524.262 216.2C523.889 215.36 523.282 214.697 522.442 214.212C521.621 213.708 520.688 213.456 519.642 213.456C518.093 213.456 516.786 213.997 515.722 215.08C514.658 216.144 514.126 217.451 514.126 219C514.126 220.549 514.658 221.865 515.722 222.948C516.786 224.012 518.093 224.544 519.642 224.544C520.688 224.544 521.621 224.301 522.442 223.816C523.264 223.312 523.908 222.64 524.374 221.8L525.914 222.696C525.336 223.816 524.486 224.703 523.366 225.356C522.246 226.009 521.005 226.336 519.642 226.336ZM538.374 212V226H536.526V220.624H534.118L529.806 226H527.454L531.878 220.568C530.758 220.4 529.834 219.933 529.106 219.168C528.378 218.403 528.014 217.46 528.014 216.34C528.014 215.071 528.462 214.035 529.358 213.232C530.273 212.411 531.383 212 532.69 212H538.374ZM532.69 218.888H536.526V213.792H532.69C531.906 213.792 531.234 214.025 530.674 214.492C530.133 214.959 529.862 215.575 529.862 216.34C529.862 217.105 530.133 217.721 530.674 218.188C531.234 218.655 531.906 218.888 532.69 218.888ZM187.905 248H189.753V262H187.905V255.896H179.841V262H177.993V248H179.841V254.104H187.905V248ZM205.701 248H207.549V262H205.701V259.256C204.413 261.309 202.528 262.336 200.045 262.336C198.048 262.336 196.34 261.627 194.921 260.208C193.521 258.789 192.821 257.053 192.821 255C192.821 252.947 193.521 251.211 194.921 249.792C196.34 248.373 198.048 247.664 200.045 247.664C202.528 247.664 204.413 248.691 205.701 250.744V248ZM196.265 258.948C197.329 260.012 198.636 260.544 200.185 260.544C201.735 260.544 203.041 260.012 204.105 258.948C205.169 257.865 205.701 256.549 205.701 255C205.701 253.451 205.169 252.144 204.105 251.08C203.041 249.997 201.735 249.456 200.185 249.456C198.636 249.456 197.329 249.997 196.265 251.08C195.201 252.144 194.669 253.451 194.669 255C194.669 256.549 195.201 257.865 196.265 258.948ZM217.678 262.336C215.662 262.336 213.982 261.673 212.638 260.348C211.294 259.004 210.622 257.268 210.622 255.14C210.622 252.751 210.977 250.921 211.686 249.652C212.395 248.364 213.833 247.197 215.998 246.152C216.409 245.947 216.95 245.704 217.622 245.424C218.313 245.144 218.826 244.92 219.162 244.752C219.517 244.584 219.899 244.369 220.31 244.108C220.721 243.828 221.029 243.52 221.234 243.184C221.439 242.848 221.57 242.447 221.626 241.98L223.082 242.82C223.007 243.268 222.858 243.688 222.634 244.08C222.41 244.472 222.177 244.789 221.934 245.032C221.71 245.275 221.346 245.545 220.842 245.844C220.357 246.124 219.974 246.329 219.694 246.46C219.433 246.572 218.966 246.768 218.294 247.048C217.641 247.328 217.202 247.515 216.978 247.608C215.671 248.168 214.71 248.756 214.094 249.372C213.478 249.969 213.039 250.753 212.778 251.724C213.413 250.884 214.215 250.268 215.186 249.876C216.175 249.465 217.137 249.26 218.07 249.26C219.937 249.26 221.477 249.876 222.69 251.108C223.922 252.321 224.538 253.88 224.538 255.784C224.538 257.669 223.885 259.237 222.578 260.488C221.29 261.72 219.657 262.336 217.678 262.336ZM217.678 260.488C219.134 260.488 220.329 260.049 221.262 259.172C222.214 258.276 222.69 257.147 222.69 255.784C222.69 254.403 222.242 253.273 221.346 252.396C220.469 251.5 219.293 251.052 217.818 251.052C216.493 251.052 215.289 251.472 214.206 252.312C213.123 253.133 212.582 254.235 212.582 255.616C212.582 257.035 213.067 258.201 214.038 259.116C215.027 260.031 216.241 260.488 217.678 260.488ZM238.282 248V262H236.434V249.792H230.106V256.036C230.106 258.369 229.658 259.975 228.762 260.852C227.884 261.729 226.671 262.112 225.122 262V260.264C226.186 260.376 226.97 260.124 227.474 259.508C227.996 258.892 228.258 257.735 228.258 256.036V248H238.282ZM254.152 247.664C256.206 247.664 257.942 248.373 259.36 249.792C260.798 251.192 261.516 252.928 261.516 255C261.516 257.072 260.798 258.817 259.36 260.236C257.942 261.636 256.206 262.336 254.152 262.336C252.267 262.336 250.643 261.729 249.28 260.516C247.936 259.284 247.162 257.744 246.956 255.896H244.044V262H242.196V248H244.044V254.104H246.956C247.162 252.256 247.936 250.725 249.28 249.512C250.643 248.28 252.267 247.664 254.152 247.664ZM250.232 258.948C251.296 260.012 252.603 260.544 254.152 260.544C255.702 260.544 257.008 260.012 258.072 258.948C259.136 257.865 259.668 256.549 259.668 255C259.668 253.451 259.136 252.144 258.072 251.08C257.008 249.997 255.702 249.456 254.152 249.456C252.603 249.456 251.296 249.997 250.232 251.08C249.168 252.144 248.636 253.451 248.636 255C248.636 256.549 249.168 257.865 250.232 258.948ZM275.804 260.208H277.764V265.752H275.916V262H264.492V265.752H262.644V260.208H264.352C265.304 258.957 265.78 257.193 265.78 254.916V248H275.804V260.208ZM266.592 260.208H273.956V249.792H267.628V254.916C267.628 257.063 267.283 258.827 266.592 260.208ZM292.053 248H293.901V262H292.053V259.256C290.765 261.309 288.879 262.336 286.397 262.336C284.399 262.336 282.691 261.627 281.273 260.208C279.873 258.789 279.173 257.053 279.173 255C279.173 252.947 279.873 251.211 281.273 249.792C282.691 248.373 284.399 247.664 286.397 247.664C288.879 247.664 290.765 248.691 292.053 250.744V248ZM282.617 258.948C283.681 260.012 284.987 260.544 286.537 260.544C288.086 260.544 289.393 260.012 290.457 258.948C291.521 257.865 292.053 256.549 292.053 255C292.053 253.451 291.521 252.144 290.457 251.08C289.393 249.997 288.086 249.456 286.537 249.456C284.987 249.456 283.681 249.997 282.617 251.08C281.553 252.144 281.021 253.451 281.021 255C281.021 256.549 281.553 257.865 282.617 258.948ZM307.894 248V249.792H302.938V262H301.09V249.792H296.134V248H307.894ZM315.83 253.32C317.136 253.32 318.238 253.731 319.134 254.552C320.048 255.355 320.506 256.391 320.506 257.66C320.506 258.929 320.048 259.975 319.134 260.796C318.238 261.599 317.136 262 315.83 262H310.146V248H311.994V253.32H315.83ZM315.83 260.208C316.614 260.208 317.276 259.975 317.818 259.508C318.378 259.041 318.658 258.425 318.658 257.66C318.658 256.895 318.378 256.279 317.818 255.812C317.276 255.345 316.614 255.112 315.83 255.112H311.994V260.208H315.83ZM337.522 254.804C339.146 255.42 339.958 256.54 339.958 258.164C339.958 259.321 339.501 260.311 338.586 261.132C337.69 261.935 336.402 262.336 334.722 262.336C331.903 262.336 330.055 261.216 329.178 258.976L330.746 258.052C331.325 259.713 332.65 260.544 334.722 260.544C335.805 260.544 336.635 260.311 337.214 259.844C337.811 259.377 338.11 258.78 338.11 258.052C338.11 257.399 337.867 256.867 337.382 256.456C336.897 256.045 336.243 255.84 335.422 255.84H333.378V254.048H334.862C335.665 254.048 336.29 253.852 336.738 253.46C337.205 253.049 337.438 252.489 337.438 251.78C337.438 251.108 337.167 250.557 336.626 250.128C336.085 249.68 335.357 249.456 334.442 249.456C332.687 249.456 331.521 250.156 330.942 251.556L329.402 250.66C330.335 248.663 332.015 247.664 334.442 247.664C335.917 247.664 337.093 248.056 337.97 248.84C338.847 249.605 339.286 250.548 339.286 251.668C339.286 253.105 338.698 254.151 337.522 254.804ZM354.807 248H356.655V262H354.807V259.256C353.519 261.309 351.633 262.336 349.151 262.336C347.153 262.336 345.445 261.627 344.027 260.208C342.627 258.789 341.927 257.053 341.927 255C341.927 252.947 342.627 251.211 344.027 249.792C345.445 248.373 347.153 247.664 349.151 247.664C351.633 247.664 353.519 248.691 354.807 250.744V248ZM345.371 258.948C346.435 260.012 347.741 260.544 349.291 260.544C350.84 260.544 352.147 260.012 353.211 258.948C354.275 257.865 354.807 256.549 354.807 255C354.807 253.451 354.275 252.144 353.211 251.08C352.147 249.997 350.84 249.456 349.291 249.456C347.741 249.456 346.435 249.997 345.371 251.08C344.307 252.144 343.775 253.451 343.775 255C343.775 256.549 344.307 257.865 345.371 258.948ZM375.071 247.664C377.069 247.664 378.767 248.373 380.167 249.792C381.586 251.211 382.295 252.947 382.295 255C382.295 257.053 381.586 258.789 380.167 260.208C378.767 261.627 377.069 262.336 375.071 262.336C372.589 262.336 370.703 261.309 369.415 259.256V267.6H367.567V248H369.415V250.744C370.703 248.691 372.589 247.664 375.071 247.664ZM371.011 258.948C372.075 260.012 373.382 260.544 374.931 260.544C376.481 260.544 377.787 260.012 378.851 258.948C379.915 257.865 380.447 256.549 380.447 255C380.447 253.451 379.915 252.144 378.851 251.08C377.787 249.997 376.481 249.456 374.931 249.456C373.382 249.456 372.075 249.997 371.011 251.08C369.947 252.144 369.415 253.451 369.415 255C369.415 256.549 369.947 257.865 371.011 258.948ZM397.1 260.236C395.682 261.636 393.946 262.336 391.892 262.336C389.839 262.336 388.094 261.636 386.656 260.236C385.238 258.817 384.528 257.072 384.528 255C384.528 252.928 385.238 251.192 386.656 249.792C388.094 248.373 389.839 247.664 391.892 247.664C393.946 247.664 395.682 248.373 397.1 249.792C398.538 251.192 399.256 252.928 399.256 255C399.256 257.072 398.538 258.817 397.1 260.236ZM387.972 258.948C389.036 260.012 390.343 260.544 391.892 260.544C393.442 260.544 394.748 260.012 395.812 258.948C396.876 257.865 397.408 256.549 397.408 255C397.408 253.451 396.876 252.144 395.812 251.08C394.748 249.997 393.442 249.456 391.892 249.456C390.343 249.456 389.036 249.997 387.972 251.08C386.908 252.144 386.376 253.451 386.376 255C386.376 256.549 386.908 257.865 387.972 258.948ZM408.873 262.336C406.763 262.336 405.009 261.636 403.609 260.236C402.209 258.817 401.509 257.072 401.509 255C401.509 252.928 402.209 251.192 403.609 249.792C405.009 248.373 406.763 247.664 408.873 247.664C410.254 247.664 411.495 248 412.597 248.672C413.698 249.325 414.501 250.212 415.005 251.332L413.493 252.2C413.119 251.36 412.513 250.697 411.673 250.212C410.851 249.708 409.918 249.456 408.873 249.456C407.323 249.456 406.017 249.997 404.953 251.08C403.889 252.144 403.357 253.451 403.357 255C403.357 256.549 403.889 257.865 404.953 258.948C406.017 260.012 407.323 260.544 408.873 260.544C409.918 260.544 410.851 260.301 411.673 259.816C412.494 259.312 413.138 258.64 413.605 257.8L415.145 258.696C414.566 259.816 413.717 260.703 412.597 261.356C411.477 262.009 410.235 262.336 408.873 262.336ZM427.604 248V249.792H422.648V262H420.8V249.792H415.844V248H427.604ZM441.042 260.236C439.623 261.636 437.887 262.336 435.834 262.336C433.78 262.336 432.035 261.636 430.598 260.236C429.179 258.817 428.47 257.072 428.47 255C428.47 252.928 429.179 251.192 430.598 249.792C432.035 248.373 433.78 247.664 435.834 247.664C437.887 247.664 439.623 248.373 441.042 249.792C442.479 251.192 443.198 252.928 443.198 255C443.198 257.072 442.479 258.817 441.042 260.236ZM431.914 258.948C432.978 260.012 434.284 260.544 435.834 260.544C437.383 260.544 438.69 260.012 439.754 258.948C440.818 257.865 441.35 256.549 441.35 255C441.35 253.451 440.818 252.144 439.754 251.08C438.69 249.997 437.383 249.456 435.834 249.456C434.284 249.456 432.978 249.997 431.914 251.08C430.85 252.144 430.318 253.451 430.318 255C430.318 256.549 430.85 257.865 431.914 258.948ZM460.01 248V262H458.162V250.828L453.262 258.78H453.038L448.138 250.828V262H446.29V248H448.418L453.15 255.672L457.882 248H460.01ZM186.848 298.336C184.832 298.336 183.152 297.673 181.808 296.348C180.464 295.004 179.792 293.268 179.792 291.14C179.792 288.751 180.147 286.921 180.856 285.652C181.565 284.364 183.003 283.197 185.168 282.152C185.579 281.947 186.12 281.704 186.792 281.424C187.483 281.144 187.996 280.92 188.332 280.752C188.687 280.584 189.069 280.369 189.48 280.108C189.891 279.828 190.199 279.52 190.404 279.184C190.609 278.848 190.74 278.447 190.796 277.98L192.252 278.82C192.177 279.268 192.028 279.688 191.804 280.08C191.58 280.472 191.347 280.789 191.104 281.032C190.88 281.275 190.516 281.545 190.012 281.844C189.527 282.124 189.144 282.329 188.864 282.46C188.603 282.572 188.136 282.768 187.464 283.048C186.811 283.328 186.372 283.515 186.148 283.608C184.841 284.168 183.88 284.756 183.264 285.372C182.648 285.969 182.209 286.753 181.948 287.724C182.583 286.884 183.385 286.268 184.356 285.876C185.345 285.465 186.307 285.26 187.24 285.26C189.107 285.26 190.647 285.876 191.86 287.108C193.092 288.321 193.708 289.88 193.708 291.784C193.708 293.669 193.055 295.237 191.748 296.488C190.46 297.72 188.827 298.336 186.848 298.336ZM186.848 296.488C188.304 296.488 189.499 296.049 190.432 295.172C191.384 294.276 191.86 293.147 191.86 291.784C191.86 290.403 191.412 289.273 190.516 288.396C189.639 287.5 188.463 287.052 186.988 287.052C185.663 287.052 184.459 287.472 183.376 288.312C182.293 289.133 181.752 290.235 181.752 291.616C181.752 293.035 182.237 294.201 183.208 295.116C184.197 296.031 185.411 296.488 186.848 296.488ZM206.711 284H208.279V298H206.431V287.22L198.087 298H196.519V284H198.367V294.78L206.711 284ZM219.411 290.804C221.035 291.42 221.847 292.54 221.847 294.164C221.847 295.321 221.389 296.311 220.475 297.132C219.579 297.935 218.291 298.336 216.611 298.336C213.792 298.336 211.944 297.216 211.067 294.976L212.635 294.052C213.213 295.713 214.539 296.544 216.611 296.544C217.693 296.544 218.524 296.311 219.103 295.844C219.7 295.377 219.999 294.78 219.999 294.052C219.999 293.399 219.756 292.867 219.271 292.456C218.785 292.045 218.132 291.84 217.311 291.84H215.267V290.048H216.751C217.553 290.048 218.179 289.852 218.627 289.46C219.093 289.049 219.327 288.489 219.327 287.78C219.327 287.108 219.056 286.557 218.515 286.128C217.973 285.68 217.245 285.456 216.331 285.456C214.576 285.456 213.409 286.156 212.831 287.556L211.291 286.66C212.224 284.663 213.904 283.664 216.331 283.664C217.805 283.664 218.981 284.056 219.859 284.84C220.736 285.605 221.175 286.548 221.175 287.668C221.175 289.105 220.587 290.151 219.411 290.804ZM234.567 284H236.415V298H234.567V291.896H226.503V298H224.655V284H226.503V290.104H234.567V284ZM246.791 283.664C248.863 283.664 250.534 284.401 251.803 285.876C253.091 287.332 253.735 289.059 253.735 291.056C253.735 291.261 253.717 291.551 253.679 291.924H241.387C241.574 293.343 242.171 294.472 243.179 295.312C244.206 296.133 245.466 296.544 246.959 296.544C248.023 296.544 248.938 296.329 249.703 295.9C250.487 295.452 251.075 294.873 251.467 294.164L253.091 295.116C252.475 296.105 251.635 296.889 250.571 297.468C249.507 298.047 248.294 298.336 246.931 298.336C244.729 298.336 242.937 297.645 241.555 296.264C240.174 294.883 239.483 293.128 239.483 291C239.483 288.909 240.165 287.164 241.527 285.764C242.89 284.364 244.645 283.664 246.791 283.664ZM246.791 285.456C245.335 285.456 244.113 285.895 243.123 286.772C242.153 287.631 241.574 288.751 241.387 290.132H251.831C251.645 288.657 251.075 287.509 250.123 286.688C249.171 285.867 248.061 285.456 246.791 285.456ZM263.199 298.336C261.09 298.336 259.335 297.636 257.935 296.236C256.535 294.817 255.835 293.072 255.835 291C255.835 288.928 256.535 287.192 257.935 285.792C259.335 284.373 261.09 283.664 263.199 283.664C264.58 283.664 265.822 284 266.923 284.672C268.024 285.325 268.827 286.212 269.331 287.332L267.819 288.2C267.446 287.36 266.839 286.697 265.999 286.212C265.178 285.708 264.244 285.456 263.199 285.456C261.65 285.456 260.343 285.997 259.279 287.08C258.215 288.144 257.683 289.451 257.683 291C257.683 292.549 258.215 293.865 259.279 294.948C260.343 296.012 261.65 296.544 263.199 296.544C264.244 296.544 265.178 296.301 265.999 295.816C266.82 295.312 267.464 294.64 267.931 293.8L269.471 294.696C268.892 295.816 268.043 296.703 266.923 297.356C265.803 298.009 264.562 298.336 263.199 298.336ZM272.404 290.244V288.452H282.484V290.244H272.404ZM298.431 284V298H296.583V285.792H288.519V298H286.671V284H298.431ZM314.071 296.236C312.652 297.636 310.916 298.336 308.863 298.336C306.81 298.336 305.064 297.636 303.627 296.236C302.208 294.817 301.499 293.072 301.499 291C301.499 288.928 302.208 287.192 303.627 285.792C305.064 284.373 306.81 283.664 308.863 283.664C310.916 283.664 312.652 284.373 314.071 285.792C315.508 287.192 316.227 288.928 316.227 291C316.227 293.072 315.508 294.817 314.071 296.236ZM304.943 294.948C306.007 296.012 307.314 296.544 308.863 296.544C310.412 296.544 311.719 296.012 312.783 294.948C313.847 293.865 314.379 292.549 314.379 291C314.379 289.451 313.847 288.144 312.783 287.08C311.719 285.997 310.412 285.456 308.863 285.456C307.314 285.456 306.007 285.997 304.943 287.08C303.879 288.144 303.347 289.451 303.347 291C303.347 292.549 303.879 293.865 304.943 294.948ZM330.631 298H328.167L321.167 291.252V298H319.319V284H321.167V290.188L327.831 284H330.351L323.127 290.72L330.631 298ZM343.801 284H345.649V298H343.801V295.256C342.513 297.309 340.627 298.336 338.145 298.336C336.147 298.336 334.439 297.627 333.021 296.208C331.621 294.789 330.921 293.053 330.921 291C330.921 288.947 331.621 287.211 333.021 285.792C334.439 284.373 336.147 283.664 338.145 283.664C340.627 283.664 342.513 284.691 343.801 286.744V284ZM334.365 294.948C335.429 296.012 336.735 296.544 338.285 296.544C339.834 296.544 341.141 296.012 342.205 294.948C343.269 293.865 343.801 292.549 343.801 291C343.801 289.451 343.269 288.144 342.205 287.08C341.141 285.997 339.834 285.456 338.285 285.456C336.735 285.456 335.429 285.997 334.365 287.08C333.301 288.144 332.769 289.451 332.769 291C332.769 292.549 333.301 293.865 334.365 294.948ZM356.786 290.804C358.41 291.42 359.222 292.54 359.222 294.164C359.222 295.321 358.764 296.311 357.85 297.132C356.954 297.935 355.666 298.336 353.986 298.336C351.167 298.336 349.319 297.216 348.442 294.976L350.01 294.052C350.588 295.713 351.914 296.544 353.986 296.544C355.068 296.544 355.899 296.311 356.478 295.844C357.075 295.377 357.374 294.78 357.374 294.052C357.374 293.399 357.131 292.867 356.646 292.456C356.16 292.045 355.507 291.84 354.686 291.84H352.642V290.048H354.126C354.928 290.048 355.554 289.852 356.002 289.46C356.468 289.049 356.702 288.489 356.702 287.78C356.702 287.108 356.431 286.557 355.89 286.128C355.348 285.68 354.62 285.456 353.706 285.456C351.951 285.456 350.784 286.156 350.206 287.556L348.666 286.66C349.599 284.663 351.279 283.664 353.706 283.664C355.18 283.664 356.356 284.056 357.234 284.84C358.111 285.605 358.55 286.548 358.55 287.668C358.55 289.105 357.962 290.151 356.786 290.804ZM374.07 284H375.918V298H374.07V295.256C372.782 297.309 370.897 298.336 368.414 298.336C366.417 298.336 364.709 297.627 363.29 296.208C361.89 294.789 361.19 293.053 361.19 291C361.19 288.947 361.89 287.211 363.29 285.792C364.709 284.373 366.417 283.664 368.414 283.664C370.897 283.664 372.782 284.691 374.07 286.744V284ZM364.634 294.948C365.698 296.012 367.005 296.544 368.554 296.544C370.104 296.544 371.41 296.012 372.474 294.948C373.538 293.865 374.07 292.549 374.07 291C374.07 289.451 373.538 288.144 372.474 287.08C371.41 285.997 370.104 285.456 368.554 285.456C367.005 285.456 365.698 285.997 364.634 287.08C363.57 288.144 363.038 289.451 363.038 291C363.038 292.549 363.57 293.865 364.634 294.948ZM389.911 284V285.792H384.955V298H383.107V285.792H378.151V284H389.911ZM398.084 283.664C400.156 283.664 401.827 284.401 403.096 285.876C404.384 287.332 405.028 289.059 405.028 291.056C405.028 291.261 405.01 291.551 404.972 291.924H392.68C392.867 293.343 393.464 294.472 394.472 295.312C395.499 296.133 396.759 296.544 398.252 296.544C399.316 296.544 400.231 296.329 400.996 295.9C401.78 295.452 402.368 294.873 402.76 294.164L404.384 295.116C403.768 296.105 402.928 296.889 401.864 297.468C400.8 298.047 399.587 298.336 398.224 298.336C396.022 298.336 394.23 297.645 392.848 296.264C391.467 294.883 390.776 293.128 390.776 291C390.776 288.909 391.458 287.164 392.82 285.764C394.183 284.364 395.938 283.664 398.084 283.664ZM398.084 285.456C396.628 285.456 395.406 285.895 394.416 286.772C393.446 287.631 392.867 288.751 392.68 290.132H403.124C402.938 288.657 402.368 287.509 401.416 286.688C400.464 285.867 399.354 285.456 398.084 285.456ZM418.901 284V298H417.053V285.792H410.725V292.036C410.725 294.369 410.277 295.975 409.381 296.852C408.504 297.729 407.29 298.112 405.741 298V296.264C406.805 296.376 407.589 296.124 408.093 295.508C408.616 294.892 408.877 293.735 408.877 292.036V284H418.901ZM429.283 283.664C431.355 283.664 433.026 284.401 434.295 285.876C435.583 287.332 436.227 289.059 436.227 291.056C436.227 291.261 436.209 291.551 436.171 291.924H423.879C424.066 293.343 424.663 294.472 425.671 295.312C426.698 296.133 427.958 296.544 429.451 296.544C430.515 296.544 431.43 296.329 432.195 295.9C432.979 295.452 433.567 294.873 433.959 294.164L435.583 295.116C434.967 296.105 434.127 296.889 433.063 297.468C431.999 298.047 430.786 298.336 429.423 298.336C427.221 298.336 425.429 297.645 424.047 296.264C422.666 294.883 421.975 293.128 421.975 291C421.975 288.909 422.657 287.164 424.019 285.764C425.382 284.364 427.137 283.664 429.283 283.664ZM429.283 285.456C427.827 285.456 426.605 285.895 425.615 286.772C424.645 287.631 424.066 288.751 423.879 290.132H434.323C434.137 288.657 433.567 287.509 432.615 286.688C431.663 285.867 430.553 285.456 429.283 285.456ZM441.407 281.76V280.136H448.687V281.76H441.407ZM449.359 284H450.927V298H449.079V287.22L440.735 298H439.167V284H441.015V294.78L449.359 284ZM457.187 297.832C456.888 298.131 456.524 298.28 456.095 298.28C455.666 298.28 455.302 298.131 455.003 297.832C454.704 297.533 454.555 297.169 454.555 296.74C454.555 296.311 454.704 295.947 455.003 295.648C455.302 295.349 455.666 295.2 456.095 295.2C456.524 295.2 456.888 295.349 457.187 295.648C457.486 295.947 457.635 296.311 457.635 296.74C457.635 297.169 457.486 297.533 457.187 297.832Z" fill="#0F0F69"/>
</svg>
