<svg width="638" height="423" viewBox="0 0 638 423" fill="none" xmlns="http://www.w3.org/2000/svg">
<path fill-rule="evenodd" clip-rule="evenodd" d="M319 353.21C495.179 353.21 638 274.141 638 176.605C638 79.0688 495.179 0 319 0C142.821 0 0 79.0688 0 176.605C0 244.912 70.0473 304.162 172.544 333.539C175.386 367.34 117.934 423 117.934 423C117.934 423 239.753 379.554 282.698 352.079C294.612 352.826 306.725 353.21 319 353.21Z" fill="white"/>
<path d="M218.937 45.4V65H215.717V48.48H207.737V65H204.517V45.4H218.937ZM230.592 50.636C232.515 50.636 234.158 51.3547 235.52 52.792C236.883 54.2107 237.564 55.9467 237.564 58C237.564 60.072 236.883 61.8173 235.52 63.236C234.158 64.6547 232.515 65.364 230.592 65.364C228.464 65.364 226.831 64.58 225.692 63.012V70.6H222.668V51H225.692V53.016C226.831 51.4293 228.464 50.636 230.592 50.636ZM226.952 61.22C227.792 62.06 228.847 62.48 230.116 62.48C231.386 62.48 232.44 62.06 233.28 61.22C234.12 60.3613 234.54 59.288 234.54 58C234.54 56.712 234.12 55.648 233.28 54.808C232.44 53.9493 231.386 53.52 230.116 53.52C228.847 53.52 227.792 53.9493 226.952 54.808C226.112 55.648 225.692 56.712 225.692 58C225.692 59.288 226.112 60.3613 226.952 61.22ZM246.913 65.364C244.86 65.364 243.114 64.6547 241.677 63.236C240.24 61.8173 239.521 60.072 239.521 58C239.521 55.928 240.24 54.1827 241.677 52.764C243.114 51.3453 244.86 50.636 246.913 50.636C248.985 50.636 250.73 51.3453 252.149 52.764C253.586 54.1827 254.305 55.928 254.305 58C254.305 60.072 253.586 61.8173 252.149 63.236C250.73 64.6547 248.985 65.364 246.913 65.364ZM243.805 61.164C244.645 62.004 245.681 62.424 246.913 62.424C248.145 62.424 249.181 62.004 250.021 61.164C250.861 60.324 251.281 59.2693 251.281 58C251.281 56.7307 250.861 55.676 250.021 54.836C249.181 53.996 248.145 53.576 246.913 53.576C245.681 53.576 244.645 53.996 243.805 54.836C242.965 55.676 242.545 56.7307 242.545 58C242.545 59.2693 242.965 60.324 243.805 61.164ZM259.419 59.288C259.643 60.352 260.157 61.1733 260.959 61.752C261.762 62.312 262.742 62.592 263.899 62.592C265.505 62.592 266.709 62.0133 267.511 60.856L270.003 62.312C268.622 64.3467 266.578 65.364 263.871 65.364C261.594 65.364 259.755 64.6733 258.355 63.292C256.955 61.892 256.255 60.128 256.255 58C256.255 55.9093 256.946 54.164 258.327 52.764C259.709 51.3453 261.482 50.636 263.647 50.636C265.701 50.636 267.381 51.3547 268.687 52.792C270.013 54.2293 270.675 55.9747 270.675 58.028C270.675 58.3453 270.638 58.7653 270.563 59.288H259.419ZM259.391 56.824H267.623C267.418 55.6853 266.942 54.8267 266.195 54.248C265.467 53.6693 264.609 53.38 263.619 53.38C262.499 53.38 261.566 53.688 260.819 54.304C260.073 54.92 259.597 55.76 259.391 56.824ZM285.712 65H282.1L276.36 58.532V65H273.336V51H276.36V57.188L281.792 51H285.488L279.328 57.86L285.712 65ZM298.442 51V53.912H293.878V65H290.854V53.912H286.262V51H298.442ZM310.625 51H312.949V65H309.981V56.096L302.813 65H300.489V51H303.457V59.876L310.625 51ZM324.381 50.636C326.304 50.636 327.947 51.3547 329.309 52.792C330.672 54.2107 331.353 55.9467 331.353 58C331.353 60.072 330.672 61.8173 329.309 63.236C327.947 64.6547 326.304 65.364 324.381 65.364C322.253 65.364 320.62 64.58 319.481 63.012V70.6H316.457V51H319.481V53.016C320.62 51.4293 322.253 50.636 324.381 50.636ZM320.741 61.22C321.581 62.06 322.636 62.48 323.905 62.48C325.175 62.48 326.229 62.06 327.069 61.22C327.909 60.3613 328.329 59.288 328.329 58C328.329 56.712 327.909 55.648 327.069 54.808C326.229 53.9493 325.175 53.52 323.905 53.52C322.636 53.52 321.581 53.9493 320.741 54.808C319.901 55.648 319.481 56.712 319.481 58C319.481 59.288 319.901 60.3613 320.741 61.22ZM340.702 65.364C338.649 65.364 336.903 64.6547 335.466 63.236C334.029 61.8173 333.31 60.072 333.31 58C333.31 55.928 334.029 54.1827 335.466 52.764C336.903 51.3453 338.649 50.636 340.702 50.636C342.774 50.636 344.519 51.3453 345.938 52.764C347.375 54.1827 348.094 55.928 348.094 58C348.094 60.072 347.375 61.8173 345.938 63.236C344.519 64.6547 342.774 65.364 340.702 65.364ZM337.594 61.164C338.434 62.004 339.47 62.424 340.702 62.424C341.934 62.424 342.97 62.004 343.81 61.164C344.65 60.324 345.07 59.2693 345.07 58C345.07 56.7307 344.65 55.676 343.81 54.836C342.97 53.996 341.934 53.576 340.702 53.576C339.47 53.576 338.434 53.996 337.594 54.836C336.754 55.676 336.334 56.7307 336.334 58C336.334 59.2693 336.754 60.324 337.594 61.164ZM360.516 57.804C361.898 58.4387 362.588 59.512 362.588 61.024C362.588 62.2 362.187 63.1613 361.384 63.908C360.6 64.636 359.471 65 357.996 65H350.828V51H357.436C358.874 51 359.984 51.364 360.768 52.092C361.571 52.8013 361.972 53.7253 361.972 54.864C361.972 56.1893 361.487 57.1693 360.516 57.804ZM357.212 53.576H353.712V56.684H357.212C358.444 56.684 359.06 56.1613 359.06 55.116C359.06 54.0893 358.444 53.576 357.212 53.576ZM357.716 62.368C358.986 62.368 359.62 61.8173 359.62 60.716C359.62 60.2307 359.452 59.8573 359.116 59.596C358.78 59.316 358.314 59.176 357.716 59.176H353.712V62.368H357.716ZM376.135 51H379.159V65H376.135V62.984C374.997 64.5707 373.363 65.364 371.235 65.364C369.313 65.364 367.67 64.6547 366.307 63.236C364.945 61.7987 364.263 60.0533 364.263 58C364.263 55.928 364.945 54.1827 366.307 52.764C367.67 51.3453 369.313 50.636 371.235 50.636C373.363 50.636 374.997 51.42 376.135 52.988V51ZM368.547 61.22C369.387 62.06 370.442 62.48 371.711 62.48C372.981 62.48 374.035 62.06 374.875 61.22C375.715 60.3613 376.135 59.288 376.135 58C376.135 56.712 375.715 55.648 374.875 54.808C374.035 53.9493 372.981 53.52 371.711 53.52C370.442 53.52 369.387 53.9493 368.547 54.808C367.707 55.648 367.287 56.712 367.287 58C367.287 59.288 367.707 60.3613 368.547 61.22ZM392.12 51H395.144V65H392.12V59.428H385.708V65H382.684V51H385.708V56.572H392.12V51ZM408.789 51H411.113V65H408.145V56.096L400.977 65H398.653V51H401.621V59.876L408.789 51ZM417.001 59.288C417.225 60.352 417.739 61.1733 418.541 61.752C419.344 62.312 420.324 62.592 421.481 62.592C423.087 62.592 424.291 62.0133 425.093 60.856L427.585 62.312C426.204 64.3467 424.16 65.364 421.453 65.364C419.176 65.364 417.337 64.6733 415.937 63.292C414.537 61.892 413.837 60.128 413.837 58C413.837 55.9093 414.528 54.164 415.909 52.764C417.291 51.3453 419.064 50.636 421.229 50.636C423.283 50.636 424.963 51.3547 426.269 52.792C427.595 54.2293 428.257 55.9747 428.257 58.028C428.257 58.3453 428.22 58.7653 428.145 59.288H417.001ZM416.973 56.824H425.205C425 55.6853 424.524 54.8267 423.777 54.248C423.049 53.6693 422.191 53.38 421.201 53.38C420.081 53.38 419.148 53.688 418.401 54.304C417.655 54.92 417.179 55.76 416.973 56.824ZM433.997 61.64L432.037 68.92H429.517L430.637 61.64H433.997ZM194.485 86.636C196.408 86.636 198.05 87.3547 199.413 88.792C200.776 90.2107 201.457 91.9467 201.457 94C201.457 96.072 200.776 97.8173 199.413 99.236C198.05 100.655 196.408 101.364 194.485 101.364C192.357 101.364 190.724 100.58 189.585 99.012V106.6H186.561V87H189.585V89.016C190.724 87.4293 192.357 86.636 194.485 86.636ZM190.845 97.22C191.685 98.06 192.74 98.48 194.009 98.48C195.278 98.48 196.333 98.06 197.173 97.22C198.013 96.3613 198.433 95.288 198.433 94C198.433 92.712 198.013 91.648 197.173 90.808C196.333 89.9493 195.278 89.52 194.009 89.52C192.74 89.52 191.685 89.9493 190.845 90.808C190.005 91.648 189.585 92.712 189.585 94C189.585 95.288 190.005 96.3613 190.845 97.22ZM215.286 87H218.31V101H215.286V98.984C214.147 100.571 212.514 101.364 210.386 101.364C208.463 101.364 206.82 100.655 205.458 99.236C204.095 97.7987 203.414 96.0533 203.414 94C203.414 91.928 204.095 90.1827 205.458 88.764C206.82 87.3453 208.463 86.636 210.386 86.636C212.514 86.636 214.147 87.42 215.286 88.988V87ZM207.698 97.22C208.538 98.06 209.592 98.48 210.862 98.48C212.131 98.48 213.186 98.06 214.026 97.22C214.866 96.3613 215.286 95.288 215.286 94C215.286 92.712 214.866 91.648 214.026 90.808C213.186 89.9493 212.131 89.52 210.862 89.52C209.592 89.52 208.538 89.9493 207.698 90.808C206.858 91.648 206.438 92.712 206.438 94C206.438 95.288 206.858 96.3613 207.698 97.22ZM229.702 93.832C231.196 94.504 231.942 95.6147 231.942 97.164C231.942 98.3587 231.457 99.3573 230.486 100.16C229.516 100.963 228.162 101.364 226.426 101.364C223.608 101.364 221.704 100.244 220.714 98.004L223.178 96.548C223.682 97.948 224.774 98.648 226.454 98.648C227.238 98.648 227.854 98.4893 228.302 98.172C228.75 97.836 228.974 97.3973 228.974 96.856C228.974 96.3707 228.797 95.988 228.442 95.708C228.088 95.4093 227.593 95.26 226.958 95.26H224.97V92.6H226.454C227.07 92.6 227.546 92.46 227.882 92.18C228.237 91.8813 228.414 91.48 228.414 90.976C228.414 90.4907 228.218 90.0987 227.826 89.8C227.434 89.4827 226.912 89.324 226.258 89.324C224.858 89.324 223.888 89.94 223.346 91.172L220.882 89.772C221.928 87.6813 223.701 86.636 226.202 86.636C227.77 86.636 229.012 87.0373 229.926 87.84C230.86 88.624 231.326 89.5853 231.326 90.724C231.326 92.124 230.785 93.16 229.702 93.832ZM242.336 86.636C244.259 86.636 245.902 87.3547 247.264 88.792C248.627 90.2107 249.308 91.9467 249.308 94C249.308 96.072 248.627 97.8173 247.264 99.236C245.902 100.655 244.259 101.364 242.336 101.364C240.208 101.364 238.575 100.58 237.436 99.012V106.6H234.412V87H237.436V89.016C238.575 87.4293 240.208 86.636 242.336 86.636ZM238.696 97.22C239.536 98.06 240.591 98.48 241.86 98.48C243.13 98.48 244.184 98.06 245.024 97.22C245.864 96.3613 246.284 95.288 246.284 94C246.284 92.712 245.864 91.648 245.024 90.808C244.184 89.9493 243.13 89.52 241.86 89.52C240.591 89.52 239.536 89.9493 238.696 90.808C237.856 91.648 237.436 92.712 237.436 94C237.436 95.288 237.856 96.3613 238.696 97.22ZM263.137 87H266.161V101H263.137V98.984C261.998 100.571 260.365 101.364 258.237 101.364C256.314 101.364 254.672 100.655 253.309 99.236C251.946 97.7987 251.265 96.0533 251.265 94C251.265 91.928 251.946 90.1827 253.309 88.764C254.672 87.3453 256.314 86.636 258.237 86.636C260.365 86.636 261.998 87.42 263.137 88.988V87ZM255.549 97.22C256.389 98.06 257.444 98.48 258.713 98.48C259.982 98.48 261.037 98.06 261.877 97.22C262.717 96.3613 263.137 95.288 263.137 94C263.137 92.712 262.717 91.648 261.877 90.808C261.037 89.9493 259.982 89.52 258.713 89.52C257.444 89.52 256.389 89.9493 255.549 90.808C254.709 91.648 254.289 92.712 254.289 94C254.289 95.288 254.709 96.3613 255.549 97.22ZM276.182 101.364C274.035 101.364 272.281 100.673 270.918 99.292C269.574 97.892 268.902 96.1093 268.902 93.944C268.902 91.5733 269.257 89.744 269.966 88.456C270.675 87.1493 272.113 85.964 274.278 84.9C274.633 84.732 275.155 84.4893 275.846 84.172C276.555 83.8547 277.041 83.6307 277.302 83.5C277.563 83.3507 277.89 83.1453 278.282 82.884C278.674 82.604 278.963 82.3147 279.15 82.016C279.337 81.6987 279.486 81.3253 279.598 80.896L282.062 82.324C281.987 82.7347 281.866 83.1173 281.698 83.472C281.53 83.808 281.287 84.1253 280.97 84.424C280.653 84.7227 280.373 84.9653 280.13 85.152C279.906 85.3387 279.523 85.5627 278.982 85.824C278.441 86.0853 278.039 86.272 277.778 86.384C277.535 86.496 277.069 86.692 276.378 86.972C275.146 87.4573 274.241 87.9613 273.662 88.484C273.102 88.988 272.71 89.6227 272.486 90.388C273.606 89.1187 275.127 88.484 277.05 88.484C278.693 88.484 280.121 89.072 281.334 90.248C282.566 91.424 283.182 92.9453 283.182 94.812C283.182 96.716 282.529 98.284 281.222 99.516C279.934 100.748 278.254 101.364 276.182 101.364ZM276.154 98.536C277.33 98.536 278.291 98.1907 279.038 97.5C279.785 96.7907 280.158 95.8947 280.158 94.812C280.158 93.7107 279.785 92.8053 279.038 92.096C278.31 91.3867 277.358 91.032 276.182 91.032C275.137 91.032 274.194 91.368 273.354 92.04C272.514 92.6933 272.094 93.5707 272.094 94.672C272.094 95.792 272.486 96.716 273.27 97.444C274.054 98.172 275.015 98.536 276.154 98.536ZM292.181 101.364C290.127 101.364 288.382 100.655 286.945 99.236C285.507 97.8173 284.789 96.072 284.789 94C284.789 91.928 285.507 90.1827 286.945 88.764C288.382 87.3453 290.127 86.636 292.181 86.636C294.253 86.636 295.998 87.3453 297.417 88.764C298.854 90.1827 299.573 91.928 299.573 94C299.573 96.072 298.854 97.8173 297.417 99.236C295.998 100.655 294.253 101.364 292.181 101.364ZM289.073 97.164C289.913 98.004 290.949 98.424 292.181 98.424C293.413 98.424 294.449 98.004 295.289 97.164C296.129 96.324 296.549 95.2693 296.549 94C296.549 92.7307 296.129 91.676 295.289 90.836C294.449 89.996 293.413 89.576 292.181 89.576C290.949 89.576 289.913 89.996 289.073 90.836C288.233 91.676 287.813 92.7307 287.813 94C287.813 95.2693 288.233 96.324 289.073 97.164ZM312.456 87V89.912H307.892V101H304.868V89.912H300.276V87H312.456ZM326.878 101H323.266L317.526 94.532V101H314.502V87H317.526V93.188L322.958 87H326.654L320.494 93.86L326.878 101ZM338.879 87H341.903V101H338.879V98.984C337.741 100.571 336.107 101.364 333.979 101.364C332.057 101.364 330.414 100.655 329.051 99.236C327.689 97.7987 327.007 96.0533 327.007 94C327.007 91.928 327.689 90.1827 329.051 88.764C330.414 87.3453 332.057 86.636 333.979 86.636C336.107 86.636 337.741 87.42 338.879 88.988V87ZM331.291 97.22C332.131 98.06 333.186 98.48 334.455 98.48C335.725 98.48 336.779 98.06 337.619 97.22C338.459 96.3613 338.879 95.288 338.879 94C338.879 92.712 338.459 91.648 337.619 90.808C336.779 89.9493 335.725 89.52 334.455 89.52C333.186 89.52 332.131 89.9493 331.291 90.808C330.451 91.648 330.031 92.712 330.031 94C330.031 95.288 330.451 96.3613 331.291 97.22ZM349.628 97.64L347.668 104.92H345.148L346.268 97.64H349.628ZM370.926 87H373.95V101H370.926V98.984C369.788 100.571 368.154 101.364 366.026 101.364C364.104 101.364 362.461 100.655 361.098 99.236C359.736 97.7987 359.054 96.0533 359.054 94C359.054 91.928 359.736 90.1827 361.098 88.764C362.461 87.3453 364.104 86.636 366.026 86.636C368.154 86.636 369.788 87.42 370.926 88.988V87ZM363.338 97.22C364.178 98.06 365.233 98.48 366.502 98.48C367.772 98.48 368.826 98.06 369.666 97.22C370.506 96.3613 370.926 95.288 370.926 94C370.926 92.712 370.506 91.648 369.666 90.808C368.826 89.9493 367.772 89.52 366.502 89.52C365.233 89.52 364.178 89.9493 363.338 90.808C362.498 91.648 362.078 92.712 362.078 94C362.078 95.288 362.498 96.3613 363.338 97.22ZM386.911 87H389.935V101H386.911V95.428H380.499V101H377.475V87H380.499V92.572H386.911V87ZM404.532 87H407.556V101H404.532V98.984C403.393 100.571 401.76 101.364 399.632 101.364C397.709 101.364 396.066 100.655 394.704 99.236C393.341 97.7987 392.66 96.0533 392.66 94C392.66 91.928 393.341 90.1827 394.704 88.764C396.066 87.3453 397.709 86.636 399.632 86.636C401.76 86.636 403.393 87.42 404.532 88.988V87ZM396.944 97.22C397.784 98.06 398.838 98.48 400.108 98.48C401.377 98.48 402.432 98.06 403.272 97.22C404.112 96.3613 404.532 95.288 404.532 94C404.532 92.712 404.112 91.648 403.272 90.808C402.432 89.9493 401.377 89.52 400.108 89.52C398.838 89.52 397.784 89.9493 396.944 90.808C396.104 91.648 395.684 92.712 395.684 94C395.684 95.288 396.104 96.3613 396.944 97.22ZM422.896 87V101H419.872V89.912H415.196V95.12C415.196 97.3413 414.711 98.9187 413.74 99.852C412.77 100.785 411.388 101.168 409.596 101V98.172C410.455 98.3213 411.099 98.144 411.528 97.64C411.958 97.136 412.172 96.2493 412.172 94.98V87H422.896ZM436.556 87H438.88V101H435.912V92.096L428.744 101H426.42V87H429.388V95.876L436.556 87ZM450.257 93.832C451.75 94.504 452.497 95.6147 452.497 97.164C452.497 98.3587 452.012 99.3573 451.041 100.16C450.07 100.963 448.717 101.364 446.981 101.364C444.162 101.364 442.258 100.244 441.269 98.004L443.733 96.548C444.237 97.948 445.329 98.648 447.009 98.648C447.793 98.648 448.409 98.4893 448.857 98.172C449.305 97.836 449.529 97.3973 449.529 96.856C449.529 96.3707 449.352 95.988 448.997 95.708C448.642 95.4093 448.148 95.26 447.513 95.26H445.525V92.6H447.009C447.625 92.6 448.101 92.46 448.437 92.18C448.792 91.8813 448.969 91.48 448.969 90.976C448.969 90.4907 448.773 90.0987 448.381 89.8C447.989 89.4827 447.466 89.324 446.813 89.324C445.413 89.324 444.442 89.94 443.901 91.172L441.437 89.772C442.482 87.6813 444.256 86.636 446.757 86.636C448.325 86.636 449.566 87.0373 450.481 87.84C451.414 88.624 451.881 89.5853 451.881 90.724C451.881 92.124 451.34 93.16 450.257 93.832ZM166.182 143.4H168.142V163H166.182V153.844H155.542V163H153.582V143.4H155.542V151.996H166.182V143.4ZM184.373 149H186.221V163H184.373V160.256C183.085 162.309 181.2 163.336 178.717 163.336C176.72 163.336 175.012 162.627 173.593 161.208C172.193 159.789 171.493 158.053 171.493 156C171.493 153.947 172.193 152.211 173.593 150.792C175.012 149.373 176.72 148.664 178.717 148.664C181.2 148.664 183.085 149.691 184.373 151.744V149ZM174.937 159.948C176.001 161.012 177.308 161.544 178.857 161.544C180.406 161.544 181.713 161.012 182.777 159.948C183.841 158.865 184.373 157.549 184.373 156C184.373 154.451 183.841 153.144 182.777 152.08C181.713 150.997 180.406 150.456 178.857 150.456C177.308 150.456 176.001 150.997 174.937 152.08C173.873 153.144 173.341 154.451 173.341 156C173.341 157.549 173.873 158.865 174.937 159.948ZM207.046 149H208.894V163H190.134V149H191.982V161.208H198.59V149H200.438V161.208H207.046V149ZM222.994 149H224.562V163H222.714V152.22L214.37 163H212.802V149H214.65V159.78L222.994 149ZM240.454 148.664C242.563 148.664 244.262 149.364 245.55 150.764C246.838 152.145 247.482 153.891 247.482 156C247.482 158.109 246.828 159.864 245.522 161.264C244.234 162.645 242.526 163.336 240.398 163.336C238.886 163.336 237.57 163.009 236.45 162.356C235.348 161.684 234.555 160.779 234.07 159.64L235.666 158.716C235.983 159.575 236.552 160.265 237.374 160.788C238.195 161.292 239.203 161.544 240.398 161.544C241.798 161.544 242.964 161.115 243.898 160.256C244.831 159.379 245.391 158.259 245.578 156.896H238.606V155.104H245.578C245.41 153.741 244.859 152.631 243.926 151.772C243.011 150.895 241.854 150.456 240.454 150.456C239.39 150.456 238.447 150.708 237.626 151.212C236.804 151.716 236.198 152.397 235.806 153.256L234.182 152.332C234.742 151.193 235.572 150.297 236.674 149.644C237.794 148.991 239.054 148.664 240.454 148.664ZM261.876 163H259.412L252.412 156.252V163H250.564V149H252.412V155.188L259.076 149H261.596L254.372 155.72L261.876 163ZM269.529 163.336C267.42 163.336 265.665 162.636 264.265 161.236C262.865 159.817 262.165 158.072 262.165 156C262.165 153.928 262.865 152.192 264.265 150.792C265.665 149.373 267.42 148.664 269.529 148.664C270.91 148.664 272.152 149 273.253 149.672C274.354 150.325 275.157 151.212 275.661 152.332L274.149 153.2C273.776 152.36 273.169 151.697 272.329 151.212C271.508 150.708 270.574 150.456 269.529 150.456C267.98 150.456 266.673 150.997 265.609 152.08C264.545 153.144 264.013 154.451 264.013 156C264.013 157.549 264.545 158.865 265.609 159.948C266.673 161.012 267.98 161.544 269.529 161.544C270.574 161.544 271.508 161.301 272.329 160.816C273.15 160.312 273.794 159.64 274.261 158.8L275.801 159.696C275.222 160.816 274.373 161.703 273.253 162.356C272.133 163.009 270.892 163.336 269.529 163.336ZM290.214 149V163H288.366V150.792H280.302V163H278.454V149H290.214ZM300.59 148.664C302.662 148.664 304.333 149.401 305.602 150.876C306.89 152.332 307.534 154.059 307.534 156.056C307.534 156.261 307.515 156.551 307.478 156.924H295.186C295.373 158.343 295.97 159.472 296.978 160.312C298.005 161.133 299.265 161.544 300.758 161.544C301.822 161.544 302.737 161.329 303.502 160.9C304.286 160.452 304.874 159.873 305.266 159.164L306.89 160.116C306.274 161.105 305.434 161.889 304.37 162.468C303.306 163.047 302.093 163.336 300.73 163.336C298.527 163.336 296.735 162.645 295.354 161.264C293.973 159.883 293.282 158.128 293.282 156C293.282 153.909 293.963 152.164 295.326 150.764C296.689 149.364 298.443 148.664 300.59 148.664ZM300.59 150.456C299.134 150.456 297.911 150.895 296.922 151.772C295.951 152.631 295.373 153.751 295.186 155.132H305.63C305.443 153.657 304.874 152.509 303.922 151.688C302.97 150.867 301.859 150.456 300.59 150.456ZM317.978 148.664C319.975 148.664 321.674 149.373 323.074 150.792C324.492 152.211 325.202 153.947 325.202 156C325.202 158.053 324.492 159.789 323.074 161.208C321.674 162.627 319.975 163.336 317.978 163.336C315.495 163.336 313.61 162.309 312.322 160.256V168.6H310.474V149H312.322V151.744C313.61 149.691 315.495 148.664 317.978 148.664ZM313.918 159.948C314.982 161.012 316.288 161.544 317.838 161.544C319.387 161.544 320.694 161.012 321.758 159.948C322.822 158.865 323.354 157.549 323.354 156C323.354 154.451 322.822 153.144 321.758 152.08C320.694 150.997 319.387 150.456 317.838 150.456C316.288 150.456 314.982 150.997 313.918 152.08C312.854 153.144 312.322 154.451 312.322 156C312.322 157.549 312.854 158.865 313.918 159.948ZM337.808 149V150.792H332.852V163H331.004V150.792H326.048V149H337.808ZM345.744 154.32C347.05 154.32 348.152 154.731 349.048 155.552C349.962 156.355 350.42 157.391 350.42 158.66C350.42 159.929 349.962 160.975 349.048 161.796C348.152 162.599 347.05 163 345.744 163H340.06V149H341.908V154.32H345.744ZM352.38 149H354.228V163H352.38V149ZM345.744 161.208C346.528 161.208 347.19 160.975 347.732 160.508C348.292 160.041 348.572 159.425 348.572 158.66C348.572 157.895 348.292 157.279 347.732 156.812C347.19 156.345 346.528 156.112 345.744 156.112H341.908V161.208H345.744ZM376.921 149V163H375.073V150.792H367.009V163H365.161V149H376.921ZM388.333 148.664C390.33 148.664 392.029 149.373 393.429 150.792C394.848 152.211 395.557 153.947 395.557 156C395.557 158.053 394.848 159.789 393.429 161.208C392.029 162.627 390.33 163.336 388.333 163.336C385.85 163.336 383.965 162.309 382.677 160.256V168.6H380.829V149H382.677V151.744C383.965 149.691 385.85 148.664 388.333 148.664ZM384.273 159.948C385.337 161.012 386.644 161.544 388.193 161.544C389.742 161.544 391.049 161.012 392.113 159.948C393.177 158.865 393.709 157.549 393.709 156C393.709 154.451 393.177 153.144 392.113 152.08C391.049 150.997 389.742 150.456 388.193 150.456C386.644 150.456 385.337 150.997 384.273 152.08C383.209 153.144 382.677 154.451 382.677 156C382.677 157.549 383.209 158.865 384.273 159.948ZM410.362 161.236C408.943 162.636 407.207 163.336 405.154 163.336C403.101 163.336 401.355 162.636 399.918 161.236C398.499 159.817 397.79 158.072 397.79 156C397.79 153.928 398.499 152.192 399.918 150.792C401.355 149.373 403.101 148.664 405.154 148.664C407.207 148.664 408.943 149.373 410.362 150.792C411.799 152.192 412.518 153.928 412.518 156C412.518 158.072 411.799 159.817 410.362 161.236ZM401.234 159.948C402.298 161.012 403.605 161.544 405.154 161.544C406.703 161.544 408.01 161.012 409.074 159.948C410.138 158.865 410.67 157.549 410.67 156C410.67 154.451 410.138 153.144 409.074 152.08C408.01 150.997 406.703 150.456 405.154 150.456C403.605 150.456 402.298 150.997 401.234 152.08C400.17 153.144 399.638 154.451 399.638 156C399.638 157.549 400.17 158.865 401.234 159.948ZM424.514 155.804C426.045 156.364 426.81 157.456 426.81 159.08C426.81 160.219 426.428 161.161 425.662 161.908C424.916 162.636 423.833 163 422.414 163H415.61V149H421.854C423.217 149 424.272 149.355 425.018 150.064C425.765 150.755 426.138 151.651 426.138 152.752C426.138 154.152 425.597 155.169 424.514 155.804ZM421.854 150.792H417.458V155.048H421.854C423.478 155.048 424.29 154.32 424.29 152.864C424.29 152.211 424.076 151.707 423.646 151.352C423.236 150.979 422.638 150.792 421.854 150.792ZM422.414 161.208C423.236 161.208 423.861 161.012 424.29 160.62C424.738 160.228 424.962 159.677 424.962 158.968C424.962 158.315 424.738 157.801 424.29 157.428C423.861 157.036 423.236 156.84 422.414 156.84H417.458V161.208H422.414ZM441.342 161.236C439.924 162.636 438.188 163.336 436.134 163.336C434.081 163.336 432.336 162.636 430.898 161.236C429.48 159.817 428.77 158.072 428.77 156C428.77 153.928 429.48 152.192 430.898 150.792C432.336 149.373 434.081 148.664 436.134 148.664C438.188 148.664 439.924 149.373 441.342 150.792C442.78 152.192 443.498 153.928 443.498 156C443.498 158.072 442.78 159.817 441.342 161.236ZM432.214 159.948C433.278 161.012 434.585 161.544 436.134 161.544C437.684 161.544 438.99 161.012 440.054 159.948C441.118 158.865 441.65 157.549 441.65 156C441.65 154.451 441.118 153.144 440.054 152.08C438.99 150.997 437.684 150.456 436.134 150.456C434.585 150.456 433.278 150.997 432.214 152.08C431.15 153.144 430.618 154.451 430.618 156C430.618 157.549 431.15 158.865 432.214 159.948ZM457.804 161.208H459.764V166.752H457.916V163H446.492V166.752H444.644V161.208H446.352C447.304 159.957 447.78 158.193 447.78 155.916V149H457.804V161.208ZM448.592 161.208H455.956V150.792H449.628V155.916C449.628 158.063 449.283 159.827 448.592 161.208ZM472.366 149V163H470.518V157.624H468.11L463.798 163H461.446L465.87 157.568C464.75 157.4 463.826 156.933 463.098 156.168C462.37 155.403 462.006 154.46 462.006 153.34C462.006 152.071 462.454 151.035 463.35 150.232C464.265 149.411 465.376 149 466.682 149H472.366ZM466.682 155.888H470.518V150.792H466.682C465.898 150.792 465.226 151.025 464.666 151.492C464.125 151.959 463.854 152.575 463.854 153.34C463.854 154.105 464.125 154.721 464.666 155.188C465.226 155.655 465.898 155.888 466.682 155.888ZM486.366 149V150.792H481.41V163H479.562V150.792H474.606V149H486.366ZM115.05 185V199H113.202V186.792H105.138V199H103.29V185H115.05ZM126.462 184.664C128.459 184.664 130.158 185.373 131.558 186.792C132.977 188.211 133.686 189.947 133.686 192C133.686 194.053 132.977 195.789 131.558 197.208C130.158 198.627 128.459 199.336 126.462 199.336C123.979 199.336 122.094 198.309 120.806 196.256V204.6H118.958V185H120.806V187.744C122.094 185.691 123.979 184.664 126.462 184.664ZM122.402 195.948C123.466 197.012 124.773 197.544 126.322 197.544C127.871 197.544 129.178 197.012 130.242 195.948C131.306 194.865 131.838 193.549 131.838 192C131.838 190.451 131.306 189.144 130.242 188.08C129.178 186.997 127.871 186.456 126.322 186.456C124.773 186.456 123.466 186.997 122.402 188.08C121.338 189.144 120.806 190.451 120.806 192C120.806 193.549 121.338 194.865 122.402 195.948ZM143.227 184.664C145.299 184.664 146.969 185.401 148.239 186.876C149.527 188.332 150.171 190.059 150.171 192.056C150.171 192.261 150.152 192.551 150.115 192.924H137.823C138.009 194.343 138.607 195.472 139.615 196.312C140.641 197.133 141.901 197.544 143.395 197.544C144.459 197.544 145.373 197.329 146.139 196.9C146.923 196.452 147.511 195.873 147.903 195.164L149.527 196.116C148.911 197.105 148.071 197.889 147.007 198.468C145.943 199.047 144.729 199.336 143.367 199.336C141.164 199.336 139.372 198.645 137.991 197.264C136.609 195.883 135.919 194.128 135.919 192C135.919 189.909 136.6 188.164 137.963 186.764C139.325 185.364 141.08 184.664 143.227 184.664ZM143.227 186.456C141.771 186.456 140.548 186.895 139.559 187.772C138.588 188.631 138.009 189.751 137.823 191.132H148.267C148.08 189.657 147.511 188.509 146.559 187.688C145.607 186.867 144.496 186.456 143.227 186.456ZM164.324 197.208H166.284V202.752H164.436V199H153.012V202.752H151.164V197.208H152.872C153.824 195.957 154.3 194.193 154.3 191.916V185H164.324V197.208ZM155.112 197.208H162.476V186.792H156.148V191.916C156.148 194.063 155.802 195.827 155.112 197.208ZM180.839 185V199H178.991V186.792H170.927V199H169.079V185H180.839ZM192.251 184.664C194.248 184.664 195.947 185.373 197.347 186.792C198.766 188.211 199.475 189.947 199.475 192C199.475 194.053 198.766 195.789 197.347 197.208C195.947 198.627 194.248 199.336 192.251 199.336C189.768 199.336 187.883 198.309 186.595 196.256V204.6H184.747V185H186.595V187.744C187.883 185.691 189.768 184.664 192.251 184.664ZM188.191 195.948C189.255 197.012 190.562 197.544 192.111 197.544C193.66 197.544 194.967 197.012 196.031 195.948C197.095 194.865 197.627 193.549 197.627 192C197.627 190.451 197.095 189.144 196.031 188.08C194.967 186.997 193.66 186.456 192.111 186.456C190.562 186.456 189.255 186.997 188.191 188.08C187.127 189.144 186.595 190.451 186.595 192C186.595 193.549 187.127 194.865 188.191 195.948ZM214.28 197.236C212.861 198.636 211.125 199.336 209.072 199.336C207.019 199.336 205.273 198.636 203.836 197.236C202.417 195.817 201.708 194.072 201.708 192C201.708 189.928 202.417 188.192 203.836 186.792C205.273 185.373 207.019 184.664 209.072 184.664C211.125 184.664 212.861 185.373 214.28 186.792C215.717 188.192 216.436 189.928 216.436 192C216.436 194.072 215.717 195.817 214.28 197.236ZM205.152 195.948C206.216 197.012 207.523 197.544 209.072 197.544C210.621 197.544 211.928 197.012 212.992 195.948C214.056 194.865 214.588 193.549 214.588 192C214.588 190.451 214.056 189.144 212.992 188.08C211.928 186.997 210.621 186.456 209.072 186.456C207.523 186.456 206.216 186.997 205.152 188.08C204.088 189.144 203.556 190.451 203.556 192C203.556 193.549 204.088 194.865 205.152 195.948ZM225.996 184.664C228.068 184.664 229.739 185.401 231.008 186.876C232.296 188.332 232.94 190.059 232.94 192.056C232.94 192.261 232.922 192.551 232.884 192.924H220.592C220.779 194.343 221.376 195.472 222.384 196.312C223.411 197.133 224.671 197.544 226.164 197.544C227.228 197.544 228.143 197.329 228.908 196.9C229.692 196.452 230.28 195.873 230.672 195.164L232.296 196.116C231.68 197.105 230.84 197.889 229.776 198.468C228.712 199.047 227.499 199.336 226.136 199.336C223.934 199.336 222.142 198.645 220.76 197.264C219.379 195.883 218.688 194.128 218.688 192C218.688 189.909 219.37 188.164 220.732 186.764C222.095 185.364 223.85 184.664 225.996 184.664ZM225.996 186.456C224.54 186.456 223.318 186.895 222.328 187.772C221.358 188.631 220.779 189.751 220.592 191.132H231.036C230.85 189.657 230.28 188.509 229.328 187.688C228.376 186.867 227.266 186.456 225.996 186.456ZM247.192 199H244.728L237.728 192.252V199H235.88V185H237.728V191.188L244.392 185H246.912L239.688 191.72L247.192 199ZM259.796 185V186.792H254.84V199H252.992V186.792H248.036V185H259.796ZM271.96 185H273.808V199H271.96V192.896H263.896V199H262.048V185H263.896V191.104H271.96V185ZM283.4 190.32C284.707 190.32 285.808 190.731 286.704 191.552C287.619 192.355 288.076 193.391 288.076 194.66C288.076 195.929 287.619 196.975 286.704 197.796C285.808 198.599 284.707 199 283.4 199H277.716V185H279.564V190.32H283.4ZM290.036 185H291.884V199H290.036V185ZM283.4 197.208C284.184 197.208 284.847 196.975 285.388 196.508C285.948 196.041 286.228 195.425 286.228 194.66C286.228 193.895 285.948 193.279 285.388 192.812C284.847 192.345 284.184 192.112 283.4 192.112H279.564V197.208H283.4ZM298.057 182.76V181.136H305.337V182.76H298.057ZM306.009 185H307.577V199H305.729V188.22L297.385 199H295.817V185H297.665V195.78L306.009 185ZM330.525 185H332.373V199H330.525V196.256C329.237 198.309 327.352 199.336 324.869 199.336C322.872 199.336 321.164 198.627 319.745 197.208C318.345 195.789 317.645 194.053 317.645 192C317.645 189.947 318.345 188.211 319.745 186.792C321.164 185.373 322.872 184.664 324.869 184.664C327.352 184.664 329.237 185.691 330.525 187.744V185ZM321.089 195.948C322.153 197.012 323.46 197.544 325.009 197.544C326.559 197.544 327.865 197.012 328.929 195.948C329.993 194.865 330.525 193.549 330.525 192C330.525 190.451 329.993 189.144 328.929 188.08C327.865 186.997 326.559 186.456 325.009 186.456C323.46 186.456 322.153 186.997 321.089 188.08C320.025 189.144 319.493 190.451 319.493 192C319.493 193.549 320.025 194.865 321.089 195.948ZM346.198 185H348.046V199H346.198V192.896H338.134V199H336.286V185H338.134V191.104H346.198V185ZM363.994 185H365.842V199H363.994V196.256C362.706 198.309 360.821 199.336 358.338 199.336C356.341 199.336 354.633 198.627 353.214 197.208C351.814 195.789 351.114 194.053 351.114 192C351.114 189.947 351.814 188.211 353.214 186.792C354.633 185.373 356.341 184.664 358.338 184.664C360.821 184.664 362.706 185.691 363.994 187.744V185ZM354.558 195.948C355.622 197.012 356.929 197.544 358.478 197.544C360.027 197.544 361.334 197.012 362.398 195.948C363.462 194.865 363.994 193.549 363.994 192C363.994 190.451 363.462 189.144 362.398 188.08C361.334 186.997 360.027 186.456 358.478 186.456C356.929 186.456 355.622 186.997 354.558 188.08C353.494 189.144 352.962 190.451 352.962 192C352.962 193.549 353.494 194.865 354.558 195.948ZM381.235 185V199H379.387V186.792H373.059V193.036C373.059 195.369 372.611 196.975 371.715 197.852C370.838 198.729 369.624 199.112 368.075 199V197.264C369.139 197.376 369.923 197.124 370.427 196.508C370.95 195.892 371.211 194.735 371.211 193.036V185H381.235ZM395.341 185H396.909V199H395.061V188.22L386.717 199H385.149V185H386.997V195.78L395.341 185ZM408.041 191.804C409.665 192.42 410.477 193.54 410.477 195.164C410.477 196.321 410.02 197.311 409.105 198.132C408.209 198.935 406.921 199.336 405.241 199.336C402.423 199.336 400.575 198.216 399.697 195.976L401.265 195.052C401.844 196.713 403.169 197.544 405.241 197.544C406.324 197.544 407.155 197.311 407.733 196.844C408.331 196.377 408.629 195.78 408.629 195.052C408.629 194.399 408.387 193.867 407.901 193.456C407.416 193.045 406.763 192.84 405.941 192.84H403.897V191.048H405.381C406.184 191.048 406.809 190.852 407.257 190.46C407.724 190.049 407.957 189.489 407.957 188.78C407.957 188.108 407.687 187.557 407.145 187.128C406.604 186.68 405.876 186.456 404.961 186.456C403.207 186.456 402.04 187.156 401.461 188.556L399.921 187.66C400.855 185.663 402.535 184.664 404.961 184.664C406.436 184.664 407.612 185.056 408.489 185.84C409.367 186.605 409.805 187.548 409.805 188.668C409.805 190.105 409.217 191.151 408.041 191.804ZM416.093 196.62L414.413 202.92H412.733L413.853 196.62H416.093ZM433.263 199.336C431.154 199.336 429.399 198.636 427.999 197.236C426.599 195.817 425.899 194.072 425.899 192C425.899 189.928 426.599 188.192 427.999 186.792C429.399 185.373 431.154 184.664 433.263 184.664C434.645 184.664 435.886 185 436.987 185.672C438.089 186.325 438.891 187.212 439.395 188.332L437.883 189.2C437.51 188.36 436.903 187.697 436.063 187.212C435.242 186.708 434.309 186.456 433.263 186.456C431.714 186.456 430.407 186.997 429.343 188.08C428.279 189.144 427.747 190.451 427.747 192C427.747 193.549 428.279 194.865 429.343 195.948C430.407 197.012 431.714 197.544 433.263 197.544C434.309 197.544 435.242 197.301 436.063 196.816C436.885 196.312 437.529 195.64 437.995 194.8L439.535 195.696C438.957 196.816 438.107 197.703 436.987 198.356C435.867 199.009 434.626 199.336 433.263 199.336ZM453.784 197.236C452.365 198.636 450.629 199.336 448.576 199.336C446.522 199.336 444.777 198.636 443.34 197.236C441.921 195.817 441.212 194.072 441.212 192C441.212 189.928 441.921 188.192 443.34 186.792C444.777 185.373 446.522 184.664 448.576 184.664C450.629 184.664 452.365 185.373 453.784 186.792C455.221 188.192 455.94 189.928 455.94 192C455.94 194.072 455.221 195.817 453.784 197.236ZM444.656 195.948C445.72 197.012 447.026 197.544 448.576 197.544C450.125 197.544 451.432 197.012 452.496 195.948C453.56 194.865 454.092 193.549 454.092 192C454.092 190.451 453.56 189.144 452.496 188.08C451.432 186.997 450.125 186.456 448.576 186.456C447.026 186.456 445.72 186.997 444.656 188.08C443.592 189.144 443.06 190.451 443.06 192C443.06 193.549 443.592 194.865 444.656 195.948ZM465.709 191.804C467.333 192.42 468.145 193.54 468.145 195.164C468.145 196.321 467.688 197.311 466.773 198.132C465.877 198.935 464.589 199.336 462.909 199.336C460.091 199.336 458.243 198.216 457.365 195.976L458.933 195.052C459.512 196.713 460.837 197.544 462.909 197.544C463.992 197.544 464.823 197.311 465.401 196.844C465.999 196.377 466.297 195.78 466.297 195.052C466.297 194.399 466.055 193.867 465.569 193.456C465.084 193.045 464.431 192.84 463.609 192.84H461.565V191.048H463.049C463.852 191.048 464.477 190.852 464.925 190.46C465.392 190.049 465.625 189.489 465.625 188.78C465.625 188.108 465.355 187.557 464.813 187.128C464.272 186.68 463.544 186.456 462.629 186.456C460.875 186.456 459.708 187.156 459.129 188.556L457.589 187.66C458.523 185.663 460.203 184.664 462.629 184.664C464.104 184.664 465.28 185.056 466.157 185.84C467.035 186.605 467.473 187.548 467.473 188.668C467.473 190.105 466.885 191.151 465.709 191.804ZM482.441 197.208H484.401V202.752H482.553V199H471.129V202.752H469.281V197.208H470.989C471.941 195.957 472.417 194.193 472.417 191.916V185H482.441V197.208ZM473.229 197.208H480.593V186.792H474.265V191.916C474.265 194.063 473.919 195.827 473.229 197.208ZM498.689 185H500.537V199H498.689V196.256C497.401 198.309 495.516 199.336 493.033 199.336C491.036 199.336 489.328 198.627 487.909 197.208C486.509 195.789 485.809 194.053 485.809 192C485.809 189.947 486.509 188.211 487.909 186.792C489.328 185.373 491.036 184.664 493.033 184.664C495.516 184.664 497.401 185.691 498.689 187.744V185ZM489.253 195.948C490.317 197.012 491.624 197.544 493.173 197.544C494.723 197.544 496.029 197.012 497.093 195.948C498.157 194.865 498.689 193.549 498.689 192C498.689 190.451 498.157 189.144 497.093 188.08C496.029 186.997 494.723 186.456 493.173 186.456C491.624 186.456 490.317 186.997 489.253 188.08C488.189 189.144 487.657 190.451 487.657 192C487.657 193.549 488.189 194.865 489.253 195.948ZM516.406 184.664C518.46 184.664 520.196 185.373 521.614 186.792C523.052 188.192 523.77 189.928 523.77 192C523.77 194.072 523.052 195.817 521.614 197.236C520.196 198.636 518.46 199.336 516.406 199.336C514.521 199.336 512.897 198.729 511.534 197.516C510.19 196.284 509.416 194.744 509.21 192.896H506.298V199H504.45V185H506.298V191.104H509.21C509.416 189.256 510.19 187.725 511.534 186.512C512.897 185.28 514.521 184.664 516.406 184.664ZM512.486 195.948C513.55 197.012 514.857 197.544 516.406 197.544C517.956 197.544 519.262 197.012 520.326 195.948C521.39 194.865 521.922 193.549 521.922 192C521.922 190.451 521.39 189.144 520.326 188.08C519.262 186.997 517.956 186.456 516.406 186.456C514.857 186.456 513.55 186.997 512.486 188.08C511.422 189.144 510.89 190.451 510.89 192C510.89 193.549 511.422 194.865 512.486 195.948ZM536.378 185V186.792H531.422V199H529.574V186.792H524.618V185H536.378ZM188.693 221H190.541V235H188.693V232.256C187.405 234.309 185.52 235.336 183.037 235.336C181.04 235.336 179.332 234.627 177.913 233.208C176.513 231.789 175.813 230.053 175.813 228C175.813 225.947 176.513 224.211 177.913 222.792C179.332 221.373 181.04 220.664 183.037 220.664C185.52 220.664 187.405 221.691 188.693 223.744V221ZM179.257 231.948C180.321 233.012 181.628 233.544 183.177 233.544C184.727 233.544 186.033 233.012 187.097 231.948C188.161 230.865 188.693 229.549 188.693 228C188.693 226.451 188.161 225.144 187.097 224.08C186.033 222.997 184.727 222.456 183.177 222.456C181.628 222.456 180.321 222.997 179.257 224.08C178.193 225.144 177.661 226.451 177.661 228C177.661 229.549 178.193 230.865 179.257 231.948ZM201.958 220.664C203.955 220.664 205.654 221.373 207.054 222.792C208.473 224.211 209.182 225.947 209.182 228C209.182 230.053 208.473 231.789 207.054 233.208C205.654 234.627 203.955 235.336 201.958 235.336C199.475 235.336 197.59 234.309 196.302 232.256V240.6H194.454V221H196.302V223.744C197.59 221.691 199.475 220.664 201.958 220.664ZM197.898 231.948C198.962 233.012 200.269 233.544 201.818 233.544C203.367 233.544 204.674 233.012 205.738 231.948C206.802 230.865 207.334 229.549 207.334 228C207.334 226.451 206.802 225.144 205.738 224.08C204.674 222.997 203.367 222.456 201.818 222.456C200.269 222.456 198.962 222.997 197.898 224.08C196.834 225.144 196.302 226.451 196.302 228C196.302 229.549 196.834 230.865 197.898 231.948ZM223.031 235H220.819L216.451 229.232L212.083 235H209.871L215.359 227.748L210.235 221H212.447L216.451 226.292L220.455 221H222.667L217.571 227.748L223.031 235ZM235.736 221H237.304V235H235.456V224.22L227.112 235H225.544V221H227.392V231.78L235.736 221ZM251.292 221V222.792H246.336V235H244.488V222.792H239.532V221H251.292ZM259.465 220.664C261.537 220.664 263.208 221.401 264.477 222.876C265.765 224.332 266.409 226.059 266.409 228.056C266.409 228.261 266.39 228.551 266.353 228.924H254.061C254.248 230.343 254.845 231.472 255.853 232.312C256.88 233.133 258.14 233.544 259.633 233.544C260.697 233.544 261.612 233.329 262.377 232.9C263.161 232.452 263.749 231.873 264.141 231.164L265.765 232.116C265.149 233.105 264.309 233.889 263.245 234.468C262.181 235.047 260.968 235.336 259.605 235.336C257.402 235.336 255.61 234.645 254.229 233.264C252.848 231.883 252.157 230.128 252.157 228C252.157 225.909 252.838 224.164 254.201 222.764C255.564 221.364 257.318 220.664 259.465 220.664ZM259.465 222.456C258.009 222.456 256.786 222.895 255.797 223.772C254.826 224.631 254.248 225.751 254.061 227.132H264.505C264.318 225.657 263.749 224.509 262.797 223.688C261.845 222.867 260.734 222.456 259.465 222.456ZM280.661 235H278.197L271.197 228.252V235H269.349V221H271.197V227.188L277.861 221H280.381L273.157 227.72L280.661 235ZM293.265 221V222.792H288.309V235H286.461V222.792H281.505V221H293.265ZM305.597 221H307.557L301.565 236.288C301.023 237.669 300.249 238.752 299.241 239.536C298.251 240.339 297.141 240.693 295.909 240.6V238.864C297.589 239.051 298.867 238.08 299.745 235.952L300.109 235.084L293.837 221H295.797L301.061 232.732L305.597 221ZM317.294 220.664C319.291 220.664 320.99 221.373 322.39 222.792C323.809 224.211 324.518 225.947 324.518 228C324.518 230.053 323.809 231.789 322.39 233.208C320.99 234.627 319.291 235.336 317.294 235.336C314.811 235.336 312.926 234.309 311.638 232.256V240.6H309.79V221H311.638V223.744C312.926 221.691 314.811 220.664 317.294 220.664ZM313.234 231.948C314.298 233.012 315.605 233.544 317.154 233.544C318.703 233.544 320.01 233.012 321.074 231.948C322.138 230.865 322.67 229.549 322.67 228C322.67 226.451 322.138 225.144 321.074 224.08C320.01 222.997 318.703 222.456 317.154 222.456C315.605 222.456 314.298 222.997 313.234 224.08C312.17 225.144 311.638 226.451 311.638 228C311.638 229.549 312.17 230.865 313.234 231.948ZM337.124 221H339.084L333.092 236.288C332.551 237.669 331.776 238.752 330.768 239.536C329.779 240.339 328.668 240.693 327.436 240.6V238.864C329.116 239.051 330.395 238.08 331.272 235.952L331.636 235.084L325.364 221H327.324L332.588 232.732L337.124 221ZM360.077 221V235H358.229V222.792H350.165V235H348.317V221H360.077ZM371.489 220.664C373.487 220.664 375.185 221.373 376.585 222.792C378.004 224.211 378.713 225.947 378.713 228C378.713 230.053 378.004 231.789 376.585 233.208C375.185 234.627 373.487 235.336 371.489 235.336C369.007 235.336 367.121 234.309 365.833 232.256V240.6H363.985V221H365.833V223.744C367.121 221.691 369.007 220.664 371.489 220.664ZM367.429 231.948C368.493 233.012 369.8 233.544 371.349 233.544C372.899 233.544 374.205 233.012 375.269 231.948C376.333 230.865 376.865 229.549 376.865 228C376.865 226.451 376.333 225.144 375.269 224.08C374.205 222.997 372.899 222.456 371.349 222.456C369.8 222.456 368.493 222.997 367.429 224.08C366.365 225.144 365.833 226.451 365.833 228C365.833 229.549 366.365 230.865 367.429 231.948ZM393.518 233.236C392.1 234.636 390.364 235.336 388.31 235.336C386.257 235.336 384.512 234.636 383.074 233.236C381.656 231.817 380.946 230.072 380.946 228C380.946 225.928 381.656 224.192 383.074 222.792C384.512 221.373 386.257 220.664 388.31 220.664C390.364 220.664 392.1 221.373 393.518 222.792C394.956 224.192 395.674 225.928 395.674 228C395.674 230.072 394.956 231.817 393.518 233.236ZM384.39 231.948C385.454 233.012 386.761 233.544 388.31 233.544C389.86 233.544 391.166 233.012 392.23 231.948C393.294 230.865 393.826 229.549 393.826 228C393.826 226.451 393.294 225.144 392.23 224.08C391.166 222.997 389.86 222.456 388.31 222.456C386.761 222.456 385.454 222.997 384.39 224.08C383.326 225.144 382.794 226.451 382.794 228C382.794 229.549 383.326 230.865 384.39 231.948ZM405.235 220.664C407.307 220.664 408.977 221.401 410.247 222.876C411.535 224.332 412.179 226.059 412.179 228.056C412.179 228.261 412.16 228.551 412.123 228.924H399.831C400.017 230.343 400.615 231.472 401.623 232.312C402.649 233.133 403.909 233.544 405.403 233.544C406.467 233.544 407.381 233.329 408.147 232.9C408.931 232.452 409.519 231.873 409.911 231.164L411.535 232.116C410.919 233.105 410.079 233.889 409.015 234.468C407.951 235.047 406.737 235.336 405.375 235.336C403.172 235.336 401.38 234.645 399.999 233.264C398.617 231.883 397.927 230.128 397.927 228C397.927 225.909 398.608 224.164 399.971 222.764C401.333 221.364 403.088 220.664 405.235 220.664ZM405.235 222.456C403.779 222.456 402.556 222.895 401.567 223.772C400.596 224.631 400.017 225.751 399.831 227.132H410.275C410.088 225.657 409.519 224.509 408.567 223.688C407.615 222.867 406.504 222.456 405.235 222.456ZM426.43 235H423.966L416.966 228.252V235H415.118V221H416.966V227.188L423.63 221H426.15L418.926 227.72L426.43 235ZM439.034 221V222.792H434.078V235H432.23V222.792H427.274V221H439.034ZM452.779 221H454.627V235H452.779V232.256C451.491 234.309 449.606 235.336 447.123 235.336C445.126 235.336 443.418 234.627 441.999 233.208C440.599 231.789 439.899 230.053 439.899 228C439.899 225.947 440.599 224.211 441.999 222.792C443.418 221.373 445.126 220.664 447.123 220.664C449.606 220.664 451.491 221.691 452.779 223.744V221ZM443.343 231.948C444.407 233.012 445.714 233.544 447.263 233.544C448.813 233.544 450.119 233.012 451.183 231.948C452.247 230.865 452.779 229.549 452.779 228C452.779 226.451 452.247 225.144 451.183 224.08C450.119 222.997 448.813 222.456 447.263 222.456C445.714 222.456 444.407 222.997 443.343 224.08C442.279 225.144 441.747 226.451 441.747 228C441.747 229.549 442.279 230.865 443.343 231.948ZM461.62 232.62L459.94 238.92H458.26L459.38 232.62H461.62ZM150.857 271.336C148.748 271.336 146.993 270.636 145.593 269.236C144.193 267.817 143.493 266.072 143.493 264C143.493 261.928 144.193 260.192 145.593 258.792C146.993 257.373 148.748 256.664 150.857 256.664C152.238 256.664 153.48 257 154.581 257.672C155.682 258.325 156.485 259.212 156.989 260.332L155.477 261.2C155.104 260.36 154.497 259.697 153.657 259.212C152.836 258.708 151.902 258.456 150.857 258.456C149.308 258.456 148.001 258.997 146.937 260.08C145.873 261.144 145.341 262.451 145.341 264C145.341 265.549 145.873 266.865 146.937 267.948C148.001 269.012 149.308 269.544 150.857 269.544C151.902 269.544 152.836 269.301 153.657 268.816C154.478 268.312 155.122 267.64 155.589 266.8L157.129 267.696C156.55 268.816 155.701 269.703 154.581 270.356C153.461 271.009 152.22 271.336 150.857 271.336ZM171.378 269.236C169.959 270.636 168.223 271.336 166.17 271.336C164.116 271.336 162.371 270.636 160.934 269.236C159.515 267.817 158.806 266.072 158.806 264C158.806 261.928 159.515 260.192 160.934 258.792C162.371 257.373 164.116 256.664 166.17 256.664C168.223 256.664 169.959 257.373 171.378 258.792C172.815 260.192 173.534 261.928 173.534 264C173.534 266.072 172.815 267.817 171.378 269.236ZM162.25 267.948C163.314 269.012 164.62 269.544 166.17 269.544C167.719 269.544 169.026 269.012 170.09 267.948C171.154 266.865 171.686 265.549 171.686 264C171.686 262.451 171.154 261.144 170.09 260.08C169.026 258.997 167.719 258.456 166.17 258.456C164.62 258.456 163.314 258.997 162.25 260.08C161.186 261.144 160.654 262.451 160.654 264C160.654 265.549 161.186 266.865 162.25 267.948ZM183.15 271.336C181.041 271.336 179.286 270.636 177.886 269.236C176.486 267.817 175.786 266.072 175.786 264C175.786 261.928 176.486 260.192 177.886 258.792C179.286 257.373 181.041 256.664 183.15 256.664C184.531 256.664 185.773 257 186.874 257.672C187.975 258.325 188.778 259.212 189.282 260.332L187.77 261.2C187.397 260.36 186.79 259.697 185.95 259.212C185.129 258.708 184.195 258.456 183.15 258.456C181.601 258.456 180.294 258.997 179.23 260.08C178.166 261.144 177.634 262.451 177.634 264C177.634 265.549 178.166 266.865 179.23 267.948C180.294 269.012 181.601 269.544 183.15 269.544C184.195 269.544 185.129 269.301 185.95 268.816C186.771 268.312 187.415 267.64 187.882 266.8L189.422 267.696C188.843 268.816 187.994 269.703 186.874 270.356C185.754 271.009 184.513 271.336 183.15 271.336ZM201.882 257V258.792H196.926V271H195.078V258.792H190.122V257H201.882ZM215.627 257H217.475V271H215.627V268.256C214.339 270.309 212.454 271.336 209.971 271.336C207.974 271.336 206.266 270.627 204.847 269.208C203.447 267.789 202.747 266.053 202.747 264C202.747 261.947 203.447 260.211 204.847 258.792C206.266 257.373 207.974 256.664 209.971 256.664C212.454 256.664 214.339 257.691 215.627 259.744V257ZM206.191 267.948C207.255 269.012 208.562 269.544 210.111 269.544C211.66 269.544 212.967 269.012 214.031 267.948C215.095 266.865 215.627 265.549 215.627 264C215.627 262.451 215.095 261.144 214.031 260.08C212.967 258.997 211.66 258.456 210.111 258.456C208.562 258.456 207.255 258.997 206.191 260.08C205.127 261.144 204.595 262.451 204.595 264C204.595 265.549 205.127 266.865 206.191 267.948ZM230.292 263.804C231.822 264.364 232.588 265.456 232.588 267.08C232.588 268.219 232.205 269.161 231.44 269.908C230.693 270.636 229.61 271 228.192 271H221.388V257H227.632C228.994 257 230.049 257.355 230.796 258.064C231.542 258.755 231.916 259.651 231.916 260.752C231.916 262.152 231.374 263.169 230.292 263.804ZM227.632 258.792H223.236V263.048H227.632C229.256 263.048 230.068 262.32 230.068 260.864C230.068 260.211 229.853 259.707 229.424 259.352C229.013 258.979 228.416 258.792 227.632 258.792ZM228.192 269.208C229.013 269.208 229.638 269.012 230.068 268.62C230.516 268.228 230.74 267.677 230.74 266.968C230.74 266.315 230.516 265.801 230.068 265.428C229.638 265.036 229.013 264.84 228.192 264.84H223.236V269.208H228.192ZM246.321 257V271H244.473V258.792H238.145V265.036C238.145 267.369 237.697 268.975 236.801 269.852C235.924 270.729 234.71 271.112 233.161 271V269.264C234.225 269.376 235.009 269.124 235.513 268.508C236.036 267.892 236.297 266.735 236.297 265.036V257H246.321ZM260.315 257V271H258.467V265.624H256.059L251.747 271H249.395L253.819 265.568C252.699 265.4 251.775 264.933 251.047 264.168C250.319 263.403 249.955 262.46 249.955 261.34C249.955 260.071 250.403 259.035 251.299 258.232C252.214 257.411 253.325 257 254.631 257H260.315ZM254.631 263.888H258.467V258.792H254.631C253.847 258.792 253.175 259.025 252.615 259.492C252.074 259.959 251.803 260.575 251.803 261.34C251.803 262.105 252.074 262.721 252.615 263.188C253.175 263.655 253.847 263.888 254.631 263.888ZM276.191 256.664C278.245 256.664 279.981 257.373 281.399 258.792C282.837 260.192 283.555 261.928 283.555 264C283.555 266.072 282.837 267.817 281.399 269.236C279.981 270.636 278.245 271.336 276.191 271.336C274.306 271.336 272.682 270.729 271.319 269.516C269.975 268.284 269.201 266.744 268.995 264.896H266.083V271H264.235V257H266.083V263.104H268.995C269.201 261.256 269.975 259.725 271.319 258.512C272.682 257.28 274.306 256.664 276.191 256.664ZM272.271 267.948C273.335 269.012 274.642 269.544 276.191 269.544C277.741 269.544 279.047 269.012 280.111 267.948C281.175 266.865 281.707 265.549 281.707 264C281.707 262.451 281.175 261.144 280.111 260.08C279.047 258.997 277.741 258.456 276.191 258.456C274.642 258.456 273.335 258.997 272.271 260.08C271.207 261.144 270.675 262.451 270.675 264C270.675 265.549 271.207 266.865 272.271 267.948ZM296.163 257V258.792H291.207V271H289.359V258.792H284.403V257H296.163ZM311.939 271.336C309.83 271.336 308.075 270.636 306.675 269.236C305.275 267.817 304.575 266.072 304.575 264C304.575 261.928 305.275 260.192 306.675 258.792C308.075 257.373 309.83 256.664 311.939 256.664C313.32 256.664 314.562 257 315.663 257.672C316.764 258.325 317.567 259.212 318.071 260.332L316.559 261.2C316.186 260.36 315.579 259.697 314.739 259.212C313.918 258.708 312.984 258.456 311.939 258.456C310.39 258.456 309.083 258.997 308.019 260.08C306.955 261.144 306.423 262.451 306.423 264C306.423 265.549 306.955 266.865 308.019 267.948C309.083 269.012 310.39 269.544 311.939 269.544C312.984 269.544 313.918 269.301 314.739 268.816C315.56 268.312 316.204 267.64 316.671 266.8L318.211 267.696C317.632 268.816 316.783 269.703 315.663 270.356C314.543 271.009 313.302 271.336 311.939 271.336ZM332.624 257V271H330.776V258.792H322.712V271H320.864V257H332.624ZM343 256.664C345.072 256.664 346.743 257.401 348.012 258.876C349.3 260.332 349.944 262.059 349.944 264.056C349.944 264.261 349.926 264.551 349.888 264.924H337.596C337.783 266.343 338.38 267.472 339.388 268.312C340.415 269.133 341.675 269.544 343.168 269.544C344.232 269.544 345.147 269.329 345.912 268.9C346.696 268.452 347.284 267.873 347.676 267.164L349.3 268.116C348.684 269.105 347.844 269.889 346.78 270.468C345.716 271.047 344.503 271.336 343.14 271.336C340.938 271.336 339.146 270.645 337.764 269.264C336.383 267.883 335.692 266.128 335.692 264C335.692 261.909 336.374 260.164 337.736 258.764C339.099 257.364 340.854 256.664 343 256.664ZM343 258.456C341.544 258.456 340.322 258.895 339.332 259.772C338.362 260.631 337.783 261.751 337.596 263.132H348.04C347.854 261.657 347.284 260.509 346.332 259.688C345.38 258.867 344.27 258.456 343 258.456ZM364.364 269.208H366.604V274.752H364.756V271H352.884V257H354.732V269.208H362.516V257H364.364V269.208ZM379.591 257H381.159V271H379.311V260.22L370.967 271H369.399V257H371.247V267.78L379.591 257ZM398.731 259.016C400.075 260.379 400.747 262.04 400.747 264C400.747 265.96 400.075 267.621 398.731 268.984C397.387 270.347 395.614 271.121 393.411 271.308V276.6H391.563V271.308C389.361 271.121 387.587 270.347 386.243 268.984C384.899 267.621 384.227 265.96 384.227 264C384.227 262.04 384.899 260.379 386.243 259.016C387.587 257.653 389.361 256.879 391.563 256.692V251.4H393.411V256.692C395.614 256.879 397.387 257.653 398.731 259.016ZM387.559 260.304C386.57 261.312 386.075 262.544 386.075 264C386.075 265.456 386.57 266.697 387.559 267.724C388.549 268.732 389.883 269.32 391.563 269.488V258.512C389.883 258.68 388.549 259.277 387.559 260.304ZM393.411 269.488C395.091 269.32 396.426 268.732 397.415 267.724C398.405 266.697 398.899 265.456 398.899 264C398.899 262.544 398.405 261.312 397.415 260.304C396.426 259.277 395.091 258.68 393.411 258.512V269.488ZM414.017 257H415.585V271H413.737V260.22L405.393 271H403.825V257H405.673V267.78L414.017 257ZM430.805 271H428.341L421.341 264.252V271H419.493V257H421.341V263.188L428.005 257H430.525L423.301 263.72L430.805 271ZM443.975 257H445.823V271H443.975V268.256C442.687 270.309 440.801 271.336 438.319 271.336C436.321 271.336 434.613 270.627 433.195 269.208C431.795 267.789 431.095 266.053 431.095 264C431.095 261.947 431.795 260.211 433.195 258.792C434.613 257.373 436.321 256.664 438.319 256.664C440.801 256.664 442.687 257.691 443.975 259.744V257ZM434.539 267.948C435.603 269.012 436.909 269.544 438.459 269.544C440.008 269.544 441.315 269.012 442.379 267.948C443.443 266.865 443.975 265.549 443.975 264C443.975 262.451 443.443 261.144 442.379 260.08C441.315 258.997 440.008 258.456 438.459 258.456C436.909 258.456 435.603 258.997 434.539 260.08C433.475 261.144 432.943 262.451 432.943 264C432.943 265.549 433.475 266.865 434.539 267.948ZM461.215 269.208H463.455V274.752H461.607V271H449.735V257H451.583V269.208H459.367V257H461.215V269.208ZM476.443 257H478.011V271H476.163V260.22L467.819 271H466.251V257H468.099V267.78L476.443 257ZM492.111 257H493.679V271H491.831V260.22L483.487 271H481.919V257H483.767V267.78L492.111 257ZM190.127 293H191.695V307H189.847V296.22L181.503 307H179.935V293H181.783V303.78L190.127 293ZM211.507 299.804C213.037 300.364 213.803 301.456 213.803 303.08C213.803 304.219 213.42 305.161 212.655 305.908C211.908 306.636 210.825 307 209.407 307H202.603V293H208.847C210.209 293 211.264 293.355 212.011 294.064C212.757 294.755 213.131 295.651 213.131 296.752C213.131 298.152 212.589 299.169 211.507 299.804ZM208.847 294.792H204.451V299.048H208.847C210.471 299.048 211.283 298.32 211.283 296.864C211.283 296.211 211.068 295.707 210.639 295.352C210.228 294.979 209.631 294.792 208.847 294.792ZM209.407 305.208C210.228 305.208 210.853 305.012 211.283 304.62C211.731 304.228 211.955 303.677 211.955 302.968C211.955 302.315 211.731 301.801 211.283 301.428C210.853 301.036 210.228 300.84 209.407 300.84H204.451V305.208H209.407ZM226.515 293H228.363V307H226.515V300.896H218.451V307H216.603V293H218.451V299.104H226.515V293ZM238.739 292.664C240.811 292.664 242.481 293.401 243.751 294.876C245.039 296.332 245.683 298.059 245.683 300.056C245.683 300.261 245.664 300.551 245.627 300.924H233.335C233.521 302.343 234.119 303.472 235.127 304.312C236.153 305.133 237.413 305.544 238.907 305.544C239.971 305.544 240.885 305.329 241.651 304.9C242.435 304.452 243.023 303.873 243.415 303.164L245.039 304.116C244.423 305.105 243.583 305.889 242.519 306.468C241.455 307.047 240.241 307.336 238.879 307.336C236.676 307.336 234.884 306.645 233.503 305.264C232.121 303.883 231.431 302.128 231.431 300C231.431 297.909 232.112 296.164 233.475 294.764C234.837 293.364 236.592 292.664 238.739 292.664ZM238.739 294.456C237.283 294.456 236.06 294.895 235.071 295.772C234.1 296.631 233.521 297.751 233.335 299.132H243.779C243.592 297.657 243.023 296.509 242.071 295.688C241.119 294.867 240.008 294.456 238.739 294.456ZM259.835 305.208H261.795V310.752H259.947V307H248.523V310.752H246.675V305.208H248.383C249.335 303.957 249.811 302.193 249.811 299.916V293H259.835V305.208ZM250.623 305.208H257.987V294.792H251.659V299.916C251.659 302.063 251.314 303.827 250.623 305.208ZM272.095 292.664C274.092 292.664 275.791 293.373 277.191 294.792C278.61 296.211 279.319 297.947 279.319 300C279.319 302.053 278.61 303.789 277.191 305.208C275.791 306.627 274.092 307.336 272.095 307.336C269.612 307.336 267.727 306.309 266.439 304.256V312.6H264.591V293H266.439V295.744C267.727 293.691 269.612 292.664 272.095 292.664ZM268.035 303.948C269.099 305.012 270.406 305.544 271.955 305.544C273.504 305.544 274.811 305.012 275.875 303.948C276.939 302.865 277.471 301.549 277.471 300C277.471 298.451 276.939 297.144 275.875 296.08C274.811 294.997 273.504 294.456 271.955 294.456C270.406 294.456 269.099 294.997 268.035 296.08C266.971 297.144 266.439 298.451 266.439 300C266.439 301.549 266.971 302.865 268.035 303.948ZM291.925 293V307H290.077V301.624H287.669L283.357 307H281.005L285.429 301.568C284.309 301.4 283.385 300.933 282.657 300.168C281.929 299.403 281.565 298.46 281.565 297.34C281.565 296.071 282.013 295.035 282.909 294.232C283.823 293.411 284.934 293 286.241 293H291.925ZM286.241 299.888H290.077V294.792H286.241C285.457 294.792 284.785 295.025 284.225 295.492C283.683 295.959 283.413 296.575 283.413 297.34C283.413 298.105 283.683 298.721 284.225 299.188C284.785 299.655 285.457 299.888 286.241 299.888ZM307.801 292.664C309.854 292.664 311.59 293.373 313.009 294.792C314.446 296.192 315.165 297.928 315.165 300C315.165 302.072 314.446 303.817 313.009 305.236C311.59 306.636 309.854 307.336 307.801 307.336C305.915 307.336 304.291 306.729 302.929 305.516C301.585 304.284 300.81 302.744 300.605 300.896H297.693V307H295.845V293H297.693V299.104H300.605C300.81 297.256 301.585 295.725 302.929 294.512C304.291 293.28 305.915 292.664 307.801 292.664ZM303.881 303.948C304.945 305.012 306.251 305.544 307.801 305.544C309.35 305.544 310.657 305.012 311.721 303.948C312.785 302.865 313.317 301.549 313.317 300C313.317 298.451 312.785 297.144 311.721 296.08C310.657 294.997 309.35 294.456 307.801 294.456C306.251 294.456 304.945 294.997 303.881 296.08C302.817 297.144 302.285 298.451 302.285 300C302.285 301.549 302.817 302.865 303.881 303.948ZM327.772 293V294.792H322.816V307H320.968V294.792H316.012V293H327.772ZM344.528 292.664C346.526 292.664 348.224 293.373 349.624 294.792C351.043 296.211 351.752 297.947 351.752 300C351.752 302.053 351.043 303.789 349.624 305.208C348.224 306.627 346.526 307.336 344.528 307.336C342.046 307.336 340.16 306.309 338.872 304.256V312.6H337.024V293H338.872V295.744C340.16 293.691 342.046 292.664 344.528 292.664ZM340.468 303.948C341.532 305.012 342.839 305.544 344.388 305.544C345.938 305.544 347.244 305.012 348.308 303.948C349.372 302.865 349.904 301.549 349.904 300C349.904 298.451 349.372 297.144 348.308 296.08C347.244 294.997 345.938 294.456 344.388 294.456C342.839 294.456 341.532 294.997 340.468 296.08C339.404 297.144 338.872 298.451 338.872 300C338.872 301.549 339.404 302.865 340.468 303.948ZM361.293 292.664C363.365 292.664 365.036 293.401 366.305 294.876C367.593 296.332 368.237 298.059 368.237 300.056C368.237 300.261 368.219 300.551 368.181 300.924H355.889C356.076 302.343 356.673 303.472 357.681 304.312C358.708 305.133 359.968 305.544 361.461 305.544C362.525 305.544 363.44 305.329 364.205 304.9C364.989 304.452 365.577 303.873 365.969 303.164L367.593 304.116C366.977 305.105 366.137 305.889 365.073 306.468C364.009 307.047 362.796 307.336 361.433 307.336C359.231 307.336 357.439 306.645 356.057 305.264C354.676 303.883 353.985 302.128 353.985 300C353.985 297.909 354.667 296.164 356.029 294.764C357.392 293.364 359.147 292.664 361.293 292.664ZM361.293 294.456C359.837 294.456 358.615 294.895 357.625 295.772C356.655 296.631 356.076 297.751 355.889 299.132H366.333C366.147 297.657 365.577 296.509 364.625 295.688C363.673 294.867 362.563 294.456 361.293 294.456ZM388.089 293H389.937V307H371.177V293H373.025V305.208H379.633V293H381.481V305.208H388.089V293ZM400.313 292.664C402.385 292.664 404.055 293.401 405.325 294.876C406.613 296.332 407.257 298.059 407.257 300.056C407.257 300.261 407.238 300.551 407.201 300.924H394.909C395.095 302.343 395.693 303.472 396.701 304.312C397.727 305.133 398.987 305.544 400.481 305.544C401.545 305.544 402.459 305.329 403.225 304.9C404.009 304.452 404.597 303.873 404.989 303.164L406.613 304.116C405.997 305.105 405.157 305.889 404.093 306.468C403.029 307.047 401.815 307.336 400.453 307.336C398.25 307.336 396.458 306.645 395.077 305.264C393.695 303.883 393.005 302.128 393.005 300C393.005 297.909 393.686 296.164 395.049 294.764C396.411 293.364 398.166 292.664 400.313 292.664ZM400.313 294.456C398.857 294.456 397.634 294.895 396.645 295.772C395.674 296.631 395.095 297.751 394.909 299.132H405.353C405.166 297.657 404.597 296.509 403.645 295.688C402.693 294.867 401.582 294.456 400.313 294.456ZM420.108 293H421.956V307H420.108V300.896H412.044V307H410.196V293H412.044V299.104H420.108V293ZM436.056 293H437.624V307H435.776V296.22L427.432 307H425.864V293H427.712V303.78L436.056 293ZM451.612 293V307H449.764V301.624H447.356L443.044 307H440.692L445.116 301.568C443.996 301.4 443.072 300.933 442.344 300.168C441.616 299.403 441.252 298.46 441.252 297.34C441.252 296.071 441.7 295.035 442.596 294.232C443.511 293.411 444.622 293 445.928 293H451.612ZM445.928 299.888H449.764V294.792H445.928C445.144 294.792 444.472 295.025 443.912 295.492C443.371 295.959 443.1 296.575 443.1 297.34C443.1 298.105 443.371 298.721 443.912 299.188C444.472 299.655 445.144 299.888 445.928 299.888ZM457.884 306.832C457.586 307.131 457.222 307.28 456.792 307.28C456.363 307.28 455.999 307.131 455.7 306.832C455.402 306.533 455.252 306.169 455.252 305.74C455.252 305.311 455.402 304.947 455.7 304.648C455.999 304.349 456.363 304.2 456.792 304.2C457.222 304.2 457.586 304.349 457.884 304.648C458.183 304.947 458.332 305.311 458.332 305.74C458.332 306.169 458.183 306.533 457.884 306.832Z" fill="#0F0F69"/>
</svg>
