<svg  width="367" height="64" viewBox="0 0 140 25" fill="none" xmlns="http://www.w3.org/2000/svg">
<path d="M50.1104 5.79907V18.6569H60.4891V16.4199L52.9694 16.4394V13.2687H60.4891V11.0317L52.9694 11.0122V8.03607H60.4891V5.79907H50.1104Z" fill="black"/>
<path d="M73.4336 18.6576V5.78027H76.1752V18.6576H73.4336Z" fill="black"/>
<path d="M37.6761 5.78027L40.9072 15.837L44.3146 5.78027H48.329V18.6576H45.705V9.00933L42.3172 18.6576H39.4777L36.2857 9.00933V18.6576H33.6421V5.78027H37.6761Z" fill="black"/>
<path d="M65.502 8.07563H61.3701V5.78027H72.5518V8.07563H68.2436V18.6576H65.502V8.07563Z" fill="black"/>
<path d="M104.57 5.79907V18.6569H114.949V16.4199H107.429V13.2687H114.949V11.0317L107.429 11.0122V8.03607H114.949V5.79907H104.57Z" fill="black"/>
<path d="M132.436 8.07563H128.304V5.78027H139.485V8.07563H135.177V18.6576H132.436V8.07563Z" fill="black"/>
<path d="M86.7691 15.02L81.4426 5.78027H77.9961V18.6576H80.7964L80.6789 8.91207L86.2599 18.6576H89.4127V5.78027H86.632L86.7691 15.02Z" fill="black"/>
<path d="M97.0305 15.3702L93.1532 5.78027H90.0396L95.6989 18.6576H98.5384L103.924 5.78027H101.025L97.0305 15.3702Z" fill="black"/>
<path d="M123.819 11.1685H120.216C119.08 11.1685 118.512 10.7017 118.512 9.76796C118.512 8.60083 119.159 8.07563 120.608 8.07563H127.344V5.78027H120.216C118.63 5.78027 117.474 6.09151 116.769 6.73343C116.025 7.3559 115.673 8.36741 115.673 9.72906C115.673 12.2967 117.004 13.425 120.001 13.425H123.232C124.642 13.425 125.151 13.8335 125.151 14.9033C125.151 15.9537 124.583 16.3622 123.036 16.3622H116.202V18.6576H123.467C126.6 18.6576 128.01 17.4516 128.01 14.7866C128.01 13.4833 127.697 12.5496 127.05 12.005C126.385 11.4408 125.307 11.1685 123.819 11.1685Z" fill="black"/>
<path d="M20.7365 1.13067C20.7365 1.13067 19.0329 0.430397 18.7979 0.333136C18.5629 0.235876 18.3279 0.216424 18.0733 0.27478C17.8187 0.333136 17.6425 0.469301 17.5446 0.566562C17.4467 0.663823 13.7847 4.30137 13.7847 4.30137C13.7847 4.30137 10.1619 0.702727 10.0444 0.586014C9.92695 0.469301 9.78987 0.352589 9.49613 0.27478C9.2024 0.196971 8.94782 0.255328 8.79116 0.333136C8.6345 0.391493 7.06789 1.05287 6.85249 1.13067C6.63708 1.20848 6.44125 1.38355 6.30417 1.59753C6.20626 1.77259 6.12793 1.96712 6.12793 2.20054C6.12793 1.98657 6.12793 7.2581 6.12793 7.2581L9.49613 9.18386V4.78768L11.0627 6.34385C11.1802 6.46056 11.3173 6.53837 11.474 6.59673C11.5915 6.63563 11.6894 6.67453 11.8656 6.67453C12.0419 6.67453 15.6842 6.67453 15.6842 6.67453C15.8213 6.67453 15.9584 6.65508 16.0759 6.59673C16.213 6.53837 16.35 6.46056 16.5067 6.30494C16.6634 6.14933 18.0537 4.76822 18.0537 4.76822V9.16441L21.4219 7.23865C21.4219 7.23865 21.4219 2.72575 21.4219 2.21999C21.4415 1.69479 21.1478 1.30574 20.7365 1.13067Z" fill="#ED1C24"/>
<path d="M0.507726 12.024C0.507726 12.024 0.742718 13.833 0.781883 14.0859C0.821048 14.3388 0.918961 14.5527 1.0952 14.7473C1.27145 14.9418 1.48686 15.0196 1.62393 15.0585C1.76101 15.0974 6.75457 16.4201 6.75457 16.4201C6.75457 16.4201 5.42296 21.3415 5.38379 21.4777C5.34463 21.6333 5.30546 21.8084 5.38379 22.1002C5.46212 22.3919 5.65795 22.5865 5.79503 22.6837C5.9321 22.781 7.2833 23.812 7.45955 23.9481C7.63579 24.0843 7.89036 24.1815 8.14494 24.1815C8.34076 24.1815 8.55617 24.1426 8.752 24.0259C8.55617 24.1426 13.1581 21.4971 13.1581 21.4971V17.6262L9.31989 19.8243L9.88779 17.6845C9.92695 17.5289 9.92695 17.3733 9.90737 17.1982C9.88779 17.0621 9.8682 16.9842 9.77029 16.8092C9.67238 16.6536 7.8512 13.5218 7.8512 13.5218C7.77287 13.4051 7.69454 13.3078 7.59662 13.23C7.47913 13.1327 7.34205 13.0549 7.12664 12.9966C6.93082 12.9382 5.01172 12.4324 5.01172 12.4324L8.84991 10.2344L5.4817 8.30859C5.4817 8.30859 1.5456 10.565 1.0952 10.8179C0.644805 11.1097 0.448979 11.5766 0.507726 12.024Z" fill="#ED1C24"/>
<path d="M20.1101 23.9673C20.1101 23.9673 21.5787 22.8585 21.7746 22.7029C21.9704 22.5473 22.1075 22.3528 22.1858 22.1194C22.2641 21.8665 22.225 21.6525 22.2054 21.5163C22.1662 21.3802 20.8346 16.4199 20.8346 16.4199C20.8346 16.4199 25.789 15.0971 25.9457 15.0582C26.1023 15.0193 26.2786 14.961 26.494 14.747C26.7094 14.533 26.7877 14.2802 26.8073 14.1051C26.8269 13.93 27.0423 12.2571 27.0815 12.0432C27.1206 11.8097 27.0815 11.5568 26.9444 11.3429C26.8465 11.1678 26.7094 11.0122 26.5136 10.8955C26.7094 11.0122 22.1075 8.3667 22.1075 8.3667L18.7393 10.2925L22.5775 12.4906L20.4234 13.0547C20.2667 13.0936 20.1296 13.1714 19.9926 13.2686C19.8946 13.3464 19.8163 13.4243 19.738 13.5799C19.6401 13.7355 17.8189 16.8673 17.8189 16.8673C17.7601 16.984 17.7014 17.1007 17.6818 17.2369C17.6622 17.3925 17.6622 17.5481 17.721 17.7426C17.7797 17.9372 18.2889 19.8435 18.2889 19.8435L14.4507 17.6454V21.5163C14.4507 21.5163 18.3868 23.7728 18.8372 24.0257C19.268 24.298 19.7576 24.2396 20.1101 23.9673Z" fill="#ED1C24"/>
</svg>
