<svg width="393" height="59" viewBox="0 0 169 26" fill="none" xmlns="http://www.w3.org/2000/svg">
<path d="M6.56689 1.50122H98.1136V22.5876H6.56689V1.50122Z" fill="white"/>
<path d="M112.409 0.942627H164.489V22.029H112.409V0.942627Z" fill="white"/>
<path d="M112.437 0.356201H168.385L168.442 25.4364H102.683L112.437 0.356201ZM122.864 18.119H120.51C119.473 18.119 119.08 17.6722 119.08 16.4712V13.5666H121.911C123.789 13.5666 124.406 14.4045 124.406 14.4045V10.5503C124.406 10.5503 123.873 11.3881 121.911 11.3881H119.08V7.08708H122.388C124.63 7.08708 125.443 8.17631 125.443 8.17631L125.415 4.76898H114.652C114.652 4.76898 115.661 5.2717 115.661 8.2601V16.7784C115.661 19.5713 114.652 20.4092 114.652 20.4092H125.751L125.723 16.8064C125.751 16.8064 125.247 18.119 122.864 18.119ZM140.159 8.31595V16.8343C140.159 19.6272 139.15 20.4651 139.15 20.4651H149.998L150.026 16.8622C150.026 16.8622 149.717 18.1749 147.335 18.1749H144.952C143.915 18.1749 143.523 17.728 143.523 16.5271V13.008H146.354C148.232 13.008 148.876 13.8459 148.876 13.8459V9.99169C148.876 9.99169 148.344 10.8296 146.354 10.8296H143.523V7.11501H146.858C149.129 7.11501 150.054 8.23217 150.054 8.23217V4.82483H139.122C139.122 4.79691 140.159 5.29963 140.159 8.31595ZM128.134 8.28803V16.8064C128.134 19.5993 127.125 20.4371 127.125 20.4371H132.535C132.535 20.4371 131.526 19.5993 131.526 16.8064V12.9522H134.357C136.235 12.9522 136.879 13.79 136.879 13.79V9.93584C136.879 9.93584 136.319 10.7737 134.357 10.7737H131.526V7.05915H134.861C137.132 7.05915 138.029 8.17631 138.029 8.17631L138.113 4.76898H127.125C127.125 4.79691 128.134 5.29963 128.134 8.28803ZM154.875 8.87453C154.847 7.72945 155.912 6.91951 157.229 6.91951C159.164 6.91951 161.154 8.6511 161.154 8.6511L161.126 4.88069C161.126 4.88069 160.425 5.38341 158.939 5.04827C158.463 4.93655 157.314 4.82483 156.753 4.82483C153.642 4.82483 151.539 6.64022 151.595 9.07004C151.707 13.7342 158.715 13.399 158.771 16.3036C158.799 17.728 157.566 18.4821 155.912 18.4821C153.95 18.4821 151.764 16.8064 151.764 16.8064L151.735 19.9623C152.829 20.2975 154.426 20.8281 156.052 20.8281C159.696 20.8281 161.995 19.0127 162.023 16.1919C162.079 10.9413 154.903 11.3323 154.875 8.87453Z" fill="#012169"/>
<path d="M0.288086 0.356201H108.989L98.9544 25.4364H0.288086V0.356201ZM33.3357 11.3044C35.466 10.4665 36.2789 9.3214 36.2789 7.92495C36.2789 5.4672 34.0645 4.37797 30.4486 4.37797H23.9736C24.3941 4.99241 24.7585 5.60685 24.7585 6.58436V11.4719C22.8524 11.835 21.1426 12.1422 19.5168 12.5332C18.0592 8.6511 16.4615 4.35004 16.4615 4.35004H12.4252C12.4812 4.88069 12.4252 5.4672 12.1449 6.24921L7.632 18.4542C7.632 18.4542 7.32367 19.32 6.70701 20.074H10.0146C9.95851 19.6551 10.0426 19.0965 10.1547 18.7614C10.4911 17.8118 11.3881 17.1694 12.3411 16.7505C13.5744 16.1919 15.7327 15.5496 16.7418 15.2703L17.807 18.2307C17.807 18.2307 18.2555 19.3479 18.0032 20.074H22.6562C21.9554 19.1524 21.7032 18.4542 21.7032 18.4542C21.591 18.1749 20.9744 16.5271 20.1895 14.4324C21.6191 14.0972 23.1047 13.818 24.7024 13.5107V17.8397C24.7024 18.6776 24.366 19.4038 23.9176 20.074H30.0842C31.0933 20.074 31.9903 20.0182 32.663 19.9065C35.2978 19.4596 37.2039 18.1469 37.2039 15.3541C37.2319 13.2035 35.7463 11.9467 33.3357 11.3044ZM12.4532 14.7396C12.0608 14.9072 11.5562 15.2144 11.2759 15.4937C12.1729 12.9801 13.3782 9.54483 13.9668 7.89702L16.013 13.5387C14.9759 13.818 13.4062 14.2928 12.4532 14.7396ZM28.2062 6.61229C28.8509 6.58436 29.0751 6.58436 29.4956 6.58436C31.4857 6.58436 32.4107 7.3943 32.4107 8.53939C32.4107 9.62862 31.6819 10.2989 30.4486 10.662C29.916 10.8016 29.0751 10.9692 28.2062 11.1368V6.61229ZM38.7175 20.5209H43.9311C43.1463 19.3758 43.1463 18.3145 43.1463 18.2866V7.03122C43.1463 7.00329 43.1463 5.96992 43.9311 4.79691H38.7175C39.5024 5.96992 39.5024 7.00329 39.5024 7.03122V18.2866C39.5304 18.3145 39.5024 19.3479 38.7175 20.5209ZM97.3287 9.23761H93.8529C94.1613 9.7124 94.0211 10.4386 93.7128 11.1926L91.4423 17.0298L89.1439 11.1926C88.8355 10.4386 88.7234 9.68447 89.0037 9.23761H84.4908C85.1075 9.87998 85.4999 10.6899 85.7242 11.1926L89.5923 20.2975H92.5916C92.5916 20.2975 92.6476 19.5434 93.012 18.7335L96.1234 11.2206C96.3757 10.6899 96.7681 9.76826 97.3287 9.23761ZM84.631 15.1306C84.8552 12.8125 84.1825 8.79075 78.9128 8.79075C74.6242 8.79075 73.0265 11.6954 73.0265 14.5162C73.0265 18.119 75.0447 20.6047 79.8939 20.6047C81.856 20.6047 83.4537 20.0461 84.4068 19.4875L83.4257 17.4208C82.5007 17.8677 81.3795 18.2587 80.1462 18.2587C77.9878 18.2587 76.6424 17.5325 76.3621 15.4378H81.0431C82.781 15.4378 84.1825 15.3261 84.631 15.1306ZM76.6984 13.6783C76.9227 11.8909 77.7356 10.9971 79.2492 10.9971C80.8189 10.9971 81.5757 12.1702 81.6318 13.6783C81.6318 13.6783 80.959 13.7062 80.0621 13.7062H76.6984V13.6783ZM53.097 20.074H57.722C57.0212 19.0407 57.0212 18.119 57.0212 18.119V12.1981C57.0212 10.0755 55.844 8.79075 53.3493 8.79075C51.7516 8.79075 50.4622 9.48897 49.5091 10.3268V9.01418H45.5849C46.2857 10.0476 46.2857 10.9692 46.2857 10.9692V18.0911C46.2857 18.0911 46.2857 19.0407 45.5849 20.0461H50.2099C49.5091 19.0127 49.5091 18.0911 49.5091 18.0911V12.1981C50.0978 11.6116 50.9387 11.1647 51.8637 11.1647C53.2932 11.1647 53.7978 11.9188 53.7978 13.1197V18.0911C53.7978 18.119 53.7978 19.0686 53.097 20.074ZM65.178 20.074C66.1871 20.074 67.1121 20.0182 67.7848 19.9065C70.3916 19.4596 72.2977 18.1749 72.2977 15.382C72.2977 13.1477 70.8401 12.0026 68.5136 11.3323C70.5879 10.5782 71.2886 9.48897 71.2886 8.06459C71.2886 5.60685 69.2144 4.35004 65.5144 4.35004H59.2917C59.7402 4.99241 59.8803 5.91406 59.8803 6.58436V17.8397C59.8803 18.5659 59.7402 19.3479 59.2917 20.074H65.178ZM29.6918 18.3704H28.2062V13.1197C28.7668 13.008 29.6357 12.8404 30.2244 12.7846C32.0183 13.1756 33.3357 13.9017 33.3357 15.6892C33.3357 17.7559 31.766 18.3704 29.6918 18.3704ZM65.0379 12.7846C67.3083 12.7846 68.5697 13.8738 68.5697 15.6054C68.5697 17.1694 67.6167 18.3145 64.9818 18.3145H63.4121V12.7846H65.0379ZM64.7015 6.58436C66.6917 6.58436 67.6167 7.33844 67.6167 8.76282C67.6167 10.1593 66.7757 11.0251 64.8697 11.0251C64.5053 11.0251 63.8326 11.0251 63.4121 11.0251V6.58436H64.7015Z" fill="#BA0C2F"/>
</svg>
