<svg width="127" height="97" viewBox="0 0 127 97" fill="none" xmlns="http://www.w3.org/2000/svg">
<path d="M118.482 4.70565H103.21C101.502 4.70565 100.116 6.15748 100.116 7.95776C100.116 9.75583 101.502 11.2142 103.21 11.2142L106.931 11.2298L106.933 11.2275L118.482 11.2298C120.192 11.2298 121.58 9.77133 121.58 7.97104C121.58 6.16854 120.192 4.70565 118.482 4.70565Z" fill="#7AB46E"/>
<path d="M17.7886 26.4334C15.987 26.4334 14.5235 24.9749 14.5235 23.1747C14.5235 21.3744 15.987 19.9159 17.7886 19.9159H46.4433C48.0314 19.9159 48.9211 19.1502 49.237 18.0558C49.4416 17.3499 50.5871 15.523 52.9025 15.523H97.8964C97.8964 15.523 98.0699 15.5029 98.1544 15.585C98.23 15.6672 98.2478 15.787 98.2478 15.787V22.0004C98.2478 22.0004 98.2078 22.1802 98.1121 22.2357C97.9609 22.3223 97.8141 22.3001 97.8141 22.3001L85.5942 22.28C84.1151 22.28 82.8317 23.4145 82.8317 24.8884V66.1906C82.8317 66.1906 82.8317 68.3084 81.0946 69.4649C81.0946 69.4649 68.243 77.7294 67.4734 78.251C66.8373 78.6883 65.3648 79.2877 64.0592 78.3398C63.1317 77.6672 63.0205 76.0866 63.0205 76.0866V25.5433C63.0205 23.0615 61.5325 22.289 59.7264 22.289L53.7232 22.2868C51.9016 22.2713 51.2477 22.9704 50.9363 24.0648C50.7316 24.7707 49.7863 26.4201 47.3508 26.4201H45.5759C44.3904 26.4201 43.4384 27.3835 43.4384 28.5622V69.3895C43.4384 69.3895 43.5029 72.788 41.6368 75.5184C40.1354 77.716 36.6901 79.7073 36.6901 79.7073L22.3772 89.2036C22.3772 89.2036 16.5675 93.2171 10.0372 90.8086C5.11718 88.9928 4.31647 85.723 4.85473 82.7773C5.39299 79.8382 8.87168 78.1111 11.0247 78.231C13.6827 78.3775 15.8224 79.2921 17.0991 82.422C18.1601 85.017 18.983 85.9006 20.3198 85.9916C21.661 86.0826 22.9088 84.2956 22.9088 80.9947C22.9088 77.6938 22.9088 28.5378 22.9088 28.5378C22.9088 27.3835 21.9724 26.4445 20.8136 26.4445L17.7886 26.4334Z" fill="#7AB46E"/>
<path d="M118.482 4.70565H103.21C101.502 4.70565 100.116 6.15748 100.116 7.95776C100.116 9.75583 101.502 11.2142 103.21 11.2142L106.931 11.2298L106.933 11.2275L118.482 11.2298C120.192 11.2298 121.58 9.77133 121.58 7.97104C121.58 6.16854 120.192 4.70565 118.482 4.70565Z" fill="#00B185"/>
<path d="M17.7886 26.4334C15.987 26.4334 14.5235 24.9749 14.5235 23.1747C14.5235 21.3744 15.987 19.9159 17.7886 19.9159H46.4433C48.0314 19.9159 48.9211 19.1502 49.237 18.0558C49.4416 17.3499 50.5871 15.523 52.9025 15.523H97.8964C97.8964 15.523 98.0699 15.5029 98.1544 15.585C98.23 15.6672 98.2478 15.787 98.2478 15.787V22.0004C98.2478 22.0004 98.2078 22.1802 98.1121 22.2357C97.9609 22.3223 97.8141 22.3001 97.8141 22.3001L85.5942 22.28C84.1151 22.28 82.8317 23.4145 82.8317 24.8884V66.1906C82.8317 66.1906 82.8317 68.3084 81.0946 69.4649C81.0946 69.4649 68.243 77.7294 67.4734 78.251C66.8373 78.6883 65.3648 79.2877 64.0592 78.3398C63.1317 77.6672 63.0205 76.0866 63.0205 76.0866V25.5433C63.0205 23.0615 61.5325 22.289 59.7264 22.289L53.7232 22.2868C51.9016 22.2713 51.2477 22.9704 50.9363 24.0648C50.7316 24.7707 49.7863 26.4201 47.3508 26.4201H45.5759C44.3904 26.4201 43.4384 27.3835 43.4384 28.5622V69.3895C43.4384 69.3895 43.5029 72.788 41.6368 75.5184C40.1354 77.716 36.6901 79.7073 36.6901 79.7073L22.3772 89.2036C22.3772 89.2036 16.5675 93.2171 10.0372 90.8086C5.11718 88.9928 4.31647 85.723 4.85473 82.7773C5.39299 79.8382 8.87168 78.1111 11.0247 78.231C13.6827 78.3775 15.8224 79.2921 17.0991 82.422C18.1601 85.017 18.983 85.9006 20.3198 85.9916C21.661 86.0826 22.9088 84.2956 22.9088 80.9947C22.9088 77.6938 22.9088 28.5378 22.9088 28.5378C22.9088 27.3835 21.9724 26.4445 20.8136 26.4445L17.7886 26.4334Z" fill="#00B185"/>
<path d="M120.779 15.5408V54.6231C120.779 54.6231 120.772 56.743 119.035 57.8951C119.035 57.8951 106.181 66.1641 105.416 66.6835C104.78 67.1208 103.305 67.7223 102.004 66.7744C101.072 66.0996 100.968 64.5191 100.968 64.5191V15.5408H120.779Z" fill="#00B185"/>
</svg>
