<svg viewBox="0 0 82 37" fill="none" xmlns="http://www.w3.org/2000/svg">
<g clip-path="url(#clip0_1027_75)">
<path d="M81.3783 0.832764H0.48584V36.785H81.3783V0.832764Z" fill="#003C96"/>
<path d="M4.99561 20.3645C6.25152 23.3029 9.10588 25.3195 12.4169 25.3195C11.2181 22.4387 8.30666 20.3645 4.99561 20.3645Z" fill="#12B36A"/>
<path d="M12.417 25.3195C14.8717 25.3195 16.984 23.8215 17.9544 21.7473C15.4997 21.7473 13.3875 23.2453 12.417 25.3195Z" fill="#12B36A"/>
<path fill-rule="evenodd" clip-rule="evenodd" d="M12.417 21.2287C15.7851 21.2287 18.4682 18.4631 18.4682 15.1214C18.4682 11.7221 15.728 9.01416 12.417 9.01416C9.04882 9.01416 6.36572 11.7797 6.36572 15.1214C6.36572 18.5207 9.04882 21.2287 12.417 21.2287ZM12.417 18.1751C14.0725 18.1751 15.4426 16.7923 15.4426 15.1214C15.4426 13.4506 14.0725 12.0678 12.417 12.0678C10.7614 12.0678 9.39134 13.4506 9.39134 15.1214C9.39134 16.7923 10.7614 18.1751 12.417 18.1751Z" fill="#FEBE10"/>
<path d="M51.4644 15.1216H53.9763V25.0315H51.4644V21.1712H47.0116V25.0315H44.4998V15.1216H47.0116V18.809H51.4644V15.1216ZM55.2322 17.5991H58.372V25.0891H60.8838V17.5991H64.0236V15.1216H55.2322V17.5991ZM76.3544 22.8997V25.0315C75.8977 25.2619 75.3839 25.3772 74.756 25.3772C73.443 25.3772 72.7579 24.801 72.5296 23.8792H72.4154C71.6733 24.8586 70.5886 25.3196 69.2185 25.3196C67.9055 25.3196 66.7638 24.801 65.8504 23.8215C64.937 22.7845 64.4803 21.5745 64.4803 20.0765C64.4803 18.6361 64.937 17.3686 65.8504 16.3891C66.8209 15.352 67.9055 14.8335 69.2185 14.8335C70.5315 14.8335 71.5591 15.2944 72.3012 16.1587V15.1216H74.8131V22.1507C74.8131 22.7268 75.0985 23.0725 75.6123 23.0725C75.9548 23.0725 76.1831 23.0149 76.3544 22.8997ZM72.4154 20.0765C72.4154 19.2699 72.187 18.5785 71.6162 18.06C71.1024 17.5414 70.4744 17.2534 69.6752 17.2534C68.876 17.2534 68.248 17.4838 67.7343 18.06C67.2205 18.5785 66.9921 19.2699 66.9921 20.0765C66.9921 20.8831 67.2205 21.5745 67.7343 22.0931C68.248 22.6116 68.876 22.8421 69.6752 22.8421C70.4744 22.8421 71.1024 22.6116 71.6162 22.0931C72.187 21.5745 72.4154 20.8831 72.4154 20.0765ZM23.6059 15.1216L23.5488 18.8666C23.5488 20.3646 23.4917 21.1136 23.2634 21.9778C23.0921 22.7845 22.6925 23.0149 22.0646 23.0149C21.8933 23.0149 21.665 23.0149 21.5508 22.9573V25.0315C21.722 25.1467 22.0646 25.2043 22.5213 25.2043C24.291 25.1467 25.1473 24.2825 25.604 22.7845C25.8894 21.6898 25.9465 20.8831 26.0036 19.6156L26.0607 17.5991H29.2005V25.0891H31.7123V15.1216H23.6059ZM35.8226 20.7679C36.108 22.4388 37.421 23.0149 38.7911 23.0149C39.7045 23.0149 40.6179 22.6692 41.1887 22.1507L42.7301 23.7639C41.8167 24.801 40.5037 25.3772 38.734 25.3772C36.2222 25.3772 33.2536 23.8792 33.2536 20.1341C33.2536 16.3891 36.1651 14.8911 38.6198 14.8911C41.7025 14.8911 43.0155 16.3891 43.0155 18.0024C42.9584 20.6527 39.5903 21.9202 35.8226 20.7679ZM40.2183 18.2904C40.2183 17.5414 39.4761 17.1957 38.6198 17.1957C37.3068 17.1957 36.2222 17.7719 35.8796 19.1547C38.5057 19.9037 40.2183 19.3275 40.2183 18.2904Z" fill="white"/>
</g>
<defs>
<clipPath id="clip0_1027_75">
<rect width="80.8924" height="35.9522" fill="white" transform="translate(0.48584 0.832764)"/>
</clipPath>
</defs>
</svg>
