<svg width="135" height="76" viewBox="0 0 135 76" fill="none" xmlns="http://www.w3.org/2000/svg">
<path d="M0.0488281 0.0465088V75.7168L134.78 51.99V0.0465088H0.0488281Z" fill="#E30613"/>
<path d="M100.462 37.3095C108.658 32.9992 110.62 27.5314 108.099 26.0015C104.374 23.9195 94.1294 27.6512 95.3135 37.8616C94.8079 38.1676 93.8035 38.713 93.8035 38.713L94.4687 40.7817C94.4687 40.7817 95.8922 39.9236 96.278 39.6642C97.4821 40.6287 98.1007 41.1675 99.9566 41.2008C103.908 41.2806 107.314 36.9037 107.314 36.9037L106.309 35.3672C106.309 35.3672 101.986 39.5312 100.462 37.3095ZM101.52 31.0502C102.691 28.9749 104.606 27.3452 105.511 27.997C106.416 28.6489 104.56 31.9282 100.143 35.427C100.01 35.141 100.369 33.1455 101.52 31.0502ZM26.1851 41.2008C25.3749 41.1916 24.6008 40.8643 24.0298 40.2895C22.0342 38.2341 23.9167 31.283 24.3026 29.7864C24.3121 29.7539 24.3138 29.7197 24.3074 29.6865C24.3011 29.6532 24.2869 29.622 24.2661 29.5954C24.2453 29.5687 24.2185 29.5474 24.1878 29.5332C24.1571 29.519 24.1235 29.5123 24.0897 29.5136C24.0487 29.5136 24.0085 29.5248 23.9733 29.5459C23.9382 29.567 23.9094 29.5972 23.8901 29.6334C23.0586 31.3096 18.5685 41.2008 14.5772 41.2008H14.3777C10.5261 40.8416 11.0516 35.5202 12.229 32.2941H18.4354C18.0666 33.1608 17.8419 34.0821 17.7702 35.0213C17.7632 35.0897 17.7754 35.1587 17.8052 35.2207C17.8351 35.2827 17.8815 35.3351 17.9394 35.3723C17.9972 35.4095 18.0643 35.43 18.133 35.4314C18.2018 35.4329 18.2696 35.4152 18.329 35.3805C18.9942 35.0479 20.0319 33.6577 20.9898 32.0546C22.6661 29.1345 24.8281 24.7377 28.5532 13.6293H35.3051C33.2829 19.842 31.6731 25.4029 30.7418 31.8151C30.7309 31.8909 30.7442 31.9681 30.7795 32.036C30.8149 32.1038 30.8706 32.1589 30.9389 32.1934C31.0072 32.2279 31.0846 32.2401 31.1602 32.2283C31.2358 32.2166 31.3058 32.1814 31.3604 32.1278C33.3028 30.2985 40.3939 14.9663 40.8396 13.6359H47.638C47.638 13.6359 40.8662 32.3805 41.4383 35.5002C41.5115 35.9259 41.9505 36.039 42.3097 35.6266C42.6689 35.2142 43.3674 34.2962 43.7466 33.8705L44.8043 34.9282C42.8618 37.3228 39.7088 41.6597 36.5623 41.1342C36.0545 41.0403 35.589 40.789 35.2319 40.4159C31.9524 37.5689 36.5623 28.0569 37.3273 25.8219C37.5069 25.323 37.6799 24.8707 37.793 24.5914C37.806 24.5579 37.8107 24.5218 37.8065 24.4862C37.8024 24.4506 37.7896 24.4165 37.7693 24.387C37.7489 24.3575 37.7216 24.3334 37.6898 24.3168C37.658 24.3003 37.6226 24.2917 37.5868 24.292C37.5447 24.291 37.5033 24.3025 37.4678 24.325C37.4323 24.3475 37.4043 24.38 37.3872 24.4184L36.6555 25.9616C34.6598 30.1456 30.0034 41.2141 26.1452 41.2141M89.9652 18.3321C88.293 18.2859 86.6637 18.8646 85.3952 19.9551L85.4684 21.8109C85.4684 21.8109 87.3975 19.8886 89.5927 20.6934C91.0828 21.2455 92.5662 23.1479 91.5883 27.3452C90.677 25.0038 87.1447 24.4916 84.271 27.5447C82.0027 29.9793 78.9494 38.1144 83.4661 40.6154C89.0805 43.7284 94.0163 34.6288 95.1538 28.3962C95.9122 24.4982 96.3379 18.2389 90.0051 18.3188L89.9652 18.3321ZM87.6503 37.1365C87.0449 37.5689 85.974 37.8017 85.7678 35.886C85.4751 33.1455 87.3709 29.8396 87.9563 29.0746C88.9607 27.7443 90.3643 27.6645 90.3909 29.6533C90.4242 31.9615 89.1603 36.0856 87.6503 37.1365ZM70.6875 16.7822C67.4147 15.6381 55.8134 19.3165 52.0085 32.1411C51.5428 32.2741 49.3476 32.8462 49.3476 32.8462L48.3764 35.5069L51.8289 34.4492C51.8289 34.4492 51.4497 41.0411 57.2436 41.234C61.8003 41.0611 64.235 34.4093 62.8181 30.1323C62.532 30.2719 58.8268 31.8484 58.8268 31.8484C58.8268 31.8484 59.5719 36.172 57.9488 37.1698C57.8225 37.2533 57.6684 37.2834 57.52 37.2535C57.3716 37.2236 57.2411 37.1361 57.1572 37.0102C56.6849 36.345 56.3855 34.6554 56.911 32.4005C65.2527 28.0636 70.9469 20.4274 71.2928 17.8066C71.33 17.5918 71.2895 17.3707 71.1786 17.183C71.0677 16.9953 70.8936 16.8533 70.6875 16.7822ZM60.3169 28.1367C59.4547 28.8077 58.5354 29.402 57.5696 29.9127C57.798 29.3693 58.0556 28.8386 58.3412 28.323C59.2326 26.8197 63.5498 21.0061 67.1486 19.9551C67.2883 19.9152 67.3881 20.0149 67.3881 20.1613C67.3548 21.4185 62.7848 26.2476 60.3169 28.1367ZM77.7387 37.8017C78.2908 37.4558 79.0358 36.8638 79.0358 36.8638L79.5015 38.2806C78.3066 39.3199 77.0017 40.2255 75.61 40.9813C75.3282 41.1392 75.0137 41.2298 74.691 41.2461C74.3684 41.2624 74.0463 41.2038 73.7501 41.075C73.4538 40.9462 73.1913 40.7506 72.9832 40.5036C72.775 40.2565 72.6268 39.9647 72.5501 39.6509C72.4781 38.6385 72.6326 37.6228 73.0024 36.6776C71.6012 38.2497 69.9788 39.6098 68.1863 40.7152C67.7033 41.0166 67.1517 41.1905 66.5832 41.2207C66.2809 41.2146 65.9837 41.1425 65.7122 41.0095C65.4408 40.8765 65.2017 40.6858 65.0116 40.4507C64.8215 40.2157 64.6851 39.942 64.6119 39.6487C64.5386 39.3554 64.5303 39.0497 64.5875 38.7529C64.807 37.7419 67.0155 30.9238 67.2949 29.8063C67.2999 29.7759 67.2969 29.7448 67.2863 29.7159C67.2757 29.687 67.2579 29.6612 67.2345 29.6412C67.2111 29.6212 67.183 29.6075 67.1528 29.6014C67.1226 29.5954 67.0914 29.5972 67.0621 29.6068C66.2155 29.9785 65.403 30.4236 64.6341 30.9371V29.048C64.6341 29.048 69.4702 25.7621 70.7474 25.4029C72.0246 25.0437 72.9359 25.7421 72.6432 27.0858C72.5035 28.0103 69.6232 35.886 69.4436 36.8439C69.4436 37.0301 69.6099 37.0434 69.6631 37.0301C70.601 36.7441 72.3239 35.2741 73.6543 33.1854C74.8916 31.2298 75.7431 28.7487 76.7675 25.6822H81.1778C81.1778 25.6822 77.8518 35.906 77.4726 37.6022C77.4592 37.6373 77.4576 37.6758 77.468 37.7119C77.4784 37.748 77.5003 37.7797 77.5304 37.8023C77.5604 37.8248 77.597 37.837 77.6346 37.8369C77.6722 37.8368 77.7087 37.8244 77.7387 37.8017ZM113.035 41.2008C112.228 41.1693 111.448 40.906 110.787 40.4423C110.126 39.9787 109.613 39.3344 109.309 38.5866C106.615 31.9349 114.518 25.6822 114.518 25.6822H119.088C119.088 25.6822 112.123 31.2564 113.101 36.192C113.766 38.5866 115.828 37.9614 117.186 36.0723C118.835 33.7774 120.319 29.2542 119.181 29.1278C118.044 29.0015 116.76 31.2631 116.76 31.2631L115.789 29.8196C116.54 28.8485 118.682 26.3008 121.064 25.5093C121.423 25.3962 123.578 24.8441 123.578 28.017C123.578 31.4027 119.78 41.254 113.035 41.2141V41.2008ZM48.7489 39.3582C48.7489 39.72 48.6417 40.0737 48.4406 40.3745C48.2396 40.6753 47.9539 40.9098 47.6197 41.0482C47.2854 41.1867 46.9176 41.2229 46.5627 41.1523C46.2079 41.0817 45.8819 40.9075 45.6261 40.6517C45.3703 40.3959 45.196 40.0699 45.1254 39.7151C45.0549 39.3603 45.0911 38.9925 45.2295 38.6582C45.368 38.324 45.6025 38.0383 45.9033 37.8373C46.2041 37.6363 46.5578 37.529 46.9196 37.529C47.161 37.529 47.3999 37.5767 47.6228 37.6695C47.8456 37.7623 48.0478 37.8982 48.2179 38.0695C48.3879 38.2407 48.5224 38.444 48.6135 38.6674C48.7047 38.8909 48.7507 39.1302 48.7489 39.3715V39.3582Z" fill="white"/>
</svg>
