<svg viewBox="0 0 82 15" fill="none" xmlns="http://www.w3.org/2000/svg">
<g clip-path="url(#clip0_1027_86)">
<path fill-rule="evenodd" clip-rule="evenodd" d="M11.5123 2.40578H25.2772C25.9034 2.40578 26.417 2.94627 26.417 3.60663V4.37027H25.0324V3.31281H14.0784V12.9493L20.5338 12.9709C19.5836 12.4908 18.9029 11.8457 18.6391 11.1175V9.84654C19.199 11.3958 21.6364 12.5684 24.5433 12.5684C27.2746 12.5684 29.5906 11.5338 30.3263 10.1237V11.3925C29.6968 12.5987 27.0751 13.8577 25.2772 13.8577H11.5123C10.8859 13.8577 10.3721 13.3183 10.3721 12.658V3.60663C10.3721 2.94627 10.8859 2.40578 11.5123 2.40578ZM30.3263 9.40634C29.5893 10.8165 27.2732 11.8499 24.5433 11.8499C21.6374 11.8499 19.2007 10.6795 18.6391 9.1291V7.9035C19.2007 9.45275 21.6374 10.6244 24.5433 10.6244C27.2746 10.6244 29.5906 9.58971 30.3263 8.18073V9.40634ZM28.2711 9.01358C27.9748 9.17665 27.6422 9.31786 27.2787 9.43327C26.481 9.11719 25.5443 8.93391 24.5433 8.93391C23.5344 8.93391 22.5915 9.1205 21.7896 9.44208C21.4252 9.32542 21.0962 9.18422 20.8072 9.02011C21.76 8.39343 23.0832 8.00389 24.5433 8.00389C25.9985 8.00389 27.3179 8.39115 28.2711 9.01358ZM29.1993 8.31251C29.0547 8.46678 28.8895 8.61016 28.7044 8.74194C27.7424 7.93478 26.2341 7.41274 24.5433 7.41274C22.8526 7.41274 21.3448 7.93478 20.3833 8.74194C20.2006 8.60374 20.0407 8.45362 19.9033 8.29304C20.7876 7.21838 22.5369 6.48271 24.5433 6.48271C26.5616 6.48271 28.32 7.22718 29.1993 8.31251ZM24.5433 5.00473C27.0314 5.00473 29.1246 6.13429 29.6623 7.64138C29.5934 7.78601 29.5102 7.92629 29.4113 8.05879C28.6297 6.81506 26.7408 5.93362 24.5433 5.93362C22.3686 5.93362 20.4969 6.79672 19.7006 8.02108C19.6023 7.869 19.523 7.70707 19.4631 7.53996C20.0566 6.08342 22.1118 5.00473 24.5433 5.00473Z" fill="#EE2722"/>
<path fill-rule="evenodd" clip-rule="evenodd" d="M46.9456 3.5483C45.7373 2.78652 43.3718 2.34849 40.7481 2.36372L33.3237 2.40578V13.8577L40.3691 13.8156C40.3838 13.8156 40.3967 13.8156 40.404 13.8156C40.4129 13.8156 40.4236 13.8156 40.4404 13.8156C40.8505 13.8156 41.4362 13.7972 42.1951 13.7618C42.953 13.726 44.1992 13.6473 45.0377 13.4414C49.9304 12.2362 51.9574 6.70276 46.9456 3.5483ZM39.9658 12.396L37.4731 12.4378V3.99368L40.2024 3.95183C40.456 3.94851 41.6083 4.04569 41.9104 4.10588C44.4207 4.60887 45.4546 5.2225 45.4546 8.12044C45.4546 11.9859 43.1146 12.3419 39.9658 12.396Z" fill="#EE2722"/>
<path fill-rule="evenodd" clip-rule="evenodd" d="M62.8848 2.40578H65.8541L59.1985 7.48173L66.01 13.8577H61.21L55.9263 9.04715V13.8577H51.9805V2.40578H55.8845V7.78383L62.8848 2.40578Z" fill="#EE2722"/>
<path fill-rule="evenodd" clip-rule="evenodd" d="M75.3149 2.25789C77.3608 2.25789 79.2652 2.612 80.8527 3.21838L80.1929 5.19353H79.6805C78.5823 4.31209 77.0509 3.75669 75.4164 3.75669C72.2651 3.75669 69.6968 5.77837 69.6968 8.25755C69.6968 10.7358 72.2651 12.7585 75.4164 12.7585C77.0677 12.7866 78.9066 12.3927 80.2357 11.7434H80.6441L80.1535 13.2085C78.7048 13.7123 77.0396 14.0046 75.2743 14.0046C67.725 14.0046 65.3018 11.137 65.3018 7.98456C65.3018 4.83 69.7997 2.25789 75.3149 2.25789Z" fill="#EE2722"/>
</g>
<defs>
<clipPath id="clip0_1027_86">
<rect width="80.8924" height="13.4821" fill="white" transform="translate(0.788574 0.729248)"/>
</clipPath>
</defs>
</svg>
