<svg width="85" height="85" viewBox="0 0 85 85" fill="none" xmlns="http://www.w3.org/2000/svg">
<path fill-rule="evenodd" clip-rule="evenodd" d="M42.6025 84.5706C65.9162 84.5706 84.8154 65.6588 84.8154 42.3297C84.8154 19.0005 65.9158 0.0883789 42.6025 0.0883789C19.2892 0.0883789 0.389648 19.0002 0.389648 42.3293C0.389648 65.6585 19.2892 84.5706 42.6025 84.5706Z" fill="white"/>
<path fill-rule="evenodd" clip-rule="evenodd" d="M0.300781 42.3297C0.300781 65.671 19.2773 84.6595 42.6024 84.6595C65.9281 84.6595 84.904 65.671 84.904 42.3297C84.904 18.9888 65.9281 0 42.6024 0C19.2773 0 0.300781 18.9885 0.300781 42.3297ZM0.478245 42.3297C0.478245 19.087 19.3751 0.177582 42.6024 0.177582C65.8297 0.177582 84.7269 19.087 84.7269 42.3297C84.7269 65.5725 65.83 84.4822 42.6024 84.4822C19.3751 84.4819 0.478245 65.5725 0.478245 42.3297Z" fill="#0079C1"/>
<path fill-rule="evenodd" clip-rule="evenodd" d="M42.6017 82.4001C64.7352 82.4001 82.6789 64.4445 82.6789 42.2962C82.6789 20.1479 64.7352 2.19263 42.6017 2.19263C20.4681 2.19263 2.52441 20.1482 2.52441 42.2965C2.52441 64.4448 20.4681 82.4001 42.6017 82.4001Z" fill="#0079C1"/>
<path fill-rule="evenodd" clip-rule="evenodd" d="M10.4941 53.7242L9.76108 51.0557C10.7684 51.4768 12.9097 51.6386 15.088 51.3934C16.4429 51.241 17.8357 50.8035 19.4759 49.9193C20.8811 49.1625 21.7049 47.6026 21.7469 46.6367C21.873 43.7335 20.1071 42.8489 17.836 42.7228H13.9237L13.7977 38.9351L16.3219 38.7353C18.114 38.5345 21.3678 37.7986 20.7369 35.4003C20.3861 34.0657 19.007 32.4365 16.826 32.7493C15.0595 33.0016 13.3937 34.3193 11.8372 35.5368L9.76074 32.8754C11.0322 31.8429 14.1987 29.6325 17.1823 29.2774C23.008 28.5825 25.5315 31.1077 26.0357 34.138C26.4255 36.4775 24.6482 39.1873 21.1154 40.198L21.5648 40.0719C24.3602 40.2558 27.0376 41.9822 27.3767 45.0055C27.8261 49.0128 23.4157 53.7796 17.6192 54.4308C14.9092 54.7352 12.5165 54.8256 11.0534 54.3497C10.923 54.3077 10.8642 54.3497 10.6988 54.1604C10.5338 53.9707 10.4941 53.7242 10.4941 53.7242Z" fill="white"/>
<path fill-rule="evenodd" clip-rule="evenodd" d="M43.3424 29.0104L44.1712 31.2618C43.5753 31.2752 41.151 32.2102 40.6176 32.5069C36.4758 34.8091 34.5327 38.0583 34.1523 40.7412L34.2571 40.7332C35.2826 39.5183 36.8344 38.7206 38.9277 38.5507C42.731 38.2423 46.1603 40.6871 46.5438 45.4303C46.9105 49.9627 43.7578 53.9667 38.8729 54.3626C32.8018 54.855 29.4686 50.5631 29.028 45.1179C28.6808 40.8314 29.9614 37.121 32.2502 34.6005C34.3156 32.3468 38.8557 29.567 42.2763 28.6542C43.1649 28.4171 43.2836 28.7138 43.3424 29.0104ZM39.7333 42.696C37.7997 41.6144 34.3442 43.6952 34.3449 43.5721C34.3442 43.9996 33.8037 47.4218 35.0557 50.0562C35.2903 50.552 36.014 51.0982 36.7722 51.3491C37.5379 51.6017 38.3398 51.5569 38.6672 51.4671C39.05 51.3632 41.0851 50.7716 41.4471 48.2713C42.0212 44.2996 40.7581 43.2694 39.7333 42.696Z" fill="white"/>
<path fill-rule="evenodd" clip-rule="evenodd" d="M70.5599 28.6805L71.389 30.9329C70.7928 30.9457 68.3685 31.8807 67.8354 32.1773C63.6929 34.4805 61.7495 37.7288 61.3701 40.4124L61.4746 40.4036C62.5004 39.1888 64.0512 38.391 66.1441 38.2212C69.9475 37.9134 73.3768 40.3582 73.7613 45.1008C74.1283 49.6332 70.9746 53.6372 66.0907 54.033C60.0193 54.5254 56.6864 50.2345 56.2458 44.7883C55.8986 40.5018 57.1785 36.7914 59.468 34.2717C61.5334 32.0176 66.0739 29.2371 69.4944 28.3247C70.3817 28.0879 70.5004 28.3839 70.5599 28.6805ZM66.9508 42.3668C65.0171 41.2841 61.5616 43.366 61.5623 43.2426C61.5616 43.67 61.0212 47.0919 62.2725 49.7273C62.5078 50.2221 63.2314 50.7686 63.989 51.0192C64.7553 51.2721 65.5576 51.227 65.8846 51.1372C66.2668 51.0333 68.3026 50.4427 68.6642 47.9411C69.239 43.9697 67.9745 42.9395 66.9508 42.3668Z" fill="white"/>
<path fill-rule="evenodd" clip-rule="evenodd" d="M52.7261 42.3257C52.1134 43.1433 51.7823 43.3811 51.2789 44.0635C50.449 43.0854 50.1583 42.8517 49.4091 41.9069C48.8744 41.2359 48.2227 40.3692 48.2227 39.4645C48.2227 38.6365 48.8646 38.0331 49.6914 38.0331C50.4793 38.0331 51.0927 38.6953 51.2574 39.4352C51.4617 38.6661 52.0166 38.0331 52.8723 38.0331C53.6602 38.0331 54.2927 38.6755 54.2927 39.4739C54.2927 40.3305 53.7187 41.0214 53.2226 41.6742L52.7261 42.3257Z" fill="white"/>
</svg>
