<svg width="308" height="51" viewBox="0 0 308 51" fill="none" xmlns="http://www.w3.org/2000/svg">
<g clip-path="url(#clip0_133_535)">
<path fill-rule="evenodd" clip-rule="evenodd" d="M40.8317 10.3422H93.2419C95.6262 10.3422 97.5818 12.3867 97.5818 14.8847V17.7734H92.31V13.7733H50.6022V50.2261L75.1813 50.3079C71.5632 48.4916 68.9714 46.0516 67.9672 43.2969V38.4891C70.0991 44.3496 79.3794 48.7854 90.4475 48.7854C100.847 48.7854 109.665 44.8716 112.466 39.5374V44.337C110.07 48.8999 100.087 53.6624 93.2419 53.6624H40.8317C38.4466 53.6624 36.4902 51.6221 36.4902 49.1244V14.8847C36.4902 12.3867 38.4466 10.3422 40.8317 10.3422ZM112.466 36.8239C109.66 42.1581 100.842 46.0673 90.4475 46.0673C79.3832 46.0673 70.1056 41.64 67.9672 35.7751V31.1389C70.1056 36.9994 79.3832 41.4315 90.4475 41.4315C100.847 41.4315 109.665 37.5175 112.466 32.1876V36.8239ZM104.641 35.3382C103.513 35.955 102.247 36.4892 100.863 36.9258C97.8254 35.7301 94.259 35.0368 90.4475 35.0368C86.606 35.0368 83.016 35.7426 79.9628 36.9591C78.5755 36.5178 77.3227 35.9836 76.2224 35.3628C79.8499 32.9922 84.8884 31.5187 90.4475 31.5187C95.9884 31.5187 101.012 32.9836 104.641 35.3382ZM108.175 32.6861C107.625 33.2697 106.996 33.8121 106.291 34.3106C102.628 31.2573 96.8854 29.2825 90.4475 29.2825C84.01 29.2825 78.2691 31.2573 74.6081 34.3106C73.9126 33.7878 73.3037 33.2199 72.7807 32.6125C76.1475 28.5472 82.8081 25.7643 90.4475 25.7643C98.1321 25.7643 104.827 28.5806 108.175 32.6861ZM90.4475 20.1734C99.9212 20.1734 107.891 24.4464 109.938 30.1474C109.676 30.6945 109.359 31.2251 108.982 31.7264C106.007 27.0216 98.8148 23.6873 90.4475 23.6873C82.1673 23.6873 75.0407 26.9522 72.0087 31.5837C71.6347 31.0084 71.3325 30.3959 71.1045 29.7637C73.3645 24.2539 81.1897 20.1734 90.4475 20.1734Z" fill="#EE2722"/>
<path fill-rule="evenodd" clip-rule="evenodd" d="M175.744 14.6641C171.144 11.7824 162.137 10.1254 152.148 10.183L123.879 10.3422V53.6624L150.704 53.5031C150.76 53.5031 150.809 53.5031 150.837 53.5031C150.871 53.5031 150.912 53.5031 150.976 53.5031C152.537 53.5031 154.767 53.4338 157.657 53.2995C160.543 53.1642 165.288 52.8666 168.48 52.0875C187.109 47.5287 194.827 26.5968 175.744 14.6641ZM149.169 48.133L139.678 48.2914V16.3489L150.07 16.1905C151.035 16.178 155.423 16.5456 156.573 16.7733C166.131 18.676 170.068 20.9972 170.068 31.9596C170.068 46.5819 161.158 47.9285 149.169 48.133Z" fill="#EE2722"/>
<path fill-rule="evenodd" clip-rule="evenodd" d="M236.434 10.3422H247.739L222.398 29.5435L248.333 53.6624H230.057L209.939 35.4651V53.6624H194.915V10.3422H209.78V30.6863L236.434 10.3422Z" fill="#EE2722"/>
<path fill-rule="evenodd" clip-rule="evenodd" d="M283.761 9.78213C291.551 9.78213 298.802 11.1217 304.846 13.4155L302.334 20.8871H300.383C296.202 17.5528 290.371 15.4518 284.147 15.4518C272.149 15.4518 262.37 23.0994 262.37 32.4777C262.37 41.8524 272.149 49.504 284.147 49.504C290.435 49.6103 297.436 48.1201 302.497 45.664H304.052L302.184 51.2062C296.668 53.112 290.328 54.2178 283.607 54.2178C254.862 54.2178 245.636 43.3702 245.636 31.445C245.636 19.5119 262.762 9.78213 283.761 9.78213Z" fill="#EE2722"/>
</g>
<defs>
<clipPath id="clip0_133_535">
<rect width="308" height="51" fill="white"/>
</clipPath>
</defs>
</svg>
