<svg width="299" height="61" viewBox="0 0 299 61" fill="none" xmlns="http://www.w3.org/2000/svg">
<g clip-path="url(#clip0_1738_431)">
<path fill-rule="evenodd" clip-rule="evenodd" d="M243.892 24.9923L247.575 17.5631L247.657 24.9923H243.892ZM253.648 31.8839L253.538 29.7339L253.313 5.92404H250.688L245.266 16.918L239.016 29.506L238.138 31.0827L237.994 31.2977C237.225 32.8414 236.759 33.0177 236.705 33.0364L235.812 33.1181L235.14 35.9261H240.647L241.329 33.0851H240.719C240.208 33.0851 240.064 32.9848 240.048 32.9848L240.082 32.8027C240.116 32.5318 240.586 31.5672 241.123 30.4577L242.479 27.783H247.725V29.7582C247.779 31.4038 247.725 32.3598 247.686 32.5963C247.585 32.9203 247.109 33.0851 246.256 33.0851H245.869L245.191 35.9261H254.283L254.961 33.0851H254.349C254.156 33.0851 253.71 33.0851 253.648 31.8839Z" fill="#00007A"/>
<path fill-rule="evenodd" clip-rule="evenodd" d="M232.164 30.5007C231.876 31.5815 231.626 32.4372 231.477 32.7397C231.443 32.8156 231.361 32.9762 230.835 32.9762L229.119 33.0278H227.995C226.38 33.0278 226.253 32.7411 226.253 32.7411C226.253 32.2122 226.451 31.0984 226.793 29.6823L228.878 21.3472H230.99L232.134 21.4045L232.27 21.4246C232.27 21.4246 232.362 21.5679 232.216 22.0897L231.907 23.4012H234.352L236.043 16.6156H233.59L233.336 17.6949C233.17 18.3041 232.935 18.6137 232.615 18.6137L231.46 18.6711H229.568L232.062 8.71052H235.921C236.339 8.71052 236.624 8.76212 236.84 8.88109C236.984 8.94703 237.179 9.0402 237.078 9.60782L236.741 10.8979L236.494 11.9801H238.989L240.444 5.86957H225.002L224.247 8.71196H224.874C225.474 8.71196 225.884 8.82089 226.058 9.0316C226.203 9.21364 226.18 9.51321 226.135 9.72535L224.034 18.2081L220.611 31.7865C220.387 32.6365 219.736 33.0349 218.573 33.0349H218.189L217.514 35.8716H233.463L235.035 29.5318H232.342L232.164 30.5007Z" fill="#00007A"/>
<path fill-rule="evenodd" clip-rule="evenodd" d="M184.761 24.9321L188.431 17.5058L188.521 24.9321H184.761ZM187.112 33.0235H186.728L186.053 35.8716H195.129L195.892 33.0235H195.266C195.036 33.0235 194.572 33.0235 194.572 31.841L194.171 5.86673H191.606L181.216 26.6349L178.93 31.2217C178.098 32.7454 177.668 32.9504 177.577 32.9719L176.74 33.0565L176.003 35.8673H181.534L182.206 33.0192H181.599C181.032 33.0192 180.918 32.9117 180.918 32.9117V32.8759L183.351 27.7157H188.583L188.535 32.5892C188.362 32.9461 187.672 33.0235 187.112 33.0235Z" fill="#00007A"/>
<path fill-rule="evenodd" clip-rule="evenodd" d="M281.799 10.0178C282.017 9.17637 282.683 8.76929 283.841 8.76929H284.223L284.894 5.92117H277.259L276.598 8.76929H277.201C277.778 8.76929 278.211 8.88396 278.368 9.0875C278.48 9.23084 278.493 9.46162 278.406 9.78126L274.788 24.4963L268.785 6.25085L268.673 5.92117H263.478L262.728 8.76929H263.354C264.22 8.76929 264.571 8.93843 264.602 9.06744C264.643 9.39425 264.52 10.3761 264.055 12.1062L259.759 29.506C259.299 31.2905 258.984 32.2294 258.699 32.6508C258.522 32.9289 257.922 33.0894 257.049 33.0894H256.664L255.991 35.9304H263.624L264.301 33.0894H263.693C263.102 33.0894 262.674 32.9747 262.521 32.7712C262.41 32.6279 262.399 32.3971 262.481 32.0688L266.002 17.5788L272.107 35.9261H275.282L280.901 13.6213L281.799 10.0178Z" fill="#00007A"/>
<path fill-rule="evenodd" clip-rule="evenodd" d="M219.338 10.7287C219.771 10.3317 220.414 10.1353 221.312 10.1353H222.009L223.068 5.8653H209.206L208.142 10.1353H209.288C210.348 10.1353 210.63 10.3933 210.692 10.4707C210.793 10.5997 210.803 10.8592 210.717 11.2046L208.889 18.4045L202.179 44.3271C201.457 47.2612 200.814 49.106 200.21 49.9603C199.684 50.7042 198.941 51.0697 197.955 51.0697L197.73 51.0453L197.717 50.902V50.7587C197.717 50.2369 197.949 49.2837 198.197 48.256L198.476 47.1566H194.744L193.175 51.3263L192.165 54.0683L193.04 54.355L193.444 54.4797L193.561 54.5184L193.752 54.5772C194.747 54.8839 195.778 55.055 196.819 55.086H197.445C201.198 55.0674 204.074 54.0827 205.996 52.1648C207.979 50.3172 209.559 47.0319 210.701 42.4021L216.792 18.8689L218.834 11.6533C218.909 11.3035 219.084 10.9825 219.338 10.7287Z" fill="#00007A"/>
<path fill-rule="evenodd" clip-rule="evenodd" d="M141.336 14.7393L141.3 14.9515C141.028 16.5067 140.609 18.2826 140.056 20.4771C139.046 24.6081 138.01 27.8619 136.981 30.161L136.961 30.2126C135.617 33.1955 134.669 33.6413 134.219 33.6413C134.106 33.6446 133.995 33.6202 133.894 33.5702C133.793 33.5201 133.707 33.4461 133.642 33.3546C133.102 32.6651 132.539 30.1424 134.858 20.9702C135.855 16.7891 136.857 13.5941 137.853 11.4712L137.87 11.4182C138.864 9.27959 139.869 8.09849 140.7 8.09849C141.006 8.09849 141.244 8.34933 141.381 8.56004L141.399 8.58011C141.843 9.5505 141.831 11.6232 141.342 14.7436L141.336 14.7393ZM144.423 25.8236C145.047 24.225 145.563 22.5874 145.97 20.9215C147.136 16.0609 147.317 12.3513 146.517 9.5978C146.03 7.94082 145.272 6.78695 144.223 6.0717C143.612 5.63022 142.849 5.34784 141.85 5.21167H141.194C139.836 5.21167 138.506 5.60011 137.153 6.39277C135.911 7.20522 134.828 8.23483 133.956 9.43153C131.831 12.1549 130.149 15.9634 128.957 20.7452C127.767 25.4639 127.549 29.2824 128.295 32.0846C129.141 35.0818 130.862 36.5367 133.565 36.5367C135.036 36.5255 136.471 36.0881 137.695 35.2782C138.929 34.475 140.018 33.4709 140.917 32.3082C141.259 31.8782 141.567 31.4152 141.868 30.9752L142.238 30.4248C143.093 28.9882 143.817 27.4791 144.403 25.9154L144.423 25.8236Z" fill="#00007A"/>
<path fill-rule="evenodd" clip-rule="evenodd" d="M172.866 32.7096C172.731 32.5319 172.772 32.2351 172.822 32.0101L178.306 9.95186C178.478 9.25953 178.987 8.85245 179.807 8.76072L179.878 8.74065C180.031 8.712 180.188 8.70141 180.344 8.70912H180.731L181.409 5.86673H171.477L170.803 8.70912H171.417C172.006 8.70912 172.427 8.82235 172.584 9.02446C172.697 9.1678 172.711 9.4 172.623 9.72108L167.148 31.7707C167.004 32.2681 166.809 32.5433 166.415 32.7583C166.15 32.9112 165.854 33.0029 165.549 33.0264L165.198 33.0665L164.621 35.8716H173.964L174.645 33.0206H174.033C173.273 33.0206 172.978 32.8544 172.866 32.7096Z" fill="#00007A"/>
<path fill-rule="evenodd" clip-rule="evenodd" d="M160.744 13.5969C160.045 16.2759 159.034 18.1106 157.747 19.0366C157.027 19.5723 156.146 19.8524 155.246 19.8321H155.135L157.909 8.7091H158.765C159.609 8.7091 160.224 8.94561 160.586 9.40285C161.186 10.1625 161.242 11.573 160.744 13.5969ZM165.272 16.5396C165.76 15.5379 166.126 14.4823 166.364 13.3948C167.178 10.303 166.797 8.09131 165.238 6.81991L165.109 6.71384C164.299 6.18206 163.3 5.87101 162.121 5.77498L161.786 5.76494C161.661 5.76494 161.53 5.76494 161.353 5.74918C160.807 5.78071 160.26 5.79504 159.714 5.80794C159.169 5.82084 158.578 5.83518 158.031 5.86671H150.852L150.091 8.7091H150.722C151.319 8.7091 151.732 8.81804 151.895 9.02874C152.048 9.21078 152.027 9.51036 151.985 9.71533L146.443 31.8252C146.398 32.0394 146.306 32.2411 146.173 32.4157L146.159 32.4358C145.86 32.8142 145.242 33.022 144.415 33.022H144.118L143.339 35.8702H152.94L153.68 33.0923L153.132 33.0263C152.761 32.9877 152.392 32.9269 152.028 32.8443C152.008 32.7425 152.003 32.5032 152.142 32.0086L154.402 22.62H155.083L156.421 35.8702H162.603L163.235 33.1897L162.827 33.0464L162.427 32.8099C162.023 32.4157 161.863 31.6016 161.641 30.4606L161.53 29.9059L160.664 21.4146C161.279 21.0861 161.86 20.6961 162.395 20.2507C163.619 19.24 164.601 17.9726 165.272 16.5396Z" fill="#00007A"/>
<path fill-rule="evenodd" clip-rule="evenodd" d="M122.827 31.2719C122.593 32.1434 122.167 32.5275 121.422 32.5275L120.442 32.5792H118.494C116.979 32.5792 116.738 32.3154 116.738 32.3441C116.683 31.8295 117.041 30.2642 117.171 29.6794L122.14 9.95615C122.362 9.11333 123.024 8.70768 124.18 8.70768H124.563L125.244 5.8653H115.319L114.645 8.70768H115.259C115.845 8.70768 116.269 8.81949 116.423 9.02446C116.559 9.20076 116.52 9.49891 116.465 9.72108L110.981 31.7822C110.921 32.0534 110.789 32.3037 110.599 32.5075C110.47 32.6432 110.321 32.7578 110.156 32.8472C109.853 32.969 109.498 33.0206 108.951 33.0206H108.561L107.889 35.8702H124.509L126.202 29.0846H123.363L122.827 31.2719Z" fill="#00007A"/>
<path fill-rule="evenodd" clip-rule="evenodd" d="M106.515 16.1813H110.112L112.368 7.34452L111.985 7.18685C111.244 6.86721 110.473 6.58627 109.502 6.26376L108.867 6.05305C106.903 5.48759 104.87 5.1981 102.826 5.19302C92.3661 5.19302 85.0754 13.2199 81.1342 29.0229C79.2783 36.2457 79.196 42.1197 80.8672 46.4743C82.6105 50.8647 85.947 53.0879 90.7873 53.0879C93.3488 53.0879 96.8643 52.3898 101.237 51.0181L101.497 50.9378L104.335 39.5697H104.275L106.448 30.8777H95.0474L94.0718 34.7134H94.6895C95.691 34.7134 96.3505 34.8725 96.6493 35.1807C96.8773 35.4143 96.9682 35.7956 96.9379 36.4392L93.9376 48.6645C93.2276 48.9512 92.6186 49.0873 92.1251 49.0873C90.8623 49.0873 89.9012 48.6573 89.2157 47.7844C87.2141 45.2444 87.4291 39.0107 89.8608 29.2637C91.7282 21.8675 93.5826 16.7704 95.5438 13.6872C97.4329 10.7158 99.7549 9.20218 102.433 9.20218C104.406 9.20218 105.773 9.67089 106.497 10.5883C107.243 11.5329 107.363 13.025 106.878 15.0102L106.515 16.1813Z" fill="#00007A"/>
<path fill-rule="evenodd" clip-rule="evenodd" d="M294.523 12.6495H297.196L298.656 6.68661L298.294 6.52321C298.056 6.41427 297.824 6.31537 297.597 6.22363C295.93 5.53704 294.434 5.20593 293.021 5.20593C290.856 5.20593 288.947 5.99429 287.332 7.55524C285.717 9.11619 284.599 11.0971 283.954 13.66C283.029 17.2764 283.938 20.513 286.658 23.2722L287.758 24.31C289.111 25.7032 289.547 27.2642 289.088 29.076C288.321 32.1807 286.915 33.7516 284.928 33.7516C284.182 33.7516 283.613 33.6155 283.245 33.3446C283.084 33.2288 282.942 33.0885 282.825 32.9289C282.304 32.2007 282.264 30.9623 282.711 29.2508L282.864 28.6531H280.191L278.542 35.3126L278.948 35.4674C280.051 35.8816 281.194 36.1818 282.359 36.3633C282.526 36.392 282.695 36.4116 282.864 36.422C283.414 36.5207 283.974 36.561 284.532 36.5424C286.898 36.5663 289.178 35.6666 290.882 34.0369C292.693 32.4172 293.959 30.194 294.659 27.4218C295.542 23.8212 294.58 20.533 291.807 17.6534L290.747 16.5497C289.471 15.1865 289.002 13.6829 289.361 12.1177C290.011 9.41863 291.283 8.04975 293.131 8.04975C293.833 8.04975 294.314 8.22463 294.601 8.59157C295.066 9.18212 295.089 10.3833 294.668 12.0546L294.523 12.6495Z" fill="#00007A"/>
<path d="M60.4774 0.128906H0.0390625V60.1602H60.4774V0.128906Z" fill="#EF3E42"/>
<path fill-rule="evenodd" clip-rule="evenodd" d="M19.4994 46.3181C8.76685 46.3181 5.89357 39.5884 7.73645 30.0062C9.46821 20.9645 15.9753 13.9639 26.0036 13.9639C29.9001 13.9639 32.4977 14.6648 34.5643 15.9004L30.88 21.3959C29.9607 20.8555 28.607 20.3696 25.9502 20.3696C21.2326 20.3696 18.1992 23.2235 16.8989 30.1166C15.6001 36.8979 16.7892 40.0743 20.0954 40.0743C20.6482 40.0753 21.1973 39.9852 21.7204 39.8077L23.1303 32.3211H20.2008L21.2326 26.9918H32.5612L29.2535 44.3816C26.9243 45.62 24.0511 46.3181 19.4994 46.3181Z" fill="white"/>
<path fill-rule="evenodd" clip-rule="evenodd" d="M32.5039 46.2665L33.6974 40.0728C36.1925 39.8607 38.4121 38.0274 39.0081 34.7464L42.9132 14.3925H52.0208L48.3365 33.723C46.762 42.0108 40.4195 46.1045 32.5039 46.2665Z" fill="white"/>
<path fill-rule="evenodd" clip-rule="evenodd" d="M49.6204 45.7934C49.2063 45.7926 48.8016 45.6698 48.4576 45.4407C48.1136 45.2116 47.8457 44.8863 47.6877 44.506C47.5298 44.1257 47.4888 43.7074 47.57 43.304C47.6513 42.9006 47.851 42.5302 48.1441 42.2395C48.4372 41.9488 48.8104 41.7509 49.2167 41.6708C49.6229 41.5906 50.044 41.6319 50.4267 41.7893C50.8093 41.9468 51.1364 42.2133 51.3667 42.5553C51.5969 42.8973 51.7199 43.2994 51.7202 43.7107C51.7202 43.9845 51.6659 44.2555 51.5603 44.5084C51.4548 44.7613 51.3 44.991 51.105 45.1844C50.91 45.3779 50.6785 45.5312 50.4238 45.6357C50.169 45.7402 49.8961 45.7938 49.6204 45.7934ZM49.6204 41.155C49.1112 41.155 48.6134 41.305 48.19 41.5861C47.7665 41.8671 47.4366 42.2666 47.2417 42.7339C47.0469 43.2013 46.996 43.7155 47.0955 44.2116C47.1949 44.7077 47.4403 45.1633 47.8005 45.5209C48.1607 45.8784 48.6196 46.1219 49.1191 46.2204C49.6186 46.3189 50.1363 46.268 50.6067 46.0743C51.0771 45.8805 51.4791 45.5525 51.7618 45.1318C52.0445 44.7111 52.1953 44.2166 52.195 43.7107C52.1952 43.375 52.1287 43.0424 51.9994 42.7322C51.87 42.4219 51.6804 42.14 51.4413 41.9027C51.2021 41.6653 50.9182 41.4771 50.6058 41.3488C50.2934 41.2205 49.9585 41.1547 49.6204 41.155Z" fill="white"/>
<path fill-rule="evenodd" clip-rule="evenodd" d="M50.3238 43.3051L50.1102 43.4656C49.9241 43.5096 49.7326 43.5265 49.5416 43.5158H49.253L49.3973 42.8249H49.9847L50.2892 42.8693L50.4046 43.0772L50.3238 43.3051ZM50.5662 42.458C50.4181 42.4105 50.2628 42.3892 50.1073 42.3949H48.9528L48.4131 44.9635H48.9442L49.1707 43.8999H49.3886L49.6527 43.9515C49.7587 44.0406 49.8394 44.1558 49.8865 44.2855C50.0212 44.5932 50.1117 44.8192 50.1578 44.9635H50.7279C50.6153 44.6715 50.4827 44.3875 50.331 44.1135L50.1405 43.8741C50.3641 43.8571 50.5748 43.7633 50.7365 43.609C50.8701 43.461 50.9405 43.2672 50.9328 43.0686L50.8318 42.6787L50.5662 42.458Z" fill="white"/>
</g>
<defs>
<clipPath id="clip0_1738_431">
<rect width="298.617" height="60.0313" fill="white" transform="translate(0.0390625 0.128906)"/>
</clipPath>
</defs>
</svg>
