<svg width="173" height="68" viewBox="0 0 173 68" fill="none" xmlns="http://www.w3.org/2000/svg">
<path d="M161.905 20.6924C161.905 20.6924 154.037 29.0706 152.678 30.5185V20.6924H146.348V47.5531H152.678V38.4912C152.876 38.289 154.164 36.9626 154.69 36.4227C155.285 37.2699 162.506 47.5531 162.506 47.5531H170.637C170.637 47.5531 159.594 32.4282 159.145 31.8111C159.677 31.277 170.235 20.6924 170.235 20.6924H161.905ZM120.329 29.6233L120.292 30.1235H126.547L126.641 29.7811C127.049 28.2899 127.805 25.5166 131.979 25.5166C133.002 25.5166 136.323 25.9152 137.498 30.7277H130.334V36.1258H137.779C137.467 38.4526 136.301 42.7288 131.942 42.7288C129.169 42.7288 127.239 41.0424 126.649 38.1032L126.573 37.7292H120.231L120.336 38.2808C121.537 44.6033 125.807 48.2297 132.052 48.2297C139.68 48.2297 144.418 42.8386 144.418 34.159C144.418 25.5669 139.535 20.0157 131.979 20.0157C124.468 20.0157 120.674 24.9954 120.329 29.6233M114.134 20.6924C114.134 20.6924 109.669 32.7016 109.011 34.4721C108.185 32.7624 102.356 20.6924 102.356 20.6924H95.1778C95.1778 20.6924 105.732 40.783 105.963 41.2224C105.199 42.5897 104.874 42.8001 103.706 42.8001C103.098 42.8001 102.193 42.5967 101.79 42.4144L101.131 42.1164V47.8055L101.485 47.8943C102.086 48.0451 103.788 48.2297 104.919 48.2297C107.685 48.2297 109.642 47.4187 111.458 43.2734C111.458 43.2721 121.285 20.6924 121.285 20.6924H114.134ZM76.211 23.6005C73.8761 26.0944 72.6426 29.7453 72.6426 34.1594C72.6426 42.8379 77.3533 48.2302 84.9357 48.2302C91.1781 48.2302 95.4469 44.6038 96.6477 38.2813L96.753 37.7285H90.4135L90.3375 38.1025C89.7435 41.0429 87.8143 42.7281 85.0409 42.7281C80.564 42.7281 78.968 38.3386 78.968 34.2295C78.968 27.8054 82.1062 25.5159 85.0409 25.5159C89.1846 25.5159 89.9388 28.2904 90.3445 29.7793L90.4392 30.1228H96.6922L96.6547 29.6226C96.3075 24.9959 92.5134 20.015 85.007 20.015C81.4468 20.015 78.4056 21.255 76.211 23.6005Z" fill="#717073"/>
<path d="M44.7651 38.848C44.4997 39.1133 35.54 47.9402 34.9121 48.5713C36.1316 49.4478 41.3673 52.7014 48.3686 50.3009C48.9006 50.1104 49.8406 49.8709 50.3913 49.6067L50.9502 49.0072C52.6421 47.0415 54.8636 44.391 56.1123 38.848C54.0931 37.9937 51.7254 37.4327 49.56 37.4327C47.6951 37.4327 45.9811 37.8476 44.7651 38.848Z" fill="url(#paint0_linear_1738_377)"/>
<path d="M29.4357 12.2678C29.4357 12.2678 27.0528 12.9094 27.0493 12.9106L25.6953 13.3979C23.689 14.2078 21.8989 15.394 20.2188 16.7356C28.4208 14.2954 34.247 19.073 34.3382 19.1501C34.3382 19.1501 44.4823 27.2969 44.7652 27.5797C47.2709 30.0865 53.0854 30.2969 55.798 28.1968C55.1432 25.3779 52.5405 20.4274 49.7461 18.0387L48.9709 17.3281C46.8652 15.5634 45.0996 14.4182 42.3917 13.3254L40.9583 12.8229C40.9583 12.8229 38.6795 12.2351 38.6783 12.2351C37.1899 11.9289 35.5027 11.7957 33.9757 11.7957C32.4522 11.7957 30.9252 11.9534 29.4357 12.2678Z" fill="url(#paint1_linear_1738_377)"/>
<path d="M16.9561 43.4736C16.9561 44.9379 17.1735 46.5472 17.7301 48.2593C17.9335 48.867 18.1872 49.4817 18.4819 50.1105L18.517 50.1899C20.6052 52.2234 23.0196 53.8116 25.7041 54.8962L27.0627 55.3812L29.4444 56.0274C30.934 56.3395 32.4645 56.4984 33.9915 56.4984C35.5162 56.4984 37.0443 56.3967 38.5316 56.0859C38.5316 56.0859 40.9647 55.4735 40.9682 55.4723L42.5782 54.8962C44.5834 54.0851 46.5921 52.9012 48.2723 51.5538C40.0691 53.9951 33.7273 49.2223 33.6583 49.1685L33.6443 49.1568C33.6443 49.1568 20.2579 35.7791 19.5505 35.0732C18.9051 35.9754 16.9561 39.0712 16.9561 43.4736" fill="url(#paint2_linear_1738_377)"/>
<path d="M19.592 17.9896C19.0682 18.1813 18.5245 18.4068 17.9809 18.6674L17.9341 18.685C15.8961 20.7746 14.3095 23.1925 13.2268 25.8723L12.7381 27.2256L12.0927 29.612C11.7805 31.0951 11.625 32.6214 11.625 34.1488C11.625 35.6763 11.7805 37.2072 12.0927 38.6926L12.7381 41.0755L13.2268 42.4312C14.0394 44.4413 15.2238 46.2317 16.5719 47.9064C16.0762 46.2469 15.847 44.6692 15.847 43.2329C15.847 37.5777 18.908 33.873 18.9501 33.8239L18.9665 33.8053C18.9665 33.8053 32.354 20.4263 33.0602 19.7216C32.1553 19.0753 29.0545 17.1248 24.6641 17.1237C23.1207 17.1237 21.4172 17.3656 19.592 17.9896" fill="url(#paint3_linear_1738_377)"/>
<path d="M60.2224 32.3793V32.2309C61.3881 29.7217 63.5792 29.6715 65.9924 31.9574C65.9924 28.1312 65.1705 25.0938 63.3278 23.3782C60.7216 21.0654 57.995 22.5718 55.7665 19.4258C55.5034 16.6817 57.394 15.5189 60.6421 16.2891C58.7035 13.0074 56.4622 10.7905 54.0255 10.2225C53.4771 10.0998 52.9814 10.0682 52.5055 10.1232C51.5854 10.1687 50.7903 10.4434 50.0198 10.6701C49.6211 10.7905 49.2189 10.9155 48.8225 10.995C48.5489 11.0406 48.2753 11.0897 47.9748 11.0897C47.2464 11.1387 46.4432 11.0125 45.4973 10.5719C43.9317 8.34212 44.9302 6.46172 47.9748 5.49173C48.052 5.47539 48.1058 5.45082 48.1526 5.4181C48.1058 5.39705 48.052 5.36902 47.9748 5.35149C46.311 4.40019 44.6928 3.72821 43.2243 3.40682C41.8037 3.10881 40.5106 3.08427 39.3706 3.43139C36.7328 4.32659 36.1599 6.51549 34.0436 7.53224C33.5947 7.7613 33.0276 7.93193 32.3518 8.00789H32.2033C29.6907 6.83571 29.6404 4.64913 31.9262 2.237C28.9938 2.237 26.5034 2.7372 24.7133 3.77965C24.1918 4.1022 23.7195 4.47501 23.3173 4.89806C21.2302 7.29033 22.2965 9.77024 20.0832 11.8855C19.8856 12.0865 19.6436 12.2689 19.3875 12.4594H19.2659H19.2379C18.7912 12.4862 18.3949 12.4594 18.0196 12.3869C16.2517 11.9615 15.6075 10.2225 16.2517 7.586C16.0085 7.73325 15.7583 7.88284 15.5081 8.03243C12.6225 9.84854 10.6547 11.9101 10.1332 14.1481C9.43635 17.5863 12.1478 19.2014 10.4582 22.7542C8.1923 24.3704 6.25257 23.3268 5.30317 20.1223C3.39034 23.453 2.59059 26.5091 3.31551 28.8979C4.43211 32.1584 7.4709 32.2309 7.91637 35.9356V36.0875C6.77404 38.5978 4.55955 38.6703 2.14746 36.3867C2.14746 40.1895 2.99046 43.2503 4.83198 44.967C7.43933 47.2518 10.1671 45.75 12.3991 48.8949C12.6599 51.6366 10.7704 52.7983 7.51883 52.0281C9.46441 55.3355 11.7011 57.5746 14.1389 58.1239C14.6358 58.2256 15.0848 58.2478 15.5081 58.2478C16.4294 58.1975 17.2233 57.9498 18.0196 57.702C18.4183 57.5746 18.817 57.4531 19.2379 57.3491H19.2659C19.5384 57.3035 19.8143 57.2486 20.0832 57.2299C20.8748 57.1831 21.7131 57.3012 22.6952 57.7628C24.2515 60.0102 23.2249 61.9151 20.0832 62.8769C20.0832 62.8769 20.061 62.8991 20.0353 62.8991C20.061 62.9271 20.0832 62.9271 20.0832 62.9435C21.7271 63.8691 23.2717 64.5107 24.7133 64.8636C26.2274 65.2119 27.5978 65.2388 28.8172 64.8636C31.4281 63.9941 32.008 61.8298 34.0436 60.8083C34.5394 60.5582 35.1111 60.3865 35.8349 60.2895H35.9834C38.4995 61.4569 38.551 63.6482 36.2593 66.058C39.0678 66.058 41.46 65.6104 43.2243 64.6427C43.8475 64.291 44.397 63.8913 44.8694 63.3946C46.9296 61.0316 45.9135 58.5984 47.9748 56.5077C48.2262 56.2587 48.501 56.0332 48.8225 55.8076C48.7991 55.8333 48.7757 55.8333 48.7757 55.8333C48.7757 55.8076 48.7991 55.8076 48.8225 55.7866C48.8225 55.7866 48.8471 55.762 48.8705 55.762C48.8552 55.7761 48.8412 55.7912 48.8225 55.8076C49.2446 55.7866 49.6503 55.8076 50.0198 55.859C51.88 56.2096 52.5804 57.9755 51.9326 60.688C52.1314 60.5851 52.3302 60.4601 52.5055 60.3327C55.4941 58.4944 57.5086 56.3814 58.0336 54.0943C58.7293 50.6362 56.012 49.048 57.6828 45.4871C57.6828 45.514 57.6559 45.542 57.6559 45.5619C59.9219 43.9713 61.8593 45.0173 62.8087 48.1996C64.7238 44.8911 65.5224 41.8327 64.7952 39.4451C63.7008 36.1868 60.6421 36.0875 60.2224 32.3793M52.5055 18.0783C56.2646 22.3837 58.5527 28.0061 58.5527 34.1475C58.5527 40.2912 56.2646 45.9125 52.5055 50.2132C51.7362 51.1131 50.9119 51.9288 50.0198 52.6989C49.6211 53.0227 49.2189 53.3476 48.8225 53.6689C48.5489 53.8699 48.2753 54.0698 47.9748 54.2696C46.5098 55.2899 44.9185 56.1582 43.2243 56.8559C40.3878 57.9989 37.2777 58.6241 34.0436 58.6241C30.7593 58.6241 27.5978 57.9755 24.7133 56.7799C23.0963 56.0834 21.5284 55.2396 20.0832 54.2194C19.8143 54.0195 19.5384 53.8209 19.2659 53.6222L19.2379 53.5977C18.817 53.2728 18.4183 52.9549 18.0196 52.5996C17.1228 51.8318 16.2786 50.9857 15.5081 50.0893C11.8227 45.8143 9.58717 40.2164 9.58717 34.1475C9.58717 28.0517 11.8227 22.4854 15.5081 18.1777C16.2786 17.2836 17.1228 16.4398 18.0196 15.6697C18.4183 15.3191 18.817 14.9942 19.2379 14.6728C19.2379 14.6728 19.2659 14.6728 19.2659 14.6482C19.5384 14.4461 19.8143 14.2509 20.0832 14.0534C21.5284 13.0787 23.0963 12.2092 24.7133 11.5396C27.5978 10.3464 30.7593 9.67323 34.0436 9.67323C37.2777 9.67323 40.3878 10.3183 43.2243 11.4625C44.9185 12.1391 46.5098 13.0074 47.9748 14.0242C48.2753 14.2018 48.5489 14.425 48.8225 14.6272C49.2189 14.9241 49.6211 15.2408 50.0198 15.5703L52.5055 18.0783" fill="#C6C6C7"/>
<defs>
<linearGradient id="paint0_linear_1738_377" x1="57.2612" y1="34.5461" x2="27.3792" y2="60.2454" gradientUnits="userSpaceOnUse">
<stop stop-color="#D4D4D5"/>
<stop offset="0.869568" stop-color="#717073"/>
<stop offset="1" stop-color="#717073"/>
</linearGradient>
<linearGradient id="paint1_linear_1738_377" x1="31.9047" y1="14.3387" x2="56.03" y2="41.0779" gradientUnits="userSpaceOnUse">
<stop stop-color="#FFF799"/>
<stop offset="1" stop-color="#FFF200"/>
</linearGradient>
<linearGradient id="paint2_linear_1738_377" x1="40.5428" y1="52.767" x2="13.3748" y2="29.0104" gradientUnits="userSpaceOnUse">
<stop stop-color="#AAA9AB"/>
<stop offset="1" stop-color="#717073"/>
</linearGradient>
<linearGradient id="paint3_linear_1738_377" x1="11.3259" y1="42.6546" x2="31.8227" y2="22.3603" gradientUnits="userSpaceOnUse">
<stop stop-color="#C5CA74"/>
<stop offset="0.953415" stop-color="#9FA617"/>
<stop offset="1" stop-color="#9FA617"/>
</linearGradient>
</defs>
</svg>
