<svg width="228" height="78" viewBox="0 0 228 78" fill="none" xmlns="http://www.w3.org/2000/svg">
<g clip-path="url(#clip0_1738_340)">
<path d="M65.3181 76.6216H60.0693L49.2871 50.7307H56.8181L62.8868 67.2144H62.9939L68.9528 50.7307H76.0502L65.3181 76.6216Z" fill="#002F6C"/>
<path d="M116.051 57.4235C114.75 56.6602 113.509 56.4956 112.803 56.4956C111.286 56.4956 109.88 57.0398 108.089 58.5093V76.4596H100.772V50.7293H106.951L107.764 53.3975C110.099 51.3294 112.095 50.1348 114.806 50.1348C116.053 50.1348 117.573 50.5144 118.706 51.3307L116.051 57.4235Z" fill="#002F6C"/>
<path d="M126.817 77.0039C122.429 77.0039 119.123 75.9698 116.683 74.4473L118.962 69.1165C121.128 70.6363 123.677 71.5084 126.114 71.5084C128.606 71.5084 130.177 70.6948 130.177 69.1695C130.177 65.0905 118.309 66.7246 118.309 58.0222C118.309 53.2886 122.102 50.1348 128.331 50.1348C131.749 50.1348 134.131 50.6232 136.241 51.4396V57.531C133.914 56.6031 131.422 55.7908 128.66 55.7908C126.546 55.7908 125.408 56.3867 125.408 57.6398C125.408 61.1747 137.488 59.8699 137.488 68.8457C137.488 74.7739 132.288 77.0039 126.817 77.0039Z" fill="#002F6C"/>
<path d="M148.886 77.0038C144.114 77.0038 142.327 74.2854 142.327 70.8009V57.1772H137.613V51.4083H142.327V44.7481L149.642 42.5712V51.4069H157.66L156.216 57.1758H149.642V68.0293C149.642 69.9287 150.399 70.8539 152.08 70.8539C153.648 70.8539 155.275 70.1491 156.25 69.5491L158.148 74.1221C155.226 76.2433 151.428 77.0038 148.886 77.0038Z" fill="#002F6C"/>
<path d="M175.224 76.4623L174.086 74.2296C172.407 75.7521 170.136 77.0039 166.825 77.0039C161.949 77.0039 158.271 73.7411 158.271 68.6226C158.271 63.1883 162.655 60.3583 169.152 60.1406L173.49 59.9814C173.49 59.8698 173.49 59.6549 173.49 59.5433C173.49 56.8275 171.323 55.6846 168.778 55.6846C166.176 55.6846 163.95 56.4452 162.221 57.4248L159.993 52.9634C163.518 50.6749 166.878 50.1361 170.346 50.1361C177.175 50.1361 180.967 52.9076 180.967 59.7079V76.495L175.224 76.4623ZM173.436 64.8197L170.241 64.9258C167.098 65.0374 165.581 66.1272 165.581 68.0824C165.581 70.0376 166.987 71.2893 169.485 71.2893C171.434 71.2893 172.733 70.6363 173.437 70.0934V64.8197H173.436Z" fill="#002F6C"/>
<path d="M191.559 76.4936V56.8656V35.1505L184.193 37.3859V56.8656V76.4936H191.559Z" fill="#002F6C"/>
<path d="M12.0333 77.0039C6.87802 77.0039 3.19722 75.3167 0.09375 73.4105L3.35036 67.277C5.82094 68.9559 9.33099 70.8513 11.6091 70.8513C13.9537 70.8513 17.0151 70.0812 17.0151 67.3518C17.0151 62.6183 8.56122 61.7733 4.22449 56.8262C2.87468 55.2479 1.95041 53.2329 1.95041 50.4586C1.95041 45.0216 6.23022 40.2296 14.0865 40.2296C17.8798 40.2296 21.0185 41.2133 23.0825 42.4093L22.9741 49.2762C19.9397 47.6449 17.0571 46.2122 14.1298 46.2122C11.475 46.2122 9.72536 47.3972 9.72536 49.4626C9.72536 55.6656 25.0855 55.1363 25.0855 66.398C25.0855 72.9248 19.3421 77.0039 12.0333 77.0039Z" fill="#002F6C"/>
<path d="M81.9579 65.6089C82.1191 69.0743 85.3568 71.1342 88.7557 71.1342C91.2385 71.1342 93.1317 70.6485 95.9994 69.292L97.6731 73.9534C94.1021 76.1725 90.592 76.9318 87.5685 76.9318C78.399 76.9318 74.6152 70.4267 74.6152 63.7108C74.6152 56.4507 78.9357 50.1633 86.5982 50.1633C93.6142 50.1633 98.474 55.4193 98.474 63.387C98.474 63.8782 98.474 64.6306 98.474 65.6089H81.9579ZM86.3854 55.5323C83.4703 55.5323 81.7966 58.2371 81.7966 60.5706H91.0257C90.8617 58.131 89.5133 55.5323 86.3854 55.5323Z" fill="#002F6C"/>
<path d="M34.1816 65.6089C34.3455 69.0743 37.5845 71.1342 40.9862 71.1342C43.4689 71.1342 45.3568 70.6485 48.2285 69.292L49.9022 73.9534C46.3271 76.1725 42.8171 76.9318 39.7963 76.9318C30.6214 76.9318 26.8457 70.4267 26.8457 63.7108C26.8457 56.4507 31.1648 50.1633 38.8219 50.1633C45.8392 50.1633 50.6991 55.4193 50.6991 63.387C50.6991 63.8782 50.6991 64.6306 50.6991 65.6089H34.1816ZM38.6104 55.5323C35.6953 55.5323 34.0243 58.2371 34.0243 60.5706H43.2548C43.0922 58.131 41.7383 55.5323 38.6104 55.5323Z" fill="#002F6C"/>
<path d="M222.311 28.5325C222.783 28.3828 223.238 28.1352 223.681 27.8182C224.363 26.0562 224.993 24.0942 225.557 21.9132H225.556C226.301 19.0233 226.752 16.415 226.973 14.0707C227.194 11.6937 227.179 9.59023 226.991 7.73438C226.789 5.7928 226.281 3.81313 225.126 2.67567C223.973 1.53821 221.999 1.05928 220.057 0.891923C218.212 0.754503 216.118 0.776272 213.762 1.03343C214.26 1.25929 214.703 1.53685 215.07 1.86611C216.225 2.9301 216.764 4.73834 216.999 6.51392C217.169 7.80513 217.243 9.22423 217.191 10.7767C217.11 13.287 216.711 16.147 215.872 19.3933C215.227 21.8982 214.466 24.0711 213.631 25.961C214.925 26.761 216.165 27.3978 217.34 27.8848C218.989 28.5719 220.822 29.0073 222.311 28.5325Z" fill="#002F6C"/>
<path d="M194.999 23.1581C194.893 23.6398 194.88 24.1663 194.931 24.7147C196.109 26.1814 197.481 27.7039 199.076 29.2808C201.207 31.3802 203.244 33.0728 205.166 34.4334C207.1 35.8063 208.916 36.8417 210.596 37.6145C212.364 38.4363 214.333 38.9615 215.89 38.5302C217.446 38.0934 218.85 36.609 219.964 35.0062C221.026 33.4796 222.055 31.6442 223.006 29.4604C222.555 29.7856 222.089 30.0428 221.61 30.1911C220.118 30.6673 218.289 30.2292 216.638 29.5448C215.439 29.0495 214.178 28.4033 212.86 27.5828C210.741 26.2576 208.474 24.4793 206.09 22.1309V22.1268C204.255 20.3145 202.765 18.5702 201.55 16.8967C200.215 17.6191 199.05 18.377 198.043 19.1553C196.63 20.2519 195.335 21.622 194.999 23.1581Z" fill="#002F6C"/>
<path d="M213.276 2.06065C212.931 1.74499 212.505 1.47832 212.036 1.26062C210.162 1.54362 208.144 1.96949 205.958 2.57768C203.103 3.37363 200.629 4.28387 198.497 5.2635C196.356 6.25266 194.559 7.30712 193.059 8.39016C191.461 9.53987 189.988 10.9848 189.58 12.5713C189.175 14.1577 189.766 16.1374 190.602 17.9198C191.389 19.5961 192.454 21.3975 193.852 23.3037C193.796 22.7431 193.811 22.2084 193.919 21.7172C194.256 20.1866 195.548 18.8096 196.961 17.7157C197.987 16.9252 199.171 16.1551 200.538 15.419C202.739 14.2353 205.416 13.1536 208.635 12.2556C211.109 11.5672 213.358 11.144 215.403 10.925C215.449 9.38884 215.375 7.98334 215.206 6.70846C214.972 4.93424 214.431 3.12192 213.276 2.06065Z" fill="#002F6C"/>
</g>
<defs>
<clipPath id="clip0_1738_340">
<rect width="227.041" height="76.1935" fill="white" transform="translate(0.09375 0.810303)"/>
</clipPath>
</defs>
</svg>
