<svg width="247" height="39" viewBox="0 0 247 39" fill="none" xmlns="http://www.w3.org/2000/svg">
<g clip-path="url(#clip0_1738_331)">
<path d="M40.1052 14.5773H0.412109V24.231H40.1052V14.5773Z" fill="#EF7622"/>
<path d="M40.1052 29.0245H0.412109V38.6782H40.1052V29.0245Z" fill="#EF4F24"/>
<path d="M40.1052 0.130005H0.412109V9.78369H40.1052V0.130005Z" fill="#FBAE18"/>
<path d="M214.53 31.7542L235.995 6.98746H214.53V0.196594H246.694V6.98746L224.965 31.7542H246.694V38.6116H214.53V31.7542Z" fill="#231F20"/>
<path d="M105.292 38.6116L88.6484 0.196594H97.7627L109.188 28.8248L120.944 0.196594H129.53L113.547 38.6116H105.292Z" fill="#231F20"/>
<path d="M190.622 7.85296L185.074 22.6331H196.434L190.622 7.85296ZM170.544 38.6116L186.659 0.196594H195.179L211.426 38.6782H202.51L199.009 29.4905H182.432L179.064 38.6782H170.544V38.6116Z" fill="#221F1F"/>
<path d="M140.56 7.05404V16.7077H150.401C153.042 16.7077 154.892 16.3083 155.948 15.5759C157.005 14.8436 157.533 13.5786 157.533 11.8476C157.533 10.05 157.005 8.85162 156.014 8.18585C155.156 7.58666 153.769 7.18719 151.721 7.12062H140.56M167.44 38.6116H158.458L156.345 34.8167L154.231 31.0218L150.004 23.4986H140.56V38.6116H132.568V9.7837V7.05404V0.196594H147.693C147.891 0.196594 148.155 0.196594 148.353 0.196594H152.316C153.439 0.196594 154.561 0.263171 155.552 0.396326C156.543 0.52948 157.467 0.662634 158.326 0.928943C159.185 1.12867 159.911 1.46156 160.638 1.79445C161.364 2.12733 161.958 2.52679 162.487 2.99283C163.015 3.45887 163.477 3.99149 163.874 4.59069C164.27 5.18988 164.6 5.85565 164.864 6.588C165.129 7.32035 165.327 8.11927 165.459 8.98478C165.591 9.85028 165.657 10.7824 165.657 11.781C165.657 12.5134 165.591 13.2457 165.525 13.9115C165.459 14.5773 165.327 15.243 165.195 15.8422C165.063 16.4414 164.864 17.0406 164.6 17.5732C164.336 18.1058 164.072 18.6385 163.742 19.1045C163.411 19.5705 163.015 19.97 162.619 20.3695C162.223 20.7689 161.76 21.1018 161.298 21.3681C160.836 21.6344 160.307 21.9007 159.779 22.167C159.251 22.3668 158.656 22.5665 157.996 22.6997L167.44 38.6116Z" fill="#231F20"/>
<path d="M85.5446 6.98745H63.3535V15.7756H85.5446V22.6331H63.3535V31.8207H85.5446V38.6116H54.2393V0.130005L85.5446 0.196582V6.98745Z" fill="#231F20"/>
</g>
<defs>
<clipPath id="clip0_1738_331">
<rect width="246.282" height="38.4816" fill="white" transform="translate(0.412109 0.130005)"/>
</clipPath>
</defs>
</svg>
