<svg width="176" height="63" viewBox="0 0 176 63" fill="none" xmlns="http://www.w3.org/2000/svg">
<g clip-path="url(#clip0_1738_370)">
<path d="M20.5961 0.590458C24.7789 0.590458 26.0932 3.59061 27.1959 6.58606C27.6591 7.85807 38.5288 37.6245 38.8556 38.5179C38.9426 38.7672 38.8838 39.1763 38.5006 39.3244C38.115 39.4702 32.4674 41.6662 32.1546 41.7838C31.8419 41.9037 31.4916 41.7297 31.3787 41.417C31.2612 41.109 28.917 34.6196 28.6537 33.8954H12.5431C12.2892 34.6196 9.91684 41.1231 9.81104 41.417C9.70288 41.7156 9.36665 41.9178 9.03278 41.7838C8.69891 41.6521 3.03013 39.4561 2.69155 39.3244C2.36708 39.1974 2.21896 38.8283 2.33181 38.5179C2.73152 37.4035 13.4366 8.11435 13.9821 6.58606C15.0448 3.63528 16.4038 0.590458 20.5961 0.590458ZM1.47127 53.8526C1.13269 53.8526 0.862305 54.1347 0.862305 54.478V61.4352C0.862305 61.7785 1.13269 62.056 1.47127 62.056H39.7044C40.05 62.056 40.3204 61.7785 40.3204 61.4352V54.478C40.3204 54.1347 40.05 53.8526 39.7044 53.8526H1.47127ZM20.5584 10.3104L15.113 26.6631H26.0932L20.629 10.3104H20.5584ZM102.27 37.1237C101.469 37.3941 100.939 37.4599 100.309 37.4599C99.0068 37.4599 98.285 36.945 98.285 35.6095C98.285 34.2176 99.202 33.752 101.003 33.752C101.443 33.752 101.875 33.8155 102.077 33.886V34.883C102.077 35.9575 102.136 36.6628 102.27 37.1237ZM106.9 38.7178C105.938 37.2577 105.687 36.3971 105.687 34.5561V30.8177C105.687 28.8051 105.451 28.0785 104.92 27.345C104.179 26.3057 102.945 25.8543 100.676 25.8543C99.0703 25.8543 97.5114 26.0283 96.0019 26.4139L96.5474 29.0707C97.5678 28.9273 98.6376 28.8051 99.3924 28.8051C101.802 28.8051 102.077 29.153 102.077 30.9611V31.6359C101.541 31.4925 100.939 31.389 100.241 31.389C96.6133 31.389 94.697 33.1642 94.697 36.1032C94.697 38.8589 96.7449 40.3613 99.2396 40.3613C100.171 40.3613 101.144 40.1897 101.915 39.8746C102.381 39.6724 102.583 39.5525 103.185 39.1622C103.547 39.6888 104.274 40.2273 104.57 40.3284L106.9 38.7178ZM142.786 37.1237C141.98 37.3941 141.46 37.4599 140.826 37.4599C139.518 37.4599 138.787 36.945 138.787 35.6095C138.787 34.2176 139.716 33.752 141.521 33.752C141.961 33.752 142.396 33.8155 142.594 33.886V34.883C142.594 35.9575 142.65 36.6628 142.786 37.1237ZM147.421 38.7178C146.452 37.2577 146.205 36.3971 146.205 34.5561V30.8177C146.205 28.8051 145.965 28.0785 145.429 27.345C144.698 26.3057 143.461 25.8543 141.185 25.8543C139.582 25.8543 138.013 26.0283 136.504 26.4139L137.042 29.0707C138.065 28.9273 139.137 28.8051 139.913 28.8051C142.309 28.8051 142.594 29.153 142.594 30.9611V31.6359C142.058 31.4925 141.46 31.389 140.748 31.389C137.115 31.389 135.192 33.1642 135.192 36.1032C135.192 38.8589 137.245 40.3613 139.751 40.3613C140.694 40.3613 141.658 40.1897 142.422 39.8746C142.895 39.6724 143.09 39.5525 143.692 39.1622C144.058 39.6888 144.785 40.2273 145.084 40.3284L147.421 38.7178ZM175.668 40.0486C175.668 40.0486 173.679 35.8093 173.192 34.8453C172.645 33.7591 172.137 33.009 171.018 32.7386V32.6775C171.768 32.5341 172.365 32.0803 173.018 30.6931C173.637 29.3411 173.82 29.0496 174.185 28.7275C174.542 28.4077 175.031 28.5229 175.031 28.5229L175.214 26.0236C174.695 25.953 174.119 25.9507 173.524 25.9836C172.536 26.0424 172.026 26.3269 171.539 26.8159C171.159 27.1898 170.9 27.7494 170.58 28.3912C170.242 29.0919 169.974 29.6562 169.621 30.3686C169.271 31.0998 169.106 31.429 168.163 31.429H167.549V20.3571H163.917V40.0486H167.549V34.3868L168.046 34.3774C169.087 34.3774 169.271 34.6384 169.821 35.7364C170.465 37.0461 171.699 40.0486 171.699 40.0486H175.668ZM73.3339 40.0486H77.5261L71.1848 20.6863C70.5171 20.4629 69.6918 20.3242 68.8101 20.3242C67.8485 20.3242 67.5052 20.4512 66.7528 20.6863L60.0424 40.0486H64.0654C64.0654 40.0486 64.6085 38.351 65.248 36.2467H72.1982C72.8189 38.3486 73.3339 40.0486 73.3339 40.0486ZM66.2684 32.9996C66.2684 32.9996 67.43 29.1131 67.611 28.5088C68.0718 26.9429 68.7725 24.4553 68.7725 24.4553H68.8877C68.8877 24.4553 69.5366 27.0322 69.9599 28.4806C70.1198 29.0566 71.2295 32.9996 71.2295 32.9996H66.2684ZM113.088 30.7848C111.807 30.7848 110.765 31.8311 110.765 33.1125C110.765 34.4033 111.807 35.4425 113.088 35.4425C114.372 35.4425 115.409 34.4033 115.409 33.1125C115.409 31.8311 114.372 30.7848 113.088 30.7848ZM82.5036 20.3571H78.8616V40.0462H82.5036V20.3571ZM154.862 28.9838C156.875 29.0261 157.124 29.4422 157.124 31.1304V40.0486H160.733V30.8177C160.733 28.8051 160.498 28.0785 159.962 27.345C159.221 26.3057 157.766 25.8543 155.304 25.8543C152.868 25.8543 151.317 26.1129 149.32 26.7078V40.0486H152.967V29.153C153.924 29.0143 154.093 28.9838 154.862 28.9838ZM91.5111 20.0068C89.2351 20.0068 87.996 20.4582 87.2672 21.4951C86.7311 22.2311 86.4936 22.974 86.4936 24.9914V26.7078H84.6855V29.6515H86.4936V40.0486H90.1051L90.0957 29.6515H93.6954V26.7078H90.0957L90.1051 25.1301C90.1051 23.3244 90.3802 22.974 92.7925 22.974C93.0535 22.974 93.3474 22.9882 93.6601 23.0117L94.2291 20.1831C93.338 20.0656 92.4257 20.0068 91.5111 20.0068ZM120.488 20.1902C121.727 20.1173 124.496 20.0139 126.234 20.0139C126.551 20.0139 126.88 20.0162 127.21 20.0327C130.626 20.0327 132.585 22.5203 132.585 25.4405C132.585 27.4272 131.675 28.7463 129.542 29.5316C132.051 30.0865 133.365 32.045 133.365 34.4409C133.365 36.1996 132.869 37.5963 131.959 38.5485C130.779 39.71 128.992 40.3613 126.612 40.3613C124.496 40.3613 121.839 40.2955 120.488 40.2155V20.1902ZM126.234 23.4161C125.632 23.4161 124.887 23.4278 124.148 23.4537V28.182H126.236C127.064 28.182 127.729 27.9516 128.183 27.5072C128.616 27.0887 128.841 26.4962 128.841 25.7932C128.841 24.2813 128.023 23.4255 126.502 23.4161H126.234ZM126.309 36.9661H126.467C128.364 36.9661 129.526 35.9575 129.54 33.926C129.521 33.1971 129.241 32.5247 128.74 32.038C128.192 31.4878 127.417 31.201 126.507 31.201H124.148V36.945C124.814 36.9591 125.547 36.9614 126.309 36.9661Z" fill="#EE2A23"/>
</g>
<defs>
<clipPath id="clip0_1738_370">
<rect width="174.806" height="61.4648" fill="white" transform="translate(0.862305 0.590393)"/>
</clipPath>
</defs>
</svg>
