<svg viewBox="0 0 249 88" fill="none" xmlns="http://www.w3.org/2000/svg">
<path d="M109.899 65.5487H2.15039L4.52721 53.1384H112.276L109.899 65.5487Z" fill="#72BE44"/>
<path d="M13.4686 56.4102H18.1091V62.7282H16.6377V57.5384H14.7136C14.7136 58.3282 14.6005 59.4564 14.6005 60.2461C14.3741 61.9384 14.0345 62.9538 12.7895 62.9538C12.45 62.9538 12.2236 62.841 12.2236 62.841V61.6C12.2236 61.6 12.3368 61.6 12.5632 61.6C13.0159 61.6 13.2423 60.923 13.3555 60.0205C13.3555 58.8923 13.4686 56.4102 13.4686 56.4102ZM28.2955 59.4564C28.2955 61.4871 26.9373 62.841 25.1264 62.841C23.4286 62.841 22.2968 61.8256 22.0705 60.2461V60.0205H21.2782V62.7282H19.8068V56.4102H21.2782V59.0051H22.0705C22.2968 57.3128 23.5418 56.2974 25.1264 56.2974C26.9373 56.2974 28.2955 57.5384 28.2955 59.4564ZM26.8241 59.5692C26.8241 58.2153 26.2582 57.4256 25.1264 57.4256C24.1077 57.4256 23.5418 58.2153 23.5418 59.5692V59.682C23.5418 61.0359 24.1077 61.8256 25.1264 61.8256C26.145 61.8256 26.8241 60.923 26.8241 59.5692ZM34.86 61.7128H35.7654V64.3076H34.5205V62.7282H30.2195V64.3076H28.9745V61.7128H29.4273C29.88 61.6 29.9932 60.923 30.1064 60.0205C30.2195 58.8923 30.3327 57.3128 30.3327 56.4102H34.9732V61.7128H34.86ZM33.3886 57.4256H31.4645C31.4645 58.2153 31.3514 59.2307 31.3514 60.0205C31.2382 60.6974 31.125 61.2615 31.0118 61.6H33.5018V57.4256H33.3886ZM39.2741 56.4102H41.8773V62.7282H40.4059V60.3589H39.5005L38.0291 62.7282H36.4445L38.1423 60.1333C37.35 59.9076 36.7841 59.4564 36.7841 58.441C36.8973 57.0871 37.8027 56.4102 39.2741 56.4102ZM39.5005 57.4256C38.7082 57.4256 38.3686 57.7641 38.3686 58.441C38.3686 59.1179 38.7082 59.3435 39.5005 59.3435H40.4059V57.4256H39.5005ZM47.1968 60.3589L45.4991 56.4102H43.4618V62.7282H44.7068V57.8769L46.6309 62.7282H47.0836L49.1209 57.8769V62.7282H50.5923V56.4102H48.6682L47.1968 60.3589ZM60.5523 60.8102C60.5523 62.0512 59.6468 62.7282 58.1755 62.7282H55.3459V56.4102H57.9491C59.3073 56.4102 60.3259 56.8615 60.3259 57.9897C60.3259 58.6666 59.9864 59.2307 59.1941 59.3435C59.9864 59.5692 60.5523 60.0205 60.5523 60.8102ZM56.8173 59.0051H57.7227C58.4018 59.0051 58.7414 58.7794 58.7414 58.2153C58.7414 57.6512 58.4018 57.4256 57.6095 57.4256H56.8173V59.0051ZM58.9677 60.923C58.9677 60.3589 58.6282 60.0205 57.8359 60.0205H56.7041V61.8256H57.7227C58.6282 61.8256 58.9677 61.4871 58.9677 60.923ZM67.5695 62.7282H69.0409V56.4102H67.5695V62.7282ZM66.7773 60.5846C66.7773 62.0512 65.7586 62.7282 64.2873 62.7282H61.7973V56.4102H63.2686V58.5538H64.4005C65.7586 58.441 66.7773 59.1179 66.7773 60.5846ZM65.3059 60.5846C65.3059 59.9076 64.9664 59.5692 64.1741 59.5692H63.2686V61.7128H64.1741C64.9664 61.7128 65.3059 61.3743 65.3059 60.5846ZM70.6255 62.7282H72.0968V57.5384H74.9264V56.4102H70.6255V62.7282ZM82.0568 59.4564C82.0568 61.4871 80.6986 62.841 78.7745 62.841C76.8504 62.841 75.4923 61.4871 75.4923 59.5692V59.4564C75.4923 57.5384 76.8504 56.1846 78.7745 56.1846C80.5854 56.2974 82.0568 57.5384 82.0568 59.4564ZM80.4723 59.5692C80.4723 58.2153 79.7932 57.4256 78.6614 57.4256C77.5295 57.4256 76.8505 58.2153 76.8505 59.5692V59.682C76.8505 61.0359 77.5295 61.8256 78.6614 61.8256C79.9064 61.7128 80.4723 60.923 80.4723 59.5692ZM88.5082 61.7128H89.4136V64.3076H88.1686V62.7282H83.8677V64.3076H82.6227V61.7128H83.0755C83.5282 61.6 83.6414 60.923 83.7545 60.0205C83.8677 58.8923 83.9809 57.3128 83.9809 56.4102H88.6214V61.7128H88.5082ZM87.0368 57.4256H85.1127C85.1127 58.2153 84.9995 59.2307 84.9995 60.0205C84.8864 60.6974 84.7732 61.2615 84.66 61.6H87.15V57.4256H87.0368ZM94.62 59.0051H92.0168V56.4102H90.5454V62.7282H92.0168V60.0205H94.62V62.7282H96.0914V56.4102H94.62V59.0051ZM103.901 59.4564C103.901 61.4871 102.543 62.841 100.619 62.841C98.6945 62.841 97.3364 61.6 97.3364 59.682V59.5692C97.3364 57.6512 98.6945 56.2974 100.619 56.2974C102.543 56.2974 103.901 57.5384 103.901 59.4564ZM102.43 59.5692C102.43 58.2153 101.75 57.4256 100.619 57.4256C99.4868 57.4256 98.8077 58.2153 98.8077 59.5692V59.682C98.8077 61.0359 99.4868 61.8256 100.619 61.8256C101.75 61.7128 102.43 60.923 102.43 59.5692Z" fill="#231F20"/>
<path d="M25.9186 25.8359C26.4845 22.7897 25.5791 20.7589 21.9573 20.7589H10.7523L9.73364 25.9487H19.2409C19.8068 25.9487 20.0332 26.2871 19.92 26.9641L18.675 33.282H12.7895L13.695 28.882L0 35.4256H10.1864L9.28091 39.8256L18.2223 35.5384L17.0905 41.7436C16.9773 42.4205 16.6377 42.6461 15.9586 42.6461H6.45136L5.43273 47.9487H16.6377C20.2595 47.9487 21.9573 45.8051 22.5232 42.8718L25.9186 25.8359ZM44.3673 47.9487L49.6868 20.6461H37.2368C33.615 20.6461 31.8041 22.7897 31.2382 25.723L24.9 47.9487H31.0118L36.7841 26.9641C36.8973 26.2871 37.2368 25.9487 37.8027 25.9487H42.7827L38.4818 47.9487H44.3673ZM64.1741 35.3128L62.9291 41.9692C62.8159 42.6461 62.3632 42.9846 61.7973 42.9846H56.8173L58.515 34.2974H63.495C64.1741 34.4102 64.4005 34.6359 64.1741 35.3128ZM70.1727 34.6359C70.7386 31.5897 69.8332 29.4461 66.2114 29.4461H59.5336L61.2314 20.7589H55.3459L50.0264 48.0615H62.5895C66.3245 48.0615 67.9091 45.9179 68.5882 42.9846L70.1727 34.6359ZM89.5268 25.9487L86.2445 42.6461H80.0195L84.3205 26.9641C84.4336 26.2871 84.7732 25.9487 85.3391 25.9487H89.5268ZM92.13 42.6461L96.4309 20.6461H84.66C81.0382 20.6461 79.2273 22.7897 78.6614 25.723L73.9077 42.5333H71.4177L70.2859 47.8359H72.4364H91.1114H92.8091L93.8277 42.5333H92.13V42.6461ZM112.503 26.9641L109.673 41.7436C109.447 42.4205 109.107 42.6461 108.541 42.6461H104.354C103.788 42.6461 103.561 42.4205 103.675 41.7436L106.617 26.9641C106.73 26.2871 106.957 25.9487 107.636 25.9487H111.824C112.39 25.9487 112.616 26.2871 112.503 26.9641ZM118.501 25.8359C119.067 22.7897 118.162 20.7589 114.54 20.7589H107.07C103.448 20.7589 101.637 22.9025 100.958 25.8359L97.6759 42.8718C97.11 45.9179 98.0155 47.9487 101.637 47.9487H109.22C112.955 47.9487 114.653 45.8051 115.219 42.8718L118.501 25.8359ZM135.139 26.9641L133.781 33.7333C133.668 34.523 133.328 34.7487 132.649 34.7487H127.669L129.48 25.9487H134.46C135.026 25.9487 135.252 26.2871 135.139 26.9641ZM141.138 25.8359C141.817 22.7897 140.798 20.7589 137.176 20.7589H124.726L119.407 48.0615H125.066L126.65 40.1641H133.441C137.063 40.1641 138.535 38.0205 139.214 34.9743L141.138 25.8359ZM153.135 27.8666L152.23 38.4718H148.155L152.795 27.8666H153.135ZM158.002 47.9487L158.681 20.6461H150.758L137.629 47.9487H143.967L146.118 42.8718H151.777L151.324 47.9487H158.002ZM179.62 25.9487L176.337 42.6461H170.112L174.413 26.9641C174.526 26.2871 174.866 25.9487 175.432 25.9487H179.62ZM182.223 42.6461L186.524 20.6461H174.753C171.131 20.6461 169.32 22.7897 168.754 25.723L164 42.5333H161.51L160.379 47.8359H162.416H181.091H182.902L183.92 42.5333H182.223V42.6461ZM203.275 26.9641L200.332 41.7436C200.219 42.4205 199.879 42.6461 199.313 42.6461H195.125C194.56 42.6461 194.333 42.4205 194.446 41.7436L197.276 26.9641C197.502 26.2871 197.842 25.9487 198.295 25.9487H202.482C203.048 25.9487 203.388 26.2871 203.275 26.9641ZM205.199 20.7589H197.615C193.994 20.7589 192.296 22.9025 191.73 25.8359L188.448 42.8718C187.882 45.9179 188.787 47.9487 192.409 47.9487H199.992C203.614 47.9487 205.312 45.8051 205.878 42.8718L209.273 25.8359C209.726 22.7897 208.82 20.7589 205.199 20.7589ZM214.932 41.7436L213.687 48.0615H207.915L209.16 41.7436H214.932ZM246.057 44.1128C245.605 46.3692 244.36 47.9487 241.643 47.9487H236.776C234.06 47.9487 233.381 46.3692 233.834 44.1128L236.776 28.882H240.964L238.135 43.4359C238.021 43.7743 238.135 44 238.361 44H241.417C241.756 44 241.87 43.8871 241.983 43.4359L244.812 28.882H249L246.057 44.1128ZM228.175 33.282L227.156 38.0205C227.043 38.5846 226.816 38.6974 226.364 38.6974H222.968L224.213 32.6051H227.722C228.061 32.6051 228.288 32.8307 228.175 33.282ZM229.533 28.882H220.818L217.083 47.9487H221.044L222.176 42.4205H224.1L225.005 47.9487H229.42L228.288 42.3077C229.872 41.8564 230.665 40.5025 231.004 38.8102L232.249 32.4923C232.815 30.3487 232.136 28.882 229.533 28.882Z" fill="#CE1037"/>
</svg>
