<svg width="144" height="111" viewBox="0 0 144 111" fill="none" xmlns="http://www.w3.org/2000/svg">
<path d="M143.196 55.1841C143.196 85.6384 111.287 110.328 71.9361 110.328C32.5848 110.328 0.683594 85.6384 0.683594 55.1841C0.683594 24.7298 32.5848 0.039978 71.9361 0.039978C111.287 0.039978 143.196 24.7298 143.196 55.1841Z" fill="#8BB920"/>
<path d="M135.231 55.0841C135.192 29.0244 106.824 7.94415 71.8669 7.99802C62.8425 7.98039 53.8777 9.46022 45.3377 12.3772C38.4957 11.5306 31.7691 14.2243 31.7691 14.2243C31.7691 14.2243 36.6793 22.1515 44.0447 25.0454C49.2166 27.0772 55.0658 25.3686 56.0894 24.3989C56.0894 24.3989 54.073 20.2967 47.585 17.426C44.4361 16.1083 41.1259 15.2154 37.7414 14.7708C40.3428 14.994 42.5439 14.7092 47.7851 16.3793C55.0812 18.6882 57.0207 23.0597 57.0207 23.0597C57.444 18.9576 54.7118 16.0561 51.9873 14.5091C58.4852 12.8278 65.1704 11.9795 71.8823 11.9847C104.646 11.9308 131.229 31.2255 131.259 55.0841C131.2 62.4728 128.745 69.6428 124.263 75.5178C122.218 73.468 120.023 71.5721 117.698 69.8456C119.299 60.2252 112.226 51.2898 104.538 46.8798C108.063 35.6509 97.2186 24.1834 77.6007 23.7909C74.6761 23.7909 70.674 23.9217 68.0726 24.1988L69.1655 17.2721H67.6262C62.1772 17.3183 60.1531 20.8124 59.5605 22.1823L57.4517 26.2306C45.2376 29.617 38.5341 35.42 37.9338 35.9357C36.5177 37.1594 36.8102 37.6827 39.3269 36.6437C44.2579 34.6341 49.3439 33.028 54.5348 31.8412L38.0031 62.1724C29.1831 61.1642 19.986 62.1724 15.3298 68.1755C13.5553 64.0952 12.6334 59.6952 12.6206 55.2457C12.6206 41.3923 21.4945 29.0782 35.3479 21.1741C34.1937 20.4182 32.8331 20.0396 31.4543 20.0906C30.0756 20.1416 28.7467 20.6198 27.6515 21.4589L27.5977 21.4974C15.8993 30.1095 8.61857 42.0619 8.64166 55.2457C8.67088 61.3544 10.2237 67.3593 13.1594 72.7164C12.943 73.7925 12.9688 74.9034 13.235 75.9684C13.5013 77.0333 14.0012 78.0257 14.6987 78.8734C16.9229 81.7211 21.3868 82.9832 26.6049 81.1823C33.647 78.7272 39.0575 71.0078 40.7815 68.2063C35.6942 67.3751 33.6778 69.2222 32.962 70.1843C30.8917 72.9472 27.8363 76.0566 24.6423 77.4265C18.1004 80.2357 13.8675 74.348 19.0317 69.5455C22.5258 66.3207 29.4679 65.6511 35.7327 66.4669H35.8866C41.1394 67.1665 46.2876 68.5027 51.2177 70.4459C50.0017 77.5804 49.1551 82.1443 49.1551 82.1443H51.464C59.0833 82.1443 59.7452 76.4645 59.7452 76.4645L60.1377 74.4634C67.1183 77.8883 73.9064 81.5517 74.2528 81.7595C76.0383 82.737 78.6243 82.6831 79.0245 80.0894L81.9875 59.9559C89.73 59.5095 97.3263 56.4925 101.39 52.0902C104.923 54.8532 108.186 59.2709 108.809 64.6198C104.484 62.7419 99.5736 61.6183 94.5864 62.3956C82.9573 64.1965 78.8936 76.1566 85.2893 82.9371C90.0841 88.032 96.9569 88.5785 104.361 85.7847C108.628 84.1323 112.261 81.1679 114.735 77.3187C113.894 76.446 112.957 75.6714 111.942 75.0098C110.936 74.3555 109.722 74.1023 108.539 74.3004C107.356 74.4985 106.291 75.1335 105.554 76.0796C103.566 78.6265 100.802 80.4557 97.6803 81.29C84.1579 84.5918 82.8803 66.8902 96.7414 66.3592C101.128 66.1899 104.984 68.0601 108.386 70.5229C111.895 73.155 116.713 78.0345 119.115 79.7123C120.556 80.7579 122.208 81.4783 123.955 81.8238C125.703 82.1692 127.504 82.1316 129.235 81.7134C128.528 80.5905 127.757 79.5087 126.926 78.4732C132.221 71.6158 135.246 63.6116 135.231 55.0841ZM52.1104 65.0354C49.486 64.1965 44.5681 63.1729 43.5445 62.9651L56.5358 38.9834C55.2121 46.9799 53.5343 56.8542 52.1412 65.0354H52.1104ZM82.5571 55.7306L83.7577 47.5879C74.7761 47.6571 73.4908 53.7911 73.3446 54.7685C69.0424 52.6905 72.6904 48.2344 78.732 47.0722C84.4131 46.0805 90.2586 46.7045 95.6023 48.8732C93.4858 52.8522 88.7218 55.2457 82.5879 55.7306H82.5571ZM97.1801 44.063C93.0526 42.9473 88.7865 42.4289 84.5119 42.5237L86.0974 31.7489C76.5309 30.1326 76.0075 36.5667 76.0075 36.5667C75.6689 38.8756 75.2764 41.5155 74.8685 44.3169C65.9792 47.7495 65.1326 55.6844 72.7289 58.7706C71.9592 63.9733 70.774 72.0237 70.7586 72.0083C68.2881 70.9308 63.3163 68.9298 61.1074 68.0832L67.1413 29.7478C93.0087 27.0464 98.0652 38.9526 97.1955 44.063H97.1801ZM115.382 84.5533C104.607 93.0192 89.0297 98.3528 71.9977 98.4066C55.0658 98.4066 39.8271 93.2501 29.0061 85.0459C28.034 84.2025 26.8379 83.6597 25.5631 83.4835C24.2884 83.3072 22.9899 83.5051 21.8254 84.053C33.4161 95.2204 51.5871 102.401 72.0054 102.37C92.4238 102.339 110.71 95.0511 122.255 83.776C121.151 83.2622 119.927 83.063 118.717 83.2001C117.507 83.3373 116.358 83.8055 115.397 84.5533H115.382Z" fill="white"/>
</svg>
