<svg width="252" height="39" viewBox="0 0 252 39" fill="none" xmlns="http://www.w3.org/2000/svg">
<path fill-rule="evenodd" clip-rule="evenodd" d="M92.3326 30.747C95.3361 30.747 97.7402 29.9134 99.6283 28.2445C101.47 26.7424 102.678 24.8234 103.335 22.4876C103.971 20.2353 103.843 18.3155 102.87 16.7308C101.899 15.1453 99.9643 14.3117 96.9608 14.3117C93.9565 14.3117 91.5532 15.1453 89.6876 16.7308C87.8229 18.3155 86.6141 20.2353 85.9806 22.4876C85.3229 24.8242 85.4504 26.7424 86.4449 28.2445C87.3944 29.9125 89.3292 30.747 92.3326 30.747ZM93.4597 26.7424C92.5427 26.7424 91.885 26.4089 91.6199 25.5745C91.3306 24.8242 91.3623 23.8222 91.7383 22.4876C92.0909 21.2356 92.6236 20.2353 93.3588 19.4C94.0707 18.6497 94.9151 18.3155 95.8338 18.3155C96.7516 18.3155 97.4084 18.6489 97.6977 19.4C97.9636 20.2353 97.9311 21.2356 97.5793 22.4876C97.2034 23.8231 96.6707 24.8242 95.9588 25.5745C95.2227 26.4081 94.3783 26.7424 93.4597 26.7424ZM241.614 25.9504C240.779 25.9504 240.289 25.617 240.06 24.9493C239.748 24.2824 239.732 23.448 240.038 22.3626C240.344 21.2773 240.852 20.3611 241.516 19.7759C242.122 19.1082 242.859 18.8581 243.635 18.7756C245.387 18.7756 245.952 20.0269 245.354 22.446C245.048 23.5305 244.562 24.3649 243.957 25.0326C243.186 25.7012 242.448 25.9504 241.614 25.9504ZM236.358 14.6876L230.508 35.4627H236.515L238.442 28.6205C239.067 29.9551 240.214 30.6228 241.716 30.6228C243.551 30.6228 245.384 30.0384 247.262 28.703C248.196 27.9765 249.006 27.1032 249.659 26.1171C250.336 25.1994 250.878 23.8639 251.384 22.3626C251.995 20.1936 251.951 18.2746 251.229 16.6891C250.508 15.1036 248.99 14.2692 246.654 14.2692C245.736 14.2692 244.832 14.5193 243.796 14.9369C242.761 15.3537 241.882 16.1048 241.123 17.0226H241.039L241.697 14.6868H236.358V14.6876ZM231.407 23.8614C232.206 21.0238 232.196 18.6881 231.105 16.9359C230.097 15.1828 228.101 14.2658 225.265 14.2658C222.846 14.2658 220.632 15.0161 218.623 16.5182C216.532 18.0204 215.134 20.0227 214.382 22.6927C213.677 25.1952 213.948 27.1983 215.24 28.5321C216.426 29.9509 218.241 30.6178 220.744 30.6178C222.58 30.6178 224.342 30.2843 226.139 29.5332C227.935 28.783 229.396 27.4476 230.521 25.5286H224.764C224.48 25.9463 224.052 26.2797 223.565 26.5298C223.161 26.7799 222.636 26.8632 222.135 26.8632C221.301 26.8632 220.705 26.6131 220.285 26.0288C219.864 25.4453 219.803 24.7776 220.06 23.8598H231.407V23.8614ZM220.93 20.7738C221.423 19.0215 222.6 18.1029 224.458 18.0204C225.185 18.1037 225.783 18.3538 226.059 18.8548C226.419 19.355 226.564 20.0227 226.352 20.7738H220.93ZM200.575 30.2702L203.7 19.1732H198.526L199.795 14.6676H216.147L214.88 19.1732H209.706L206.582 30.2702H200.575ZM197.74 20.5912C198.041 18.3388 197.593 16.6691 196.29 15.6688C194.963 14.7502 193.268 14.25 191.266 14.25C188.679 14.25 186.489 14.9177 184.481 16.4199C182.497 17.8387 181.075 19.9243 180.323 22.5935C179.594 25.1802 179.864 27.1825 181.135 28.6013C182.344 29.9359 184.135 30.687 186.638 30.687C188.724 30.687 190.784 30.186 192.567 29.1848C193.502 28.6613 194.341 27.9844 195.051 27.1825C195.786 26.3489 196.319 25.3477 196.815 24.179H190.806C190.558 24.7842 190.178 25.3258 189.692 25.7637C189.218 26.2647 188.564 26.5148 187.813 26.5148C186.895 26.5148 186.321 26.1822 186.115 25.4303C185.886 24.7625 185.894 23.8448 186.247 22.5935C186.365 22.1767 186.589 21.6757 186.814 21.1747C187.038 20.6737 187.262 20.1736 187.547 19.7568C187.831 19.3391 188.258 19.0057 188.663 18.7548C189.066 18.5047 189.531 18.338 190.115 18.338C190.782 18.338 191.212 18.5881 191.429 19.0049C191.751 19.3383 191.755 19.9235 191.65 20.5904H197.74V20.5912ZM168.571 27.1808C167.236 27.1808 166.687 26.7632 166.922 25.9296C167.062 25.4286 167.347 25.011 167.751 24.7609C168.155 24.5108 168.536 24.3441 169.06 24.2607C169.524 24.094 170.132 24.0106 170.656 23.9273C171.287 23.7597 171.835 23.593 172.466 23.4263C172.243 24.5108 171.842 25.3452 171.214 26.0963C170.501 26.8474 169.656 27.1808 168.571 27.1808ZM177.321 30.1843L177.392 29.9342C177.068 29.6008 176.995 29.2673 177.006 28.9331C176.992 28.683 177.003 28.3495 177.121 27.9319L179.165 20.6729C179.424 19.7543 179.658 18.9207 179.727 18.0862C179.852 17.3976 179.726 16.6869 179.372 16.0831C179.036 15.4996 178.403 15.0819 177.412 14.7485C176.421 14.4151 175.049 14.2475 173.214 14.2475C170.378 14.2475 168.067 14.7485 166.497 15.5821C164.903 16.5007 163.944 17.8353 163.474 19.5034H169.397C169.752 18.8365 170.12 18.4188 170.608 18.1679C171.155 18.002 171.513 17.9178 171.93 17.9178C172.347 17.9178 172.741 18.002 173.194 18.1679C173.565 18.3355 173.721 18.6689 173.64 19.2533C173.369 19.9202 172.668 20.3386 171.536 20.5053C171.011 20.5887 170.404 20.6721 169.797 20.7554C169.106 20.838 168.415 20.9213 167.618 21.0889C166.95 21.0889 166.236 21.2556 165.581 21.5057C164.867 21.6724 164.105 22.0067 163.511 22.3393C162.916 22.6719 162.358 23.1737 161.86 23.7581C161.362 24.3424 160.984 25.0935 160.725 26.0104C160.303 27.5126 160.557 28.6805 161.431 29.4315C162.197 30.266 163.355 30.5994 164.773 30.5994C165.94 30.5994 166.965 30.5161 167.894 30.1818C168.905 29.8484 169.904 29.2648 170.95 28.5138L170.814 30.1818H177.321V30.1843ZM125.532 30.2702L128.657 19.1732H123.4L124.669 14.6676H141.105L139.836 19.1732H134.58L131.455 30.2702H125.532ZM112.376 25.9504C111.542 25.9504 111.052 25.617 110.822 24.9493C110.509 24.2824 110.493 23.448 110.799 22.3626C111.105 21.2781 111.614 20.3611 112.279 19.7759C112.884 19.1082 113.622 18.8581 114.396 18.7756C116.149 18.7756 116.714 20.0269 116.115 22.446C115.81 23.5305 115.324 24.3649 114.719 25.0326C113.949 25.7012 113.21 25.9504 112.376 25.9504ZM107.122 14.6876L101.271 35.4627H107.279L109.206 28.6205C109.831 29.9551 110.978 30.6228 112.48 30.6228C114.316 30.6228 116.149 30.0384 118.026 28.703C118.96 27.9765 119.769 27.1032 120.423 26.1171C121.099 25.1994 121.641 23.8639 122.148 22.3626C122.759 20.1936 122.715 18.2746 121.994 16.6891C121.272 15.1036 119.754 14.2692 117.418 14.2692C116.5 14.2692 115.596 14.5193 114.561 14.9369C113.525 15.3537 112.646 16.1048 111.886 17.0226H111.803L112.461 14.6868H107.122V14.6876ZM65.0772 30.2702H71.0016L74.1251 19.1732H78.8816L75.7565 30.2702H81.7642L86.1573 14.6676H69.4703L65.0772 30.2702ZM65.9667 20.5912C66.2676 18.3388 65.8191 16.6691 64.5162 15.6688C63.1899 14.7502 61.4952 14.25 59.4921 14.25C56.9054 14.25 54.7164 14.9177 52.7074 16.4199C50.7234 17.8387 49.3013 19.9243 48.5494 22.5935C47.8217 25.1802 48.0917 27.1825 49.3605 28.6013C50.57 29.9359 52.3614 30.687 54.8639 30.687C56.9496 30.687 59.0103 30.186 60.7933 29.1848C61.7273 28.661 62.5667 27.9842 63.2766 27.1825C64.0119 26.3489 64.5445 25.3477 65.0405 24.179H59.0328C58.7856 24.7844 58.4049 25.326 57.9191 25.7637C57.4448 26.2647 56.7904 26.5148 56.0393 26.5148C55.1215 26.5148 54.548 26.1822 54.3421 25.4303C54.1128 24.7625 54.1212 23.8448 54.4738 22.5935C54.5913 22.1767 54.8156 21.6757 55.0406 21.1747C55.2649 20.6737 55.4891 20.1736 55.7734 19.7568C56.0576 19.3391 56.4853 19.0057 56.8896 18.7548C57.2939 18.5047 57.7582 18.338 58.3425 18.338C59.0094 18.338 59.4396 18.5881 59.6563 19.0049C59.9789 19.3383 59.9814 19.9235 59.8772 20.5904H65.9667V20.5912Z" fill="#505E86"/>
<path fill-rule="evenodd" clip-rule="evenodd" d="M144.014 9.8195L148.116 28.9165L163.067 9.69196L151.149 18.0655L144.014 9.8195Z" fill="#CC2229"/>
<path fill-rule="evenodd" clip-rule="evenodd" d="M142.781 14.6793L138.338 30.2293H146.029L142.781 14.6793ZM161.66 14.6793L149.784 30.2293H157.218L161.66 14.6793Z" fill="#505E86"/>
<path fill-rule="evenodd" clip-rule="evenodd" d="M47.2039 6.52252L32.6784 22.9945L0.401367 6.6609L30.9128 13.0938L47.2039 6.52252Z" fill="#CC2229"/>
<path fill-rule="evenodd" clip-rule="evenodd" d="M3.30566 38.9855L20.3278 19.6818L58.155 38.8238L22.3968 31.2839L3.30566 38.9855ZM29.9576 0.538968C27.165 0.764874 25.0702 3.22817 25.2969 6.0224C25.5236 8.81663 27.9869 10.9106 30.7795 10.6839C33.5737 10.458 35.6677 7.9947 35.441 5.2013C35.2151 2.40707 32.7518 0.313062 29.9576 0.538968Z" fill="#505E86"/>
</svg>
