<svg viewBox="0 0 86 30" fill="none" xmlns="http://www.w3.org/2000/svg">
<g clip-path="url(#clip0_1027_57)">
<path d="M1.39111 28.7905C1.39111 28.7905 48.669 17.3383 83.698 25.4062L83.8061 25.0335C83.8061 25.0335 53.2412 16.1337 1.97829 26.9742" fill="#ED174C"/>
<path d="M24.0224 6.31728V8.21556C24.1966 7.83557 24.418 7.3203 25.0123 6.83255C25.6558 6.29062 26.5962 5.99146 27.5127 5.99146C27.9815 5.99146 28.4519 6.07396 28.921 6.23646C30.3811 6.77838 30.8021 7.91667 30.9751 8.40415C32.1142 6.31756 33.9195 6.02008 34.8841 6.02008C36.071 6.02008 37.111 6.45452 37.8037 7.13171C39.0404 8.32417 39.0897 9.62355 39.0897 12.8779V20.359H35.4542V13.7173C35.4542 11.4668 35.4047 11.006 35.033 10.411C34.6373 9.76022 34.0675 9.62327 33.5228 9.62327C32.534 9.62327 32.0396 10.3282 31.965 10.4374C31.5683 11.1149 31.5683 12.2807 31.5683 13.419V20.3585H27.9325V13.284C27.9325 11.766 27.9325 11.0882 27.5608 10.4641C27.289 10.0044 26.7442 9.62327 26.0768 9.62327C25.7557 9.62327 25.4332 9.70522 25.1361 9.86883C24.0719 10.4641 24.0477 11.4949 24.0477 14.1517V20.3587H20.4097V6.31728" fill="#004B85"/>
<path d="M53.5542 6.31714H57.2642L53.5542 20.3583H50.1627L48.0098 10.8717L45.8834 20.3583H42.4449L38.7334 6.31714H42.4449L44.3994 15.0999L46.4031 6.31714H49.619L51.5997 15.0999" fill="#004B85"/>
<path d="M65.0901 20.3585H68.6538V6.29064H65.1643V8.1064C64.5222 6.75145 63.4085 5.96509 61.9979 5.96509C59.5741 5.96509 56.4062 8.02558 56.4062 13.5551C56.4062 17.9463 58.6818 20.6574 61.7255 20.6574C63.8038 20.6574 64.6446 19.4646 65.0895 18.8138M64.9031 13.1751C64.9031 14.4501 64.73 15.6698 63.9627 16.5917C63.3191 17.3225 62.6022 17.3778 62.379 17.3778C61.6618 17.3778 60.8455 16.9436 60.3497 15.7231C60.054 15.0189 59.9541 14.1781 59.9541 13.3107C59.9541 12.2265 60.1043 11.1149 60.7214 10.2211C61.1663 9.59662 61.859 9.19137 62.5282 9.19137C63.0715 9.19137 63.6163 9.46079 63.9877 9.89523C64.4573 10.4111 64.9031 11.3593 64.9031 13.1751Z" fill="#004B85"/>
<path d="M77.0527 6.31714H80.7494L76.6813 20.25C76.3841 21.2261 75.9153 22.826 75.197 23.6118C74.5284 24.3168 73.7369 24.6426 70.7927 24.6426C70.3718 24.6426 70.1996 24.6143 69.8279 24.5879V21.4702H70.7927C71.1394 21.4702 71.9557 21.4702 72.3263 21.1186C72.6234 20.8736 72.871 20.2778 72.871 19.7078C72.871 19.4103 72.7219 18.8667 72.5989 18.5151L68.6401 6.31714H72.5989L74.9243 15.7771" fill="#004B85"/>
<path d="M9.98062 1.17749L3.87207 20.3584H8.35913L9.49904 16.2832H15.2279L16.3943 20.3584H20.9067L14.5431 1.17749M12.2869 5.38968L14.2391 12.779H10.4383L12.2869 5.38968Z" fill="#004B85"/>
</g>
<defs>
<clipPath id="clip0_1027_57">
<rect width="85.3865" height="29.9602" fill="white"/>
</clipPath>
</defs>
</svg>
