<svg width="231" height="61" viewBox="0 0 231 61" fill="none" xmlns="http://www.w3.org/2000/svg">
<path fill-rule="evenodd" clip-rule="evenodd" d="M43.3558 5.71842C52.4789 10.5324 58.711 20.1301 58.711 31.1932C58.711 42.2564 52.4789 51.8843 43.3558 56.6688V53.3793C46.8447 51.2851 49.796 48.355 51.9435 44.8869L43.3558 41.3893V36.067L52.7775 43.4525C54.7455 39.8044 55.8487 35.6478 55.8487 31.1925C55.8487 21.8036 50.8389 13.5518 43.3558 9.00642V5.71842ZM30.0878 2.45917C34.8586 2.45917 39.3602 3.62578 43.3558 5.71842V9.00793C39.6882 6.79424 35.3947 5.47935 30.863 5.32955L34.1423 28.8615L43.3558 36.0677V41.3901L30.0275 35.9777L16.7889 41.4196V36.1267L26.062 28.8608L29.3119 5.32879C24.7198 5.47859 20.4565 6.79424 16.7889 9.00642V5.71842C20.7551 3.62578 25.2869 2.45917 30.0878 2.45917ZM43.3558 56.6688C39.3602 58.7614 34.8578 59.9568 30.0878 59.9568C25.2876 59.9568 20.7559 58.7614 16.7896 56.6983V53.3793C20.6661 55.7405 25.2273 57.0864 30.0878 57.0864C34.9182 57.0864 39.4507 55.7405 43.3558 53.3793V56.6688ZM16.7896 56.6983C7.63565 51.8843 1.4043 42.2564 1.4043 31.1932C1.4043 20.1301 7.63565 10.5324 16.7896 5.71842V9.00793C9.27568 13.5526 4.26662 21.7748 4.26662 31.1932C4.26662 35.6478 5.39993 39.8649 7.36797 43.5122L16.7896 36.1267V41.4196L8.23209 44.9467C10.3788 48.3867 13.3007 51.2859 16.7896 53.3793V56.6983Z" fill="#231F20"/>
<path d="M146.655 21.8975C145.342 22.2475 144.158 22.4582 142.689 22.6166V23.0645C144.342 23.0645 144.554 23.2501 144.554 24.6213V29.2313C143.581 27.6506 142.819 27.1771 141.401 27.1771C138.59 27.1771 136.622 29.8373 136.622 33.6324C136.622 37.4275 138.617 40.0898 141.481 40.0898C142.978 40.0898 144.001 39.4061 144.736 37.9302C144.842 38.9306 144.843 39.0363 145.105 40.0382C146.182 39.695 146.628 39.5884 148.178 39.4051L148.571 39.3513V38.9034C146.812 38.851 146.655 38.7188 146.655 37.112V21.8975ZM75.7844 22.0891C74.7859 22.1952 74.2596 22.2226 73.2886 22.2226C72.5524 22.2226 72.1593 22.197 71.1361 22.1171V22.7738C72.9477 22.8799 73.3143 23.1438 73.3143 24.3564V24.5158L72.7628 37.4543C72.7106 38.8779 72.4494 39.0877 70.6104 39.22V39.853C71.9769 39.7469 72.5001 39.7217 73.2349 39.7217C73.9711 39.7217 74.4954 39.7469 75.8359 39.853V39.22C73.9969 39.0877 73.6555 38.8501 73.6555 37.6912V37.4543L74.1813 23.7772L78.4884 35.4519L78.8039 36.3734L79.173 37.4005L79.5399 38.4297L79.8297 39.2738H80.2245L80.5121 38.4039L80.8533 37.4005L81.2203 36.4273L81.5357 35.5552L85.8707 23.8031L86.1068 37.4543V37.5857C86.1068 38.8246 85.7133 39.1139 83.9264 39.22V39.853C85.5814 39.6945 86.2113 39.642 87.2098 39.642C88.207 39.642 88.8382 39.6946 90.4932 39.853V39.22C88.602 39.0877 88.3647 38.8779 88.3386 37.4543L88.0511 24.5158V24.3306C88.0511 23.1441 88.4446 22.8799 90.2314 22.7738V22.1171C89.2329 22.197 88.8127 22.2226 88.1562 22.2226C87.3679 22.2226 86.8172 22.1952 85.6346 22.0891L80.6709 35.426L75.7844 22.0891ZM177.959 22.1946V22.8556C179.85 22.9604 180.113 23.1697 180.113 24.5933V37.3746C180.113 38.7982 179.903 38.9818 177.959 39.1403V39.7733H184.605C186.548 39.7733 187.599 39.5366 188.702 38.8517C190.016 38.0084 190.882 36.3997 190.882 34.7391C190.882 33.317 190.278 32.0269 189.253 31.2359C188.701 30.8142 188.123 30.5765 187.178 30.3918C189.069 29.6807 190.069 28.3362 190.069 26.4924C190.069 25.1212 189.49 23.9076 188.491 23.1442C187.599 22.4854 186.574 22.1946 184.867 22.1946L177.959 22.1946ZM182.319 23.0128H184.551C186.758 23.0128 187.729 24.0925 187.729 26.5441C187.729 27.7554 187.443 28.626 186.865 29.3109C186.286 29.9696 185.577 30.1808 184.105 30.1808H182.319V23.0128ZM121.909 26.7809L121.199 28.1245C120.358 27.3073 119.649 27.0178 118.52 27.0178C115.42 27.0178 113.318 29.7063 113.318 33.6324C113.318 37.4799 115.395 40.064 118.441 40.064C120.806 40.064 122.302 38.534 122.643 35.7145H121.565C121.251 38.0338 120.278 39.1941 118.649 39.1941C116.627 39.1941 115.604 37.3228 115.604 33.6324C115.604 29.8634 116.761 27.7305 118.731 27.7305C120.333 27.7305 121.303 28.8365 121.776 31.1282H122.355V26.7809L121.909 26.7809ZM168.973 26.8606L168.527 27.9393C167.634 27.3344 166.873 27.0974 165.849 27.0974C163.537 27.0974 161.909 28.5206 161.909 30.6028C161.909 32.1311 162.514 32.8688 164.43 33.7659L165.638 34.3171L166.636 34.765C167.923 35.3451 168.424 35.9514 168.424 36.8471C168.424 38.1921 167.267 39.22 165.718 39.22C163.879 39.22 162.775 38.0607 162.301 35.6629L161.726 35.6887V40.0898H162.198L162.827 38.9034C163.826 39.6944 164.771 40.0102 165.98 40.0102C168.449 40.0102 170.209 38.4308 170.209 36.2162C170.209 34.6618 169.499 33.8172 167.503 32.9477L166.4 32.474C164.009 31.4198 163.617 31.0778 163.617 30.0236C163.617 28.7848 164.693 27.836 166.085 27.836C167.74 27.836 168.606 28.8382 168.842 30.9452H169.448V26.8606H168.973ZM207.801 26.8606C206.753 27.2299 205.858 27.44 204.333 27.6508V28.0987C204.465 28.0987 204.598 28.1245 204.677 28.1245C205.991 28.1245 206.146 28.2844 206.172 29.3648V29.7588V37.9022C206.172 39.0349 205.912 39.2469 204.31 39.3255V39.853C205.676 39.7208 206.226 39.6958 207.145 39.6958C208.091 39.6958 208.617 39.7207 209.984 39.853V39.3255C208.617 39.2731 208.275 39.0088 208.275 37.956V31.5761C208.275 29.4153 209.221 28.2839 211.007 28.2839C212.687 28.2839 213.37 29.2055 213.37 31.4986V37.956C213.37 39.0089 213.029 39.2731 211.61 39.3255V39.853C212.976 39.7208 213.501 39.6958 214.473 39.6958C215.418 39.6958 215.945 39.7207 217.338 39.853V39.3255C215.735 39.2469 215.471 39.035 215.471 37.9022V31.5761C215.471 30.5756 215.34 29.838 215.076 29.2054C214.552 27.9142 213.186 27.0974 211.61 27.0974C210.089 27.0974 209.009 27.7302 208.063 29.1537C208.009 28.1519 207.933 27.4669 207.801 26.8606V26.8606ZM106.713 26.9123C105.635 27.2278 104.742 27.3872 103.245 27.5195V27.9932H103.586C104.951 28.0193 105.084 28.1523 105.11 29.2851V29.7071V37.9022C105.11 39.0349 104.822 39.2469 103.219 39.3255V39.853C104.664 39.7207 105.215 39.6936 106.161 39.6936C107.08 39.6936 107.632 39.7207 109.076 39.853V39.3255C107.474 39.2469 107.211 39.0349 107.211 37.9022V32.3943C107.211 29.7843 108.077 28.1267 109.443 28.1267C109.915 28.1267 110.232 28.3882 110.232 28.7575V28.9944L110.179 29.2592C110.153 29.3654 110.127 29.4696 110.127 29.5219C110.127 30.0497 110.6 30.4177 111.205 30.4177C111.861 30.4177 112.308 29.9164 112.308 29.1516C112.308 27.8879 111.335 27.0178 110.022 27.0178C108.657 27.0178 107.526 27.8885 106.949 29.3906V29.0999C106.896 28.3089 106.843 27.8879 106.713 26.9123ZM96.8734 27.0178C93.7213 27.0178 91.753 29.574 91.753 33.6324C91.753 37.6907 93.7211 40.064 97.1094 40.064C99.6833 40.064 101.364 38.4551 101.706 35.7404H100.657C100.341 37.9811 99.1849 39.1941 97.3197 39.1941C94.9299 39.1941 93.88 37.3504 93.8539 33.2383H101.68C101.628 29.18 99.9732 27.0178 96.8734 27.0178ZM129.637 27.0178C126.485 27.0178 124.514 29.574 124.514 33.6324C124.514 37.6907 126.484 40.064 129.873 40.064C132.447 40.064 134.129 38.4551 134.47 35.7404H133.418C133.103 37.9811 131.948 39.1941 130.083 39.1941C127.693 39.1941 126.641 37.3504 126.615 33.2383H134.444C134.39 29.18 132.737 27.0178 129.637 27.0178ZM154.689 27.0178C151.537 27.0178 149.567 29.574 149.567 33.6324C149.567 37.6907 151.537 40.064 154.925 40.064C157.499 40.064 159.18 38.4551 159.522 35.7404H158.471C158.155 37.9811 157.001 39.1941 155.136 39.1941C152.746 39.1941 151.694 37.3504 151.668 33.2383H159.496C159.443 29.18 157.788 27.0178 154.689 27.0178ZM198.138 27.0178C194.986 27.0178 193.015 29.574 193.015 33.6324C193.015 37.6907 194.985 40.064 198.374 40.064C200.948 40.064 202.629 38.4551 202.971 35.7404H201.919C201.604 37.9811 200.45 39.1941 198.586 39.1941C196.195 39.1941 195.144 37.3504 195.118 33.2383H202.945C202.891 29.18 201.238 27.0178 198.138 27.0178ZM219.252 27.3343L218.645 30.76H219.173C220.118 28.3884 220.538 28.019 222.246 28.019H225.474L218.358 39.7733H227.392L228.077 35.9794H227.525C226.736 38.3772 226.002 39.0886 224.214 39.0886H221.143L228.287 27.3343L219.252 27.3343ZM96.8476 27.7025C98.5548 27.7025 99.4215 29.1785 99.5795 32.2888H93.9054C94.1677 29.2585 95.1665 27.7025 96.8476 27.7025ZM129.609 27.7025C131.316 27.7025 132.183 29.1785 132.341 32.2888H126.667C126.929 29.2585 127.928 27.7025 129.609 27.7025ZM154.664 27.7025C156.371 27.7025 157.238 29.1785 157.395 32.2888H151.721C151.984 29.2585 152.982 27.7025 154.664 27.7025ZM198.112 27.7025C199.819 27.7025 200.686 29.1785 200.844 32.2888H195.17C195.432 29.2585 196.431 27.7025 198.112 27.7025ZM141.637 27.9135C143.581 27.9135 144.579 29.918 144.579 33.7917C144.579 37.4546 143.608 39.3513 141.717 39.3513C139.825 39.3513 138.828 37.3755 138.828 33.6066C138.828 29.7852 139.746 27.9135 141.637 27.9135ZM182.319 30.999H184.815C186.208 30.999 186.994 31.2346 187.599 31.8409C188.203 32.4473 188.543 33.5796 188.543 34.8446C188.543 37.4795 187.23 38.9573 184.892 38.9573H183.948C182.556 38.9573 182.319 38.7446 182.319 37.5857V30.999ZM171.785 32.0433V33.4063H177.654V32.0433H171.785Z" fill="#231F20"/>
</svg>
