<svg width="226" height="36" viewBox="0 0 226 36" fill="none" xmlns="http://www.w3.org/2000/svg">
<g clip-path="url(#clip0_1738_399)">
<path d="M31.5696 7.02087C32.39 8.09848 33.0846 9.2692 33.6391 10.5095L17.9076 22.2914L11.333 18.1042V13.0668L17.9076 17.254L31.5696 7.02087Z" fill="#21A038"/>
<path d="M4.62264 17.7487C4.62264 17.5226 4.62806 17.2981 4.63891 17.0748L0.654512 16.8765C0.640951 17.1658 0.632817 17.4579 0.632817 17.7527C0.631122 20.0563 1.07709 22.3374 1.94515 24.4654C2.81321 26.5934 4.08627 28.5263 5.69129 30.1533L8.51753 27.2832C7.28204 26.0331 6.30191 24.5471 5.63349 22.9109C4.96508 21.2746 4.62155 19.5202 4.62264 17.7487Z" fill="url(#paint0_linear_1738_399)"/>
<path d="M17.9037 4.2558C18.1261 4.2558 18.347 4.26407 18.5667 4.27509L18.7661 0.225636C18.4805 0.211857 18.1929 0.204969 17.9037 0.204969C15.6353 0.202159 13.3888 0.654602 11.2931 1.53632C9.19734 2.41804 7.29368 3.71166 5.69141 5.34292L8.51764 8.21432C9.7482 6.95867 11.2109 5.96253 12.8217 5.28318C14.4325 4.60384 16.1595 4.25468 17.9037 4.2558Z" fill="url(#paint1_linear_1738_399)"/>
<path d="M17.9039 31.2419C17.6815 31.2419 17.4604 31.2419 17.2394 31.224L17.04 35.272C17.3266 35.2867 17.6146 35.2941 17.9039 35.2941C20.1713 35.2965 22.4167 34.8438 24.5113 33.9618C26.6059 33.0798 28.5084 31.786 30.1094 30.1548L27.2886 27.2848C26.0578 28.5398 24.5952 29.5354 22.9847 30.2144C21.3743 30.8935 19.6476 31.2427 17.9039 31.2419Z" fill="url(#paint2_linear_1738_399)"/>
<path d="M25.3899 6.6102L28.7478 4.09565C25.6787 1.57072 21.8476 0.196238 17.8984 0.203274V4.25548C20.5726 4.25211 23.1848 5.07318 25.3899 6.6102Z" fill="url(#paint3_linear_1738_399)"/>
<path d="M35.173 17.7487C35.1752 16.6945 35.0844 15.6422 34.9018 14.6044L31.1846 17.3876C31.1846 17.5076 31.1846 17.6274 31.1846 17.7487C31.1855 19.6339 30.7965 21.4984 30.0429 23.2211C29.2892 24.9438 28.1876 26.4864 26.8096 27.7489L29.4907 30.7596C31.2823 29.1164 32.7139 27.109 33.6928 24.8677C34.6718 22.6262 35.176 20.2008 35.173 17.7487Z" fill="#21A038"/>
<path d="M17.9039 31.2418C16.0481 31.2425 14.2129 30.8472 12.5171 30.0815C10.8213 29.3158 9.30263 28.1968 8.0595 26.7969L5.09766 29.5195C6.71482 31.34 8.69054 32.7947 10.8967 33.7896C13.1029 34.7843 15.4902 35.2969 17.9039 35.294V31.2418Z" fill="url(#paint4_linear_1738_399)"/>
<path d="M8.99762 7.7483L6.31785 4.73773C4.52578 6.38063 3.09361 8.38787 2.11423 10.6293C1.13486 12.8707 0.630142 15.2962 0.632823 17.7486H4.62265C4.62182 15.8634 5.01086 13.999 5.76451 12.2762C6.51818 10.5536 7.61967 9.01091 8.99762 7.7483Z" fill="url(#paint5_linear_1738_399)"/>
<path d="M100.296 10.2371L105.237 6.58032H88.6992V28.5547H105.237V24.8979H93.4182V19.2691H103.5V15.6123H93.4182V10.2371H100.296Z" fill="#21A038"/>
<path d="M77.572 15.1408H71.8304V10.2357H80.9938L85.9323 6.56775H67.1143V28.5421H76.9647C82.4873 28.5421 85.6568 26.0278 85.6568 21.643C85.6568 17.4482 82.786 15.1408 77.572 15.1408ZM76.7523 24.8841H71.8304V18.7953H76.7523C79.7393 18.7953 81.1398 19.8157 81.1398 21.8398C81.1398 23.8638 79.6496 24.8841 76.7523 24.8841Z" fill="#21A038"/>
<path d="M117.395 6.57715H108.393V28.5514H113.111V22.3265H117.395C123.138 22.3265 126.691 19.2907 126.691 14.4401C126.691 9.58957 123.138 6.57715 117.395 6.57715ZM117.295 18.6669H113.111V10.2368H117.295C120.316 10.2368 121.984 11.7346 121.984 14.4535C121.984 17.1723 120.316 18.6669 117.295 18.6669Z" fill="#21A038"/>
<path d="M60.0333 23.3656C58.8144 24.0286 57.4488 24.3719 56.0628 24.3638C51.9145 24.3638 48.9051 21.389 48.9051 17.2926C48.9051 13.1961 51.9145 10.2149 56.0628 10.2149C57.5588 10.1894 59.0237 10.645 60.2436 11.5154L63.5442 9.07373L63.3209 8.91443C61.3956 7.21409 58.8231 6.31354 55.8784 6.31354C52.6846 6.31354 49.7885 7.3929 47.7208 9.35658C46.6752 10.3676 45.8484 11.5843 45.2916 12.9307C44.7349 14.2771 44.4602 15.7242 44.4849 17.182C44.4628 18.6545 44.7362 20.1165 45.2888 21.4806C45.8415 22.8447 46.6619 24.0828 47.7014 25.1213C49.7788 27.163 52.6684 28.2878 55.8396 28.2878C59.1531 28.2878 62.0493 27.1271 64.0102 25.014L61.0558 22.8032L60.0333 23.3656Z" fill="#21A038"/>
<path d="M145.4 15.1408H139.661V10.2357H151.994V6.56775H134.941V28.5421H144.779C150.301 28.5421 153.471 26.0278 153.471 21.643C153.484 17.4482 150.614 15.1408 145.4 15.1408ZM144.58 24.8841H139.661V18.7953H144.58C147.567 18.7953 148.967 19.8157 148.967 21.8398C148.967 23.8638 147.49 24.8841 144.58 24.8841Z" fill="#21A038"/>
<path d="M207.116 28.5107H202.332V6.53632H207.116V15.7657H209.719L216.75 6.53632H222.172L213.832 16.9898L223.516 28.5107H217.169L210.051 19.8684H207.116V28.5107Z" fill="#21A038"/>
<path d="M170.85 24.3346H160.731L159.016 28.6017H153.925L163.416 6.62744H168.506L177.843 28.6017H172.566L170.85 24.3346ZM169.265 20.353L165.821 11.8186L162.357 20.353H169.265Z" fill="#21A038"/>
<path d="M184.283 6.62744V15.8035H194.182V6.62744H199.114V28.6017H194.182V19.9431H184.283V28.6017H179.351V6.62744H184.283Z" fill="#21A038"/>
</g>
<defs>
<linearGradient id="paint0_linear_1738_399" x1="6.49821" y1="29.6476" x2="2.01451" y2="16.8901" gradientUnits="userSpaceOnUse">
<stop offset="0.14" stop-color="#F1E813"/>
<stop offset="0.3" stop-color="#E6E418"/>
<stop offset="0.58" stop-color="#C9DA26"/>
<stop offset="0.89" stop-color="#A2CC39"/>
</linearGradient>
<linearGradient id="paint1_linear_1738_399" x1="6.83058" y1="6.05939" x2="18.1028" y2="1.83127" gradientUnits="userSpaceOnUse">
<stop offset="0.06" stop-color="#0FA7DF"/>
<stop offset="0.54" stop-color="#0098F8"/>
<stop offset="0.92" stop-color="#0290EA"/>
</linearGradient>
<linearGradient id="paint2_linear_1738_399" x1="16.777" y1="32.8484" x2="29.4926" y2="30.021" gradientUnits="userSpaceOnUse">
<stop offset="0.12" stop-color="#A2CC39"/>
<stop offset="0.28" stop-color="#86C239"/>
<stop offset="0.87" stop-color="#219F38"/>
</linearGradient>
<linearGradient id="paint3_linear_1738_399" x1="17.0685" y1="1.56044" x2="27.9527" y2="4.86644" gradientUnits="userSpaceOnUse">
<stop offset="0.06" stop-color="#0290EA"/>
<stop offset="0.79" stop-color="#0C89CA"/>
</linearGradient>
<linearGradient id="paint4_linear_1738_399" x1="6.0985" y1="29.0263" x2="17.9588" y2="33.3891" gradientUnits="userSpaceOnUse">
<stop offset="0.13" stop-color="#F1E813"/>
<stop offset="0.3" stop-color="#EAE616"/>
<stop offset="0.53" stop-color="#D8DF1F"/>
<stop offset="0.8" stop-color="#BAD52D"/>
<stop offset="0.98" stop-color="#A2CC39"/>
</linearGradient>
<linearGradient id="paint5_linear_1738_399" x1="2.11917" y1="18.2391" x2="6.99425" y2="5.75676" gradientUnits="userSpaceOnUse">
<stop offset="0.07" stop-color="#A2CC39"/>
<stop offset="0.26" stop-color="#81C45E"/>
<stop offset="0.92" stop-color="#0FA7DF"/>
</linearGradient>
<clipPath id="clip0_1738_399">
<rect width="224.732" height="35.4031" fill="white" transform="translate(0.632812 0.203247)"/>
</clipPath>
</defs>
</svg>
