<svg width="144" height="78" viewBox="0 0 144 78" fill="none" xmlns="http://www.w3.org/2000/svg">
<path fill-rule="evenodd" clip-rule="evenodd" d="M71.9554 0.197693H75.681L79.2514 0.353807C165.261 7.10564 165.258 70.2529 79.2514 77.0047L75.681 77.1609H68.2298C46.6059 76.8746 8.61016 68.2729 0.858881 44.5335L0.393183 42.6601L0.0827192 40.6307C-1.44632 14.9321 37.5688 2.50034 57.5188 0.978247L64.6595 0.353807L68.2298 0.197693H71.9554ZM71.9554 3.47604H75.3705L78.7857 3.63216C159.719 9.6919 159.719 67.7889 78.7857 73.7264L75.3705 73.8825H68.5403C48.6395 73.8071 12.403 65.9182 5.05016 44.0651L4.58447 42.3479L4.42923 40.4746C2.71909 16.743 40.2078 5.68242 58.2949 4.10049L61.7101 3.78827L65.1252 3.63216L68.5403 3.47604H71.9554ZM71.9554 7.84717L75.2153 8.00329H78.4752C153.885 13.6077 153.908 63.8575 78.4752 69.3553L75.2153 69.5114H68.6955C51.2707 69.3787 16.2166 62.7257 9.55191 43.4407L9.08621 41.8796L8.93098 40.3185C7.36054 18.8921 43.4392 9.80377 59.2263 8.47162L62.331 8.31551L65.4357 8.00329H68.6955L71.9554 7.84717ZM71.9554 6.44217H75.2153L78.4752 6.59828C155.548 12.0882 155.551 65.3458 78.4752 70.7603L75.2153 70.9164H68.6955C50.629 70.945 14.8816 63.6702 8.31005 43.5968L7.84435 42.0357L7.53389 40.3185C6.5999 17.9346 41.9955 8.53667 58.9159 7.06662L62.1758 6.75439L65.4357 6.59828L68.6955 6.44217H71.9554ZM20.263 51.7146V25.8H27.8694L37.4938 41.099V25.8H44.4792V51.7146H37.0281L27.2484 36.1034V51.7146H20.263ZM49.2915 51.7146V25.8H56.5874V45.4701H64.349V51.7146H49.2915ZM65.4357 51.7146L69.3165 25.8H76.6124L81.1141 41.5673L85.7711 25.8H93.0671L96.9479 51.7146H89.8072L87.9444 36.7279L83.4426 51.7146H78.7857L74.4391 36.7279L72.4211 51.7146H65.4357ZM99.7421 51.7146V25.8H107.038V36.7279L114.955 25.8H123.493L113.558 38.289L123.803 51.7146H114.644L107.038 40.6307V51.7146" fill="#004696"/>
</svg>
