<svg width="36" height="19" viewBox="0 0 36 19" fill="none" xmlns="http://www.w3.org/2000/svg">
<path d="M36 9.38583C35.9852 9.0502 35.8294 8.66218 35.5698 8.41756L27.099 0.437148C26.5252 -0.020286 25.4243 -0.208893 24.7829 0.319927C24.151 0.840884 24.1699 1.85074 24.7991 2.37364L30.755 7.97753H1.58832C0.71127 7.97753 0 8.60818 0 9.38588C0 10.1636 0.711241 10.7942 1.58832 10.7942H30.755L24.7991 16.3981C24.257 16.8795 24.1569 17.9253 24.7829 18.4518C25.4084 18.9787 26.5485 18.8104 27.099 18.3343L35.5698 10.3539C35.8597 10.0808 36.0007 9.76044 36 9.38583Z" fill="#6134EA"/>
</svg>
