<svg width="17" height="22" viewBox="0 0 17 22" fill="none" xmlns="http://www.w3.org/2000/svg">
<path fill-rule="evenodd" clip-rule="evenodd" d="M16.962 9.72889C16.8628 9.43555 16.5652 9.19111 16.2676 9.14222L13.3414 8.8L12.3495 6.25778C12.2503 5.91556 11.9032 5.72 11.556 5.72C11.2088 5.72 10.9112 5.91556 10.7624 6.25778L9.7705 8.8L6.84431 9.14222C6.49714 9.19111 6.24915 9.38667 6.14996 9.72889C6.05077 10.0222 6.14996 10.3644 6.39794 10.6089L8.72898 12.5644L8.08422 15.4978C7.98503 15.84 8.13382 16.1822 8.4314 16.3778C8.72898 16.5733 9.12575 16.5733 9.37373 16.3778L11.556 14.8133L13.7382 16.3778C13.887 16.4756 14.0358 16.5244 14.2342 16.5244C14.383 16.5244 14.5814 16.4756 14.6806 16.3778C14.9781 16.1822 15.1269 15.84 15.0277 15.4978L14.383 12.5644L16.714 10.6089C16.962 10.3644 17.0612 10.0222 16.962 9.72889Z" fill="white"/>
<path fill-rule="evenodd" clip-rule="evenodd" d="M13.1927 17.0622L11.7544 16.0844C11.6056 15.9867 11.3576 15.9867 11.2088 16.0844L9.72091 17.1111C9.17535 17.5022 8.481 17.5511 7.78664 17.2089L7.24108 16.8178C6.84431 16.3778 6.69552 15.84 6.84431 15.3022L7.34028 13.1022C7.38987 12.9556 7.34028 12.76 7.19149 12.6622L5.40601 11.1956C4.86045 10.7556 4.61247 10.0222 4.86045 9.33778C5.05884 8.65333 5.70359 8.16444 6.39794 8.11556L8.62978 7.87111C8.82817 7.87111 8.97696 7.72444 9.02656 7.57778L9.72091 5.76889C9.96889 5.08444 10.6632 4.64444 11.4568 4.64444C11.8536 4.64444 12.2503 4.79111 12.5975 5.03556C12.7463 5.13333 12.9447 5.18222 13.0935 5.08444C13.2423 4.98667 13.3414 4.84 13.3414 4.69333V1.85778C13.391 0.831111 12.5479 0 11.4568 0H1.93426C0.84314 0 0 0.831111 0 1.85778V21.56C0 21.7556 0.0991929 21.9022 0.247982 21.9511C0.347175 22 0.396772 22 0.495965 22C0.595158 22 0.69435 21.9511 0.793543 21.9022L6.69552 17.5511L12.5975 21.9022C12.6967 21.9511 12.7959 22 12.8951 22C12.9447 22 13.0439 22 13.0935 21.9511C13.2423 21.8533 13.3414 21.7067 13.3414 21.56V17.4533C13.391 17.2578 13.3414 17.16 13.1927 17.0622Z" fill="white"/>
</svg>
