<svg width="23" height="23" viewBox="0 0 23 23" fill="none" xmlns="http://www.w3.org/2000/svg">
<path fill-rule="evenodd" clip-rule="evenodd" d="M17.2756 11.5C17.2756 11.7044 17.2756 11.96 17.2244 12.1644L18.7578 13.4422C18.9111 13.5956 18.9622 13.8511 18.86 14.0556L17.4289 16.56C17.3267 16.7644 17.0711 16.8667 16.8667 16.7644L14.9756 16.0489C14.6178 16.3044 14.2089 16.56 13.8 16.7133L13.4422 18.7067C13.3911 18.9111 13.1867 19.1156 12.9822 19.1156H10.12C9.86445 19.1156 9.71111 18.9622 9.66 18.7067L9.30222 16.7133C8.89333 16.5089 8.48445 16.3044 8.12667 16.0489L6.23555 16.7644C6.03111 16.8667 5.77556 16.7644 5.67333 16.56L4.24222 14.0556C4.14 13.8511 4.19111 13.5956 4.34444 13.4422L5.87778 12.1644C5.82667 11.9089 5.82667 11.7044 5.82667 11.5C5.82667 11.2956 5.82667 11.04 5.87778 10.8356L4.34444 9.55778C4.19111 9.40445 4.14 9.14889 4.24222 8.94444L5.62222 6.44C5.72444 6.23556 5.98 6.13333 6.18444 6.23556L8.07556 6.95111C8.43334 6.69556 8.84222 6.44 9.25111 6.28667L9.60889 4.29333C9.66 4.08889 9.86444 3.88444 10.0689 3.88444H12.9311C13.1867 3.88444 13.34 4.03778 13.3911 4.29333L13.7489 6.28667C14.1578 6.49111 14.5667 6.69556 14.9244 6.95111L16.8156 6.23556C17.02 6.13333 17.2756 6.23556 17.3778 6.44L18.8089 8.94444C18.9111 9.14889 18.86 9.40445 18.7067 9.55778L17.1733 10.8356C17.2756 11.04 17.2756 11.2956 17.2756 11.5ZM11.5 0C5.16222 0 0 5.16222 0 11.5C0 17.8378 5.16222 23 11.5 23C17.8378 23 23 17.8378 23 11.5C23 5.16222 17.8378 0 11.5 0Z" fill="white"/>
<path d="M11.5 14.8222C13.0525 14.8222 14.3111 13.4492 14.3111 11.7556C14.3111 10.0619 13.0525 8.68889 11.5 8.68889C9.94747 8.68889 8.68889 10.0619 8.68889 11.7556C8.68889 13.4492 9.94747 14.8222 11.5 14.8222Z" fill="white"/>
</svg>
