<svg width="16" height="22" viewBox="0 0 16 22" fill="none" xmlns="http://www.w3.org/2000/svg">
<path fill-rule="evenodd" clip-rule="evenodd" d="M8 19.2622C5.81818 19.2622 3.97576 17.4044 3.97576 15.1556C3.97576 12.8578 5.7697 11.0489 8 11.0489C10.1818 11.0489 12.0242 12.9067 12.0242 15.1556C12.0242 17.4044 10.1818 19.2622 8 19.2622ZM11.9273 9.58222L16 0H10.6667L8.72727 4.59556L10.5212 8.8C9.98788 8.60444 9.45455 8.45778 8.87273 8.36L5.33333 0H0L4.07273 9.58222C2.42424 10.8533 1.35758 12.8578 1.35758 15.1067C1.35758 18.92 4.31515 22 8 22C11.6848 22 14.6424 18.92 14.6424 15.1067C14.6909 12.8578 13.5758 10.8533 11.9273 9.58222Z" fill="white"/>
<path fill-rule="evenodd" clip-rule="evenodd" d="M9.89091 13.4933C10.9091 14.52 10.9091 16.2311 9.89091 17.3067C8.87273 18.3333 7.17576 18.3333 6.10909 17.3067C5.09091 16.28 5.09091 14.5689 6.10909 13.4933C7.17576 12.4667 8.82424 12.4667 9.89091 13.4933Z" fill="white"/>
</svg>
