<svg viewBox="0 0 242 62" fill="none" xmlns="http://www.w3.org/2000/svg">
<path fill-rule="evenodd" clip-rule="evenodd" d="M167.026 28.3046C167.053 29.7086 168.235 30.837 169.656 30.837C171.077 30.837 172.258 29.7086 172.258 28.3046V22.5051H180.837V28.3046C180.837 29.7086 182.045 30.837 183.466 30.837C184.887 30.837 186.068 29.7086 186.068 28.3046V11.6014C186.068 10.1975 184.86 9.06907 183.439 9.06907C182.018 9.06907 180.837 10.1975 180.837 11.6014V17.401H172.232V11.6014C172.232 10.1975 171.05 9.06907 169.629 9.06907C168.208 9.06907 167.026 10.1975 167.026 11.6014V28.3046ZM104.615 14.3831V28.3046C104.615 29.7348 105.824 30.837 107.258 30.837C108.718 30.837 109.9 29.7217 109.9 28.3046V14.3831H113.857C115.305 14.3831 116.46 13.2547 116.46 11.8245C116.46 10.4468 115.292 9.29213 113.857 9.29213H100.658C99.2107 9.29213 98.0555 10.4468 98.0555 11.8245C98.0555 13.2547 99.224 14.3831 100.658 14.3831H104.615ZM86.2106 20.6812L80.089 10.3418C79.3852 9.17404 77.9113 8.75417 76.6365 9.31838C75.3484 10.0532 74.9368 11.6014 75.6804 12.8348L82.9838 25.0243C82.0941 25.6017 81.1381 25.8116 80.1023 25.8903C78.6814 26.0215 77.7254 27.0187 77.7254 28.344C77.7254 29.9185 79.0134 30.7976 80.328 30.7976C83.2892 30.7976 85.8786 29.3149 87.751 27.2418C89.4507 25.3524 90.7387 22.9643 91.9471 20.7337L96.2495 12.7561C96.9002 11.5227 96.5018 9.90882 95.1739 9.27901C93.9257 8.68856 92.3986 9.21341 91.7347 10.4337L86.2106 20.6812ZM190.238 19.9727C190.238 26.2184 194.926 30.837 201.286 30.837C207.647 30.837 212.334 26.1921 212.334 19.9727C212.334 13.7271 207.607 9.08219 201.286 9.08219C194.926 9.08219 190.238 13.7271 190.238 19.9727ZM207.036 19.9727C207.036 23.3055 204.699 25.8116 201.273 25.8116C197.834 25.8116 195.51 23.2923 195.51 19.9727C195.51 16.64 197.847 14.1076 201.273 14.1076C204.712 14.1076 207.036 16.64 207.036 19.9727ZM230.314 14.3962C231.761 14.3962 232.903 13.2809 232.903 11.8901C232.903 10.5255 231.761 9.37086 230.314 9.37086H226.37C219.93 9.37086 215.349 13.9108 215.349 20.0121C215.349 26.1003 219.93 30.6533 226.37 30.6533H230.314C231.761 30.6533 232.903 29.538 232.903 28.134C232.903 26.7694 231.761 25.6148 230.314 25.6148H226.224C222.785 25.6148 220.527 23.2267 220.527 19.999C220.527 16.7712 222.798 14.3831 226.224 14.3831H230.314V14.3962ZM134.307 30.0891C135.276 31.0732 136.91 31.1125 137.906 30.1284C138.875 29.1837 138.981 27.5567 138.012 26.5726L131.372 19.8021L137.746 13.2941C138.702 12.31 138.609 10.6961 137.64 9.77761C136.671 8.79353 135.037 8.83289 134.081 9.81698L127.495 16.5219C126.924 17.1123 126.526 17.191 126.101 17.191C125.45 17.191 124.892 16.7449 124.892 16.0757V11.6014C124.892 10.1975 123.71 9.06907 122.29 9.06907C120.869 9.06907 119.687 10.1975 119.687 11.6014V28.3177C119.687 29.7217 120.869 30.8501 122.29 30.8501C123.71 30.8501 124.892 29.7217 124.892 28.3177V23.5679C124.892 22.925 125.45 22.4788 126.101 22.4788C126.526 22.4788 126.924 22.5576 127.495 23.148L134.307 30.0891ZM140.787 19.9727C140.787 26.2184 145.475 30.837 151.835 30.837C158.196 30.837 162.883 26.1921 162.883 19.9727C162.883 13.7271 158.156 9.08219 151.835 9.08219C145.475 9.08219 140.787 13.7271 140.787 19.9727ZM157.598 19.9727C157.598 23.3055 155.261 25.8116 151.835 25.8116C148.396 25.8116 146.072 23.2923 146.072 19.9727C146.072 16.64 148.409 14.1076 151.835 14.1076C155.261 14.1076 157.598 16.64 157.598 19.9727ZM239.37 17.9258C240.765 17.9258 241.999 16.7974 241.999 15.3147C241.999 13.8845 240.765 12.743 239.37 12.743C237.936 12.743 236.728 13.8976 236.728 15.3147C236.714 16.7843 237.923 17.9258 239.37 17.9258ZM239.37 27.2024C240.765 27.2024 241.999 26.0347 241.999 24.5913C241.999 23.1611 240.765 22.0327 239.37 22.0327C237.936 22.0327 236.728 23.1611 236.728 24.5913C236.714 26.0215 237.923 27.2024 239.37 27.2024Z" fill="#13A538"/>
<path d="M79.6776 41.9636C82.2139 41.9636 83.6082 43.8268 83.6082 46.123C83.6082 48.4192 82.2272 50.2824 79.6776 50.2824C77.1414 50.2824 75.7471 48.4192 75.7471 46.123C75.7603 43.8268 77.1414 41.9636 79.6776 41.9636ZM79.6776 49.4295C81.5234 49.4295 82.6521 48.1437 82.6521 46.123C82.6521 44.1024 81.5234 42.8165 79.6776 42.8165C77.8319 42.8165 76.7032 44.1024 76.7032 46.123C76.7032 48.1437 77.8319 49.4295 79.6776 49.4295Z" fill="white"/>
<path d="M92.1337 42.134C92.4524 42.134 92.5985 42.3833 92.5985 42.6589V49.5999C92.5985 49.8755 92.4524 50.1248 92.1337 50.1248C91.815 50.1248 91.6689 49.8755 91.6689 49.5999V46.4246H86.8221V49.5999C86.8221 49.8755 86.676 50.1248 86.3573 50.1248C86.0386 50.1248 85.8926 49.8755 85.8926 49.5999V42.6589C85.8926 42.3833 86.0386 42.134 86.3573 42.134C86.676 42.134 86.8221 42.3833 86.8221 42.6589V45.5718H91.6689V42.6589C91.6689 42.3702 91.815 42.134 92.1337 42.134Z" fill="white"/>
<path d="M95.6523 48.4715C96.117 47.2906 96.3162 44.942 96.3959 42.5408C96.3959 42.2915 96.5818 42.134 96.8474 42.134H100.844C101.176 42.134 101.336 42.3571 101.336 42.6326V49.5999C101.336 49.8755 101.19 50.1248 100.871 50.1248C100.552 50.1248 100.406 49.8755 100.406 49.5999V42.9738H97.259C97.1661 44.7976 97.0333 47.4743 96.3959 48.9439C95.9975 49.8624 95.4265 50.2035 94.7626 50.2035C94.4306 50.2035 94.0588 50.0723 94.0986 49.6787C94.1518 49.2982 94.3908 49.3244 94.6962 49.3244C95.1344 49.3244 95.4531 48.957 95.6523 48.4715Z" fill="white"/>
<path d="M104.243 43.1708C104.111 42.8559 104.27 42.6853 104.522 42.5541C105.133 42.2392 106.169 41.9636 107.152 41.9636C109.316 41.9636 110.206 43.0527 110.206 44.8503V49.6001C110.206 49.8756 110.06 50.1249 109.741 50.1249C109.422 50.1249 109.276 49.8756 109.276 49.6001V48.3798C108.878 49.2983 107.908 50.2824 106.129 50.2824C104.549 50.2824 103.46 49.482 103.46 47.9075C103.46 45.8081 105.385 45.2177 107.125 45.2177C108.054 45.2177 108.692 45.2964 109.289 45.3751V44.9159C109.289 43.63 108.625 42.8165 107.072 42.8165C106.262 42.8165 105.664 43.0133 104.987 43.2757C104.708 43.3807 104.363 43.4463 104.243 43.1708ZM109.276 46.5035V46.1886C108.599 46.0968 108.121 46.0312 107.244 46.0312C105.611 46.0312 104.403 46.5166 104.403 47.8681C104.403 48.7997 105.027 49.4295 106.235 49.4295C108.307 49.4295 109.276 47.75 109.276 46.5035Z" fill="white"/>
<path d="M113.473 49.8887C113.38 50.0068 113.221 50.1118 112.995 50.1118C112.676 50.1118 112.53 49.8625 112.53 49.5869V42.6459C112.53 42.3703 112.676 42.121 112.995 42.121C113.314 42.121 113.46 42.3703 113.46 42.6459V48.6291L118.426 42.3572C118.559 42.2129 118.692 42.1341 118.891 42.1341C119.21 42.1341 119.356 42.3834 119.356 42.659V49.6C119.356 49.8756 119.21 50.1249 118.891 50.1249C118.572 50.1249 118.426 49.8756 118.426 49.6V43.6693L113.473 49.8887ZM113.752 39.628C113.659 39.3787 113.659 39.1163 113.885 38.9982C114.15 38.8539 114.376 39.0244 114.509 39.2606C114.801 39.7855 115.266 40.1791 115.996 40.1791C116.726 40.1791 117.178 39.7855 117.483 39.2606C117.616 39.0375 117.842 38.867 118.107 38.9982C118.333 39.1163 118.333 39.3918 118.24 39.628C118.014 40.2053 117.271 40.9664 115.996 40.9664C114.735 40.9664 113.991 40.2053 113.752 39.628Z" fill="white"/>
<path d="M127.96 42.134C128.279 42.134 128.425 42.3833 128.425 42.6589V49.5999C128.425 49.8755 128.279 50.1248 127.96 50.1248C127.641 50.1248 127.495 49.8755 127.495 49.5999V46.4246H122.648V49.5999C122.648 49.8755 122.502 50.1248 122.184 50.1248C121.865 50.1248 121.719 49.8755 121.719 49.5999V42.6589C121.719 42.3833 121.865 42.134 122.184 42.134C122.502 42.134 122.648 42.3833 122.648 42.6589V45.5718H127.495V42.6589C127.508 42.3702 127.654 42.134 127.96 42.134Z" fill="white"/>
<path d="M131.08 45.7163C131.08 45.467 131.266 45.2964 131.532 45.2964H135.861C136.126 45.2964 136.312 45.4801 136.312 45.7163C136.312 45.9787 136.126 46.1361 135.861 46.1361H131.532C131.266 46.1361 131.08 45.9787 131.08 45.7163Z" fill="white"/>
<path d="M139.885 49.5999C139.885 49.8755 139.739 50.1248 139.42 50.1248C139.101 50.1248 138.955 49.8755 138.955 49.5999V42.6589C138.955 42.3833 139.101 42.134 139.42 42.134H143.43C143.696 42.134 143.882 42.3177 143.882 42.5539C143.882 42.8163 143.696 42.9738 143.43 42.9738H139.885V49.5999Z" fill="white"/>
<path d="M146.697 49.8888C146.604 50.0069 146.444 50.1118 146.219 50.1118C145.9 50.1118 145.754 49.8625 145.754 49.587V42.6459C145.754 42.3704 145.9 42.1211 146.219 42.1211C146.537 42.1211 146.683 42.3704 146.683 42.6459V48.6292L151.65 42.3573C151.783 42.2129 151.915 42.1342 152.115 42.1342C152.433 42.1342 152.579 42.3835 152.579 42.6591V49.6001C152.579 49.8757 152.433 50.125 152.115 50.125C151.796 50.125 151.65 49.8757 151.65 49.6001V43.6694L146.697 49.8888Z" fill="white"/>
<path d="M156.204 42.9738V49.5999C156.204 49.8755 156.058 50.1248 155.739 50.1248C155.42 50.1248 155.274 49.8755 155.274 49.5999V42.6589C155.274 42.3833 155.434 42.134 155.726 42.134H161.277C161.595 42.134 161.755 42.3833 161.755 42.6589V49.5999C161.755 49.8755 161.608 50.1248 161.29 50.1248C160.971 50.1248 160.825 49.8755 160.825 49.5999V42.9738H156.204Z" fill="white"/>
<path d="M169.577 48.944C169.869 48.7997 170.108 48.7997 170.241 49.0227C170.373 49.2458 170.254 49.4951 170.041 49.6394C169.364 50.0855 168.435 50.2692 167.532 50.2692C164.956 50.2692 163.721 48.7078 163.721 46.1623C163.721 43.7612 165.088 41.9504 167.479 41.9504C169.656 41.9504 170.626 43.4856 170.626 45.047C170.626 45.2963 170.612 45.5325 170.573 45.7424C170.506 46.2279 170.294 46.5428 169.696 46.5428H164.65C164.783 48.406 165.806 49.4163 167.518 49.4163C168.329 49.4295 168.966 49.2327 169.577 48.944ZM164.664 45.7424H169.736C169.763 45.5325 169.763 45.3226 169.763 45.1257C169.736 43.7874 169.006 42.8164 167.426 42.8164C165.819 42.8164 164.796 43.853 164.664 45.7424Z" fill="white"/>
<path d="M179.961 45.8737C179.961 48.2355 178.805 50.2824 176.083 50.2824C175.207 50.2824 174.41 50.1249 173.786 49.7707V52.8541C173.786 53.1297 173.64 53.379 173.321 53.379C173.003 53.379 172.856 53.1297 172.856 52.8541V42.6459C172.856 42.3704 173.003 42.1211 173.321 42.1211C173.64 42.1211 173.786 42.3704 173.786 42.6459V43.9711C174.317 42.6459 175.353 41.9636 176.787 41.9636C178.925 41.9636 179.961 43.5906 179.961 45.8737ZM173.786 47.2645V48.8653C174.49 49.2721 175.22 49.4427 176.097 49.4427C178.288 49.4427 179.005 47.7763 179.005 45.8868C179.005 44.1155 178.314 42.8165 176.654 42.8165C174.251 42.8165 173.786 45.2439 173.786 47.2645Z" fill="white"/>
<path d="M182.39 42.134C182.656 42.134 182.802 42.2652 182.975 42.5145L185.79 46.4509L188.685 42.5539C188.87 42.3046 189.03 42.1472 189.309 42.1472C189.627 42.1472 189.734 42.4096 189.734 42.672V49.6131C189.734 49.8886 189.587 50.1379 189.269 50.1379C188.95 50.1379 188.804 49.8886 188.804 49.6131V43.7086L186.175 47.2775C185.909 47.658 185.498 47.6055 185.272 47.2775L182.802 43.8398V49.6131C182.802 49.8886 182.682 50.1379 182.377 50.1379C182.058 50.1379 181.952 49.8886 181.952 49.6131V42.672C181.939 42.3571 182.072 42.134 182.39 42.134Z" fill="white"/>
<path d="M192.668 43.1708C192.535 42.8559 192.695 42.6853 192.947 42.5541C193.558 42.2392 194.594 41.9636 195.576 41.9636C197.741 41.9636 198.63 43.0527 198.63 44.8503V49.6001C198.63 49.8756 198.484 50.1249 198.166 50.1249C197.847 50.1249 197.701 49.8756 197.701 49.6001V48.3798C197.303 49.2983 196.333 50.2824 194.554 50.2824C192.974 50.2824 191.885 49.482 191.885 47.9075C191.885 45.8081 193.81 45.2177 195.55 45.2177C196.479 45.2177 197.117 45.2964 197.714 45.3751V44.9159C197.714 43.63 197.05 42.8165 195.497 42.8165C194.687 42.8165 194.089 43.0133 193.412 43.2757C193.133 43.3807 192.788 43.4463 192.668 43.1708ZM197.701 46.5035V46.1886C197.024 46.0968 196.546 46.0312 195.669 46.0312C194.036 46.0312 192.828 46.5166 192.828 47.8681C192.828 48.7997 193.452 49.4295 194.66 49.4295C196.732 49.4295 197.701 47.75 197.701 46.5035Z" fill="white"/>
<path d="M208.072 45.8737C208.072 48.2355 206.917 50.2824 204.195 50.2824C203.318 50.2824 202.521 50.1249 201.897 49.7707V52.8541C201.897 53.1297 201.751 53.379 201.433 53.379C201.114 53.379 200.968 53.1297 200.968 52.8541V42.6459C200.968 42.3704 201.114 42.1211 201.433 42.1211C201.751 42.1211 201.897 42.3704 201.897 42.6459V43.9711C202.428 42.6459 203.464 41.9636 204.898 41.9636C207.036 41.9636 208.072 43.5906 208.072 45.8737ZM201.897 47.2645V48.8653C202.601 49.2721 203.331 49.4427 204.208 49.4427C206.399 49.4427 207.116 47.7763 207.116 45.8868C207.116 44.1155 206.425 42.8165 204.766 42.8165C202.362 42.8165 201.897 45.2439 201.897 47.2645Z" fill="white"/>
<path d="M210.834 42.134C211.153 42.134 211.299 42.3833 211.299 42.6589V45.8211L214.884 42.344C215.11 42.1209 215.375 42.0553 215.588 42.2652C215.747 42.4227 215.734 42.7114 215.508 42.9344L212.175 46.031L215.893 49.2719C216.106 49.4687 216.172 49.7574 215.986 49.9673C215.787 50.2166 215.455 50.0985 215.229 49.9017L211.299 46.4115V49.5868C211.299 49.8624 211.153 50.1117 210.834 50.1117C210.515 50.1117 210.369 49.8624 210.369 49.5868V42.6458C210.369 42.3702 210.515 42.134 210.834 42.134Z" fill="white"/>
<path d="M223.503 48.944C223.795 48.7997 224.034 48.7997 224.166 49.0227C224.299 49.2458 224.18 49.4951 223.967 49.6394C223.29 50.0855 222.361 50.2692 221.458 50.2692C218.881 50.2692 217.646 48.7078 217.646 46.1623C217.646 43.7612 219.014 41.9504 221.404 41.9504C223.582 41.9504 224.552 43.4856 224.552 45.047C224.552 45.2963 224.538 45.5325 224.498 45.7424C224.432 46.2279 224.22 46.5428 223.622 46.5428H218.576C218.709 48.406 219.731 49.4163 221.444 49.4163C222.254 49.4295 222.892 49.2327 223.503 48.944ZM218.589 45.7424H223.662C223.688 45.5325 223.688 45.3226 223.688 45.1257C223.662 43.7874 222.932 42.8164 221.351 42.8164C219.745 42.8164 218.722 43.853 218.589 45.7424Z" fill="white"/>
<path d="M229.969 49.5999C229.969 49.8755 229.823 50.1248 229.504 50.1248C229.185 50.1248 229.039 49.8755 229.039 49.5999V42.9738H226.397C226.131 42.9738 225.945 42.8163 225.945 42.5539C225.945 42.3046 226.131 42.134 226.397 42.134H232.598C232.864 42.134 233.05 42.3177 233.05 42.5539C233.05 42.8163 232.864 42.9738 232.598 42.9738H229.956V49.5999H229.969Z" fill="white"/>
<path fill-rule="evenodd" clip-rule="evenodd" d="M57.3954 6.72028C57.3954 3.07261 54.4076 0.120361 50.7161 0.120361H7.66565C3.9741 0.120361 0.986328 3.07261 0.986328 6.72028V33.238C0.986328 48.6291 13.6146 61.1072 29.1909 61.1072C44.7671 61.1072 57.3954 48.6291 57.3954 33.238C57.3954 22.6887 57.4087 17.2828 57.3954 6.72028Z" fill="#FEC800"/>
<path fill-rule="evenodd" clip-rule="evenodd" d="M27.3321 40.6121C27.3321 39.1688 26.137 38.0142 24.6497 38.0142C23.1891 38.0142 22.0205 39.1688 22.0205 40.6121C22.0205 42.0555 23.1891 43.2364 24.6497 43.2364C26.137 43.2364 27.3321 42.0555 27.3321 40.6121ZM36.7602 40.6121C36.7602 39.1688 35.5651 38.0142 34.1044 38.0142C32.6437 38.0142 31.4486 39.1688 31.4486 40.6121C31.4486 42.0555 32.6437 43.2364 34.1044 43.2364C35.5651 43.2364 36.7602 42.0555 36.7602 40.6121Z" fill="black"/>
</svg>
