<svg width="60" height="60" viewBox="0 0 60 60" fill="none" xmlns="http://www.w3.org/2000/svg">
<g clip-path="url(#clip0_173_2165)">
<path d="M29.9357 13.8166C33.751 13.8166 36.844 10.7237 36.844 6.90832C36.844 3.09296 33.751 0 29.9357 0C26.1203 0 23.0273 3.09296 23.0273 6.90832C23.0273 10.7237 26.1203 13.8166 29.9357 13.8166Z" fill="white"/>
<path fill-rule="evenodd" clip-rule="evenodd" d="M20.7247 28.0173H39.1468C40.682 28.0173 41.9613 26.61 41.9613 24.819V23.9235C41.9613 21.6207 40.8099 19.4459 39.0189 18.2945C36.8441 17.0152 33.5178 15.3521 29.8078 15.3521C26.0978 15.3521 22.7716 16.8872 20.5967 18.2945C18.8057 19.4459 17.6543 21.4928 17.6543 23.9235V24.819C17.9102 26.61 19.1895 28.0173 20.7247 28.0173Z" fill="white"/>
<path d="M12.0255 47.0788C15.8409 47.0788 18.9338 43.9859 18.9338 40.1705C18.9338 36.3552 15.8409 33.2622 12.0255 33.2622C8.21015 33.2622 5.11719 36.3552 5.11719 40.1705C5.11719 43.9859 8.21015 47.0788 12.0255 47.0788Z" fill="white"/>
<path fill-rule="evenodd" clip-rule="evenodd" d="M21.2367 51.1729C19.0618 50.0215 15.7356 48.6143 12.0256 48.6143C8.31556 48.6143 4.98934 50.0215 2.8145 51.1729C1.15139 52.1963 0 54.1153 0 56.2902V57.0578C0 58.7209 1.27932 60.0002 2.8145 60.0002H21.2367C22.7719 60.0002 24.0512 58.7209 24.0512 57.0578V56.2902C24.1791 54.1153 23.0277 52.1963 21.2367 51.1729Z" fill="white"/>
<path d="M47.8468 47.0788C51.6622 47.0788 54.7551 43.9859 54.7551 40.1705C54.7551 36.3552 51.6622 33.2622 47.8468 33.2622C44.0314 33.2622 40.9385 36.3552 40.9385 40.1705C40.9385 43.9859 44.0314 47.0788 47.8468 47.0788Z" fill="white"/>
<path fill-rule="evenodd" clip-rule="evenodd" d="M57.058 51.1729C54.8831 50.0215 51.5569 48.6143 47.8469 48.6143C44.1369 48.6143 40.8106 50.0215 38.6358 51.1729C36.9727 52.1963 35.8213 54.1153 35.8213 56.2902V57.0578C35.8213 58.7209 37.1006 60.0002 38.6358 60.0002H57.058C58.5931 60.0002 59.8725 58.7209 59.8725 57.0578V56.2902C60.0004 54.1153 58.849 52.1963 57.058 51.1729Z" fill="white"/>
<path fill-rule="evenodd" clip-rule="evenodd" d="M36.8442 47.2068C37.228 47.2068 37.6118 47.0789 37.8677 46.6951C38.3794 46.0554 38.3794 45.2878 37.7397 44.7761L31.3431 39.6588V32.1109C31.3431 31.3433 30.7035 30.7036 29.9359 30.7036C29.1683 30.7036 28.5286 31.3433 28.5286 32.1109V39.6588L22.132 44.7761C21.4924 45.2878 21.4924 46.0554 21.8762 46.6951C22.132 47.0789 22.5158 47.2068 22.8996 47.2068C23.1555 47.2068 23.5393 47.0789 23.7952 46.9509L29.808 42.0895L35.8207 46.9509C36.3325 47.0789 36.5883 47.2068 36.8442 47.2068Z" fill="white"/>
</g>
<defs>
<clipPath id="clip0_173_2165">
<rect width="60" height="60" fill="white"/>
</clipPath>
</defs>
</svg>
