<svg width="63" height="63" viewBox="0 0 63 63" fill="none" xmlns="http://www.w3.org/2000/svg">
<path fill-rule="evenodd" clip-rule="evenodd" d="M37.7333 37.7333C32 43.4667 23.4667 43.6 23.0667 43.6C22.2667 43.6 21.7333 42.9333 21.7333 42.2667C21.7333 41.4667 22.4 40.9333 23.0667 40.9333C23.2 40.9333 30.8 40.8 35.7333 35.8667C40.6667 30.9333 40.8 23.3333 40.8 23.2C40.8 22.4 41.4667 21.8667 42.1333 21.8667C42.9333 21.8667 43.4667 22.5333 43.4667 23.2C43.6 23.6 43.6 32 37.7333 37.7333ZM19.0667 32.6667C19.0667 31.2 20.2667 30 21.7333 30C23.2 30 24.4 31.2 24.4 32.6667C24.4 34.1333 23.2 35.3333 21.7333 35.3333C20.2667 35.4667 19.0667 34.2667 19.0667 32.6667ZM10.9333 16.4C7.86667 16.4 5.46667 14 5.46667 10.9333C5.46667 7.86667 7.86667 5.46667 10.9333 5.46667C14 5.46667 16.4 7.86667 16.4 10.9333C16.4 13.8667 13.8667 16.4 10.9333 16.4ZM32.6667 19.0667C34.1333 19.0667 35.3333 20.2667 35.3333 21.7333C35.3333 23.2 34.1333 24.4 32.6667 24.4C31.2 24.4 30 23.2 30 21.7333C30 20.2667 31.2 19.0667 32.6667 19.0667ZM57.7333 28.5333L32 2.8C30.1333 0.933333 27.7333 0 25.2 0H5.46667C2.4 0 0 2.4 0 5.46667V25.2C0 27.7333 0.933333 30.1333 2.8 32L28.5333 57.7333C30 59.2 32 60 34.1333 60C36.2667 60 38.2667 59.2 39.7333 57.7333L57.7333 39.7333C59.2 38.2667 60 36.2667 60 34.1333C60 32 59.2 30 57.7333 28.5333Z" fill="white"/>
</svg>
