<svg width="63" height="48" viewBox="0 0 63 48" fill="none" xmlns="http://www.w3.org/2000/svg">
<g clip-path="url(#clip0_172_2143)">
<path fill-rule="evenodd" clip-rule="evenodd" d="M41.1604 23.5765C41.4404 23.8588 41.7204 24 42.0004 24C42.2804 24 42.7004 23.8588 42.8404 23.5765L52.3604 13.5529C53.7604 12 54.6004 10.0235 54.6004 7.90588C54.6004 3.52941 51.2404 0 47.0404 0C45.2204 0 43.4004 0.705882 42.0004 2.11765C40.6004 0.705882 38.9204 0 36.9604 0C32.7604 0 29.4004 3.52941 29.4004 8.04706C29.4004 10.1647 30.2404 12.1412 31.6404 13.6941L41.1604 23.5765Z" fill="white"/>
<path fill-rule="evenodd" clip-rule="evenodd" d="M12.18 20.6116L1.54 18.3527C1.12 18.2116 0.7 18.3527 0.42 18.6351C0.14 18.9175 0 19.341 0 19.6233V40.941C0 41.788 0.56 42.3527 1.26 42.3527H9.52C11.48 42.3527 13.16 40.941 13.44 38.9645L15.4 25.1292C15.68 22.8704 14.28 21.0351 12.18 20.6116Z" fill="white"/>
<path fill-rule="evenodd" clip-rule="evenodd" d="M55.0199 30.6354C53.3399 30.6354 50.5399 31.2001 48.0199 31.906C47.4599 32.0471 47.0399 32.6118 47.0399 33.3177C47.0399 33.3177 47.0399 33.3177 47.0399 33.4589C47.0399 35.4354 46.1999 37.2707 44.5199 38.4001C42.9799 39.5295 41.0199 40.0942 38.2199 40.0942C34.7199 40.0942 29.8199 39.106 23.3799 37.2707C22.6799 37.1295 22.2599 36.4236 22.3999 35.7177C22.5399 34.8707 23.3799 34.4471 24.0799 34.7295C30.2399 36.5648 34.9999 37.553 38.2199 37.553C41.0199 37.553 42.2799 36.8471 42.8399 36.4236C43.8199 35.7177 44.2399 34.7295 44.2399 33.6001C44.2399 33.3177 44.2399 33.1765 44.2399 32.8942C43.6799 29.2236 38.9199 27.953 34.0199 26.8236C31.7799 26.4001 29.9599 25.553 28.4199 24.706C26.3199 23.7177 24.4999 22.7295 21.8399 22.7295C20.8599 22.7295 19.7399 22.8707 18.6199 23.0118C17.9199 23.153 17.3599 23.7177 17.4999 24.4236C17.4999 24.9883 17.4999 25.4118 17.4999 25.8354L15.5399 39.5295C15.5399 39.6707 15.5399 39.8118 15.3999 39.953V40.2354C15.2599 40.8001 15.5399 41.506 16.0999 41.7883C22.3999 44.6118 30.7999 48.0001 35.1399 48.0001C40.3199 48.0001 50.8199 42.7766 57.8199 39.2471C59.6399 38.4001 61.1799 37.553 62.1599 37.1295C62.5799 36.9883 62.9999 36.4236 62.9999 36.0001C62.9999 32.8942 59.7799 30.6354 55.0199 30.6354Z" fill="white"/>
</g>
<defs>
<clipPath id="clip0_172_2143">
<rect width="63" height="48" fill="white"/>
</clipPath>
</defs>
</svg>
