<svg width="53" height="73" viewBox="0 0 53 73" fill="none" xmlns="http://www.w3.org/2000/svg">
<g clip-path="url(#clip0_173_2163)">
<path fill-rule="evenodd" clip-rule="evenodd" d="M39.6697 39.1878H30.8364C30.0333 39.1878 29.3909 38.5454 29.3909 37.7424C29.3909 36.9394 30.0333 36.2969 30.8364 36.2969H39.6697C40.4727 36.2969 41.1152 36.9394 41.1152 37.7424C41.2758 38.5454 40.6333 39.1878 39.6697 39.1878ZM39.6697 48.1818H30.8364C30.0333 48.1818 29.3909 47.5394 29.3909 46.7363C29.3909 45.9333 30.0333 45.2909 30.8364 45.2909H39.6697C40.4727 45.2909 41.1152 45.9333 41.1152 46.7363C41.2758 47.5394 40.6333 48.1818 39.6697 48.1818ZM35.3333 8.9939C36.9394 8.9939 38.2242 10.2788 38.2242 12.0454C38.2242 13.6515 36.9394 15.0969 35.3333 15.0969C33.7273 15.0969 32.4424 13.8121 32.4424 12.0454C32.4424 10.4394 33.7273 8.9939 35.3333 8.9939ZM26.5 46.7363C26.5 47.5394 25.8576 48.1818 25.0545 48.1818H13.1697C12.3667 48.1818 11.7242 47.5394 11.7242 46.7363V37.7424C11.7242 36.9394 12.3667 36.2969 13.1697 36.2969H24.8939C25.697 36.2969 26.3394 36.9394 26.3394 37.7424V46.7363H26.5ZM14.7758 12.0454C14.7758 10.4394 16.0606 8.9939 17.6667 8.9939C19.2727 8.9939 20.5576 10.2788 20.5576 12.0454C20.5576 13.6515 19.2727 15.0969 17.6667 15.0969C16.0606 15.0969 14.7758 13.6515 14.7758 12.0454ZM53 49.6272V31.6394C53 29.0697 51.0727 27.1424 48.503 27.1424C46.0939 27.1424 44.0061 29.2303 44.0061 31.6394V33.0848C44.0061 29.7121 41.4364 27.1424 38.0636 27.1424H35.3333V24.0909H38.2242C41.4364 24.0909 44.1667 21.3606 44.1667 18.1485V8.9939C44.1667 5.62117 41.597 2.89087 38.2242 2.89087H29.3909C29.3909 1.28481 28.1061 -0.160645 26.5 -0.160645C24.8939 -0.160645 23.6091 1.1242 23.6091 2.89087H14.7758C11.5636 2.89087 8.83333 5.62117 8.83333 8.9939V17.9878C8.83333 21.3606 11.403 23.9303 14.7758 23.9303H17.6667V26.9818H14.7758C11.5636 26.9818 8.83333 29.7121 8.83333 32.9242V31.4788C8.83333 28.9091 6.90606 26.9818 4.33636 26.9818C1.76667 26.9818 0 29.0697 0 31.6394V49.6272C0 50.9121 0.481818 52.0363 1.44545 52.8394C0.481818 54.4454 0 56.6939 0 58.7818C0 59.5848 0.642424 60.2272 1.44545 60.2272C2.24848 60.2272 2.89091 59.5848 2.89091 58.7818C2.89091 57.0151 3.53333 54.2848 4.33636 54.2848C5.3 54.2848 5.78182 57.0151 5.78182 58.7818C5.78182 59.5848 6.42424 60.2272 7.22727 60.2272C8.0303 60.2272 8.67273 59.5848 8.67273 58.7818C8.67273 56.6939 8.19091 54.606 7.22727 53C8.0303 52.1969 8.67273 51.0727 8.67273 49.7878V51.2333C8.67273 53.4818 9.79697 55.4091 11.5636 56.3727V61.8333C9.79697 63.2788 8.67273 65.3666 8.67273 67.7757V70.8272C8.67273 71.6303 9.31515 72.2727 10.1182 72.2727H21.8424C22.6455 72.2727 23.2879 71.6303 23.2879 70.8272V67.7757C23.2879 65.3666 22.1636 63.1182 20.397 61.8333V57.3363H32.1212V61.8333C30.3545 63.2788 29.2303 65.3666 29.2303 67.7757V70.8272C29.2303 71.6303 29.8727 72.2727 30.6758 72.2727H42.4C43.203 72.2727 43.8455 71.6303 43.8455 70.8272V67.7757C43.8455 65.3666 42.7212 63.1182 40.9545 61.8333V56.3727C42.7212 55.2485 43.8455 53.4818 43.8455 51.2333V49.7878C43.8455 51.0727 44.3273 52.1969 45.2909 53C44.3273 54.4454 43.8455 56.6939 43.8455 58.7818C43.8455 59.5848 44.4879 60.2272 45.2909 60.2272C46.0939 60.2272 46.7364 59.5848 46.7364 58.7818C46.7364 57.0151 47.3788 54.2848 48.1818 54.2848C49.1455 54.2848 49.6273 57.0151 49.6273 58.7818C49.6273 59.5848 50.2697 60.2272 51.0727 60.2272C51.8758 60.2272 52.5182 59.5848 52.5182 58.7818C52.5182 56.6939 52.0364 54.606 51.0727 53C52.5182 52.1969 53 50.9121 53 49.6272Z" fill="white"/>
</g>
<defs>
<clipPath id="clip0_173_2163">
<rect width="53" height="72.2727" fill="white"/>
</clipPath>
</defs>
</svg>
