<svg width="60" height="66" viewBox="0 0 60 66" fill="none" xmlns="http://www.w3.org/2000/svg">
<g clip-path="url(#clip0_172_2149)">
<path fill-rule="evenodd" clip-rule="evenodd" d="M18.665 13.962L16.1666 8.81813C15.2848 6.90753 13.2272 5.73178 11.1696 5.73178C8.08328 5.73178 5.58481 8.23025 5.58481 11.6105C5.58481 12.4923 5.73178 13.3742 6.17269 14.109L8.67116 19.1059C5.14391 17.9302 2.79241 14.8438 2.79241 11.1696C2.79241 6.61359 6.46663 2.93938 11.0227 2.93938C15.5787 2.93938 19.2529 6.61359 19.2529 11.1696C19.1059 12.0514 18.959 13.0802 18.665 13.962ZM59.0814 42.9149L51.733 28.218C50.7042 26.1604 48.7936 24.8377 46.5891 24.5438L32.0392 22.1923C29.0998 21.7514 26.0135 23.2211 24.5438 25.8665L20.1347 16.9014C21.3105 15.1378 21.8983 13.0802 21.8983 11.0227C21.8983 4.99694 17.0484 0 11.0227 0C4.84997 0.146969 0 5.14391 0 11.1696C0 16.9014 4.40906 21.6044 9.99388 22.0453L22.7802 47.6179C23.0741 48.2057 22.7802 48.7936 22.7802 48.9406C22.6332 49.0876 22.3393 49.5285 21.6044 49.5285H10.1408C7.49541 49.5285 5.43784 51.586 5.43784 54.2315C5.43784 54.9663 5.58481 55.7012 5.87875 56.289L6.90753 58.3466C7.0545 58.6405 7.34844 58.9345 7.78934 59.0814L27.0423 65.1072C28.8059 65.695 30.7165 65.989 32.6271 65.989C35.5664 65.989 38.5058 65.2541 41.1513 63.9314L53.9375 57.4648C57.6118 55.5542 59.9633 51.733 59.9633 47.6179C60.1102 46.1482 59.8163 44.3846 59.0814 42.9149Z" fill="white"/>
</g>
<defs>
<clipPath id="clip0_172_2149">
<rect width="60" height="65.868" fill="white"/>
</clipPath>
</defs>
</svg>
