<svg width="63" height="42" viewBox="0 0 63 42" fill="none" xmlns="http://www.w3.org/2000/svg">
<g clip-path="url(#clip0_173_2155)">
<path fill-rule="evenodd" clip-rule="evenodd" d="M52.5 34.16H38.08C37.8 34.16 37.38 34.3 37.1 34.58L36.12 35.56H26.74L25.76 34.58C25.48 34.3 25.2 34.16 24.78 34.16H10.5V5.32H52.5V34.16ZM61.74 34.16H57.82V5.32C57.82 2.38 55.44 0 52.64 0H10.64C7.56 0 5.18 2.38 5.18 5.32V34.16H1.26C0.56 34.16 0 34.72 0 35.42V36.68C0 39.62 2.38 42 5.32 42H57.82C60.76 42 63 39.62 63 36.68V35.42C63 34.72 62.44 34.16 61.74 34.16Z" fill="white"/>
<path fill-rule="evenodd" clip-rule="evenodd" d="M16.8004 32.1998H22.4004C23.2404 32.1998 23.8004 31.6398 23.8004 30.7998V25.1998C23.8004 24.3598 23.2404 23.7998 22.4004 23.7998H16.8004C15.9604 23.7998 15.4004 24.3598 15.4004 25.1998V30.7998C15.4004 31.6398 15.9604 32.1998 16.8004 32.1998Z" fill="white"/>
<path fill-rule="evenodd" clip-rule="evenodd" d="M33.8796 21H29.2596C28.5596 21 28.1396 21.56 28.1396 22.4V30.8C28.1396 31.64 28.6996 32.2 29.2596 32.2H33.8796C34.5796 32.2 34.9996 31.64 34.9996 30.8V22.4C34.9996 21.56 34.4396 21 33.8796 21Z" fill="white"/>
<path fill-rule="evenodd" clip-rule="evenodd" d="M46.2002 18.2002H40.6002C39.7602 18.2002 39.2002 18.7602 39.2002 19.6002V30.8002C39.2002 31.6402 39.7602 32.2002 40.6002 32.2002H46.2002C47.0402 32.2002 47.6002 31.6402 47.6002 30.8002V19.6002C47.6002 18.7602 47.0402 18.2002 46.2002 18.2002Z" fill="white"/>
<path fill-rule="evenodd" clip-rule="evenodd" d="M18.0599 18.48C18.3399 18.48 18.4799 18.34 18.7599 18.34L21.1399 20.58C21.4199 20.86 21.6999 21 22.1199 21C22.3999 21 22.6799 20.86 22.9599 20.72L30.5199 15.68C30.7999 15.82 31.2199 15.96 31.6399 15.96C32.0599 15.96 32.4799 15.82 32.8999 15.68L37.6599 18.34C38.2199 18.62 38.9199 18.62 39.3399 18.2L44.3799 13.44C44.6599 13.44 44.7999 13.58 45.0799 13.58C46.6199 13.58 47.7399 12.46 47.7399 11.06C47.7399 9.66004 46.4799 8.54004 45.0799 8.54004C43.5399 8.54004 42.4199 9.66004 42.4199 11.06C42.4199 11.34 42.5599 11.48 42.5599 11.62L38.2199 15.68L34.4399 13.58C34.4399 12.18 33.1799 11.06 31.7799 11.06C30.2399 11.06 29.1199 12.18 29.1199 13.58C29.1199 13.72 29.1199 13.72 29.1199 13.86L22.5399 18.34L20.8599 16.8C20.8599 16.66 20.9999 16.38 20.9999 16.24C20.9999 14.84 19.7399 13.72 18.3399 13.72C16.7999 13.72 15.6799 14.84 15.6799 16.24C15.3999 17.36 16.6599 18.48 18.0599 18.48Z" fill="white"/>
</g>
<defs>
<clipPath id="clip0_173_2155">
<rect width="63" height="42" fill="white"/>
</clipPath>
</defs>
</svg>
